<?xml version="1.0" encoding="utf-8" ?>
<svg baseProfile="full" height="300mm" version="1.1" viewBox="0,0,200,300" width="200mm" xmlns="http://www.w3.org/2000/svg" xmlns:ev="http://www.w3.org/2001/xml-events" xmlns:xlink="http://www.w3.org/1999/xlink"><defs /><rect fill="#222222" height="300" width="200" x="0" y="0" /><text fill="#FFFFFF" style="font-size:12px; font-family:Arial; font-weight:bold;" x="10" y="20">Over 10km Runs</text><text fill="#FFFFFF" style="font-size:4px; font-family:Arial" x="10" y="280">Runner</text><text fill="#FFFFFF" style="font-size:9px; font-family:Arial" x="10" y="290">WangQ</text><text fill="#FFFFFF" style="font-size:4px; font-family:Arial" x="65" y="280">SPECIAL TRACKS</text><rect fill="yellow" height="2.6" width="2.6" x="65" y="283" /><text fill="#FFFFFF" style="font-size:3px; font-family:Arial" x="70" y="285.5">Over 20.0 km</text><rect fill="red" height="2.6" width="2.6" x="65" y="287" /><text fill="#FFFFFF" style="font-size:3px; font-family:Arial" x="70" y="289.5">Over 40.0 km</text><text fill="#FFFFFF" style="font-size:4px; font-family:Arial" x="120" y="280">STATISTICS</text><text fill="#FFFFFF" style="font-size:3px; font-family:Arial" x="120" y="285">Number: 12</text><text fill="#FFFFFF" style="font-size:3px; font-family:Arial" x="120" y="290">Weekly: 1.2</text><text fill="#FFFFFF" style="font-size:3px; font-family:Arial" x="141" y="285">Total: 145.0 km</text><text fill="#FFFFFF" style="font-size:3px; font-family:Arial" x="141" y="290">Avg: 12.1 km</text><text fill="#FFFFFF" style="font-size:3px; font-family:Arial" x="167" y="285">Min: 10.1 km</text><text fill="#FFFFFF" style="font-size:3px; font-family:Arial" x="167" y="290">Max: 21.3 km</text><polyline fill="none" points="13.0,42.65496544008056 15.384858044155408,45.16125913088763 15.83577658192371,45.87190289656428 15.991092967160512,46.28960639005527 16.07626646873541,47.00023944673012 16.081276674725814,49.045306110238016 16.16143997031031,49.44129399719532 16.121358322532615,52.375878707214724 16.176470588252414,52.6633641870867 16.12636852846481,53.67226676439168 15.790684728155611,54.80590990206838 15.660419372812612,56.910426806265605 16.106327704590512,57.40942730055394 18.115420300600817,59.280649563756015 18.16051215439802,59.39454854095675 18.085359064745717,59.49217609794141 18.33586936350912,59.774210548253905 19.954165893490426,61.23860313471232 21.17164594543283,61.7809634997102 21.777880868437933,61.81892857832281 22.70977917982964,61.69418610499997 23.13564668770414,61.73215122754482 23.75691222862224,62.399249529626104 24.237892002245644,63.24531688664865 24.463351271115243,63.30497512198781 25.410280200390844,64.24865362136916 25.530525143811246,64.01002339864499 25.505474113946548,64.05341076836339 26.717943959927652,64.94284631482151 27.02356652438175,65.3062102404001 27.479495268140454,65.4417933436489 28.351271107792854,65.31705689767841 28.521618110971758,65.42010006360215 28.576730376691557,65.63160927638091 29.488587864179863,65.63703258168243 29.583781777706463,65.95158361819631 29.658934867329663,66.83015021398751 29.759138986846665,67.03623224618059 30.144924846914364,67.13927304991375 30.951568008895265,67.04707865323871 31.322323251049966,67.04165544989519 31.407496752624866,67.11215706265648 31.87344590833527,69.66644002963585 32.04379291148507,70.24670025662635 32.06884394134977,70.79441840908112 32.25422156244167,71.06014161665371 32.31935424011317,71.54277932115656 32.43458897754317,71.79765415952716 32.40953794767847,72.0687966540645 32.60994618668337,73.24012097079685 32.79532380774617,73.82035355890548 33.10094637225848,74.4385403517299 33.141028020036174,74.81812620969868 33.381517906847876,75.1977101476441 33.396548524760874,75.45799516685656 33.73724253108958,75.44714997574192 36.23232510671369,74.64460148430226 36.28743737243349,74.74763183839968 36.45778437558329,74.74763183839968 36.41269252181519,74.77474506596627 36.83856002968969,75.41461439301202 36.82853961773799,75.67489865993412 37.37465206903289,75.34412058202724 37.66023380961269,75.79419531390886 38.226387084810995,76.12497140810592 38.6672852106276,76.16292922729917 39.448877342714695,76.00025272413768 39.6342549638066,76.34187297353492 39.4438671367534,76.4611685673226 39.393765076994896,76.67264665394032 39.4388569307921,77.16067073347949 39.5490814622317,77.34503455992672 39.6142141399032,77.2853874891589 39.4839487845602,77.20405049809051 39.42382631285,76.52081629311579 39.649285581719596,76.30933777867904 39.4939691965119,75.96771738117968 41.55316385230981,74.4493856886038 41.437929114850704,73.96134397750575 41.65336797179771,73.3323077565583 41.733531267382205,72.76833976476337 41.66338838374941,72.43212606049929 41.33271478940151,71.68377401959879 41.277602523652604,70.98964371455077 41.48302096864791,70.26839214069332 42.09927630357561,69.27055898123217 42.27463351271581,68.52759849697759 42.15438856932451,67.99613319761556 41.763592503237305,66.94946093323233 41.76860270922771,66.54271906547365 41.95899053628091,65.89192748852656 42.43997030990431,65.31705689767841 42.66542957877391,64.8072623094049 42.67544999069651,64.30831105839025 42.56021525329561,63.93409544124006 42.37483763220371,63.6249593922912 41.96901094823261,63.23989340836124 41.888847652619006,62.84940194020601 41.97903136018431,62.43721429512516 42.45500092781731,61.85689363769052 42.54518463538261,61.61283220622863 42.51512339952751,61.19521413599432 42.23455186490901,60.75589910958661 42.19447021710221,60.54437614159542 42.29467433661921,60.28403936159884 42.66542957877391,59.953193399000156 42.79068472812651,59.65488841033948 42.77064390425221,59.37285351101309 42.42493969196221,58.591828251155675 42.39988866209751,58.27724633333855 42.53015401744051,57.76740386923484 43.111337910580914,57.63180688529974 43.857858600851614,57.794523236574605 44.088328075711615,57.642654653056525 44.193542401189916,57.45281849085586 44.39896084618522,57.3931555977033 45.32584895158652,57.566720245886245 46.332900352572324,58.125378728000214 46.62850250513293,57.95181537364988 46.894043421780225,57.97351081492525 47.149563926504925,58.22843177946197 48.667656336998334,57.805370980764565 50.401187604351435,57.76740386923484 50.76693264057394,57.85960967816209 51.10261644091224,58.136226424292545 51.35813694563694,58.19046488224558 51.57357580255484,58.130802576350106 52.07459640005254,57.76740386923484 54.294117647077655,57.75113224411325 54.77008721471066,57.8758812797314 55.47151605121326,58.38572300587839 55.95249582483666,58.49962334306474 56.34329189086566,58.48335187693738 56.71404713302036,58.36945151499822 57.75115976991947,57.799947108869674 58.156986453861464,57.72401286106469 60.115976990171475,57.539600796102604 60.722211913147476,57.76740386923484 60.96270179995918,57.761979994575086 61.158099832973676,57.66977406553633 61.53386528111878,57.20874271858338 63.13713119318709,56.601261789481214 64.81053998885909,57.197894888042356 66.9649285581836,56.031743945866765 67.0,55.831055674367235 66.7544999071979,55.321196567223524" stroke="yellow" stroke-linecap="round" stroke-linejoin="round" stroke-width="0.5"><title>2021-10-31 21.3km</title><desc>1635638277160</desc></polyline><polyline fill="none" points="116.80666231224313,50.49087629537098 116.31286740698852,49.00140111512155 109.22338340955321,41.97407680322067 106.1548007838428,44.18922175638727 101.56956237752456,41.43938524686382 100.5114304375602,43.348995456675766 99.10058785113506,42.69972876194515 92.61071195290424,41.897692328406265 92.54016982368194,38.574956954369554 91.9758327890886,37.543758956715465 81.07707380806096,36.97087030814146 80.68909209675621,47.3973462121794 81.07707380806096,48.199374274059664 82.20574787736405,48.54310021258425 91.94056172436103,48.695867224392714 92.43435662973206,48.046607118303655 92.54016982368194,38.34580201830249 91.7994774656836,37.467373839608626 90.52971913781948,37.238218421669444 82.02939255395904,36.97087030814146 81.11234487267211,37.390988711384125 80.9359895492671,39.60615293373121 80.97126061399467,48.08479891138268 92.6459830176318,48.963209388486575 92.04637491842732,53.966302009212086 92.36381450039335,57.67085143231088 91.87001959502231,66.79844454818522 89.96538210322615,68.74615315665142 88.83670803403948,68.70796286099358 86.89679947751574,69.89186074043391 86.93207054224331,72.22145848002401 86.26192031346727,73.59629821585258 86.7557152188383,74.16914704741794 84.85107772692572,76.00225912415772 82.59372958855238,73.63448815737502 80.44219464401249,72.64154877979308 78.53755715209991,72.45059868498356 75.25734813848976,73.63448815737502 73.17635532328859,76.42234641045798 73.10581319394987,80.66139029129408 73.10581319394987,76.95700247248169 75.01045068574604,73.9018176701793 77.58523840620182,72.79430880583823 79.98367080348544,72.67973879043711 82.48791639460251,73.74905796523672 84.88634879165329,76.84243336197687 85.94448073150124,77.3770889978332 93.5983017636463,79.09562129696133 99.1358589156298,81.69250391825335 102.41606792958919,81.2724208321888 103.01567602879368,82.45629048964474 101.25212279544212,82.79999408562435 100.79359895503148,81.84526132102474 101.9575440887129,80.62320085894316 100.86414108425379,81.76888262518332 101.14630960149225,82.72361552814255 102.59242325276136,82.76180480828043 103.86218158062547,81.65431456058286 102.76877857604995,82.6090476710815 101.2873938602861,82.64723695951398 100.79359895503148,82.15077599382494 101.0404964076588,81.46336773104849 102.45133899408393,80.77595857161214 100.40561724372674,79.36294803986675 95.50293925544247,79.5538956305245 88.94252122787293,76.76605394118815 90.38863487914205,75.73493067672825 93.63357282825746,75.31484284246108 94.33899412152823,74.85656482333434 93.80992815142963,74.3219066306483 90.38863487914205,73.67267809610348 86.7557152188383,74.01638741989154 86.19137818424497,73.13801870238967 84.00457217509393,73.3671585090051 79.20770738075953,72.06869828791241 76.35075114306528,73.09982872492401 73.98758981062565,75.00932420726167 73.03527106472757,77.45346833008807 73.0,80.16492745521828 73.63487916393206,75.96406935423147 75.61005878506694,73.67267809610348 78.99608099274337,72.67973879043711 80.9359895492671,72.90887879626825 82.59372958855238,73.78724789558328 86.19137818424497,77.75898554862943 93.66884389286861,79.05743175125099 98.07772697589826,81.19604205331416 100.15871979098301,83.02912969182944 102.5571521880338,82.83818336031982 105.83736120176036,80.0121695654525 107.10711952974088,78.5227778198896 106.86022207711358,77.87355445980211 107.31874591775704,77.18614061869448 115.1136512082303,69.28081700578332 127.0,58.47286385734333 123.04964075773023,54.23364149930421" stroke="#4DD2FF" stroke-linecap="round" stroke-linejoin="round" stroke-width="0.5"><title>2021-10-30 10.1km</title><desc>1635553078459</desc></polyline><polyline fill="none" points="187.0,83.48107531332062 185.06285714285332,81.63410543511418 183.8028571428731,80.17692949323828 182.95428571428056,79.41585011507414 182.68000000002212,78.97961965117429 182.3457142856787,79.13740530969517 181.98571428572177,78.92393054877175 179.48285714286612,76.13944454144803 178.54000000000815,75.3783411590266 177.01428571427823,73.7261743395502 175.377142857149,72.20393434802827 173.82571428571828,71.00654992532509 172.0685714285646,69.3079155944506 171.48571428572177,69.05729550574324 170.91142857141676,68.22189166499447 170.49142857143306,68.09193946626328 170.22571428568335,67.67423507638159 168.19428571430035,66.13335820083739 168.05714285714203,65.82703709272027 167.19999999998254,65.2143926763747 167.14000000001397,65.02874227405118 162.97428571427008,61.575595683163556 159.271428571461,57.96454430058657 155.8514285714482,55.00322042401967 155.38000000000466,54.316257751270314 154.1542857142922,53.332223709789105 153.87142857143772,53.25795668234787 155.40571428573458,54.33482435850601 155.51714285716298,54.62260642609908 156.21142857143423,55.272434519014496 154.38571428574505,57.398277638967556 153.83714285714086,57.91812909479631 153.66571428571478,57.93669517913804 152.68857142855995,57.184766607497295 152.35428571430384,57.29616371187876 149.48285714286612,54.85468826691795 145.1114285714284,51.63335466520948 144.03142857147031,50.630732834280934 142.28285714285448,49.48884839514358 141.23714285716414,50.53789708187833 141.2285714285681,50.38935973781918 140.82571428574738,50.61216568918462 140.36285714289988,50.640016405814094 139.40285714287893,49.33102616641554 135.70857142860768,42.60947510335245 133.0,36.51892468667211 135.50285714285565,42.18240328715183 138.76000000003842,48.21698136343184 140.08857142858324,50.37079255768913 138.47714285715483,47.715658034903754 135.22000000000116,41.80175111772405 134.71428571431898,40.344121351939975 133.00857142859604,36.62105521166086 134.4314285714354,39.61994242043875 134.92857142857974,41.09614897587744 138.65714285714785,48.00345500090043 140.1485714285809,50.48219559808058" stroke="#4DD2FF" stroke-linecap="round" stroke-linejoin="round" stroke-width="0.5"><title>2021-10-16 15.8km</title><desc>1634339943415</desc></polyline><polyline fill="none" points="67.0,143.73154271205567 65.2425015954068,142.04306427351548 65.0615826419671,142.03373560182808 64.05360561580164,142.798684434827 63.53669432035531,143.01324243731506 63.269623484346084,142.96659942373662 62.80440331844147,142.50949699589546 62.589023612003075,142.07105028453952 62.01180599871441,141.93112016860687 61.89119336308795,141.69790297061263 61.701659221434966,141.9031341271766 61.48627951499657,141.72588905669545 60.92629227825091,141.65125948029163 60.80567964265356,141.52065761747508 60.92629227825091,141.3713981833862 60.9004467134946,140.53181064088858 58.38481174217304,140.4291940100229 57.60082961071748,140.12134362648067 50.398532227176474,132.23825713629049 46.625079770281445,129.11287610988802 43.77345245692413,127.12565405179339 43.273771537991706,126.59385702543659 42.70516911300365,126.29530334506853 41.65411614550976,125.1943806584386 40.70644543715753,124.39200733889447 40.439374601177406,124.30803774861852 39.32801531589939,123.12312768425181 38.36311423103325,122.44203270530124 38.10465858329553,122.05949832672923 36.45915762605728,120.83724670910306 35.925015954097034,120.33341441607627 35.821633694984484,120.07216726458137 31.798340778594138,116.51728719311359 28.61072112317197,113.89538351929514 25.8452456924133,111.91725709411548 25.15603063176968,111.08680815307889 22.252712188928854,109.21128012499685 21.17581365670776,110.33100164345524 21.167198468465358,110.08839614241151 20.934588385454845,109.98575521562452 20.701978302531643,109.59385274108354 20.64167198468931,109.1273006178235 19.668155711580766,107.65298477440956 20.426292278280016,108.08221771480021 21.124122527136933,108.81937528854905 21.0552010210522,109.27659748154838 20.80536056161509,109.61251479078783 20.925973197212443,109.94843122192833 21.15858328016475,110.08839614241151 20.710593490774045,110.42431132961065 20.357370772224385,110.38698746328737 19.76292278242181,109.63117683775636 16.39438417358906,103.64985200155206 14.955647734575905,100.85971600035555 14.516273133427603,99.52528170721052 13.0,96.2684572879516 13.57721761331777,97.61225731384184 13.465220165962819,97.59359352089086 13.620293554587988,97.66824867647665 14.180280791333644,98.85339345916145 15.360561582667287,101.7462206292912 19.10816847483511,108.46479369231383" stroke="#4DD2FF" stroke-linecap="round" stroke-linejoin="round" stroke-width="0.5"><title>2021-10-07 11.8km</title><desc>1633562356347</desc></polyline><polyline fill="none" points="100.03859827318229,93.0 99.6245440695202,93.31924868074566 98.64204256923404,95.05229595736455 97.74375548327225,97.8798378137144 97.72270187971299,98.19907161252195 96.99284362234175,99.87883342272835 96.17877095067524,100.98092494706361 94.55764347524382,102.59983835885214 94.24183942159289,103.32948129205033 94.15060713942512,103.96031431376468 94.22078581800452,106.0579967957965 94.47342906091944,108.2012376808052 95.94718131131958,111.0284245406001 96.57177155080717,112.49518766471738 96.60686089011142,114.8814837937025 96.74721824729932,116.12020844739163 96.62791449369979,118.73440137977741 96.70511104015168,119.03837307045615 96.6910753044067,120.87738299995544 97.09109377238201,121.88806480182393 98.16482755483594,123.27868624140683 98.43852440131013,123.90939917477226 98.60695322995889,124.82886544887151 98.57888175852713,125.67993448371271 97.76480908686062,128.78779755776486 97.61041599398595,129.95037303151184 97.71568401181139,130.04915336009435 97.72270187971299,130.29230454180652 97.49813010820071,131.43206819190527 97.14723671527463,132.35906682753557 95.09100143253454,136.0821755459183 94.92959047178738,136.53805732934416 94.34008957160404,145.41216152298148 94.72607230386348,146.1567012157393 95.35768041116535,146.46059345028334 95.7296274077089,146.39221777420607 96.01735998992808,145.96676812239457 96.30509257217636,145.88319745243643 97.52620157966157,146.05793605007784 99.10522184794536,146.9012356277599 99.5543653909408,146.64292836874665 99.83508010528749,146.67331749101868 100.13684842322255,147.0 102.43870908100507,146.44539885946142 104.51599796730443,146.39221777420607 105.15462394244969,146.490982625357 105.84939286054578,146.93162467527145" stroke="#4DD2FF" stroke-linecap="round" stroke-linejoin="round" stroke-width="0.5"><title>2021-09-24 10.1km</title><desc>1632476713364</desc></polyline><polyline fill="none" points="164.33510389283765,93.0 164.0099711008952,93.32867874244403 162.55771129677305,95.96982294599002 161.1379647718859,100.87636741275492 160.15172863623593,103.17699248708959 158.91622402676148,104.86722678488877 156.33683721057605,107.42602009022085 155.66489610716235,109.31574511813233 156.18510857434012,116.18195144440688 156.8462119179312,117.27347534488945 156.83537415822502,117.67252525503864 158.34182276099455,120.39542778168106 159.37140993552748,122.75445714629313 159.67486720805755,128.27046123646141 159.37140993552748,133.51635879056994 159.44727425364545,134.63123681220168 159.67486720805755,134.84247599316586 159.46894977311604,135.42925004950666 159.51230081205722,136.13337610964663 159.69654272752814,136.82576374904602 161.5714751611813,139.05546653294004 162.17838970612502,140.2172468676872 162.48184697865508,141.27340357439243 162.50352249818388,143.32702189443808 161.51728636247572,147.0 162.50352249818388,143.38569632086728 162.50352249818388,141.35554880727432 162.27592954377178,140.39327346388018 161.61482620012248,139.06720172951464 160.2492684738245,137.35385402572865 159.7615692859399,136.40329028737324 159.5556518509984,135.124127805655 159.5664896107046,133.56330117789912 159.7615692859399,131.80295233592915 159.85910912352847,127.66018918289046 159.5664896107046,122.75445714629313 159.1329792214674,121.26393015506619 157.9625011703465,119.08092883515928 156.69448328169528,117.16784432153509 156.4235392884002,116.26410941364884 155.7841114642215,112.90733555192128 155.67573386686854,109.45659330431954 155.91416458098684,108.34154180531914 156.4668903273414,107.27343263381044 157.86496133275796,106.04099020830472 160.34680831147125,103.03613883140497 160.57440126582514,101.88582938404579 161.25718012894504,100.35989606005023 162.56854905653745,96.11068275808066 163.44640759483445,94.4203569120873" stroke="#4DD2FF" stroke-linecap="round" stroke-linejoin="round" stroke-width="0.5"><title>2021-09-19 10.9km</title><desc>1632006645312</desc></polyline><polyline fill="none" points="27.176458232628647,153.76698321463482 31.279457005439326,157.70315260066127 31.86750894691795,158.5569438081002 35.6096576647833,162.3917237060523 36.7055726465187,163.98349750963098 37.30698940472212,165.50290612436947 37.507461657514796,166.67501344410994 37.69456909340806,175.76222942891764 37.94850061356556,176.28314011178736 37.64110982592683,177.3538966949418 37.8014876281959,182.91016303969081 37.61438019230263,185.31204285108834 36.89268008241197,187.5836737017671 36.745667097042315,188.85693320531573 36.865950448671356,189.3054658711626 38.26925621792907,190.11571587745857 42.652916144696064,191.40342787938425 43.0404958333238,191.99664072964515 42.773199496325105,195.70056408050004 40.661558434017934,198.08782205772877 47.00984643766424,204.04860843953793 50.16394321422558,206.01620765321422 51.25985819590278,206.2621561936685 52.71662323252531,206.16088330185448 53.064108470629435,206.69618229180924 51.994923122634646,206.92766249229317 50.00356541201472,206.27662374543434 49.89664687728509,207.0 49.86991724348627,206.30555884588102 48.386422573181335,205.53877727001964 46.18122779298574,203.9907375813491 44.590814587892964,202.4860893892619 43.38798107136972,200.98142987446045 42.612821694114245,200.6197311875876 41.222880741755944,199.3754827076773 30.86514768312918,189.3778097552713 32.0278867490706,185.29757378200884 32.0145219322294,183.93747661255475 31.78732004581252,183.06932464317651 31.987792298546992,182.6497165060282 31.73386077833129,181.18831577101082 31.85414413001854,180.73976488690823 31.520023708813824,178.65616048169613 31.97442748170579,177.74457672220888 32.468925705121364,177.62881975671917 32.45556088828016,176.8908675253624 32.92332947801333,175.90692697705526 32.92332947801333,168.65745091077406 32.388736804015934,165.30031897692243 31.800684862595517,164.2729095654795 28.432751016516704,160.1342772848875 27.85806389193749,158.2241103817214 26.935891529312357,156.99406899257156 28.659952902933583,155.1851708323229 26.98935079673538,153.37625628476962 27.323471217940096,153.0" stroke="#4DD2FF" stroke-linecap="round" stroke-linejoin="round" stroke-width="0.5"><title>2021-09-11 10.8km</title><desc>1631367004166</desc></polyline><polyline fill="none" points="99.23181720869616,153.0 101.55510174809024,155.3533349733334 101.49889325117692,155.59678228966368 104.47794358804822,158.21382756867388 105.8644198452821,160.1208063938975 110.96065689949319,165.3953610243916 110.37983576464467,166.20682214784028 103.87838628748432,172.13041710552352 103.46619064337574,172.2318474347412 100.35598714719526,175.295026069929 100.58082113484852,180.3258692711097 100.31851481588092,182.31383885108517 100.41219564410858,186.00574492220767 100.9180721163284,193.42998014426848 101.46142091986258,194.28192897826375 103.5598714716034,196.0466718927928 103.85965012188535,197.70998262458306 102.5668546926463,196.77690708856971 101.03048911015503,196.51321126525 102.641799355275,197.9939615187177 103.42871831206139,198.0953824826138 104.57162441615947,198.98788538156077 105.32107104186434,198.92703300149878 104.83393073512707,198.11566667097213 105.50843269820325,198.54163428742322 104.36552659422159,197.6896984068735 104.90887539775576,197.48685614869464 105.50843269820325,197.6491299669433 105.9393645079108,198.13595085784618 105.50843269820325,200.46862255626183 104.98382006026804,202.01020362932468 104.08448410953861,201.9899197228806 101.87361656397115,200.4483385382482 100.29977865028195,198.86618060819455 96.79611567547545,196.87832849305414 95.39090325252619,195.31643479363993 95.16606926475652,195.25558161610388 94.54777579871006,195.98581887393084 94.51030346739572,195.01216877390107 92.82404855976347,193.95737734701834 92.24322742491495,194.5050580066454 91.66240629006643,196.22923087015806 89.03934310050681,200.34691842613393 86.80973938922398,203.04468090976297 86.7347947267117,203.81546542003343 86.7347947267117,203.28808677362395 87.69033917435445,202.17247482782113 88.02759015595075,202.82155868207337 88.0463263214333,202.23332650301745 88.49599429685622,202.33474593234132 90.53823635168374,200.40777049784083 91.0253766583046,199.5355562074401 91.21273831475992,198.03452990870574 91.60619779315311,198.46049764852796 91.98092110606376,198.39964515389875 92.50553374388255,197.3245822363824 92.84278472536243,195.13387522142148 92.58047840651125,195.17444402554247 92.88025705667678,195.8843971463357 93.5922313509509,194.72818685730454 92.84278472536243,194.05879977215955 92.16828276228625,194.5456269018032 88.94566227227915,200.50919058790896 86.95962871436495,202.96354557479208 89.67637273226865,199.75868105178233 91.26894681167323,200.9757225295616 92.43058908125386,202.37531369380304 93.64843984798063,205.43816272183903 95.1098607678432,207.0 96.42139236268122,205.4990136878332 96.51507319090888,204.9310708244302 97.63924312929157,203.43007342991768 99.62527668720577,199.59640845535614 104.08448410953861,203.06496473983862 104.27184576599393,203.59234380615817 103.89712245308328,204.44426173964166 105.71453052037396,199.63697661324113 106.0705176674528,197.73026684085198 106.0705176674528,195.11359081718547 106.31408782070503,194.97159994630783 105.60211352643091,191.8680672195478 105.15244555100799,187.9936741894926 105.50843269820325,187.46626575890696 108.5811638631858,186.2694506366679 110.08005711447913,186.5331561027706 111.37285254360177,186.24916559047415 112.17850766610354,186.87800133784185 113.17152444506064,186.9388563352113 113.2652052732883,180.75186394040065 113.1902606106596,180.5084384944348 113.04037128551863,181.09671629338118" stroke="#4DD2FF" stroke-linecap="round" stroke-linejoin="round" stroke-width="0.5"><title>2021-09-05 10.5km</title><desc>1630850300161</desc></polyline><polyline fill="none" points="162.9644144004269,153.0 162.52987912186654,153.5823301950877 162.07324882913963,154.4279000510869 162.02169379606494,154.83472851174156 161.7123635977914,155.2814403801749 160.89484807365807,157.68248555326136 160.7843730028544,158.392419091404 160.04050752599142,160.0595483554207 159.2598170254787,161.10448251081834 157.52167591120815,162.83538211309497 157.0355855995731,164.03184055758902 157.14606067037676,166.56031322381023 157.38910582620883,168.7776640984739 159.3997521151905,172.65393265969033 159.56914722378133,173.26806143431895 159.77536735596368,177.02454071612738 159.56914722378133,181.52257640963944 159.65752728044754,181.53852656355593 159.68698729932657,182.35198134662642 159.84165239846334,182.8065563997443 160.96113311618683,184.1303958545759 161.3441133617016,184.77635992643627 161.69763358833734,185.8609330487743 161.763918630837,186.64245705393114 160.81383302173344,190.5898659362283 160.76227798868786,192.24853287797305 160.5118678281433,193.36492924620688 157.85310112367733,198.5639974830774 157.3596458073298,207.0 157.4480258639669,204.89504664037668 157.55850093479967,204.3608285922819 157.51431090646656,203.2365702056777 157.6763410103449,202.19203617192397 157.88992614726885,198.42046821975964 160.3719327384315,193.7716136810559 160.72545296506723,192.2006870663099 160.62234289897606,192.08107244611892 160.79910301227937,191.32351016641041 160.80646801699186,190.51012170349713 160.98322813035338,190.0476040142603" stroke="#4DD2FF" stroke-linecap="round" stroke-linejoin="round" stroke-width="0.5"><title>2021-09-04 10.5km</title><desc>1630710558162</desc></polyline><polyline fill="none" points="13.0,218.79758073423727 15.37155803409405,221.10052631732106 15.785639595647808,221.71192146346584 18.65597769257147,224.64658116252394 19.719414430088364,226.28711076629406 21.215754618344363,226.3074898956911 22.10979435342597,226.12407762477233 23.060299756005406,226.2769212005005 23.201463924662676,227.39776901363803 23.126176368037704,230.09795661293174 23.380271871748846,234.83589637934347 23.521436040406115,235.08043087570695 23.82258626696421,234.98873048940004 24.471941442985553,235.2332647201256 27.116416869976092,235.3045871240247 27.351690484501887,236.92461484675005 27.25758103863336,238.554812594346 27.361101429036353,238.7280199950692 27.266991983284242,239.10500007144583 26.994074590445962,239.12537734409852 26.975252701318823,239.26801817004161 27.172882537415717,239.09481143399898 28.255141164176166,239.02349095132377 29.713837574061472,239.25782954442548 31.53956082253717,238.91141583405988 32.38654583477182,239.05405687691382 32.631230393832084,239.27820679495198 33.55350296269171,239.09481143399898 34.95573370507918,239.25782954442548 35.595677936507855,239.14575461380446 35.95329383056378,239.2985840425099 36.7438131753006,239.17632051283 38.52248170092935,239.25782954442548 40.41408156149555,239.5634879924255 41.12931334954919,239.96084298227652 42.15510630881181,239.96084298227652 43.50087138375966,240.32763120779418 44.63018473330885,240.78611514531804 44.978389682772104,241.84571675237385 44.790170791209675,242.86455692794698 44.40432206343394,243.8324482630851 44.45137678628089,244.72901535080746 44.65841756708687,244.6882624252612 45.693621470883954,245.11616755493014 45.863018473319244,246.01272646553116 47.22760543745244,246.26742965985613 47.44405716273468,246.4915680896229 47.54757755313767,247.52056266409636 48.25339839665685,247.47981054676347 49.025095852208324,247.673382998968 49.00627396302298,250.60750125781487 49.1662600209238,250.72975485814823 50.28616242593853,250.83163277737913 51.56605088879587,251.34102126747894 52.6859532938106,251.53458841048996 52.88358313002391,251.31045801006258 53.043569187866524,250.34261809288 53.52352736145258,249.3136441467359 53.59881491807755,248.67180510416802 54.690484489372466,248.5495497166703 56.91146741027478,248.79406038552406 57.062042523524724,249.1608255925239 58.53956082253717,249.2423288420614 59.217148832336534,249.3951473078414 59.659463227551896,249.7822866786155 60.544092018099036,249.80266240549827 61.44754269783152,250.04717089786573 62.52039037988288,250.83163277737913 63.86615545483073,251.39196001512755 64.05437434645137,252.06434975678712 64.873126524908,253.3276187692827 64.99546880443813,253.94906146290305 65.44719414430438,254.3565633795879 65.60718020214699,254.7233140962926 66.17183687695069,255.01875147891406 66.5670965493191,255.90505990765087 67.0,256.32274355502886 66.61415127222426,258.370394243575 66.12478215404553,259.00200188050803 65.8706866503926,260.24483444359066 65.57894736842718,260.6319439854851 64.41199024044909,260.5504473282199 63.800278842798434,261.0699877102161 63.30149878002703,261.20241926577 62.20982920873212,260.917181914454 61.40989891946083,260.937556030156 60.90170791215496,260.5708214969709 60.35587312653661,259.78641387317475 60.224119902355596,258.9103170767121 60.732310909661464,258.1157129434214 61.64517253392842,257.54522515970166 61.889857093046885,256.9543603758648 62.00278842798434,255.82356051492388 62.36040432204027,254.49918877181335 62.58626699197339,254.14262502038764 63.113279888464604,253.8064355134411" stroke="#4DD2FF" stroke-linecap="round" stroke-linejoin="round" stroke-width="0.5"><title>2021-08-28 11.3km</title><desc>1630105096159</desc></polyline><polyline fill="none" points="90.81251226569293,213.0 90.67640133632813,213.1700544290361 91.19990491092904,213.9636393200053 91.89092962938594,214.37176712481596 96.0266078687855,218.61169855079788 97.58664852107177,220.33484639735252 98.40331409749342,221.64986751251854 98.8221169571625,222.81750630824536 98.93728774355259,224.0531534087786 98.95822788652731,228.2588149162184 99.14668917341623,231.2967965889984 98.94775781506905,235.9443410191161 99.03151838702615,237.85999600496143 98.37190388300223,240.37638291319308 98.25673309655394,242.97207298102148 97.69134923600359,245.15967355651082 95.26229264982976,248.08398307471361 93.9221234988654,249.02473770694633 87.75525139004458,255.58719416786334 88.03794332029065,256.1312196694489 90.94862319511594,259.02132347218867 92.13174127374077,259.96201242587995 92.58195434790105,260.44935508472554 92.65524484834168,260.86869522913184 93.29391920933267,261.29936772285146 93.3148593523074,261.401368929568 93.04263749351958,261.378702000482 92.64477477682522,261.86604025334236 91.15802462492138,264.39337478918605 91.03238376707304,265.2773655884521 91.52447712712456,265.94602198335633 91.72340848552994,265.75335856895254 92.65524484834168,266.10468579390727 93.56614106812049,267.0 94.8644299331354,264.57470664169523 95.14712186343968,263.7247117697116 95.95331736834487,262.71604520674737 96.38259029947221,261.8773736830335 97.93216088030022,260.3813538745162 99.49220153258648,259.70134014893847 99.9842948927544,259.7126737352082 101.05224218493095,257.67261499854794 101.93172819027677,257.11726107609866 102.80074412410613,255.97254575997067 105.55437292653369,253.29773281123198 106.17210714454995,252.36833795974962 107.73214779689442,250.69087963578932 107.8473185832845,250.37352063477738 110.66376781469444,247.06388130475534 111.1977414607536,246.2931333386514 111.49090346251614,245.51104696631955 112.24474860995542,241.91793329520442 108.4022323723766,242.07662144360074" stroke="#4DD2FF" stroke-linecap="round" stroke-linejoin="round" stroke-width="0.5"><title>2021-08-14 10.1km</title><desc>1628947493776</desc></polyline><polyline fill="none" points="176.97513490507845,248.73290985345375 175.07224896899424,247.32577632914763 173.44783414562698,244.96378935908433 172.19471413898282,244.13457735083648 170.3382400550181,242.0992303757812 169.36359116085805,241.59667372747208 169.10832597431727,240.9182210965082 167.50711707689334,239.48592784814537 167.46070522477385,238.9582393699966 166.43964447872713,237.95311623698217 165.90590817958582,237.8526037633419 165.0472889157245,235.9428612269694 163.5156977964798,235.16388427634956 163.1444029797567,234.4602906871296 162.63387260655873,234.43516231825924 161.47357630415354,232.7766859436815 156.25224294315558,227.17298736373778 154.0940918205306,225.38883113113116 154.11729774659034,224.911379313824 157.13406813296024,222.2728179343103 155.99697775649838,220.73993019247428 161.54319408233277,215.990448069555 159.7563377765473,213.35181875960552 159.15298369922675,213.0 156.76277331612073,215.33707506456994 153.8388266338734,216.76946811904781 152.28402958868537,218.42802110034972 152.16799995838664,219.40807140330435 150.8220562476199,219.96091906930087 151.7734992156038,221.36816369360895 151.4022043987643,222.02152532659238 151.86632291972637,222.85079024056904 149.19764142413624,220.23734257149044 148.3854340123944,220.53889523161342 148.4318458645139,222.47385188934277 150.45076143089682,224.30828134113108 150.72923254326452,225.58986327858292 149.73137772327755,227.47453398859943 148.4318458645139,228.35404347913573 146.73781326285098,228.20327058213297 145.71675251668785,227.42427623603726 145.4846932562068,226.62015120338765 146.18087103776634,223.78056975404616 148.03734512161463,222.6246272790304 149.56893624097575,222.97643626661738 150.03305476193782,223.55440739929327 150.33473180048168,223.37850324355531 147.20193178381305,224.08211933082202 146.96987252333201,226.8211826364277 147.50360882247332,227.47453398859943 148.29261030815542,227.4996628621011 148.94237623747904,226.99708504474256 148.9655821636552,224.38366864513955 148.24619845615234,223.62979486727272 147.31796141411178,223.981602834363 147.0626962276874,224.43392683868296 146.99307844950818,226.8211826364277 147.92131549143232,227.52479173388565 149.01199401565827,226.8463115573977 149.01199401565827,224.55957229065825 148.52466956863645,223.981602834363 146.99307844950818,224.33341044432018 146.96987252333201,226.92169830927742 147.55002067470923,227.47453398859943 148.5942873468157,227.34888959344244 149.03519994183443,226.74579586272012 149.1744354980765,224.10724845030927 150.03305476193782,223.8056988954486 150.47396735684015,223.2025989985268 150.54358513490297,223.57953655713936 150.1954962441232,223.6046657131228 152.33044144080486,221.7953618238098 153.8852384859929,221.97126678319182 155.71850664401427,221.6697153695859 157.45895109768026,220.06143673197948 160.1276325932704,216.54330118832877 161.38075259991456,215.66376172107994 159.3386311075883,213.1507795121579 157.2268918370828,215.4375940685859 155.7881244220771,216.34226379264146 155.46324145735707,216.99563490212313 152.58570662722923,218.32750296383165 152.07517625426408,221.5189395644411 150.12587846606039,223.52927823964274 150.52037920895964,225.71550831137574 149.80099550134037,227.37401847614092 149.10481771989726,228.07762645115145 147.48040289641358,228.68071786427754 147.0626962276874,229.58535301612574 145.50789918226656,230.86691543916822 145.60072288650554,231.57051632308867 146.08804733352736,231.34435905184364 147.0162843754515,230.48998580669286 147.03949030151125,230.0879270801379 145.50789918226656,230.64075770883937 144.69569177052472,230.51511446156655 143.02486509503797,228.6304602866294 143.02486509503797,227.022213952936 143.8370725067798,226.51963544311002 145.27583992178552,226.89656939377892 147.5964325267123,228.5299451093888 147.82849178719334,230.0376697065076 148.3854340123944,230.4648571499274 147.8052858611336,231.24384466174524 148.22299252997618,232.6510434707161 147.24834363604896,233.8823377417866 149.73137772327755,236.74696463000146 150.00984883576166,238.40542200751952 149.36008290643804,246.24529492500005 149.68496587115806,246.94886459383997 148.87275845941622,249.9892742453958 149.10481771989726,251.52203263810952 149.52252438885625,251.77330385928508 149.54573031479958,253.30605436488986 149.15122957201675,254.33625991336885 150.03305476193782,255.5926040005288 151.611057733302,255.39158925248194 151.79670514154714,257.37660478253383 153.18906070454977,257.7032518188935 152.98020737012848,259.638001032552 153.60676737350877,261.29634890929447 151.37899847270455,262.47728877456393 148.57108142075595,261.6481186514429 146.94666659738868,261.9496352892602 144.997368809185,263.8843608101015 144.55645621428266,266.3215970764868 144.76530954858754,267.0 144.71889769658446,264.86428260509274 145.9952236294048,262.5526677783346 147.2715495619923,261.5224866416538 148.0605510477908,260.3164170316595 147.2251377099892,261.5727394510177 148.2694043822121,261.62299225316383 149.31367105443496,260.99483170339954 149.3368769803783,259.4369886297791 148.7567288291175,258.6580644683563 148.77993475529365,256.87407027964946 149.56893624097575,252.4768623097334 152.67853033158462,252.45173524681013 153.18906070454977,251.2205069323245 155.92735997843556,251.3461426749418 161.0326637092512,252.9291491311451 162.95875557127874,252.87889506900683 166.60208596102893,254.63778290941264" stroke="#4DD2FF" stroke-linecap="round" stroke-linejoin="round" stroke-width="0.5"><title>2021-02-12 11.9km</title><desc>1613134985102</desc></polyline></svg>