<?xml version="1.0" encoding="utf-8" ?>
<svg baseProfile="full" height="300mm" version="1.1" viewBox="0,0,200,300" width="200mm" xmlns="http://www.w3.org/2000/svg" xmlns:ev="http://www.w3.org/2001/xml-events" xmlns:xlink="http://www.w3.org/1999/xlink"><defs /><rect fill="#222222" height="300" width="200" x="0" y="0" /><text fill="#FFFFFF" style="font-size:12px; font-family:Arial; font-weight:bold;" x="10" y="20">Over 10km Runs</text><text fill="#FFFFFF" style="font-size:4px; font-family:Arial" x="10" y="280">Runner</text><text fill="#FFFFFF" style="font-size:9px; font-family:Arial" x="10" y="290">WangQ</text><text fill="#FFFFFF" style="font-size:4px; font-family:Arial" x="65" y="280">SPECIAL TRACKS</text><rect fill="yellow" height="2.6" width="2.6" x="65" y="283" /><text fill="#FFFFFF" style="font-size:3px; font-family:Arial" x="70" y="285.5">Over 20.0 km</text><rect fill="red" height="2.6" width="2.6" x="65" y="287" /><text fill="#FFFFFF" style="font-size:3px; font-family:Arial" x="70" y="289.5">Over 40.0 km</text><text fill="#FFFFFF" style="font-size:4px; font-family:Arial" x="120" y="280">STATISTICS</text><text fill="#FFFFFF" style="font-size:3px; font-family:Arial" x="120" y="285">Number: 13</text><text fill="#FFFFFF" style="font-size:3px; font-family:Arial" x="120" y="290">Weekly: 1.2</text><text fill="#FFFFFF" style="font-size:3px; font-family:Arial" x="141" y="285">Total: 161.0 km</text><text fill="#FFFFFF" style="font-size:3px; font-family:Arial" x="141" y="290">Avg: 12.4 km</text><text fill="#FFFFFF" style="font-size:3px; font-family:Arial" x="167" y="285">Min: 10.1 km</text><text fill="#FFFFFF" style="font-size:3px; font-family:Arial" x="167" y="290">Max: 21.3 km</text><polyline fill="none" points="26.638276415353175,68.26845127137494 26.163007105293218,68.23620978051622 25.539216135744937,68.04276068575564 24.915425166254863,67.82781694630103 24.390648636268452,67.41942296891648 23.89557643828448,67.15074209717568 23.4005042402423,67.3764340626949 22.865826266410295,67.52689517906401 22.291542516672052,67.43017019348918 21.85587898240192,67.63436731004913 21.638047215295956,68.02126632604632 21.360806784417946,68.34368138900027 20.974650469899643,68.60161292637349 20.687508595059626,68.83804976839747 20.499381159839686,69.08523332994082 20.360760944371577,69.41839311986405 20.281549392675515,69.61184039073123 20.192436397017445,69.8590226413944 20.142929177265614,70.07396338853869 20.093421957397368,70.14919257521979 19.994407517835498,70.11695149997831 19.835984414443374,70.04172229664982 19.608251203375403,69.9449989782297 19.380517992249224,69.82678150199354 19.192390557029285,69.71931098595087 18.9547559019411,69.57959919673158 18.687416915025096,69.41839311986405 18.350767820316833,69.21419850016537 18.033921613649,68.96701515708992 17.62796241126489,68.64460147160571 17.17249598907074,68.24695694491675 16.746733898762614,67.78482816042379 16.49919779971242,67.41942296891648 16.13284437317634,67.2044783111196 15.845702498336323,66.82832439796766 15.58826495532412,66.45216951498878 15.340728856332134,66.09750830843404 15.103094201302156,65.74284623967833 14.855558102251962,65.37743593371124 14.58821911533596,64.97978250191954 14.340683016343974,64.6143702846166 14.073344029427972,64.21671477280324 13.806005042453762,63.81905817700317 13.528764611517545,63.39990545656474 13.221819848753512,62.948508872272214 12.934677973913494,62.529353650374105 12.627733211149462,62.07795437211462 12.429704331909306,61.78776838412159 12.687141874921508,61.62655369694403 12.72674765076954,61.62655369694403 12.865367866237648,61.41160050347389 12.984185193723533,61.27188075784943 13.122805409191642,61.21814235851343 13.479257391765714,61.04617934761336 13.984231033769902,60.79898216422589 14.390190236154012,60.44430721280514 14.746642218728084,59.90691927947046 15.212010084884241,59.4770075072156 15.093192757340148,58.918120308808284 14.58821911533596,58.735406721709296 14.023836809617933,58.6816673878493 13.518863167613745,58.52044926738017 13.518863167613745,57.99380216532154 13.776300710567739,57.56388475373387 13.598074719309807,57.037234197414364 13.756497822643723,56.467589617852354 13.885216594149824,55.919438959419494 14.033738253521733,55.382034352922346 14.221865688858088,54.855375917148194 14.548613339487929,54.39320470242819 14.934769653948024,54.060010592467734 15.330827412370127,53.75906041938288 15.48925051576225,53.479606131091714 15.548659179534297,53.41511660389369 15.608067843306344,53.31838225960382 15.776392390660476,53.146409933571704 16.004125601728447,53.04967541103542 16.291267476568464,53.00668226930429 16.657620903104544,53.03892712677771 16.924959890078753,53.296885729942005 17.08338299341267,53.673074541569804 16.924959890078753,54.060010592467734 16.736832454800606,54.457693797085085 16.707128122914582,54.89836851380824 16.915058446058538,55.285301313444506 17.241806096804794,55.58624833668 17.469539307872765,55.919438959419494 17.598258079378866,56.349361218715785 17.80618840258103,56.757786191112245 18.152738941134885,56.98349423777836 18.637909695215058,56.96199824840005 19.014164565713145,56.66105406418501 19.222094888915308,56.2418807727081 19.380517992249224,55.84420243371278 19.598349759355187,55.661484995434876 19.776575750671327,55.75821778542013 20.053816181607544,55.88719473888341 20.40036672021961,55.98392737910035 20.786523034679703,55.89794281318609 21.16277790517779,55.98392737910035 21.519229887751862,56.26337686825718 21.925189090135973,56.51058173921774 22.400458400254138,56.53207779515651 22.826220490562264,56.757786191112245 22.994545037858188,57.25219383787771 23.509420123824384,57.10172212279576 24.103506761486642,57.144714057212695 24.529268851794768,56.82227424009761 24.737199174938723,56.349361218715785 25.153059821226634,56.66105406418501 25.549117579648737,57.09097413723066 26.06399266567314,57.23069788808061 26.469951867999043,56.85451825388009 26.588769195601344,56.30636904982384 26.539261975733098,55.75821778542013 26.489754755981266,55.210064460596186 26.43034609220922,54.75864252827887 26.321430208627135,54.37170833120763 26.143204217310995,54.060010592467734 25.89566811831901,53.73756395469536 25.955076782091055,53.32913052327058 26.400641760323197,53.243144391919486 26.806600962707307,53.490354382855 27.182855833205394,53.54409562978253 27.420490488235373,53.5655921229918 27.628420811437536,53.57634036842501 27.895759798353538,53.59783685689035 28.341324776527472,53.791305110484245 28.677973871235736,54.317967389302794 28.945312858151738,54.79088699836575 29.133440293429885,55.177820083205006 29.65821682335809,55.11333130701678 30.143387577380054,55.005849950015545 30.529543891898356,54.80163515347522 30.65826266334625,54.30721919852658 30.78698143485235,53.83429802086903 30.678065551270265,53.339878786122426 30.88599587441422,52.93144424077764 31.183039193274453,52.63049173844047 31.420673848304432,52.4155252850469 31.61870272748638,52.24355189417838 31.895943158422597,51.97484306484694 32.41081824438879,51.65239181599463 32.93559477425879,51.60939826226968 33.400962640414946,52.00708815052349 33.91583772638114,51.84586265088001 34.37130414857529,51.63089504072559 34.59903735970147,51.200958869594615 34.767361906997394,50.6850337907963 35.18322255334351,50.351831207139185 35.668393307423685,50.47006446913292 36.113958285655826,50.53455529893108 36.51991748803994,50.201352371354005 36.91597524646204,49.85740016355703 37.262525785015896,49.49195005369256 37.67838643142022,49.169493313645944 37.945725418336224,48.81479007589223 37.97542975022225,48.438588729201 37.807105202868115,48.062386411693296 37.985331194184255,47.69693180228933 38.00513408210827,47.29923015697568 37.985331194184255,46.95527110231342 38.08434563380433,46.708050030545564 38.23286729317624,46.50382361149241 38.520009168074466,46.256601774075534 38.90616548253456,46.159862680127844 39.31212468491867,46.20285784093721 39.68837955535855,46.38558713288512 40.074535869876854,46.23510420320963 40.42108640848892,45.944886685872916 40.797341278987005,45.66541741939727 41.14389181759907,45.37519876789884 41.35182214080123,44.966741909142 41.688471235509496,44.66577296506148 42.05482466198737,44.51528825999412 42.18354343349347,44.47229260142194 42.20334632135928,44.4615436848253 42.20334632135928,44.4615436848253 42.20334632135928,44.4615436848253 42.21324776537949,44.4615436848253 42.27265642915154,44.4615436848253 42.520192528143525,44.4507947673992 42.926151730527636,44.4615436848253 43.36181526473956,44.321807696615 43.63905569561757,44.01008847102639 44.03511345409788,43.98859056879883 44.292550997051876,44.332556623543496 44.63910153572215,44.59053063194733 45.074765069934074,44.493790432286914 45.292596837098245,44.08533110374992 45.32230116898427,43.612376767079695 45.30249828106025,43.19316595843702 45.25299106125021,42.827699141576886 45.19358239747817,42.440733277850086 45.18368095351616,42.03226819605334 45.292596837098245,41.63455109541246 45.5005271602422,41.27982952246384 45.79757047910243,41.01110048335977 46.015402246208396,40.828364453758695 46.20352968148654,40.6563773930975 46.599587439908646,40.32315188544453 46.965940866444726,40.01142410794273 47.243181297322735,39.688946395064704 47.50061884027673,39.35571867549152 47.76795782725094,38.9042476464092 48.07490259001497,38.5602687807841 48.45115746051306,38.227038480428746 48.90662388270721,38.055048349895515 49.37199174880516,37.915306219350896 49.81755672709551,37.861559210388805 50.04528993810527,38.065797739007394 49.86706394684734,38.46352457854664 49.84726105898153,38.81825300613127 50.055191382125486,39.215977792147896 50.471052028471604,39.38796655261831 50.8572083429317,39.097735401563114 51.09484299796168,38.614015532046324 51.55030942015583,38.388279043501825 52.055283062160015,38.72150897514075 52.44143937662011,39.26972430157184 52.88700435485225,39.47396085673245 53.372175108932424,39.36646796864807 53.87714875093661,39.4954594248411 54.3920238368446,39.6352000402112 54.80788448319072,39.98992561594059 55.13463213387877,40.462891707211384 55.48118267254904,40.968103791135945 55.59009855607292,41.505561532394495 55.41187256475678,41.96777360478882 55.184139353747014,42.440733277850086 54.956406142620835,42.91369141623727 54.728672931552865,43.38664801993582 54.510841164388694,43.83810516462836 54.283107953262515,44.30030984040059 54.07517763017677,44.76251305057667 54.055374742194545,45.235463655524654 54.15438918181462,45.59017560227949 54.16429062577663,45.66541741939727 54.03557185427053,45.89114263775991 53.738528535468504,46.127616301193484 53.43158377270447,46.38558713288512 53.08503323409241,46.64355750805407 52.71867980749812,46.93377363446052 52.332523493038025,47.245486608182546 51.95626862253994,47.55719891539775 51.57011230807984,47.89040788609418 51.02553289022762,47.976397174279555 50.69878523959778,47.643188400092185 50.26312170532765,47.718429157626815 50.02548705023946,48.10538101140992 49.86706394684734,48.449337352547445 49.688837955589406,48.793292882226524 49.342287416919135,49.00826467620209 48.95613110251725,49.14799617230892 48.59967911988497,49.26623041056155 48.35214302089298,49.298476095238584 48.154114141652826,49.30922465524054 47.965986706432886,49.31997321441304 47.609534723858815,49.42745876272966 47.14416685770266,49.997130845848005 47.18377263355069,50.54530376775074 47.609534723858815,50.56680070311995 47.9758881504531,50.427070566787734 48.26303002523491,50.523806829267414 48.49076323636109,50.80326678259007 48.52046756824711,51.1364683345746 48.114508365863,51.36218508234015 47.67884483159287,51.51266272003704 47.371900068828836,51.82436590414727 47.391702956694644,52.340286951497546 47.470914508448914,52.802464672975475 47.66894338763086,53.200151307246415 47.81746504700277,53.554843876787345 47.5897318359348,53.791305110484245 47.26298418524675,53.59783685689035 46.975842310348526,53.23239612195175 46.65899610368069,52.84545787490788 46.4114600046305,52.394028622307815 46.18372679350432,51.94259797203995 45.80747192306444,51.770624023352866 45.639147375768516,51.80286915419856 45.550034380110446,52.1038233647123 45.58964015590027,52.37253195635276 45.639147375768516,52.68423330227961 45.609443043824285,53.071171977135236 45.57973871193826,53.501102633817936 45.757964703196194,53.78055688091263 45.98569791432237,54.1567444447428 46.32234700897243,54.457693797085085 46.66889754758449,54.640412743683555 46.926335090596694,54.94136109779356 46.86692642682465,55.34979001355532 46.73820765531855,55.63998881119187 46.431262892554514,55.80121011589654 46.292642677086405,55.83345435545198 46.13421957375249,55.9624312423839 46.17382534960052,55.87644666376582 45.90648636262631,55.94093510248058 45.67875315155834,56.11290413295501 45.40151272068033,56.29562100562907 45.064863626030274,56.51058173921774 44.66880586760817,56.51058173921774 44.36186110478593,56.26337686825718 44.15393078158377,56.080659955187 43.9261975705158,56.0269196430454 43.59944991982775,56.04841577028856 43.18358927348163,56.2418807727081 42.72812285134569,56.38160533706832 42.27265642915154,56.13440024750889 41.8369928948232,56.29562100562907 41.698372679413296,56.7147941426374 41.876598670729436,57.16621001968451 41.985514554253314,57.55313680222025 42.18354343349347,57.84333121542295 42.4904881962575,58.1227771416452 42.757827183173504,58.41297042139922 42.66871418757364,58.8321374727966 42.38157231267542,59.00410309409199 42.18354343349347,59.133077177015366 42.18354343349347,59.133077177015366 42.18354343349347,59.133077177015366 42.18354343349347,59.133077177015366 42.163740545511246,59.15457284641161 42.17364198947325,59.197564175730804 42.025120330101345,59.348033728441806 41.797387119033374,59.65972016524756 41.41123080451507,59.82093702639395 41.054778821941,59.92841483482334 40.757735503138974,60.21860452198598 40.29236763698282,60.39056850859197 39.81709832692286,60.272343289558194 39.46064634429058,60.45505495129328 39.074490029830486,60.50879363177228 38.67843227140838,60.53028909843124 38.64872793952236,60.54103683057474 38.708136603294406,60.53028909843124 38.91606692649657,60.519541365487385 39.17350446945056,60.519541365487385 39.569562227872666,60.41206399264047 40.074535869876854,60.283091040706495 40.56960806786083,60.44430721280514 40.6587210635189,60.58402775117429 40.68842539540492,60.336829784544534 40.708228283328936,60.47655042585393 40.96566582628293,60.67000955439289 41.292413477029186,60.69150499730313 41.53994957607938,60.80972987654968 41.718175567279104,60.79898216422589 41.84689433884341,60.498045897256816 42.03502177406335,60.18636125190824 42.26275498513132,59.87467594050395 42.520192528143525,59.56298996304395 42.95585606241366,59.197564175730804 43.302406600967515,58.864381042236346 42.86674306675559,58.67091951868497 42.66871418757364,58.30549149622675 42.35186798078939,57.972306324823876 42.04492321802536,57.606876551915775 41.91620444651926,57.144714057212695 41.72807701129932,56.68255009794666 41.896401558595244,56.274124914823915 42.30236076103756,56.12365219062485 42.698418519459665,56.360109258966986 43.07467338995775,56.38160533706832 43.342012376873754,56.188140520011075 43.68856291548582,56.04841577028856 44.09452211786993,56.06991189434484 44.54998854006408,56.39235337494756 44.797524639056064,56.68255009794666 44.80742608301807,56.69329811363423 44.80742608301807,56.68255009794666 44.80742608301807,56.68255009794666 44.80742608301807,56.68255009794666 44.80742608301807,56.68255009794666 44.80742608301807,56.68255009794666" stroke="#4DD2FF" stroke-linecap="round" stroke-linejoin="round" stroke-width="0.5"><title>2026-07-10 16.0km</title><desc>9223370253179674807</desc></polyline><polyline fill="none" points="78.39999999999418,40.12397235206299 80.30788643533015,42.129007304709376 80.6686212655477,42.69752231724851 80.79287437374296,43.03168511204058 80.86101317500288,43.60019155737973 80.86502133977774,45.236244888186775 80.9291519762628,45.55303519775407 80.89708665802027,47.9007029657696 80.94117647060193,48.13069134966645 80.90109482278058,48.93781341151407 80.63254778253031,49.84472792165252 80.52833549823845,51.52834144501321 80.88506216368114,51.92754184043952 82.4923362404952,53.4245196510019 82.52840972352715,53.515638832763216 82.46828725181695,53.59374087835022 82.66869549082185,53.819368438602396 83.96333271478943,54.99088250776913 84.93731675636081,55.42477079976743 85.42230469474453,55.45514286265825 86.16782334385789,55.355348884000705 86.50851735015749,55.3857209820344 87.00552978289488,55.91939962370088 87.3903136017907,56.59625350931674 87.5706810168922,56.64398009758588 88.32822416033014,57.39892289709314 88.42442011505773,57.20801871891308 88.40437929115433,57.24272861469217 89.37435516795085,57.95427705185648 89.61885321952286,58.24496819232081 89.98359621450072,58.35343467491839 90.68101688624301,58.25364551813982 90.8172944887774,58.33608005088172 90.86138430135907,58.505287421103276 91.59087029134389,58.50962606534449 91.66702542215353,58.761266894554865 91.72714789386373,59.46412017118928 91.80731118947733,59.628985796945926 92.11593987754895,59.71141843993246 92.76125440711621,59.637662922592426 93.0578586008487,59.63332435991833 93.12599740210862,59.68972565012518 93.49875672667986,61.73315202370577 93.6350343291997,62.197360205300356 93.65507515308855,62.635534727261984 93.80337724996207,62.84811329332297 93.85548339209345,63.234223456925974 93.94767118204618,63.43812332761809 93.92763035814278,63.655037323253055 94.08795694934088,64.59209677663603 94.23625904619985,65.05628284712293 94.48075709780096,65.55083228138392 94.51282241604349,65.85450096775457 94.70521432548412,66.15816811811601 94.71723881982325,66.36639613348234 94.98979402486293,66.35771998059136 96.98586008536222,65.71568118744108 97.02994989795843,65.79810547071611 97.16622750047827,65.79810547071611 97.13015401744633,65.81979605277229 97.47084802376048,66.33169151440597 97.46283169421076,66.53991892794511 97.8997216552234,66.27529646562107 98.12818704769597,66.63535625112854 98.5811096678517,66.89997712648619 98.93382816849044,66.93034338183861 99.5591018741834,66.80020217930723 99.70740397104237,67.07349837882794 99.55509370940854,67.16893485386026 99.51501206160174,67.33811732315007 99.55108554463368,67.72853658677923 99.63926516978245,67.87602764794065 99.69137131192838,67.82830999132784 99.58715902766562,67.76324039847168 99.53906105029455,67.21665303449117 99.71942846539605,67.04747022294396 99.59517535721534,66.77417390493792 101.2425310818362,65.5595085508794 101.15034329189803,65.16907518200605 101.3226943774498,64.66584620524372 101.38682501390576,64.21467181180924 101.33071070699953,63.9457008483987 101.06617183152412,63.34701921567466 101.0220820189279,62.7917149716377 101.18641677491541,62.21471371255393 101.6794210428634,61.416447184983554 101.81970681017265,60.822078797580616 101.72351085545961,60.39690655808954 101.41087400259858,59.559568746582954 101.41488216738799,59.23417525237892 101.56719242902182,58.71354199081907 101.95197624791763,58.25364551813982 102.13234366301913,57.845809847520286 102.14035999256885,57.44664884670783 102.04817220264522,57.147276352992776 101.89987010575715,56.89996751383296 101.57520875858609,56.59191472668317 101.51107812210103,56.279521552161896 101.58322508815036,55.94977143609867 101.96400074227131,55.48551491015314 102.03614770830609,55.29026576497927 102.01209871961328,54.95617130879691 101.78764149193012,54.60471928766856 101.75557617368759,54.43550091327779 101.83573946928664,54.227231489276164 102.13234366301913,53.962554719197215 102.23254778252158,53.7239107282694 102.21651512340759,53.49828280881047 101.9399517535785,52.8734626009209 101.9199109296751,52.62179706666575 102.02412321395241,52.213923095387145 102.48907032846182,52.105445508241246 103.08628688068711,52.23561858926041 103.27066246057802,52.11412372244013 103.35483392095193,51.96225479268105 103.519168676954,51.91452447816482 104.2606791612634,52.05337619670536 105.06632028205786,52.50030298240017 105.3028020040947,52.361452298919176 105.51523473743873,52.378808651938016 105.71965114121849,52.58274542356594 106.93412506960158,52.244296784610924 108.32095008349279,52.213923095387145 108.61354611246497,52.28768774252967 108.8820931527298,52.50898113943185 109.08650955650955,52.552371905792825 109.25886064204678,52.50464206108154 109.65967712005659,52.213923095387145 111.43529411766212,52.200905795289145 111.81606977176853,52.30070502378658 112.37721284096187,52.70857840470126 112.76199665987224,52.79969867444743 113.07463351270417,52.78668150154772 113.37123770643666,52.69556121200003 114.20092781593848,52.23995768709574 114.52558916310954,52.1792102888503 116.09278159213136,52.03168063687917 116.57776953051507,52.213923095387145 116.7701614399848,52.20958399566007 116.92647986639349,52.13581925242761 117.2270922249154,51.76699417486816 118.5097049545584,51.28100943157915 119.8484319910931,51.75831591043243 121.57194284653815,50.82539515669487 121.60000000000582,50.66484453949306 121.40359992576123,50.25695725377591" stroke="yellow" stroke-linecap="round" stroke-linejoin="round" stroke-width="0.5"><title>2021-10-31 21.3km</title><desc>1635638277160</desc></polyline><polyline fill="none" points="179.44532984984107,46.392701036296785 179.05029392568395,45.20112089210306 173.37870672775898,39.57926144258818 170.92384062719066,41.351377405109815 167.25564990204293,39.151508197479416 166.40914435021114,40.679196365352254 165.28047028102446,40.15978300955612 160.08856956241652,39.51815386270755 160.0321358590154,36.85996556348982 159.58066623134073,36.03500716536655 150.86165904649533,35.576696246513166 150.5512736774981,43.91787696976098 150.86165904649533,44.559499419265194 151.7645983019611,44.83448017007322 159.55244937958196,44.95669377950253 159.9474853038555,44.437285694642924 160.0321358590154,36.676641614641994 159.43958197254688,35.9738990716869 158.42377531039529,35.790574737329734 151.62351404316723,35.576696246513166 150.8898758981377,35.91279096910148 150.74879163946025,37.684922346961685 150.77700849133544,44.4678391290945 160.1167864142917,45.17056751079508 159.63709993485827,49.17304160736967 159.89105160045438,52.136681145842886 159.49601567606442,59.43875563854817 157.9723056826042,60.99692252531531 157.06936642737128,60.9663702887774 155.51743958203588,61.91348859234131 155.54565643391106,63.77716678401339 155.00953625084367,64.87703857268207 155.4045721751172,65.33531763791689 153.88086218154058,66.80180729934364 152.07498367095832,64.9075905258942 150.35375571530312,64.11323902383447 148.8300457218429,63.96047894799267 146.2058785109548,64.9075905258942 144.54108425870072,67.13787712837802 144.4846505552996,70.52911223305273 144.4846505552996,67.56560197798535 146.0083605487598,65.12145413612598 148.0681907250546,64.23544704465894 149.98693664290477,64.14379103234387 151.990333115682,64.99924637217191 153.90907903341576,67.47394668956986 154.75558458536398,67.90167119825492 160.8786414109636,69.27649703758652 165.30868713266682,71.35400313462014 167.93285434378777,71.0179366657685 168.4125408231048,71.9650323917158 167.00169823644683,72.23999526849366 166.63487916404847,71.47620905682561 167.56603527115658,70.49856068714871 166.6913128674496,71.41510610014666 166.91704768128693,72.17889242249657 168.0739386023488,72.20944384663017 169.0897452646168,71.32345164846629 168.2150228609098,72.08723813685356 167.029915088322,72.11778956762282 166.63487916404847,71.72062079506577 166.83239712624345,71.1706941848388 167.9610711953137,70.62076685728971 166.32449379505124,69.49035843191086 162.40235140442383,69.6431165044196 157.15401698241476,67.41284315293888 158.3109079033602,66.58794454138842 160.90685826260597,66.25187427396304 161.47119529731572,65.88525185867911 161.0479425212834,65.45752530451864 158.3109079033602,64.93814247689443 155.4045721751172,65.21310993592488 154.95310254744254,64.5104149619001 153.203657740145,64.69372680719243 149.3661659047939,63.65495863032993 147.08060091454536,64.47986297993339 145.19007184857037,66.00745936582098 144.42821685189847,67.96277466407628 144.40000000002328,70.13194196415134 144.9079033313319,66.77125548338518 146.48804702807683,64.93814247689443 149.19686479435768,64.14379103234387 150.74879163946025,64.32710303700878 152.07498367095832,65.02979831644916 154.95310254744254,68.20718843888608 160.93507511436474,69.24594540099497 164.46218158083502,70.9568336426455 166.12697583285626,72.42330375345773 168.0457217504736,72.27054668826167 170.66988896147814,70.009735652362 171.68569562386256,68.81822225591168 171.488177661784,68.29884356784169 171.85499673429877,67.74891249494976 178.09092096670065,61.424653604626656 187.60000000009313,52.77829108588048 184.43971260625403,49.38691319944337" stroke="#4DD2FF" stroke-linecap="round" stroke-linejoin="round" stroke-width="0.5"><title>2021-10-30 10.1km</title><desc>1635553078459</desc></polyline><polyline fill="none" points="55.59999999997672,120.7848602506565 54.05028571427101,119.30728434809134 53.04228571426938,118.14154359459644 52.363428571406985,117.53268009205931 52.14400000000023,117.18369572093798 51.876571428525494,117.30992424776196 51.58857142855413,117.13914443902468 49.586285714263795,114.91155563315988 48.831999999965774,114.3026729272242 47.6114285713993,112.98093947164307 46.301714285684284,111.76314747842116 45.060571428533876,110.80523994026589 43.654857142828405,109.4463324755634 43.18857142855995,109.24583640459605 42.72914285710431,108.57751333199121 42.393142857123166,108.47355157301354 42.18057142852922,108.13938806110673 40.555428571416996,106.90668656067282 40.44571428568452,106.66162967417768 39.75999999998021,106.17151414110413 39.711999999999534,106.0229938192424 36.379428571410244,103.26047654652939 33.417142857128056,100.37163544047507 30.681142857152736,98.00257633921137 30.30399999997462,97.45300620101625 29.323428571398836,96.66577896783565 29.097142857150175,96.60636534587684 30.324571428558556,97.4678594868019 30.4137142857071,97.69808514088072 30.969142857124098,98.21794761520869 29.50857142856694,99.91862211118132 29.069714285695227,100.33450327583705 28.932571428536903,100.34935614330607 28.150857142842142,99.74781328599784 27.88342857142561,99.83693096950446 25.586285714263795,97.88375061353872 22.08914285711944,95.30668373216758 21.225142857147148,94.50458626742329 19.82628571425448,93.59107871611923 18.989714285708033,94.4303176655012 18.98285714283702,94.31148779025534 18.6605714285688,94.48973255135206 18.290285714290803,94.51201312465128 17.52228571427986,93.46482093313534 14.566857142868685,88.08758008268342 12.39999999999418,83.2151397493435 14.402285714255413,87.74592262972146 17.00800000000163,92.57358509074402 18.070857142854948,94.29663404614985 16.78171428569476,92.172526427923 14.175999999977648,87.44140089418215 13.771428571431898,86.27529708155635 12.406857142865192,83.29684416933014 13.545142857125029,85.69595393635245 13.94285714282887,86.8769191807005 16.925714285694994,92.40276400072617 18.118857142835623,94.38575647846301" stroke="#4DD2FF" stroke-linecap="round" stroke-linejoin="round" stroke-width="0.5"><title>2021-10-16 15.8km</title><desc>1634339943415</desc></polyline><polyline fill="none" points="121.60000000000582,120.98523416964599 120.19400127630797,119.63445141880948 120.0492661135504,119.62698848146101 119.24288449261803,120.23894754786306 118.82935545628425,120.41059394985496 118.61569878747105,120.37327953898784 118.24352265472407,120.007597596712 118.071218889585,119.65684022763162 117.60944479895988,119.54489613488113 117.51295469046454,119.3583223764872 117.36132737714797,119.52250730174273 117.18902361197979,119.38071124535054 116.74103382258909,119.32100758422894 116.64454371412285,119.21652609398006 116.74103382258909,119.09711854671332 116.72035737076658,118.42544851270941 114.70784939371515,118.34335520801687 114.08066368856817,118.09707490118308 108.31882578172372,111.79060570902948 105.30006381619023,109.2903008879075 103.01876196553349,107.70052324143035 102.6190172303759,107.27508562034927 102.164135290368,107.03624267605483 101.32329291640781,106.15550452674506 100.56515634970856,105.51360587111412 100.35149968092446,105.4464301988919 99.46241225270205,104.49850214739854 98.6904913847975,103.95362616424245 98.4837268666306,103.64759866138047 97.16732610084,102.66979736728535 96.7400127632427,102.2667315328581 96.65730695595266,102.05773381166364 93.43867262286949,99.21382975448796 90.88857689852011,97.11630681543465 88.676196553919,95.53380567528802 88.12482450541575,94.86944652246166 85.80216975111398,93.36902410000039 84.94065092536039,94.26480131476274 84.93375877474318,94.07071691392775 84.74767070834059,93.98860417249671 84.56158264202531,93.67508219286537 84.51333758773399,93.30184049425588 83.73452456927043,92.12238781952328 84.34103382259491,92.46577417183289 84.89929802171537,93.05550023083924 84.84416081683594,93.4212779852387 84.64428844928625,93.69001183263026 84.74077855775249,93.95874497753539 84.92686662412598,94.07071691392775 84.56847479261342,94.3394490636856 84.28589661777369,94.30958997063135 83.81033822591417,93.70494147020509 81.11550733886543,88.9198816012431 79.9645181876549,86.68777280028735 79.61301850673044,85.62022536576842 78.39999999999418,83.01476583036128 78.8617740906484,84.08980585107201 78.77217613274115,84.07487481670978 78.89623484364711,84.13459894117841 79.34422463303781,85.08271476733353 80.28844926611055,87.39697650342714 83.28653477985063,92.77183495384816" stroke="#4DD2FF" stroke-linecap="round" stroke-linejoin="round" stroke-width="0.5"><title>2021-10-07 11.8km</title><desc>1633562356347</desc></polyline><polyline fill="none" points="166.0308786185633,80.40000000000146 165.69963525561616,80.65539894459653 164.9136340553814,82.04183676588582 164.19500438662362,84.30387025097298 164.1781615037471,84.55925729002047 163.59427489788504,85.90306673818122 162.94301676054602,86.78473995764944 161.64611478018924,88.07987068708462 161.3934715372743,88.66358503363881 161.32048571153427,89.16825145101029 161.3766286543978,90.84639743663865 161.57874324874138,92.56099014464417 162.75774504907895,94.82273963248008 163.25741724064574,95.9961501317739 163.2854887121066,97.90518703495763 163.39777459783363,98.8961667579133 163.302331594954,100.98752110382338 163.3640888321097,101.230698456362 163.35286024352536,102.70190639996144 163.67287501788815,103.51045184145914 164.53186204386293,104.6229489931211 164.75081952105393,105.12751933981781 164.88556258397875,105.86309235909721 164.86310540681006,106.54394758697163 164.21184726950014,109.03023804620898 164.08833279518876,109.96029842520511 164.17254720945493,110.03932268807694 164.1781615037471,110.23384363343939 163.9985040865722,111.14565455352567 163.71778937222552,111.88725346203137 162.072801146016,114.86574043673318 161.94367237744154,115.23044586347532 161.4720716572774,122.32972921838518 161.78085784311406,122.9253609725929 162.28614432894392,123.16847476022667 162.58370192616712,123.1137742193605 162.81388799194247,122.77341449791129 163.0440740577469,122.70655796195206 164.0209612637118,122.84634884006664 165.28417747837375,123.520988502205 165.64349231275264,123.31434269499732 165.8680640842358,123.33865399281785 166.1094787385664,123.59999999999854 167.95096726479824,123.15631908756768 169.61279837385518,123.1137742193605 170.1236991539772,123.19278610028414 170.67951428843662,123.54529974021716" stroke="#4DD2FF" stroke-linecap="round" stroke-linejoin="round" stroke-width="0.5"><title>2021-09-24 10.1km</title><desc>1632476713364</desc></polyline><polyline fill="none" points="37.46808311427594,128.39999999999418 37.20797688071616,128.6629429939494 36.046169037377695,130.77585835678474 34.91037181750289,134.7010939301981 34.12138290898292,136.54159398966294 33.13297922140919,137.89378142789792 31.069469768437557,139.9408160721723 30.53191688572406,141.45259609449568 30.948086859454634,146.94556115551677 31.476969534356613,147.81878027590574 31.468299326574197,148.13802020401636 32.67345820879564,150.31634222533467 33.497127948416164,152.20356571702723 33.73989376644022,156.61636898916186 33.497127948416164,160.81308703245304 33.55781940292218,161.70498944975407 33.73989376644022,161.87398079452396 33.575159818457905,162.3434000395937 33.609840649645776,162.9067008877173 33.75723418200505,163.46061099923827 35.25718012894504,165.24437322634913 35.742711764905835,166.1737974941425 35.98547758292989,167.01872285950958 36.002817998523824,168.66161751554318 35.21382908997475,171.59999999999854 36.002817998523824,168.7085570566851 36.002817998523824,167.0844390458151 35.82074363497668,166.3146187711027 35.2918609600747,165.25376138360298 34.19941477905377,163.88308322057128 33.80925542872865,163.12263222989714 33.64452148077544,162.09930224451819 33.653191688557854,160.8506409423062 33.80925542872865,159.44236186873604 33.88728729879949,156.12815134630364 33.653191688557854,152.20356571702723 33.30638337714481,151.01114412404422 32.37000093626557,149.26474306811724 31.355586625344586,147.73427545721643 31.138831430725986,147.01128753091325 30.627289171359735,144.32586844152684 30.540587093506474,141.5652746434498 30.731331664748723,140.6732334442495 31.17351226185565,139.81874610704108 32.291969066194724,138.83279216663504 34.27744664915372,136.42891106511524 34.459521012642654,135.50866350722936 35.00574410313857,134.28791684803582 36.054839245189214,130.88854620645725 36.75712607585592,129.53628552966256" stroke="#4DD2FF" stroke-linecap="round" stroke-linejoin="round" stroke-width="0.5"><title>2021-09-19 10.9km</title><desc>1632006645312</desc></polyline><polyline fill="none" points="89.74116658617277,129.0135865717166 93.02356560446788,132.16252208052902 93.49400715756929,132.84555504648597 96.48772613191977,135.91337896484765 97.36445811728481,137.1867980077077 97.84559152385918,138.40232489949267 98.00596932607004,139.34001075528795 98.15565527480794,146.6097835431283 98.35880049091065,147.0265120894328 98.11288786079967,147.88311735595926 98.24119010259164,152.3281304317643 98.09150415391196,154.24963428087358 97.5141440659645,156.0669389614195 97.3965336777037,157.08554656426713 97.49276035901858,157.444372696933 98.61540497443639,158.09257270196395 102.12233291578013,159.12274230351613 102.43239666672889,159.59731258371903 102.21855959715322,162.56045126440586 100.52924674731912,164.47025764618593 105.60787715023616,169.23888675162743 108.13115457142703,170.81296612256847 109.00788655679207,171.00972495494352 110.17329858610174,170.9287066414836 110.4512867765734,171.3569458334532 109.59593849815428,171.54212999383162 108.00285232969327,171.02129899636202 107.91731750185136,171.60000000000582 107.89593379484722,171.04444707671064 106.70913805859163,170.43102181602444 104.9449822344468,169.1925900650822 103.6726516703493,167.98887151140661 102.71038485720055,166.78514389957127 102.09025735536125,166.49578495006426 100.9783045934746,165.50038616613892 92.6921181465732,157.50224780422286 93.62230939930305,154.23805902560707 93.61161754583009,153.14998129005835 93.4298560366733,152.45545971454703 93.59023383894237,152.1197732048313 93.38708862272324,150.95065261681157 93.48331530409632,150.5918119095295 93.21601896709763,148.92492838537146 93.5795419854112,148.19566137777292 93.97514056414366,148.1030558053899 93.9644487106707,147.51269402028993 94.33866358245723,146.72554158164712 94.33866358245723,140.9259607286367 93.91098944324767,138.24025518153212 93.44054789014626,137.4183276523836 90.74620081327157,134.10742182791 90.28645111364312,132.57928830538003 89.54871322348481,131.59525519405724 90.92796232242836,130.14813666586997 89.59148063743487,128.7010050278186 89.85877697443357,128.40000000000873" stroke="#4DD2FF" stroke-linecap="round" stroke-linejoin="round" stroke-width="0.5"><title>2021-09-11 10.8km</title><desc>1631367004166</desc></polyline><polyline fill="none" points="165.38545376696857,128.39999999999418 167.24408139841398,130.28266797866672 167.19911460095318,130.4774258317193 169.582354870392,132.5710620549362 170.69153587624896,134.096645115118 174.7685255195247,138.31628881950746 174.30386861169245,138.9654577182664 169.1027090299758,143.70433368442173 168.7729525147006,143.78547794777842 166.284789717698,146.2360208559403 166.46465690783225,150.2606954168732 166.25481185264653,151.8510710808623 166.32975651527522,154.80459593776322 166.73445769300452,160.74398411541188 167.1691367359017,161.42554318260227 168.84789717727108,162.8373375142255 169.08772009745007,164.1679860996519 168.0534837541054,163.42152567085577 166.82439128810074,163.21056901219708 168.11343948415015,164.39516921497125 168.7429746496491,164.4763059860852 169.6572995329625,165.1903083052457 170.25685683340998,165.1416264011932 169.86714458809,164.49253333677188 170.40674615849275,164.83330742992985 169.492421275354,164.15175872549298 169.92710031813476,163.98948491895862 170.40674615849275,164.11930397355172 170.7514916062937,164.50876068627986 170.40674615849275,166.37489804500365 169.9870560481795,167.60816290345974 169.26758728758432,167.59193577829865 167.49889325117692,166.35867083059566 166.239822920179,165.0929444865469 163.43689254036872,163.50266279443167 162.31272260198602,162.25314783491194 162.13285541179357,162.20446529287437 161.63822063890984,162.78865509913885 161.60824277385836,162.00973501912085 160.25923884782242,161.16590187761176 159.79458193993196,161.6040464053076 159.3299250320415,162.9833846961119 157.23147448035888,166.27753474090423 155.44779151136754,168.43574472780165 155.387835781381,169.05237233602384 155.387835781381,168.63046941888751 156.152271339437,167.7379798622569 156.42207212472567,168.25724694564997 156.437061057135,167.78666120240814 156.7967954375199,167.86779674586433 158.43058908137027,166.32621639827266 158.82030132663203,165.62844496594334 158.970190651773,164.42762392695295 159.28495823446428,164.76839811881655 159.58473688480444,164.7197161231161 160.00442699511768,163.85966578910302 160.27422778028995,162.10710017713427 160.06438272516243,162.13955522041942 160.30420564534143,162.70751771706273 160.87378508073743,161.78254948584072 160.27422778028995,161.24703981772473 159.734626209829,161.63650152143964 157.1565298177884,166.40735247032717 155.56770297145704,168.37083645982784 157.74109818576835,165.80694484141713 159.01515744929202,166.7805780236522 159.94447126501473,167.9002509550337 160.91875187831465,170.35053017747123 162.08788861427456,171.60000000000582 163.13711389014497,170.39921095025784 163.21205855265725,169.94485665953835 164.1113945033867,168.7440587439196 165.70022134971805,165.67712676427618 169.26758728758432,168.45197179185925 169.4174766127253,168.87387504492654 169.11769796250155,169.5554093917017 170.57162441621767,165.70958129059 170.85641413391568,164.18421347267576 170.85641413391568,162.09087265374546 171.05127025651745,161.97727995703463 170.48169082106324,159.4944537756237 170.12195644079475,156.39493935159408 170.40674615849275,155.97301260712266 172.86493109056028,155.0155605093314 174.06404569151346,155.2265248822223 175.09828203485813,154.9993324723764 175.74280613288283,155.5024010702764 176.5372195560485,155.55108506816032 176.6121642185608,150.60149115232343 176.55220848851604,150.40675079554785 176.43229702836834,150.87737303470203" stroke="#4DD2FF" stroke-linecap="round" stroke-linejoin="round" stroke-width="0.5"><title>2021-09-05 10.5km</title><desc>1630850300161</desc></polyline><polyline fill="none" points="36.37153152032988,176.40000000000146 36.02390329746413,176.8658641560687 35.65859906328842,177.54232004086225 35.617355036811205,177.86778280938597 35.369890878209844,178.2251523041341 34.71587845889735,180.14598844260763 34.627498402260244,180.71393527312466 34.03240602076403,182.04763868433656 33.407853620359674,182.8835860086474 32.017340728925774,184.2683056904716 31.628468479641015,185.2254724460654 31.71684853627812,187.24825057904673 31.9112846609205,189.02213127877621 33.51980169210583,192.12314612774935 33.65531777899014,192.61444914744789 33.82029388475348,195.61963257289608 33.65531777899014,199.2180611277072 33.72602182434639,199.2308212508433 33.749589839426335,199.8815850773026 33.87332191874157,200.2452451197969 34.76890649291454,201.30431668365782 35.07529068933218,201.82108794114902 35.35810687064077,202.68874643901654 35.411134904657956,203.3139656431449 34.65106641736929,206.4718927489812 34.60982239092118,207.79882630237262 34.40949426247971,208.69194339696696 32.2824808988953,212.85119798646338 31.887716645840555,219.59999999999854 31.9584206911386,217.91603731229407 32.04680074780481,217.48866287382407 32.01144872515579,216.5892561645378 32.141072808241006,215.7536289375348 32.311940917774336,212.7363745758048 34.297546190733556,209.01729094484472 34.580362372042146,207.76054965304502 34.49787431914592,207.66485795689368 34.63928240980022,207.0588081331298 34.6451744135702,206.40809736279334 34.7865825042536,206.03808321140968" stroke="#4DD2FF" stroke-linecap="round" stroke-linejoin="round" stroke-width="0.5"><title>2021-09-04 10.5km</title><desc>1630710558162</desc></polyline><polyline fill="none" points="78.39999999999418,181.0380645873811 80.29724642727524,182.88042105385102 80.6285116765066,183.3695371707654 82.92478215403389,185.71726493001188 83.77553154402995,187.02968861303088 84.9726036946231,187.04599191654415 85.68783548270585,186.89926209981058 86.4482398047985,187.0215369603975 86.56117113970686,187.91821521090606 86.50094109441852,190.07836529034103 86.7042174973758,193.86871710346895 86.81714883231325,194.06434470055683 87.0580690135539,193.99098439151567 87.5775531543768,194.18661177609465 89.69313349595177,194.2436696992154 89.8813523875724,195.5396918773913 89.80606483088923,196.84385007547098 89.88888114321162,196.98241599604808 89.81359358658665,197.2840000571523 89.59525967232184,197.30030187527882 89.58020216101431,197.41441453602602 89.73830602990347,197.27584914719046 90.60411293129437,197.21879276105028 91.77107005921425,197.4062636355302 93.23164865802391,197.12913266723626 93.90923666779418,197.24324550152232 94.10498431505403,197.4225654359543 94.84280237011262,197.27584914719046 95.9645869640517,197.4062636355302 96.47654234917718,197.31660369104065 96.76263506445684,197.4388672339992 97.3950505402172,197.34105641025963 98.81798536071437,197.4062636355302 100.33126524920226,197.65079039393459 100.90345067964518,197.9686743858183 101.72408504702616,197.9686743858183 102.80069710698444,198.26210496622662 103.70414778662962,198.6288921162486 103.98271174621186,199.4765734018947 103.83213663293282,200.29164554235467 103.5234576507064,201.06595861045935 103.56110142901889,201.78321228063578 103.72673405363457,201.75060994020168 104.55489717668388,202.09293404393975 104.6904147786554,202.8101811724191 105.7820843499212,203.01394372787763 105.9552457301761,203.19325447169103 106.0380620424985,204.01645013127563 106.60271871727309,203.98384843740496 107.22007668175502,204.1387063991715 107.20501917041838,206.48600100624753 107.33300801669247,206.5838038865113 108.22892994072754,206.66530622189748 109.2528407110076,207.07281701397733 110.14876263501355,207.22767072838906 110.30686650399002,207.0483664080457 110.43485535026412,206.27409447429818 110.8188218891155,205.45091531737853 110.87905193443294,204.93744408332714 111.75238759146305,204.83963977333042 113.52917392816744,205.03524830841343 113.64963401877321,205.3286604740133 114.83164865802974,205.39386307364475 115.37371906585759,205.51611784626584 115.7275705820357,205.82582934288803 116.43527361445013,205.8421299243928 117.1580341582303,206.03773671828094 118.01631230389467,206.66530622189748 119.09292436385294,207.1135680120933 119.24349947713199,207.6514798054268 119.8985012198973,208.6620950154247 119.99637504352722,209.15924917031225 120.35775531540276,209.48525070367032 120.48574416167685,209.77865127702535 120.93746950151399,210.01500118312106 121.25367723943782,210.72404792611633 121.59999999997672,211.05819484401582 121.2913210177212,212.69631539485272 120.8998257232015,213.20160150439915 120.69654932030244,214.1958675548667 120.4631578947301,214.5055551883779 119.52959219235345,214.44035786257155 119.04022307420382,214.8559901681656 118.6411990240158,214.96193541261164 117.7678633669857,214.73374553155736 117.12791913555702,214.75004482411896 116.72136632970069,214.45665719756653 116.28469850120018,213.8291310985369 116.17929592187284,213.1282536613653 116.58584872772917,212.49257035472692 117.31613802711945,212.03618012775405 117.5118856744084,211.563488300686 117.60223074237001,210.65884841193474 117.88832345759147,209.59935101744486 118.06901359354379,209.31410001630138 118.49062391073676,209.04514841074706" stroke="#4DD2FF" stroke-linecap="round" stroke-linejoin="round" stroke-width="0.5"><title>2021-08-28 11.3km</title><desc>1630105096159</desc></polyline><polyline fill="none" points="158.65000981258345,176.40000000000146 158.54112106910907,176.53604354323033 158.95992392874905,177.17091145601444 159.51274370355532,177.49741369984986 162.82128629504587,180.88935884064267 164.0693188168807,182.26787711788347 164.72265127801802,183.31989401001192 165.0576935657591,184.25400504659774 165.14983019488864,185.24252272702142 165.1665823092335,188.60705193298054 165.31735133874463,191.0374372712031 165.15820625206106,194.75547281528998 165.2252147096442,196.2879968039706 164.69752310641343,198.3011063305603 164.6053864772839,200.377658384823 164.1530793888087,202.1277388452072 162.2098341198871,204.4671864597767 161.13769879910978,205.21979016555997 156.20420111203566,210.4697553342994 156.43035465627327,210.9049757355533 158.75889855611604,213.21705877775094 159.7053930190159,213.96960994070832 160.06556347833248,214.35948406778334 160.124195878685,214.69495618330984 160.6351353674836,215.039494178287 160.65188748185756,215.12109514365875 160.43410999482148,215.10296160039434 160.11581982151256,215.49283220267534 158.92641970000113,217.5146998313503 158.82590701367008,218.22189247076312 159.21958170176367,218.7568175866909 159.37872678844724,218.6026868551562 160.124195878685,218.8837486351331 160.85291285454878,219.59999999999854 161.89154394654906,217.65976531336491 162.11769749078667,216.97976941577508 162.76265389469336,216.17283616540226 163.10607223963598,215.50189894642972 164.34572870426928,214.30508309961442 165.5937612261041,213.7610721191595 165.9874359142559,213.7701389881695 166.84179374799714,212.13809199884417 167.54538255225634,211.69380886088038 168.240595299314,210.77803660797508 170.44349834125023,208.63818624897976 170.93768571564578,207.89467036780843 172.18571823753882,206.55270370862854 172.27785486663925,206.29881650782772 174.53101425175555,203.65110504380573 174.95819316862617,203.03450667091965 175.1927227700362,202.4088375730571 175.79579888799344,199.53434663616645 172.72178589794203,199.66129715488205" stroke="#4DD2FF" stroke-linecap="round" stroke-linejoin="round" stroke-width="0.5"><title>2021-08-14 10.1km</title><desc>1628947493776</desc></polyline><polyline fill="none" points="47.58010792406276,252.98632788276882 46.05779917514883,251.8606210633443 44.75826731650159,249.9710314872791 43.755771311116405,249.30766188068083 42.2705920439912,247.67938430064532 41.49087292875629,247.27733898199222 41.28666077950038,246.73457687722112 40.00569366151467,245.58874227853084 39.96856417984236,245.16659149601765 39.15171558293514,244.3624929896032 38.724726543645374,244.28208301067934 38.037831132649444,242.75428898158134 36.812558237230405,242.1311074210971 36.51552238385193,241.56823254970368 36.1070980852237,241.54812985462195 35.17886104329955,240.22134875495976 31.001794354524463,235.73838989100477 29.275273456354626,234.31106490493403 29.293838197248988,233.92910345106793 31.707254506414756,231.8182543474686 30.79758220515214,230.5919441540027 35.23455526586622,226.79235845564108 33.80507022119127,224.6814550077106 33.32238695945125,224.40000000000873 31.410218652919866,226.2696600516647 29.071061307098716,227.41557449524407 27.827223671018146,228.74241688029724 27.734399966779165,229.52645712267258 26.657644998049363,229.96873525546107 27.418799372506328,231.09453095491335 27.121763519011438,231.61722026129428 27.493058335850947,232.2806321924727 25.358113139285706,230.1898740572069 24.70834720984567,230.4311161853111 24.745476691634394,231.9790815114975 26.36060914467089,233.4466250729165 26.583386034704745,234.47189062286634 25.78510217857547,235.97962719088537 24.745476691634394,236.68323478332604 23.390250610304065,236.56261646572966 22.573402013396844,235.93942098884145 22.387754605035298,235.29612096272467 22.944696830119938,233.02445580324274 24.429876097361557,232.09970182323013 25.655148992780596,232.3811490132939 26.02644380950369,232.84352591945208 26.267785440431908,232.70280259486753 23.761545427143574,233.26569546466635 23.57589801866561,235.45694610915962 24.002887057955377,235.97962719088537 24.63408824650105,235.99973028969544 25.153900990029797,235.59766803579987 25.17246573092416,233.50693491612037 24.596958764945157,232.90383589384146 23.85436913126614,233.18528226749913 23.650156982126646,233.54714147097548 23.594462759559974,235.45694610915962 24.337052393122576,236.01983338712307 25.20959521259647,235.47704924592108 25.20959521259647,233.64765783253824 24.819735654979013,233.18528226749913 23.594462759559974,233.46672835545905 23.57589801866561,235.53735864743066 24.0400165397441,235.97962719088537 24.87542987742927,235.87911167477432 25.228159953374416,235.39663669020229 25.33954839850776,233.28579876027652 26.02644380950369,233.04455911637342 26.379173885448836,232.5620791988331 26.434868108015507,232.86362924572313 26.156396995298564,232.88373257049534 27.86435315257404,231.43628945905948 29.10819078888744,231.57701342657674 30.5748053152347,231.33577229567163 31.96716087812092,230.04914938559523 34.10210607456975,227.2346409506863 35.10460207995493,226.5310093768785 33.47090488602407,224.52062360972923 31.781513469759375,226.35007525488618 30.630499537684955,227.073811034119 30.370593165862374,227.5965079216985 28.06856530182995,228.6620023710857 27.660141003434546,231.21515165157325 26.100702772848308,232.82342259174038 26.416303367121145,234.57240664912388 25.840796401025727,235.8992147809331 25.283854175941087,236.46210116092698 23.984322317061014,236.9445742914395 23.650156982126646,237.66828241290932 22.406319345813245,238.69353235134622 22.480578309157863,239.25641305847967 22.87043786677532,239.07548724148364 23.613027500454336,238.39198864536593 23.631592241232283,238.07034166411904 22.406319345813245,238.51260616708896 21.756553416489623,238.41209156927653 20.419892076053657,236.90436822931224 20.419892076053657,235.61777116236044 21.069658005377278,235.21570835450257 22.220671937451698,235.51725551503478 24.077146021299995,236.82395608753723 24.262793429777957,238.03013576523517 24.70834720984567,238.37188571994193 24.244228688883595,238.99507572941366 24.578394024050795,240.1208347765787 23.798674908815883,241.10587019345257 25.78510217857547,243.39757170401572 26.007879068609327,244.724337606036 25.488066325196996,250.99623594000877 25.74797269690316,251.55909167509526 25.098206767463125,253.9914193963341 25.283854175941087,255.21762611050508 25.61801951099187,255.4186430874397 25.636584251886234,256.64484349192935 25.320983657613397,257.46900793071836 26.02644380950369,258.4740832004318 27.288846186595038,258.31327140198846 27.437364113284275,259.90128382602416 28.551248563686386,260.16260145512933 28.384165896102786,261.71040082606487 28.885413898853585,263.0370791274472 27.10319877823349,263.98183101965697 24.856865136651322,263.3184949211718 23.557333277887665,263.5597082314198 21.997895047417842,265.10748864809284 21.64516497135628,267.0572776612098 21.81224763893988,267.6000000000058 21.77511815726757,265.8914260840975 22.7961789034307,264.0421342226764 23.81723964959383,263.2179893133434 24.44844083825592,262.2531336253305 23.78011016792152,263.2581915608316 24.615523505723104,263.29839380252815 25.450936843524687,262.79586536272836 25.469501584302634,261.5495909038291 25.00538306334056,260.9264515746909 25.023947804234922,259.4992562237312 25.655148992780596,255.9814898478071 28.142824265174568,255.96138819746557 28.551248563686386,254.97640554587997 30.741887982701883,255.07691413996508 34.8261309673544,256.3433193049277 36.36700445692986,256.30311605522 39.281668768730015,257.7102263275592" stroke="#4DD2FF" stroke-linecap="round" stroke-linejoin="round" stroke-width="0.5"><title>2021-02-12 11.9km</title><desc>1613134985102</desc></polyline></svg>