<?xml version="1.0" encoding="utf-8" ?>
<svg baseProfile="full" height="200mm" version="1.1" viewBox="0,0,200,200" width="200mm" xmlns="http://www.w3.org/2000/svg" xmlns:ev="http://www.w3.org/2001/xml-events" xmlns:xlink="http://www.w3.org/1999/xlink"><defs /><rect fill="#1a1a1a" height="200" width="200" x="0" y="0" /><rect fill="#1a1a1a" height="200" width="180" x="10" y="0" /><text alignment-baseline="middle" fill="#e1ed5e" style="dominant-baseline: central; font-size:9.0px; font-family:Arial;" text-anchor="middle" x="100.0" y="100.0">2023</text><line stroke="#e1ed5e" stroke-width="0.3" x1="100.0" x2="100.0" y1="15.0" y2="10.0" /><path d="M 100.0 14.0 a86.0,86.0 0 0,1 42.46469731375804,11.215312516191453" fill="none" id="id109" stroke="none" /><text fill="#e1ed5e" style="font-size:6.75px; font-family:Arial;" text-anchor="middle"><textPath startOffset="22.20632615414155" xlink:href="#id109">January</textPath></text><path d="M 110.05341064243156 81.56283822128135 l 10.614319742398743 -19.46582480533399 a43.17165124535906,43.17165124535906 0 0,0 0.6493754601615335,0.36137674051600027 l -10.947819291632312 19.28023266725781" fill="red" stroke="none" /><line stroke="#e1ed5e" stroke-width="0.3" x1="143.23703022742887" x2="145.7803849466894" y1="26.81831364943548" y2="22.513508569990506" /><path d="M 143.74570117128098 25.957352633546492 a86.0,86.0 0 0,1 28.547481713284135,27.462654790039103" fill="none" id="id110" stroke="none" /><text fill="#e1ed5e" style="font-size:6.75px; font-family:Arial;" text-anchor="middle"><textPath startOffset="19.985693538727396" xlink:href="#id110">February</textPath></text><path d="M 111.60114157652 82.49532879139004 l 12.657489071088335 -19.098567417228097 a43.91216504338094,43.91216504338094 0 0,0 0.6264704050210516,0.4229956139738436 l -12.98436417051593 18.877859890955584" fill="red" stroke="none" /><path d="M 113.6212207817346 84.01681056812373 l 15.196669279749129 -17.83182636298725 a44.428887908686534,44.428887908686534 0 0,0 0.5778002289090518,0.5010626647719268 l -15.501363307304945 17.567598704795653" fill="red" stroke="none" /><path d="M 113.89432698308785 84.25364557470407 l 17.91146503233469 -20.298952012482207 a48.07153546457245,48.07153546457245 0 0,0 0.6157483261599849,0.5528249268893389 l -18.258224346090667 19.987628076823572" fill="red" stroke="none" /><path d="M 114.42810811169701 84.74124197986012 l 15.683456976165044 -16.586379382932822 a43.8271505834127,43.8271505834127 0 0,0 0.5437003386524185,0.5230392950104129 l -15.96664055842988 16.31395700116011" fill="red" stroke="none" /><path d="M 114.94478906791727 85.2469230424477 l 15.718789432306425 -15.517148426819153 a43.08760368435481,43.08760368435481 0 0,0 0.5165090304166519,0.5323079582699262 l -15.983562726426186 15.244276272999112" fill="red" stroke="none" /><path d="M 115.4437574822437 85.77008943001954 l 28.763197993519572 -26.502471022677682 a60.11141175056557,60.11141175056557 0 0,0 0.694591253943938,0.7669850110407869 l -29.215132888079548 26.003433224367345" fill="red" stroke="none" /><path d="M 115.9244219780498 86.31012108654704 l 17.272253703389982 -14.848580506581499 a43.77742503126069,43.77742503126069 0 0,0 0.48632422041221546,0.5756544824126366 l -17.525288537289317 14.549067074539755" fill="red" stroke="none" /><path d="M 116.60985879189232 87.15038557335679 l 28.219904692098734 -21.831305069678827 a56.67868974439113,56.67868974439113 0 0,0 0.5903330058891014,0.7768090376929189 l -28.591513638211946 21.342311256104875" fill="red" stroke="none" /><path d="M 117.04232023915458 87.72973835380427 l 31.597496638218463 -22.74981021803425 a59.93527524955747,59.93527524955747 0 0,0 0.5956064558649203,0.8424430928090065 l -31.984415713887266 22.202540624893448" fill="red" stroke="none" /><path d="M 117.2510076193507 88.02491185347247 l 18.858100308397685 -13.090679596930125 a43.95634638942076,43.95634638942076 0 0,0 0.42611603349888444,0.6252726992027858 l -19.080640807565302 12.764128874456931" fill="red" stroke="none" /><line stroke="#e1ed5e" stroke-width="0.3" x1="172.23445277983987" x2="176.4835382374775" y1="55.19839476539836" y2="52.563006222186495" /><path d="M 173.08426987136738 54.67131705675599 a86.0,86.0 0 0,1 12.851231095245387,41.99856678651699" fill="none" id="id111" stroke="none" /><text fill="#e1ed5e" style="font-size:6.75px; font-family:Arial;" text-anchor="middle"><textPath startOffset="22.20632615414155" xlink:href="#id111">March</textPath></text><path d="M 117.84615892207809 88.93136811851018 l 24.64859549611641 -15.28767232957552 a50.00458903669623,50.00458903669623 0 0,0 0.4473843949135767,0.7353823134317933 l -24.908095689316212 14.861122242936645" fill="red" stroke="none" /><path d="M 118.3937258080291 89.86733742301442 l 31.81015618758282 -17.52345242796266 a57.31745340292301,57.31745340292301 0 0,0 0.4686163106049963,0.8682748530678802 l -32.10708059740628 16.97329659156232" fill="red" stroke="none" /><path d="M 118.56541770881063 90.18545643968196 l 19.561495830065223 -10.341116797929258 a43.12669916047294,43.12669916047294 0 0,0 0.34129764663867296,0.6592784204468428 l -19.736602909864015 10.00286565522207" fill="red" stroke="none" /><path d="M 119.196687751892 91.48605970444005 l 20.811603153081254 -9.230172881400195 a43.766618484568085,43.766618484568085 0 0,0 0.29950807976207083,0.6913059423753827 l -20.967401942686006 8.870567794438209" fill="red" stroke="none" /><path d="M 119.47837535516314 92.15188598940014 l 53.458370873490836 -21.53913669832207 a78.63446734512863,78.63446734512863 0 0,0 0.4950468468877526,1.2598402279884988 l -53.82121127026029 20.61574746543779" fill="red" stroke="none" /><path d="M 119.61058180528143 92.48833698450437 l 33.67782645719782 -12.899998885942423 a57.063915014019884,57.063915014019884 0 0,0 0.3434579533288251,0.9202965583701421 l -33.89488899902826 12.318379190542949" fill="red" stroke="none" /><path d="M 119.7369772167798 92.82701384747503 l 21.351317295052922 -7.75968384689503 a43.717646084878375,43.717646084878375 0 0,0 0.2509536928466276,0.709479883465132 l -21.48172406870936 7.391006337003284" fill="red" stroke="none" /><path d="M 119.97218684219823 93.5106431181261 l 27.720422819575216 -9.006911361984105 a50.14697743469578,50.14697743469578 0 0,0 0.2596766096010797,0.8232458154680706 l -27.871354912944504 8.528415380089616" fill="red" stroke="none" /><path d="M 120.45610955862082 95.25157060432595 l 21.576881684883816 -5.008591636932508 a43.15057140186286,43.15057140186286 0 0,0 0.1617234368283792,0.7249744565223922 l -21.659899508714233 4.636439010860151" fill="red" stroke="none" /><path d="M 120.6074358757038 95.95851677861258 l 29.106726200175952 -5.7083446129375135 a50.661198699851326,50.661198699851326 0 0,0 0.1604615693990185,0.8571921200039184 l -29.20067349348483 5.206474415471032" fill="red" stroke="none" /><path d="M 120.83666639777658 97.38593545837742 l 22.632688821499457 -2.8393845829471336 a43.81010101031349,43.81010101031349 0 0,0 0.08743170801044528,0.7490614805892264 l -22.678210882513493 2.4493793640330543" fill="red" stroke="none" /><line stroke="#e1ed5e" stroke-width="0.3" x1="184.98032266829074" x2="189.97916517819016" y1="98.17113171792111" y2="98.06355123074" /><path d="M 185.9800911702706 98.14961562048488 a86.0,86.0 0 0,1 -9.607161424134198,41.387399972396054" fill="none" id="id112" stroke="none" /><text fill="#e1ed5e" style="font-size:6.75px; font-family:Arial;" text-anchor="middle"><textPath startOffset="21.466115282336823" xlink:href="#id112">April</textPath></text><path d="M 120.99513854157772 99.54816195383933 l 36.35108010880219 -0.7823144857874711 a57.359497260430146,57.359497260430146 0 0,0 0.012747445973611516,0.987303738834558 l -36.35916056189352 0.15647448889245044" fill="red" stroke="none" /><path d="M 120.92983693683757 101.71520430193887 l 38.73911585239696 3.17467825305376 a59.868980936420826,59.868980936420826 0 0,0 -0.09301188921575283,1.0263784469401107 l -38.67872936690413 -3.841038088542441" fill="red" stroke="none" /><path d="M 120.89721153311464 102.0752229133903 l 39.00291768643388 3.873232002446961 a60.19476386202009,60.19476386202009 0 0,0 -0.11126772356244159,1.030200930251736 l -38.930467661370386 -4.544029254583489" fill="red" stroke="none" /><path d="M 120.8583938346157 102.4346265915055 l 45.7393452157392 5.338772823221103 a67.04986640613117,67.04986640613117 0 0,0 -0.14367346635601724,1.145218888441966 l -45.64067024013633 -6.125309465950464" fill="red" stroke="none" /><path d="M 120.70491114924044 103.5080841355445 l 36.239722412713775 6.140185502667152 a57.756215237123,57.756215237123 0 0,0 -0.17451606351519106,0.978778763405165 l -36.1286599068594 -6.763083016805536" fill="red" stroke="none" /><path d="M 120.49622156327973 104.57218783832717 l 42.4270676696561 9.464404071559258 a64.46988630621577,64.46988630621577 0 0,0 -0.25093962005674664,1.0810413155044347 l -42.257867483668804 -10.193314044412258" fill="red" stroke="none" /><path d="M 120.23288151984713 105.62410040840565 l 35.93604192077586 9.989081774875407 a58.29853701738056,58.29853701738056 0 0,0 -0.2770772977668037,0.9645424226527752 l -35.75877198612296 -10.606181673032765" fill="red" stroke="none" /><path d="M 120.02730092923936 106.31721596034902 l 34.81604184830697 10.982031778390898 a57.507010175645036,57.507010175645036 0 0,0 -0.30590374559557554,0.9414749217797564 l -34.621845851695156 -11.57970560014845" fill="red" stroke="none" /><path d="M 119.79798401119884 107.00284435728193 l 36.34418473961354 12.855484117971205 a59.550787751932745,59.550787751932745 0 0,0 -0.3501465488281328,0.9634529204161645 l -36.11751392978018 -13.4791848353935" fill="red" stroke="none" /><path d="M 119.41010516605496 108.01547362559984 l 23.879644034576184 9.861185980722874 a46.83564181831903,46.83564181831903 0 0,0 -0.31413115215898574,0.7425132508615968 l -23.706361901224888 -10.270773757250636" fill="red" stroke="none" /><path d="M 119.12269723197855 108.67885076344098 l 33.34571402623904 15.133977813032924 a57.61931086687853,57.61931086687853 0 0,0 -0.4176724606731168,0.8996293224034417 l -33.08026694872609 -15.705727202715197" fill="red" stroke="none" /><line stroke="#e1ed5e" stroke-width="0.3" x1="174.80103733775053" x2="179.2010983576182" y1="140.37084112569926" y2="142.7455964860345" /><path d="M 175.68104954172406 140.8457921977663 a86.0,86.0 0 0,1 -30.038265399797805,32.042727171017184" fill="none" id="id113" stroke="none" /><text fill="#e1ed5e" style="font-size:6.75px; font-family:Arial;" text-anchor="middle"><textPath startOffset="22.206326154141568" xlink:href="#id113">May</textPath></text><path d="M 118.30583269289576 110.29060199501025 l 40.94058401148464 23.014700427638576 a67.96602873328102,67.96602873328102 0 0,0 -0.5820740284347908,1.0148951317419261 l -40.538357986897466 -23.716015405238817" fill="red" stroke="none" /><path d="M 117.75023020441432 111.22182372390056 l 31.57959174769003 19.964845964487303 a58.361285970058326,58.361285970058326 0 0,0 -0.5441359980951717,0.8445111527194228 l -31.231250886217808 -20.505478717128177" fill="red" stroke="none" /><path d="M 117.35343817320211 111.8261652097733 l 30.446158867702184 20.74870127629646 a57.84395736685117,57.84395736685117 0 0,0 -0.5678048046549891,0.8179651699889512 l -30.08449315588506 -21.26970770847243" fill="red" stroke="none" /><path d="M 116.93607887273984 112.41649034213515 l 30.100202580038065 22.06761538132186 a58.322939916052746,58.322939916052746 0 0,0 -0.6005561261935952,0.8045430725158359 l -29.71588518714938 -22.582471333347012" fill="red" stroke="none" /><path d="M 116.0416608686014 113.55231037782055 l 28.310786340192873 23.917508708430095 a58.061406422556075,58.061406422556075 0 0,0 -0.6515526346824111,0.757902912157741 l -27.89489119593968 -24.401288719749363" fill="red" stroke="none" /><path d="M 115.32070863581623 114.36230785411682 l 26.58218191403129 24.919309488788127 a57.43603135233938,57.43603135233938 0 0,0 -0.6823768351048128,0.715469383500761 l -26.14929852754751 -25.373185988871395" fill="red" stroke="none" /><path d="M 114.81725581225074 114.88116024355365 l 25.815356053008788 25.92669351443574 a57.587238823599435,57.587238823599435 0 0,0 -0.7084602806011155,0.6933774956914468 l -25.365245820031877 -26.36722111304976" fill="red" stroke="none" /><path d="M 114.29624159901734 115.38237550388516 l 29.50373803853417 31.7452369655104 a64.33855821601425,64.33855821601425 0 0,0 -0.8177138178336478,0.7469621847835479 l -28.95292467123366 -32.24839191688053" fill="red" stroke="none" /><path d="M 113.48314897796784 116.09983520530334 l 23.977687805505848 28.63105813809962 a58.345240695509574,58.345240695509574 0 0,0 -0.7755190254936497,0.638199360914826 l -23.481298651467508 -29.039552617871625" fill="red" stroke="none" /><path d="M 112.34349029814194 116.9893568818739 l 25.907078433206973 35.658034367694725 a65.07575442249441,65.07575442249441 0 0,0 -0.9119055307693903,0.6506203836104346 l -25.289445574588697 -36.09869901314938" fill="red" stroke="none" /><path d="M 112.04921762599082 117.19931262002967 l 25.27506065395951 36.07816566778245 a65.05068363843277,65.05068363843277 0 0,0 -0.9226142034420024,0.6345824619728726 l -24.650289565894624 -36.50788891912042" fill="red" stroke="none" /><path d="M 111.45004920935366 117.60387380957326 l 20.138418018204415 30.96180313594639 a57.93493107757262,57.93493107757262 0 0,0 -0.8406584664996769,0.5365480076988085 l -19.602477749657808 -31.303865572469007" fill="red" stroke="none" /><line stroke="#e1ed5e" stroke-width="0.3" x1="143.8653032363475" x2="146.44561519142675" y1="172.8068346515853" y2="177.08958963109032" /><path d="M 144.38136562736335 173.6633856474863 a86.0,86.0 0 0,1 -40.68145358897372,12.25698825130547" fill="none" id="id114" stroke="none" /><text fill="#e1ed5e" style="font-size:6.75px; font-family:Arial;" text-anchor="middle"><textPath startOffset="21.466115282336833" xlink:href="#id114">June</textPath></text><path d="M 110.8373102113329 117.98757091392108 l 18.990427524914576 31.519967143956688 a57.79870468284369,57.79870468284369 0 0,0 -0.8566101862020601,0.5061003969834879 l -18.445049467684132 -31.842186113233925" fill="red" stroke="none" /><path d="M 110.21172684928248 118.3499491758327 l 21.284296548495192 38.24678878241641 a64.77028822992897,64.77028822992897 0 0,0 -0.9788862834700959,0.5337668507811102 l -20.622787453156445 -38.60749628495729" fill="red" stroke="none" /><path d="M 109.89434966115114 118.52300852407294 l 17.671192373268035 33.08187583523246 a58.50575354090068,58.50575354090068 0 0,0 -0.8923773863663419,0.46684967218694856 l -17.099124084375198 -33.381154926364125" fill="red" stroke="none" /><path d="M 109.2508944713604 118.85261126421891 l 16.49816886407001 33.62199894601248 a58.451680723206984,58.451680723206984 0 0,0 -0.9070791562756262,0.43545311812184934 l -15.91697703979415 -33.90100634063389" fill="red" stroke="none" /><path d="M 107.59598834532513 119.57807347666477 l 13.263370602979768 34.18531366931144 a57.66814244574164,57.66814244574164 0 0,0 -0.9285388702068403,0.3510939487994354 l -12.672961512012654 -34.408555868217505" fill="red" stroke="none" /><path d="M 105.53697534728816 120.25689768951611 l 16.61092604186447 60.77069306854833 a84.0,84.0 0 0,0 -1.3980382287540103,0.3692346027856641 l -15.562397370298964 -61.04761902063758" fill="red" stroke="none" /><path d="M 105.18746579009965 120.34920634021253 l 9.994770866509228 39.207131750903336 a61.461025997949115,61.461025997949115 0 0,0 -1.027413871090102,0.25251333265865433 l -9.318403710675915 -39.37336634187602" fill="red" stroke="none" /><path d="M 104.83641907484287 120.43548508189849 l 8.64497204253541 36.527892739402816 a58.53694832558363,58.53694832558363 0 0,0 -0.9825283238475938,0.22362024767012456 l -8.014923569294956 -36.67128972065062" fill="red" stroke="none" /><path d="M 104.13013068566511 120.58985236759428 l 7.469820949298275 37.23913896774102 a58.98093858863026,58.98093858863026 0 0,0 -0.9971496819962482,0.19110610979082623 l -6.827703652730322 -37.362202275880314" fill="red" stroke="none" /><path d="M 103.7750983002368 120.6578951692458 l 7.4662913310425125 40.85664831828344 a62.53325436374922,62.53325436374922 0 0,0 -1.0605372789928194,0.18438799999575453 l -6.761905080577644 -40.979114896800205" fill="red" stroke="none" /><path d="M 103.41894727170886 120.7198165907248 l 6.15419164677356 37.2961944281711 a58.80053165828701,58.80053165828701 0 0,0 -1.0000686242424823,0.15619015165663538 l -5.511287158922561 -37.396602887174836" fill="red" stroke="none" /><path d="M 103.06178313531738 120.77559828337769 l 4.025750181702736 27.316555375703032 a48.61160738021837,48.61160738021837 0 0,0 -0.8288774637765458,0.11487486373077829 l -3.5549441267393593 -27.38180480492641" fill="red" stroke="none" /><path d="M 102.70371172650421 120.8252237178851 l 4.742282708464697 36.527229352563765 a57.83378516337683,57.83378516337683 0 0,0 -0.988331405536852,0.11967316933743735 l -4.112823879876466 -36.603448050626554" fill="red" stroke="none" /><path d="M 101.98527174616119 120.90594882070398 l 3.5243241856363374 37.11297518586669 a58.279938145230574,58.279938145230574 0 0,0 -0.9995167087941079,0.08624250738172792 l -2.8849631591006877 -37.168141945527076" fill="red" stroke="none" /><path d="M 101.62511606390274 120.93702456842531 l 3.112098876997774 40.094422850386096 a61.21502086442047,61.21502086442047 0 0,0 -1.0512579106383226,0.07250090044610864 l -2.421478205580521 -40.14205209534849" fill="red" stroke="none" /><line stroke="#e1ed5e" stroke-width="0.3" x1="102.19456741930631" x2="102.32365962044197" y1="184.97166512339345" y2="189.96999836594603" /><path d="M 102.22038585953345 185.97133177190398 a86.0,86.0 0 0,1 -42.740103519485714,-10.115201625700543" fill="none" id="id115" stroke="none" /><text fill="#e1ed5e" style="font-size:6.75px; font-family:Arial;" text-anchor="middle"><textPath startOffset="22.20632615414155" xlink:href="#id115">July</textPath></text><path d="M 100.54218724476979 120.99299961872073 l 1.454835115560883 56.329899533580125 a77.3486834511393,77.3486834511393 0 0,0 -1.3312824825225547,0.022919235247704832 l -0.4849929431456602 -56.34659624610699" fill="red" stroke="none" /><path d="M 100.18074693466247 120.99922214144158 l 0.19720550265913184 22.911382511616058 a43.91223120090807,43.91223120090807 0 0,0 -0.7559048746431588,0.0 l 0.19720550265911607 -22.911382511616058" fill="red" stroke="none" /><path d="M 99.45781275523022 120.99299961872073 l -0.9505309509157468 36.80369850572466 a57.81597116454934,57.81597116454934 0 0,0 -0.9946539871389221,-0.03425789444722079 l 1.583905289729312 -36.78188381285135" fill="red" stroke="none" /><path d="M 97.2962882734958 120.8252237178851 l -3.47905616644587 26.797281042606198 a48.022177985604834,48.022177985604834 0 0,0 -0.8188270916943938,-0.11348197373938587 l 3.9398118493270946 -26.733424503374206" fill="red" stroke="none" /><path d="M 94.46302465271185 120.25689768951611 l -5.950788215820662 21.77082260604546 a43.5694616092952,43.5694616092952 0 0,0 -0.7217360817303043,-0.2039698259238467 l 6.324655465655581 -21.665163986783092" fill="red" stroke="none" /><path d="M 93.42475214034765 119.94407469862007 l -7.041673181221399 21.358838317157304 a43.48966730411101,43.48966730411101 0 0,0 -0.7089442582232153,-0.24051238388065763 l 7.40828717238184 -21.23446294637852" fill="red" stroke="none" /><path d="M 90.10565033884886 118.52300852407294 l -10.738467197520313 20.103263604695037 a43.79157487564376,43.79157487564376 0 0,0 -0.6618308046607478,-0.36088292411392014 l 11.0829208140497 -19.91544002882135" fill="red" stroke="none" /><line stroke="#e1ed5e" stroke-width="0.3" x1="58.666819895761336" x2="56.23545636021788" y1="174.27360380694188" y2="178.64263932499728" /><path d="M 58.180547188652646 175.14741091055294 a86.0,86.0 0 0,1 -31.652253787137756,-30.449443065178592" fill="none" id="id116" stroke="none" /><text fill="#e1ed5e" style="font-size:6.75px; font-family:Arial;" text-anchor="middle"><textPath startOffset="22.20632615414155" xlink:href="#id116">August</textPath></text><path d="M 89.7882731507175 118.34994917583269 l -17.470235144992692 31.393116143033808 a56.92682642805161,56.92682642805161 0 0,0 -0.8521437182343062,-0.4838694427983632 l 18.008027630148206 -31.08774353444081" fill="red" stroke="none" /><path d="M 88.54995079064634 117.60387380957326 l -20.106383650656603 30.912551909722787 a57.876178341562145,57.876178341562145 0 0,0 -0.8304550892643291,-0.5503803498324636 l 20.635513438660894 -30.561873538799006" fill="red" stroke="none" /><path d="M 88.24862548938628 117.40417183066458 l -23.29850451133354 34.505850830175454 a62.63500995531224,62.63500995531224 0 0,0 -0.8883526903222133,-0.611017080835919 l 23.889014086278646 -34.09969295997444" fill="red" stroke="none" /><path d="M 86.79598089348748 116.32954008644616 l -22.70700764220949 28.08197932353905 a57.11378903952111,57.11378903952111 0 0,0 -0.7591506949012995,-0.6247293391875833 l 23.18702846565548 -27.686954865494286" fill="red" stroke="none" /><path d="M 86.51685102203217 116.09983520530335 l -23.37773410976668 27.914670916687417 a57.41081301610694,57.41081301610694 0 0,0 -0.7521760323100143,-0.6410207328451328 l 23.85477561865375 -27.508125793619335" fill="red" stroke="none" /><path d="M 86.24171649860922 115.8653595955263 l -24.096954882403946 27.787394723176444 a57.78046410944573,57.78046410944573 0 0,0 -0.7458017452129388,-0.6580833272683931 l 24.571698980523475 -27.368488254135762" fill="red" stroke="none" /><path d="M 85.70375840098266 115.38237550388516 l -24.930099652032023 26.824123776922768 a57.620260581540386,57.620260581540386 0 0,0 -0.720703698468286,-0.6814703309584954 l 25.388139184891124 -26.391018809218345" fill="red" stroke="none" /><path d="M 85.18274418774928 114.88116024355367 l -25.53700486498138 25.647141842688658 a57.192741014920024,57.192741014920024 0 0,0 -0.6916491790242788,-0.7006369667328621 l 25.97469466906119 -25.20376438197513" fill="red" stroke="none" /><path d="M 84.67929136418377 114.36230785411682 l -26.511009395589646 24.852589231591804 a57.33847562415456,57.33847562415456 0 0,0 -0.6688221697231427,-0.7258743712516765 l 26.934877973308517 -24.392563605538783" fill="red" stroke="none" /><path d="M 84.43433777217949 114.09645910891817 l -29.32704288269427 26.55893817627022 a60.56580141099548,60.56580141099548 0 0,0 -0.6931644944328071,-0.7787776576816189 l 29.779866226775415 -26.05018634884774" fill="red" stroke="none" /><path d="M 83.95833913139862 113.55231037782056 l -27.50832242883162 23.239571424825417 a57.01090783162961,57.01090783162961 0 0,0 -0.6268593651440091,-0.7550924873853662 l 27.904277793869163 -22.76261768032629" fill="red" stroke="none" /><path d="M 83.06392112726016 112.41649034213515 l -34.55675255924639 25.3348834539304 a63.84886774542844,63.84886774542844 0 0,0 -0.642198623893894,-0.8919577203096885 l 34.98773097551589 -24.736292128169573" fill="red" stroke="none" /><line stroke="#e1ed5e" stroke-width="0.3" x1="26.63291911575756" x2="22.317208475507996" y1="142.92168965132927" y2="145.44649492493687" /><path d="M 25.769776987707644 143.4266507060508 a86.0,86.0 0 0,1 -11.730757126820373,-40.83630448921669" fill="none" id="id117" stroke="none" /><text fill="#e1ed5e" style="font-size:6.75px; font-family:Arial;" text-anchor="middle"><textPath startOffset="21.46611528233685" xlink:href="#id117">September</textPath></text><path d="M 81.69416730710424 110.29060199501025 l -31.777044281937723 17.86342750800642 a57.4538418500716,57.4538418500716 0 0,0 -0.47720501839496243,-0.8662657219543647 l 32.0798257097842 -17.313791267654235" fill="red" stroke="none" /><path d="M 81.35079622478065 109.6543875284942 l -22.10545775905718 11.44363364103928 a45.89192667608892,45.89192667608892 0 0,0 -0.35712950968940776,-0.7046504035025749 l 22.299165938532855 -11.06142902583402" fill="red" stroke="none" /><path d="M 80.58989483394504 108.01547362559985 l -38.904978835869805 16.06595271357902 a63.0917119492001,63.0917119492001 0 0,0 -0.4058821593506125,-1.0073662333545916 l 39.175763609477805 -15.393887112381622" fill="red" stroke="none" /><path d="M 79.76711848015287 105.62410040840567 l -35.03023818513868 9.737297017744561 a57.35839023553333,57.35839023553333 0 0,0 -0.25623337742545416,-0.9535397185562058 l 35.19265963890591 -9.132866366012816" fill="red" stroke="none" /><path d="M 79.67330655649465 105.27499134158121 l -34.74473365302419 9.016624848239042 a56.89562703552445,56.89562703552445 0 0,0 -0.23784725332415366,-0.9500815457803582 l 34.8947922206434 -8.417215463061293" fill="red" stroke="none" /><path d="M 79.23777060512086 103.15116336523772 l -39.50432925718001 5.9957239059413165 a60.95673579280426,60.95673579280426 0 0,0 -0.14851948732234646,-1.0387449484166376 l 39.60168279551896 -5.314833485544279" fill="red" stroke="none" /><path d="M 79.18660465613746 102.79330883721812 l -36.00783966626302 4.832513633032254 a57.33067168997495,57.33067168997495 0 0,0 -0.12284731904349161,-0.9792140033319763 l 36.08568849455336 -4.211981875412869" fill="red" stroke="none" /><path d="M 79.04373962182676 101.35467743843564 l -35.76472413442437 2.311942302799481 a56.839371780528616,56.839371780528616 0 0,0 -0.05471100556879723,-0.9769017572056264 l 35.7992214908807 -1.6959688292584174" fill="red" stroke="none" /><line stroke="#e1ed5e" stroke-width="0.3" x1="15.007084014347285" x2="10.007500721073583" y1="101.09737516637583" y2="101.16192664675087" /><path d="M 14.007167355692545 101.11028546245083 a86.0,86.0 0 0,1 10.666146001902534,-42.60595125391555" fill="none" id="id118" stroke="none" /><text fill="#e1ed5e" style="font-size:6.75px; font-family:Arial;" text-anchor="middle"><textPath startOffset="22.20632615414155" xlink:href="#id118">October</textPath></text><path d="M 79.00486145842228 99.54816195383935 l -35.55617243102528 -0.7652072144401433 a56.564405520489636,56.564405520489636 0 0,0 0.029328120487708966,-0.9732575384624453 l 35.53773261608193 1.377134900327583" fill="red" stroke="none" /><path d="M 79.21141760316559 97.0276538004421 l -22.533753384747516 -3.221870301513605 a43.76291918547346,43.76291918547346 0 0,0 0.11304192627162035,-0.7448050552953027 l 22.474955565036595 3.609274469201" fill="red" stroke="none" /><path d="M 79.32604984820605 96.31383870115002 l -21.330472191071923 -3.803219051009581 a42.66687607949182,42.66687607949182 0 0,0 0.13514077978357333,-0.7219274493919621 l 21.26184568737849 4.169824577864116" fill="red" stroke="none" /><path d="M 79.46518482838121 95.60439243477599 l -35.700391462119306 -7.641895458072416 a57.509129224629135,57.509129224629135 0 0,0 0.21553767945730815,-0.9662131543153136 l 35.563559395659965 8.25528678193769" fill="red" stroke="none" /><path d="M 80.38941819471856 92.48833698450439 l -21.298105776525084 -8.158054414201562 a43.80708577379242,43.80708577379242 0 0,0 0.275789490484827,-0.7018541714861479 l 21.154522736158565 8.523457590583472" fill="red" stroke="none" /><path d="M 80.65960295795068 91.81776055985345 l -34.00393611735873 -14.385865327105753 a57.92182000772764,57.92182000772764 0 0,0 0.3963763637109786,-0.914891297317347 l 33.75126904380507 14.9690557690097" fill="red" stroke="none" /><path d="M 81.10775173730289 90.83032412892265 l -41.65767534628757 -20.21926533869786 a67.30529781886047,67.30529781886047 0 0,0 0.5148534366565924,-1.0379131115171296 l 41.30346189667757 20.93333803871395" fill="red" stroke="none" /><path d="M 81.6062741919709 89.86733742301443 l -20.419521512136622 -11.248624864009994 a44.31283809654745,44.31283809654745 0 0,0 0.37379431721185963,-0.6649383812291522 l 20.222869553632332 11.598446755173931" fill="red" stroke="none" /><line stroke="#e1ed5e" stroke-width="0.3" x1="26.266209847984243" x2="21.928928074336255" y1="57.711370442889674" y2="55.22380399835377" /><path d="M 25.398753493254645 57.213857153982495 a86.0,86.0 0 0,1 29.58750427330803,-30.492523968695096" fill="none" id="id119" stroke="none" /><text fill="#e1ed5e" style="font-size:6.75px; font-family:Arial;" text-anchor="middle"><textPath startOffset="21.46611528233685" xlink:href="#id119">November</textPath></text><path d="M 82.15384107792192 88.93136811851018 l -36.62214123397255 -22.713963368850802 a64.09414531560556,64.09414531560556 0 0,0 0.5895819103417189,-0.9325769937585796 l 36.22573172738487 23.340988010323596" fill="red" stroke="none" /><path d="M 82.34701348167596 88.62581576622439 l -30.848724042060052 -19.876470775473404 a57.69765476854648,57.69765476854648 0 0,0 0.545114706573179,-0.8302470962813128 l 30.50201270012895 20.404535935732383" fill="red" stroke="none" /><path d="M 82.95767976084542 87.72973835380427 l -28.98514772139132 -20.868951023346607 a56.71626947548856,56.71626947548856 0 0,0 0.5772565364601755,-0.7873772669977425 l 28.62162857241751 21.36479073401585" fill="red" stroke="none" /><path d="M 83.84228863543731 86.58626213691792 l -17.506248269128864 -14.53326030833479 a43.75267860385227,43.75267860385227 0 0,0 0.48604931189465345,-0.5753290774384511 l 17.253488343747087 14.83244833540236" fill="red" stroke="none" /><path d="M 85.57189188830299 84.74124197986013 l -15.693605972827577 -16.59711267402141 a43.84192236972474,43.84192236972474 0 0,0 0.5528093048943358,-0.5137760015647896 l 15.405588784138384 16.864793261660846" fill="red" stroke="none" /><path d="M 86.37877921826538 84.01681056812374 l -14.687022099155433 -17.233804529160572 a43.64315871715772,43.64315871715772 0 0,0 0.5759701191313126,-0.4823584107585931 l 14.388194443065009 17.484064097312977" fill="red" stroke="none" /><path d="M 86.93701828274178 83.55741782278169 l -22.421628061049265 -28.222458694384986 a57.044924464677386,57.044924464677386 0 0,0 0.7740926840867944,-0.6041916183844376 l 21.932502821803045 28.604228701992646" fill="red" stroke="none" /><path d="M 88.39885842347998 82.49532879139004 l -19.86424926636072 -29.972666906959695 a56.95760226199279,56.95760226199279 0 0,0 0.8219062675070138,-0.5345906991967657 l 19.345375973069416 30.310156530315997" fill="red" stroke="none" /><line stroke="#e1ed5e" stroke-width="0.3" x1="56.762969772571076" x2="54.21961505331055" y1="26.818313649435495" y2="22.513508569990535" /><path d="M 56.25429882871897 25.957352633546506 a86.0,86.0 0 0,1 42.265352541879196,-11.944610805530505" fill="none" id="id120" stroke="none" /><text fill="#e1ed5e" style="font-size:6.75px; font-family:Arial;" text-anchor="middle"><textPath startOffset="22.20632615414155" xlink:href="#id120">December</textPath></text><path d="M 89.63071344664047 81.73862282372117 l -18.065884058693705 -31.815874806916444 a57.58723898508254,57.58723898508254 0 0,0 0.8662105510589885,-0.48204523383806547 l 17.51554941856267 32.12213543831469" fill="red" stroke="none" /><path d="M 90.58718382345135 81.22770947309562 l -16.100454506398904 -32.10966876866699 a56.92012616550962,56.92012616550962 0 0,0 0.8796293536237875,-0.43163030363485105 l 15.545353885764692 32.38205423243667" fill="red" stroke="none" /><path d="M 91.23893434514133 80.91482961587045 l -15.027750198656063 -32.736562460575946 a57.02104659457298,57.02104659457298 0 0,0 0.8955505138394957,-0.4018074108888816 l 14.462017566349793 32.990390201981356" fill="red" stroke="none" /><path d="M 91.90106846888425 80.62456947434976 l -17.997615290289065 -43.05648755575239 a67.66663987021036,67.66663987021036 0 0,0 1.0785293264434963,-0.4399591925149315 l 17.25380209425719 43.3599076344509" fill="red" stroke="none" /><path d="M 92.91201910852362 80.23233633223022 l -9.170596290649863 -25.57586792092831 a48.170293635418275,48.170293635418275 0 0,0 0.7829232422535262,-0.2731465461214162 l 8.728991044333052 25.729935320221937" fill="red" stroke="none" /><path d="M 99.27714615592234 79.0124445844662 l -1.2641667999063744 -36.704198206715965 a57.725961984621684,57.725961984621684 0 0,0 0.9933631009045351,-0.025655638189748555 l 0.6321770638069601 36.720520637048075" fill="red" stroke="none" /></svg>