<?xml version="1.0" encoding="utf-8" ?>
<svg baseProfile="full" height="200mm" version="1.1" viewBox="0,0,200,200" width="200mm" xmlns="http://www.w3.org/2000/svg" xmlns:ev="http://www.w3.org/2001/xml-events" xmlns:xlink="http://www.w3.org/1999/xlink"><defs /><rect fill="#1a1a1a" height="200" width="200" x="0" y="0" /><rect fill="#1a1a1a" height="200" width="180" x="10" y="0" /><text alignment-baseline="middle" fill="#e1ed5e" style="dominant-baseline: central; font-size:9.0px; font-family:Arial;" text-anchor="middle" x="100.0" y="100.0">2018</text><line stroke="#e1ed5e" stroke-width="0.3" x1="100.0" x2="100.0" y1="15.0" y2="10.0" /><path d="M 100.0 14.0 a86.0,86.0 0 0,1 42.46469731375804,11.215312516191453" fill="none" id="id49" stroke="none" /><text fill="#e1ed5e" style="font-size:6.75px; font-family:Arial;" text-anchor="middle"><textPath startOffset="22.20632615414155" xlink:href="#id49">January</textPath></text><path d="M 100.0 79.0 l 0.0 -40.7932757433043 a61.7932757433043,61.7932757433043 0 0,0 1.0636696634051972,0.009155340605425959 l -0.7021891841326687 40.78723177930743" fill="red" stroke="none" /><line stroke="#e1ed5e" stroke-width="0.3" x1="143.23703022742887" x2="145.7803849466894" y1="26.81831364943548" y2="22.513508569990506" /><path d="M 143.74570117128098 25.957352633546492 a86.0,86.0 0 0,1 28.547481713284135,27.462654790039103" fill="none" id="id50" stroke="none" /><text fill="#e1ed5e" style="font-size:6.75px; font-family:Arial;" text-anchor="middle"><textPath startOffset="19.985693538727396" xlink:href="#id50">February</textPath></text><line stroke="#e1ed5e" stroke-width="0.3" x1="172.23445277983987" x2="176.4835382374775" y1="55.19839476539836" y2="52.563006222186495" /><path d="M 173.08426987136738 54.67131705675599 a86.0,86.0 0 0,1 12.851231095245387,41.99856678651699" fill="none" id="id51" stroke="none" /><text fill="#e1ed5e" style="font-size:6.75px; font-family:Arial;" text-anchor="middle"><textPath startOffset="22.20632615414155" xlink:href="#id51">March</textPath></text><path d="M 118.21658344932153 89.55222093294921 l 45.878781730857625 -26.312912996168834 a73.88886464513703,73.88886464513703 0 0,0 0.6232784650220824,1.108742841994223 l -46.32491783717214 25.519286644239816" fill="red" stroke="none" /><path d="M 118.3937258080291 89.86733742301442 l 33.376474022861544 -18.386299372558625 a59.1057085331857,59.1057085331857 0 0,0 0.4832367354810503,0.8953642799054923 l -33.68801885756106 17.809054109320673" fill="red" stroke="none" /><path d="M 119.47837535516314 92.15188598940014 l 39.20113122455382 -15.794692400423122 a63.26347119332098,63.26347119332098 0 0,0 0.3982780451728701,1.0135741827018916 l -39.467202819608396 15.117569212825446" fill="red" stroke="none" /><path d="M 120.18372546131832 94.20196356495316 l 29.518488484080525 -8.479567960147573 a51.71228150391234,51.71228150391234 0 0,0 0.23840157017976588,0.8576572915347557 l -29.660076824826653 7.970199365193866" fill="red" stroke="none" /><path d="M 120.98425023603335 99.18683210126433 l 23.370342435634438 -0.9056321782936476 a44.38788308507584,44.38788308507584 0 0,0 0.023014706357019524,0.7637460595831824 l -23.382468836447103 0.5032159712854661" fill="red" stroke="none" /><line stroke="#e1ed5e" stroke-width="0.3" x1="184.98032266829074" x2="189.97916517819016" y1="98.17113171792111" y2="98.06355123074" /><path d="M 185.9800911702706 98.14961562048488 a86.0,86.0 0 0,1 -9.607161424134198,41.387399972396054" fill="none" id="id52" stroke="none" /><text fill="#e1ed5e" style="font-size:6.75px; font-family:Arial;" text-anchor="middle"><textPath startOffset="21.466115282336823" xlink:href="#id52">April</textPath></text><path d="M 118.64920377521936 109.65438752849418 l 31.31955932786551 16.213623199005546 a56.26749741236282,56.26749741236282 0 0,0 -0.452678693156239,0.8562974910319499 l -31.035828126484375 -16.750335705123632" fill="red" stroke="none" /><line stroke="#e1ed5e" stroke-width="0.3" x1="174.80103733775053" x2="179.2010983576182" y1="140.37084112569926" y2="142.7455964860345" /><path d="M 175.68104954172406 140.8457921977663 a86.0,86.0 0 0,1 -30.038265399797805,32.042727171017184" fill="none" id="id53" stroke="none" /><text fill="#e1ed5e" style="font-size:6.75px; font-family:Arial;" text-anchor="middle"><textPath startOffset="22.206326154141568" xlink:href="#id53">May</textPath></text><path d="M 117.55443506779139 111.5257021239791 l 40.82814466025475 26.80650398668907 a69.84184734822246,69.84184734822246 0 0,0 -0.6684759252081515,0.9992808081816145 l -40.360665629635875 -27.50532170907649" fill="red" stroke="none" /><path d="M 116.27256486870786 113.27417163493432 l 13.991800129123684 11.413662068285372 a39.056637357558074,39.056637357558074 0 0,0 -0.42944446650321083,0.5172935245711692 l -13.793259662726928 -11.652816849970312" fill="red" stroke="none" /><path d="M 114.55890576462653 115.13401014063108 l 8.590512132283136 8.92985364594276 a33.39109296361144,33.39109296361144 0 0,0 -0.4176496939079035,0.3949138539694315 l -8.435526603984426 -9.076402136658114" fill="red" stroke="none" /><line stroke="#e1ed5e" stroke-width="0.3" x1="143.8653032363475" x2="146.44561519142675" y1="172.8068346515853" y2="177.08958963109032" /><path d="M 144.38136562736335 173.6633856474863 a86.0,86.0 0 0,1 -40.68145358897372,12.25698825130547" fill="none" id="id54" stroke="none" /><text fill="#e1ed5e" style="font-size:6.75px; font-family:Arial;" text-anchor="middle"><textPath startOffset="21.466115282336833" xlink:href="#id54">June</textPath></text><line stroke="#e1ed5e" stroke-width="0.3" x1="102.19456741930631" x2="102.32365962044197" y1="184.97166512339345" y2="189.96999836594603" /><path d="M 102.22038585953345 185.97133177190398 a86.0,86.0 0 0,1 -42.740103519485714,-10.115201625700543" fill="none" id="id55" stroke="none" /><text fill="#e1ed5e" style="font-size:6.75px; font-family:Arial;" text-anchor="middle"><textPath startOffset="22.20632615414155" xlink:href="#id55">July</textPath></text><path d="M 93.08242187328487 119.8279376855182 l -10.222086143157034 29.29968890120254 a52.03164215482923,52.03164215482923 0 0,0 -0.843111907314387,-0.3023099334780811 l 10.724917611101146 -29.1193914266845" fill="red" stroke="none" /><path d="M 91.07499286063937 119.00905698771935 l -13.951655474724207 29.715137461622017 a53.82739838684287,53.82739838684287 0 0,0 -0.8353174880369666,-0.401003156417901 l 14.461085630761417 -29.470580028704553" fill="red" stroke="none" /><line stroke="#e1ed5e" stroke-width="0.3" x1="58.666819895761336" x2="56.23545636021788" y1="174.27360380694188" y2="178.64263932499728" /><path d="M 58.180547188652646 175.14741091055294 a86.0,86.0 0 0,1 -31.652253787137756,-30.449443065178592" fill="none" id="id56" stroke="none" /><text fill="#e1ed5e" style="font-size:6.75px; font-family:Arial;" text-anchor="middle"><textPath startOffset="22.20632615414155" xlink:href="#id56">August</textPath></text><path d="M 84.9287848128048 114.62390073753433 l -21.906520594195484 21.25633392498101 a51.52420967812614,51.52420967812614 0 0,0 -0.6121406076223517,-0.6418269797861367 l 22.269167753196793 -20.876099828612375" fill="red" stroke="none" /><path d="M 83.28015986056508 112.70617746262583 l -41.04705095456144 31.19354667249406 a72.55480332690087,72.55480332690087 0 0,0 -0.7471027984093462,-1.000866288263733 l 41.57791501966587 -30.482367504721022" fill="red" stroke="none" /><path d="M 83.06392112726016 112.41649034213515 l -25.948947579562986 19.02417079131681 a53.17556456045642,53.17556456045642 0 0,0 -0.5348454184287569,-0.7428535072953015 l 26.27257279036735 -18.57468367857037" fill="red" stroke="none" /><line stroke="#e1ed5e" stroke-width="0.3" x1="26.63291911575756" x2="22.317208475507996" y1="142.92168965132927" y2="145.44649492493687" /><path d="M 25.769776987707644 143.4266507060508 a86.0,86.0 0 0,1 -11.730757126820373,-40.83630448921669" fill="none" id="id57" stroke="none" /><text fill="#e1ed5e" style="font-size:6.75px; font-family:Arial;" text-anchor="middle"><textPath startOffset="21.46611528233685" xlink:href="#id57">September</textPath></text><line stroke="#e1ed5e" stroke-width="0.3" x1="15.007084014347285" x2="10.007500721073583" y1="101.09737516637583" y2="101.16192664675087" /><path d="M 14.007167355692545 101.11028546245083 a86.0,86.0 0 0,1 10.666146001902534,-42.60595125391555" fill="none" id="id58" stroke="none" /><text fill="#e1ed5e" style="font-size:6.75px; font-family:Arial;" text-anchor="middle"><textPath startOffset="22.20632615414155" xlink:href="#id58">October</textPath></text><path d="M 79.3925641242962 95.95851677861259 l -50.53238690516107 -9.910296217621518 a72.49501041318369,72.49501041318369 0 0,0 0.2506970808978667,-1.2224879997140943 l 50.35431052834821 10.778659873499015" fill="red" stroke="none" /><path d="M 79.46518482838121 95.60439243477599 l -43.22914408309403 -9.253472757448115 a65.20843422051654,65.20843422051654 0 0,0 0.24439379942681255,-1.095569482022082 l 43.063455896665175 9.996220409020156" fill="red" stroke="none" /><line stroke="#e1ed5e" stroke-width="0.3" x1="26.266209847984243" x2="21.928928074336255" y1="57.711370442889674" y2="55.22380399835377" /><path d="M 25.398753493254645 57.213857153982495 a86.0,86.0 0 0,1 29.58750427330803,-30.492523968695096" fill="none" id="id59" stroke="none" /><text fill="#e1ed5e" style="font-size:6.75px; font-family:Arial;" text-anchor="middle"><textPath startOffset="21.46611528233685" xlink:href="#id59">November</textPath></text><path d="M 82.34701348167596 88.62581576622439 l -44.164391846171625 -28.45603087667821 a73.53797864779968,73.53797864779968 0 0,0 0.6947705901286131,-1.0581832742362425 l 43.668024620685095 29.21203221489212" fill="red" stroke="none" /><path d="M 85.57189188830299 84.74124197986013 l -37.659917222866376 -39.828060582409016 a75.81371885750127,75.81371885750127 0 0,0 0.9559464311266468,-0.8884480249265275 l 36.96876290794487 40.47041319341019" fill="red" stroke="none" /><path d="M 87.22198572758235 83.33499621200491 l -38.334042817252964 -49.99501136398527 a84.0,84.0 0 0,0 1.1550153849664402,-0.8699336419765826 l 37.467781278528136 50.64746159546771" fill="red" stroke="none" /><path d="M 87.51073957382395 83.11751280151077 l -18.01861804440291 -24.35685365576437 a51.29730872929812,51.29730872929812 0 0,0 0.7143875331585369,-0.5190329243165185 l 17.59668519489059 24.663405814897555" fill="red" stroke="none" /><line stroke="#e1ed5e" stroke-width="0.3" x1="56.762969772571076" x2="54.21961505331055" y1="26.818313649435495" y2="22.513508569990535" /><path d="M 56.25429882871897 25.957352633546506 a86.0,86.0 0 0,1 42.265352541879196,-11.944610805530505" fill="none" id="id60" stroke="none" /><text fill="#e1ed5e" style="font-size:6.75px; font-family:Arial;" text-anchor="middle"><textPath startOffset="22.20632615414155" xlink:href="#id60">December</textPath></text><path d="M 89.63071344664047 81.73862282372117 l -25.797305470538173 -45.43170090873319 a73.24500375156315,73.24500375156315 0 0,0 1.1017301086164974,-0.6131116126272056 l 25.01145127284963 45.86902791892058" fill="red" stroke="none" /></svg>