<?xml version="1.0" encoding="utf-8" ?>
<svg baseProfile="full" height="200mm" version="1.1" viewBox="0,0,200,200" width="200mm" xmlns="http://www.w3.org/2000/svg" xmlns:ev="http://www.w3.org/2001/xml-events" xmlns:xlink="http://www.w3.org/1999/xlink"><defs /><rect fill="#1a1a1a" height="200" width="200" x="0" y="0" /><rect fill="#1a1a1a" height="200" width="180" x="10" y="0" /><text alignment-baseline="middle" fill="#e1ed5e" style="dominant-baseline: central; font-size:9.0px; font-family:Arial;" text-anchor="middle" x="100.0" y="100.0">2026</text><line stroke="#e1ed5e" stroke-width="0.3" x1="100.0" x2="100.0" y1="15.0" y2="10.0" /><path d="M 100.0 14.0 a86.0,86.0 0 0,1 42.46469731375804,11.215312516191453" fill="none" id="id145" stroke="none" /><text fill="#e1ed5e" style="font-size:6.75px; font-family:Arial;" text-anchor="middle"><textPath startOffset="22.20632615414155" xlink:href="#id145">January</textPath></text><path d="M 100.0 79.0 l 0.0 -32.168539325842694 a53.168539325842694,53.168539325842694 0 0,0 0.9152090037012328,0.007877492836650919 l -0.5537285244287045 32.163773209614604" fill="red" stroke="none" /><path d="M 101.08401301168833 79.027996857942 l 1.0718330902086848 -20.73636265731577 a41.764044943820224,41.764044943820224 0 0,0 0.7176215433189741,0.04328889123242896 l -1.4286166823672708 20.714840496703037" fill="red" stroke="none" /><path d="M 104.66035177308747 79.52364482259891 l 4.607988270019076 -20.246283770913436 a41.764044943820224,41.764044943820224 0 0,0 0.6996000832318352,0.16557273652883425 l -4.955812040213435 20.163965122243734" fill="red" stroke="none" /><path d="M 105.01212808612495 79.60689891045804 l 4.955812040213435 -20.163965122243734 a41.764044943820224,41.764044943820224 0 0,0 0.6966463674466356,0.17759067054056618 l -5.302167296345096 20.0756714555343" fill="red" stroke="none" /><path d="M 106.74666289553966 80.11325718540242 l 6.759297095718566 -19.923983906010683 a42.03932584269663,42.03932584269663 0 0,0 0.6832751641504877,0.23838128831256591 l -7.101254263932327 19.80468176452591" fill="red" stroke="none" /><path d="M 108.09893153111575 80.62456947434976 l 8.007932300429054 -19.1577290590699 a41.764044943820224,41.764044943820224 0 0,0 0.6608985940574629,0.2829622870852362 l -8.336514652276833 19.01704724402187" fill="red" stroke="none" /><path d="M 109.08828744355905 81.06846463323043 l 8.815979205549795 -18.364298352034897 a41.37078651685393,41.37078651685393 0 0,0 0.6393337586236437,0.3137182987605932 l -9.13078423118387 18.209824893139473" fill="red" stroke="none" /><path d="M 109.41281617654863 81.2277094730956 l 9.289427200451545 -18.526211812132242 a41.7247191011236,41.7247191011236 0 0,0 0.6392614656710306,0.3274545517667358 l -9.60694915371133 18.363564735053007" fill="red" stroke="none" /><path d="M 109.73455568895987 81.39251694778311 l 9.625178658746835 -18.398410208933562 a41.764044943820224,41.764044943820224 0 0,0 0.6341272670167295,0.33872882482235417 l -9.940450972291876 18.230002657609454" fill="red" stroke="none" /><path d="M 110.36928655335952 81.73862282372117 l 12.194591676984608 -21.475926716672486 a45.69662921348315,45.69662921348315 0 0,0 0.6806692825379935,0.39428758260816943 l -12.562457691987928 21.262834976674267" fill="red" stroke="none" /><line stroke="#e1ed5e" stroke-width="0.3" x1="143.23703022742887" x2="145.7803849466894" y1="26.81831364943548" y2="22.513508569990506" /><path d="M 143.74570117128098 25.957352633546492 a86.0,86.0 0 0,1 28.547481713284135,27.462654790039103" fill="none" id="id146" stroke="none" /><text fill="#e1ed5e" style="font-size:6.75px; font-family:Arial;" text-anchor="middle"><textPath startOffset="19.985693538727396" xlink:href="#id146">February</textPath></text><path d="M 111.60114157652 82.49532879139004 l 10.884217097072147 -16.422921864257667 a40.70224719101124,40.70224719101124 0 0,0 0.5806762945491184,0.39207522616268997 l -11.165298086027807 16.233134725796308" fill="red" stroke="none" /><path d="M 111.90073688211348 82.69761687909136 l 11.566446520256353 -16.81636112313031 a41.41011235955057,41.41011235955057 0 0,0 0.583821179809767,0.40900404601044166 l -11.85419883964977 16.614772234355932" fill="red" stroke="none" /><path d="M 112.48926042617603 83.11751280151076 l 14.687744471233236 -19.85431078773642 a45.69662921348315,45.69662921348315 0 0,0 0.6283370212223952,0.4732504175921449 l -15.027327646214015 19.59854378063843" fill="red" stroke="none" /><path d="M 113.6212207817346 84.01681056812373 l 13.136570604107348 -15.414499171191533 a41.252808988764045,41.252808988764045 0 0,0 0.53649514086057,0.4652432994433799 l -13.399959543614681 15.18609087832848" fill="red" stroke="none" /><path d="M 113.89432698308785 84.25364557470407 l 13.2178241711772 -14.979677992603628 a40.97752808988764,40.97752808988764 0 0,0 0.5248811815074502,0.47124350723294395 l -13.473716340280642 14.749935476601388" fill="red" stroke="none" /><path d="M 114.16331599549186 84.49514656593476 l 16.338207215773377 -17.885748530681997 a45.2247191011236,45.2247191011236 0 0,0 0.5702451940747681,0.5299807603261487 l -16.64366029364299 17.601863184281207" fill="red" stroke="none" /><path d="M 114.42810811169701 84.74124197986012 l 13.99580524692706 -14.801566768600106 a41.37078651685393,41.37078651685393 0 0,0 0.5132277672654233,0.4937247054795101 l -14.248516257804901 14.558458976358294" fill="red" stroke="none" /><path d="M 114.94478906791727 85.2469230424477 l 19.254709510724865 -19.00770963819472 a48.056179775280896,48.056179775280896 0 0,0 0.5760694190164808,0.5936901742280155 l -19.579043193444456 18.67345526841659" fill="red" stroke="none" /><path d="M 116.15771136456269 86.58626213691792 l 24.750951116502403 -20.547635902623846 a53.168539325842694,53.168539325842694 0 0,0 0.5785281623833244,0.7092071211420368 l -25.100977770962135 20.118544611873705" fill="red" stroke="none" /><path d="M 116.38621287248628 86.86637796730983 l 20.19125106759546 -16.183376961629463 a46.87640449438202,46.87640449438202 0 0,0 0.49922459912358585,0.6339645438351653 l -20.46682974731301 15.833420023841258" fill="red" stroke="none" /><path d="M 116.60985879189232 87.15038557335679 l 19.222645568145044 -14.870902089261241 a45.30337078651685,45.30337078651685 0 0,0 0.4718541514266315,0.6209047531555231 l -19.47577565979579 14.537812560224685" fill="red" stroke="none" /><path d="M 117.2510076193507 88.02491185347247 l 20.28770184447985 -14.0830624644556 a45.69662921348315,45.69662921348315 0 0,0 0.4429864623463143,0.6500279718348085 l -20.5271127724949 13.731756469350385" fill="red" stroke="none" /><line stroke="#e1ed5e" stroke-width="0.3" x1="172.23445277983987" x2="176.4835382374775" y1="55.19839476539836" y2="52.563006222186495" /><path d="M 173.08426987136738 54.67131705675599 a86.0,86.0 0 0,1 12.851231095245387,41.99856678651699" fill="none" id="id147" stroke="none" /><text fill="#e1ed5e" style="font-size:6.75px; font-family:Arial;" text-anchor="middle"><textPath startOffset="22.20632615414155" xlink:href="#id147">March</textPath></text><path d="M 117.84615892207809 88.93136811851018 l 21.990210806605578 -13.63887598880206 a46.87640449438202,46.87640449438202 0 0,0 0.4193969446494777,0.6893783040021703 l -22.22172354954128 13.258329911592808" fill="red" stroke="none" /><path d="M 118.89224826269711 90.83032412892265 l 21.899441338220054 -10.629268472278788 a45.34269662921348,45.34269662921348 0 0,0 0.3347625514989796,0.7050953085514174 l -22.07916208356079 10.25073074808683" fill="red" stroke="none" /><path d="M 119.61058180528143 92.48833698450437 l 19.022998829842287 -7.28659446072423 a41.37078651685393,41.37078651685393 0 0,0 0.24900369456234125,0.6672061045789165 l -19.14560711290625 6.95806521911598" fill="red" stroke="none" /><path d="M 119.85752413597 93.16781622104841 l 23.05555236760561 -7.932498020505583 a45.38202247191011,45.38202247191011 0 0,0 0.24779169098759804,0.7408656165311791 l -23.18868135236498 7.534459301052089" fill="red" stroke="none" /><path d="M 120.08093135843002 93.85539295169968 l 18.8023701857959 -5.753377386048986 a40.66292134831461,40.66292134831461 0 0,0 0.19904326289606714,0.6710749327791913 l -18.89861934580367 5.428873066523265" fill="red" stroke="none" /><path d="M 120.37134235888165 94.90015583598534 l 19.074290598203795 -4.775134985032443 a40.66292134831461,40.66292134831461 0 0,0 0.16413723694815116,0.6804548136033223 l -19.153660635412766 4.446094939769715" fill="red" stroke="none" /><path d="M 120.53481517161879 95.60439243477599 l 23.765010816592532 -5.0870514518884695 a45.30337078651685,45.30337078651685 0 0,0 0.15666488971146733,0.7639536406362352 l -23.849055002218996 4.677222155088822" fill="red" stroke="none" /><path d="M 120.67395015179393 96.31383870115 l 19.66735332792382 -3.5066852805539255 a40.97752808988764,40.97752808988764 0 0,0 0.11783603051671837,0.6954749224249006 l -19.724801219960764 3.167624569813187" fill="red" stroke="none" /><path d="M 120.78858239683441 97.02765380044208 l 20.165703523521024 -2.8832871373988738 a41.37078651685393,41.37078651685393 0 0,0 0.0947272827549744,0.7058282849212979 l -20.212346805333834 2.5357405104129116" fill="red" stroke="none" /><path d="M 120.91429891909075 98.10471618934814 l 24.20418863670054 -2.193418342664517 a45.30337078651685,45.30337078651685 0 0,0 0.06369549558041582,0.7772463808551505 l -24.23835861610045 1.7764580446015978" fill="red" stroke="none" /><line stroke="#e1ed5e" stroke-width="0.3" x1="184.98032266829074" x2="189.97916517819016" y1="98.17113171792111" y2="98.06355123074" /><path d="M 185.9800911702706 98.14961562048488 a86.0,86.0 0 0,1 -9.607161424134198,41.387399972396054" fill="none" id="id148" stroke="none" /><text fill="#e1ed5e" style="font-size:6.75px; font-family:Arial;" text-anchor="middle"><textPath startOffset="21.466115282336823" xlink:href="#id148">April</textPath></text><path d="M 120.99980553446 99.90962569577887 l 20.370597877996772 -0.0876664598998977 a41.37078651685393,41.37078651685393 0 0,0 -0.0030647926056981837,0.7121498669095949 l -20.36908878810157 -0.26299288521338193" fill="red" stroke="none" /><path d="M 120.9904718944345 100.63252640178507 l 24.292343877828692 0.7320249368973285 a45.30337078651685,45.30337078651685 0 0,0 -0.030197645983921197,0.7792670626214697 l -24.276144098993566 -1.1500692465328044" fill="red" stroke="none" /><path d="M 120.89721153311464 102.0752229133903 l 22.227745600766138 2.2073532112466108 a43.33707865168539,43.33707865168539 0 0,0 -0.0801069358536345,0.7416907364849434 l -22.18645636341145 -2.589640269616346" fill="red" stroke="none" /><path d="M 120.8583938346157 102.4346265915055 l 19.53033130581995 2.2796129133946716 a40.66292134831461,40.66292134831461 0 0,0 -0.08713190906134653,0.694527045068977 l -19.488197887511756 -2.6154577127510437" fill="red" stroke="none" /><path d="M 120.70491114924044 103.5080841355445 l 24.3495958833764 4.1256120545354795 a45.69662921348315,45.69662921348315 0 0,0 -0.13807684270011747,0.7744082615131093 l -24.274972598337094 -4.544139066781807" fill="red" stroke="none" /><path d="M 120.5718875245553 104.21870165774334 l 19.262066970557395 3.9500951851529376 a40.66292134831461,40.66292134831461 0 0,0 -0.14651423962345667,0.6844657504188788 l -19.191218692209493 -4.281074754987985" fill="red" stroke="none" /><path d="M 120.41448212921028 104.9243191809786 l 19.11468364158267 4.610785749979966 a40.66292134831461,40.66292134831461 0 0,0 -0.1699878296234215,0.6790168802679637 l -19.03248449766419 -4.939130469645326" fill="red" stroke="none" /><path d="M 120.23288151984713 105.62410040840565 l 23.4155819836433 6.5087903602896935 a45.30337078651685,45.30337078651685 0 0,0 -0.2153147608749316,0.7495389292485422 l -23.300074585882268 -6.910886765042817" fill="red" stroke="none" /><path d="M 119.9155931802556 106.66101706037122 l 18.647559157542705 6.236907359898151 a40.66292134831461,40.66292134831461 0 0,0 -0.22773011386647823,0.6618903089993697 l -18.537438212732997 -6.5569703719868215" fill="red" stroke="none" /><path d="M 119.79798401119884 107.00284435728193 l 18.537438212732997 6.5569703719868215 a40.66292134831461,40.66292134831461 0 0,0 -0.23908972681759472,0.6578722432503005 l -18.421824224910175 -6.875090412243253" fill="red" stroke="none" /><path d="M 119.41010516605496 108.01547362559984 l 14.030525457110894 5.793956590789395 a36.17977528089888,36.17977528089888 0 0,0 -0.24266123090463634,0.5735794688897559 l -13.928713245013947 -6.034610585345314" fill="red" stroke="none" /><path d="M 119.26925614724726 108.34839909993367 l 22.661222585152224 9.817967480820872 a45.69662921348315,45.69662921348315 0 0,0 -0.3189165909031103,0.71907272096535 l -22.48886490951784 -10.206588538278911" fill="red" stroke="none" /><path d="M 118.97047184881838 109.00673069616215 l 18.153391600648295 8.618800347825582 a41.09550561797753,41.09550561797753 0 0,0 -0.3088948442652127,0.6364148708170172 l -18.00234349976837 -8.930004174607875" fill="red" stroke="none" /><line stroke="#e1ed5e" stroke-width="0.3" x1="174.80103733775053" x2="179.2010983576182" y1="140.37084112569926" y2="142.7455964860345" /><path d="M 175.68104954172406 140.8457921977663 a86.0,86.0 0 0,1 -30.038265399797805,32.042727171017184" fill="none" id="id149" stroke="none" /><text fill="#e1ed5e" style="font-size:6.75px; font-family:Arial;" text-anchor="middle"><textPath startOffset="22.206326154141568" xlink:href="#id149">May</textPath></text><path d="M 118.48025628344425 109.97397251340804 l 20.279831801682267 10.945220773140667 a44.04494382022472,44.04494382022472 0 0,0 -0.3658322498395305,0.6640917966188358 l -20.088423142391225 -11.292683088157307" fill="red" stroke="none" /><path d="M 117.55443506779139 111.5257021239791 l 16.436736954860848 10.791855921328747 a40.66292134831461,40.66292134831461 0 0,0 -0.38919623409234916,0.58179556312958 l -16.248537615357776 -11.073188398664133" fill="red" stroke="none" /><path d="M 117.14729908036423 112.12312394758627 l 16.697744422826602 11.80528923734993 a41.449438202247194,41.449438202247194 0 0,0 -0.4169028068092035,0.5790415353080669 l -16.492061823641794 -12.090964378109128" fill="red" stroke="none" /><path d="M 116.71984013943494 112.70617746262583 l 19.663032972968423 14.942845405485055 a45.69662921348315,45.69662921348315 0 0,0 -0.4813229932445777,0.6221748517610495 l -19.40290316250578 -15.279098251359358" fill="red" stroke="none" /><path d="M 115.80600337817218 113.82643327865902 l 14.858827145772347 12.997882969825525 a40.741573033707866,40.741573033707866 0 0,0 -0.46627983476464707,0.523870337356671 l -14.63288846135936 -13.251727476923062" fill="red" stroke="none" /><path d="M 114.0293411484842 115.62618273729858 l 9.405438447860197 10.475980187177697 a35.07865168539326,35.07865168539326 0 0,0 -0.4527779423358123,0.3995238905226936 l -9.223718152617797 -10.63632721947268" fill="red" stroke="none" /><path d="M 113.20401910651253 116.32954008644616 l 15.28105581989652 18.89823178543769 a45.30337078651685,45.30337078651685 0 0,0 -0.6106085550367257,0.48510436529231243 l -14.953489772142444 -19.158470064735127" fill="red" stroke="none" /><path d="M 112.63410532772338 116.77436683061366 l 12.255555355357131 16.271764079134602 a41.37078651685393,41.37078651685393 0 0,0 -0.5725224927334651,0.42353845304449994 l -11.9736478922051 -16.480312480918872" fill="red" stroke="none" /><path d="M 111.1453310114006 117.79835938074945 l 12.272386956373696 19.598193475431984 a44.12359550561798,44.12359550561798 0 0,0 -0.6471897709287446,0.39755681688868866 l -11.933217985512641 -19.80653875914905" fill="red" stroke="none" /><line stroke="#e1ed5e" stroke-width="0.3" x1="143.8653032363475" x2="146.44561519142675" y1="172.8068346515853" y2="177.08958963109032" /><path d="M 144.38136562736335 173.6633856474863 a86.0,86.0 0 0,1 -40.68145358897372,12.25698825130547" fill="none" id="id150" stroke="none" /><text fill="#e1ed5e" style="font-size:6.75px; font-family:Arial;" text-anchor="middle"><textPath startOffset="21.466115282336833" xlink:href="#id150">June</textPath></text><path d="M 110.8373102113329 117.98757091392108 l 10.512596796761137 17.448617478297972 a41.37078651685393,41.37078651685393 0 0,0 -0.6131389507081312,0.36225329952617136 l -10.210689975024623 -17.626989350117892" fill="red" stroke="none" /><path d="M 108.2653958097858 119.30500536409082 l 7.739134653357494 18.075847719186164 a40.66292134831461,40.66292134831461 0 0,0 -0.6458211814225192,0.2699533062122617 l -7.426842012437514 -18.2063860684184" fill="red" stroke="none" /><path d="M 106.91757812671514 119.82793768551818 l 5.026255268100138 14.40681614603194 a36.258426966292134,36.258426966292134 0 0,0 -0.5910646184117542,0.2005212098875104 l -4.777520916751157 -14.491200342817573" fill="red" stroke="none" /><path d="M 106.57524785965236 119.94407469862006 l 7.2155341680829315 21.88619433219355 a44.04494382022472,44.04494382022472 0 0,0 -0.7220825720939078,0.23118803696840567 l -6.837730250898084 -22.007155215821662" fill="red" stroke="none" /><path d="M 104.83641907484287 120.43548508189849 l 5.597204097851855 23.650055768938707 a45.30337078651685,45.30337078651685 0 0,0 -0.7604059698491065,0.17306592306836618 l -5.189277978609887 -23.74289842558476" fill="red" stroke="none" /><path d="M 104.13013068566511 120.58985236759428 l 4.547784350507644 22.671972269935267 a44.12359550561798,44.12359550561798 0 0,0 -0.7459669221920369,0.14296633605434225 l -4.156849813743904 -22.746895804338077" fill="red" stroke="none" /><path d="M 103.41894727170886 120.7198165907248 l 3.252481674209927 19.710986569453553 a40.97752808988764,40.97752808988764 0 0,0 -0.6969382586515452,0.1088474227421644 l -2.9127075519498646 -19.764052299542826" fill="red" stroke="none" /><path d="M 101.98527174616119 120.90594882070398 l 2.2529488355312384 23.72472843697867 a44.8314606741573,44.8314606741573 0 0,0 -0.7688716812259222,0.06634148389948259 l -1.8442328365637748 -23.759994173156816" fill="red" stroke="none" /><path d="M 101.62511606390274 120.93702456842531 l 1.8746657216555866 24.152073284925088 a45.2247191011236,45.2247191011236 0 0,0 -0.7766532305322661,0.05356255394432971 l -1.4586497303443902 -24.1807641833857" fill="red" stroke="none" /><line stroke="#e1ed5e" stroke-width="0.3" x1="102.19456741930631" x2="102.32365962044197" y1="184.97166512339345" y2="189.96999836594603" /><path d="M 102.22038585953345 185.97133177190398 a86.0,86.0 0 0,1 -42.740103519485714,-10.115201625700543" fill="none" id="id151" stroke="none" /><text fill="#e1ed5e" style="font-size:6.75px; font-family:Arial;" text-anchor="middle"><textPath startOffset="22.20632615414155" xlink:href="#id151">July</textPath></text><path d="M 100.18074693466247 120.99922214144158 l 0.1211749112531117 14.078130199693044 a35.07865168539326,35.07865168539326 0 0,0 -0.6038436918311246,0.0 l 0.121174911253102 -14.078130199693044" fill="red" stroke="none" /><path d="M 98.37488393609728 120.93702456842531 l -1.6068563328476315 20.701777101364357 a41.764044943820224,41.764044943820224 0 0,0 -0.7162646714578328,-0.06180232973793906 l 1.9629653220470058 -20.671050519347755" fill="red" stroke="none" /><path d="M 97.2962882734958 120.8252237178851 l -8.111135179512582 62.47567115365527 a84.0,84.0 0 0,0 -1.4322856352526758,-0.19850173802958038 l 9.185349405952088 -62.32679485013308" fill="red" stroke="none" /><path d="M 96.58105272829116 120.7198165907248 l -4.21286012131914 25.531159769095353 a46.87640449438202,46.87640449438202 0 0,0 -0.7950037940174466,-0.13822160000554426 l 4.651712886808636 -25.4548595905688" fill="red" stroke="none" /><path d="M 94.46302465271185 120.25689768951611 l -6.822714941040457 24.960746591201502 a46.87640449438202,46.87640449438202 0 0,0 -0.7765161940436334,-0.21945123284734555 l 7.251362303188704 -24.839606565015636" fill="red" stroke="none" /><path d="M 94.11515582081647 120.15858648285463 l -7.251362303188704 24.839606565015636 a46.87640449438202,46.87640449438202 0 0,0 -0.7726236525603501,-0.23278516858796838 l 7.6778609301893 -24.711106027321943" fill="red" stroke="none" /><line stroke="#e1ed5e" stroke-width="0.3" x1="58.666819895761336" x2="56.23545636021788" y1="174.27360380694188" y2="178.64263932499728" /><path d="M 58.180547188652646 175.14741091055294 a86.0,86.0 0 0,1 -31.652253787137756,-30.449443065178592" fill="none" id="id152" stroke="none" /><text fill="#e1ed5e" style="font-size:6.75px; font-family:Arial;" text-anchor="middle"><textPath startOffset="22.20632615414155" xlink:href="#id152">August</textPath></text><line stroke="#e1ed5e" stroke-width="0.3" x1="26.63291911575756" x2="22.317208475507996" y1="142.92168965132927" y2="145.44649492493687" /><path d="M 25.769776987707644 143.4266507060508 a86.0,86.0 0 0,1 -11.730757126820373,-40.83630448921669" fill="none" id="id153" stroke="none" /><text fill="#e1ed5e" style="font-size:6.75px; font-family:Arial;" text-anchor="middle"><textPath startOffset="21.46611528233685" xlink:href="#id153">September</textPath></text><line stroke="#e1ed5e" stroke-width="0.3" x1="15.007084014347285" x2="10.007500721073583" y1="101.09737516637583" y2="101.16192664675087" /><path d="M 14.007167355692545 101.11028546245083 a86.0,86.0 0 0,1 10.666146001902534,-42.60595125391555" fill="none" id="id154" stroke="none" /><text fill="#e1ed5e" style="font-size:6.75px; font-family:Arial;" text-anchor="middle"><textPath startOffset="22.20632615414155" xlink:href="#id154">October</textPath></text><line stroke="#e1ed5e" stroke-width="0.3" x1="26.266209847984243" x2="21.928928074336255" y1="57.711370442889674" y2="55.22380399835377" /><path d="M 25.398753493254645 57.213857153982495 a86.0,86.0 0 0,1 29.58750427330803,-30.492523968695096" fill="none" id="id155" stroke="none" /><text fill="#e1ed5e" style="font-size:6.75px; font-family:Arial;" text-anchor="middle"><textPath startOffset="21.46611528233685" xlink:href="#id155">November</textPath></text><line stroke="#e1ed5e" stroke-width="0.3" x1="56.762969772571076" x2="54.21961505331055" y1="26.818313649435495" y2="22.513508569990535" /><path d="M 56.25429882871897 25.957352633546506 a86.0,86.0 0 0,1 42.265352541879196,-11.944610805530505" fill="none" id="id156" stroke="none" /><text fill="#e1ed5e" style="font-size:6.75px; font-family:Arial;" text-anchor="middle"><textPath startOffset="22.20632615414155" xlink:href="#id156">December</textPath></text></svg>