<?xml version="1.0" encoding="utf-8" ?>
<svg baseProfile="full" height="200mm" version="1.1" viewBox="0,0,200,200" width="200mm" xmlns="http://www.w3.org/2000/svg" xmlns:ev="http://www.w3.org/2001/xml-events" xmlns:xlink="http://www.w3.org/1999/xlink"><defs /><rect fill="#1a1a1a" height="200" width="200" x="0" y="0" /><rect fill="#1a1a1a" height="200" width="180" x="10" y="0" /><text alignment-baseline="middle" fill="#e1ed5e" style="dominant-baseline: central; font-size:9.0px; font-family:Arial;" text-anchor="middle" x="100.0" y="100.0">2014</text><line stroke="#e1ed5e" stroke-width="0.3" x1="100.0" x2="100.0" y1="15.0" y2="10.0" /><path d="M 100.0 14.0 a86.0,86.0 0 0,1 42.46469731375804,11.215312516191453" fill="none" id="id1" stroke="none" /><text fill="#e1ed5e" style="font-size:6.75px; font-family:Arial;" text-anchor="middle"><textPath startOffset="22.20632615414155" xlink:href="#id1">January</textPath></text><line stroke="#e1ed5e" stroke-width="0.3" x1="143.23703022742887" x2="145.7803849466894" y1="26.81831364943548" y2="22.513508569990506" /><path d="M 143.74570117128098 25.957352633546492 a86.0,86.0 0 0,1 28.547481713284135,27.462654790039103" fill="none" id="id2" stroke="none" /><text fill="#e1ed5e" style="font-size:6.75px; font-family:Arial;" text-anchor="middle"><textPath startOffset="19.985693538727396" xlink:href="#id2">February</textPath></text><line stroke="#e1ed5e" stroke-width="0.3" x1="172.23445277983987" x2="176.4835382374775" y1="55.19839476539836" y2="52.563006222186495" /><path d="M 173.08426987136738 54.67131705675599 a86.0,86.0 0 0,1 12.851231095245387,41.99856678651699" fill="none" id="id3" stroke="none" /><text fill="#e1ed5e" style="font-size:6.75px; font-family:Arial;" text-anchor="middle"><textPath startOffset="22.20632615414155" xlink:href="#id3">March</textPath></text><line stroke="#e1ed5e" stroke-width="0.3" x1="184.98032266829074" x2="189.97916517819016" y1="98.17113171792111" y2="98.06355123074" /><path d="M 185.9800911702706 98.14961562048488 a86.0,86.0 0 0,1 -9.607161424134198,41.387399972396054" fill="none" id="id4" stroke="none" /><text fill="#e1ed5e" style="font-size:6.75px; font-family:Arial;" text-anchor="middle"><textPath startOffset="21.466115282336823" xlink:href="#id4">April</textPath></text><path d="M 120.13307415673323 105.97154293290107 l 35.47889390146917 10.523168816403055 a58.0066074425936,58.0066074425936 0 0,0 -0.29216886119870994,0.9548247431745573 l -35.29249826776433 -11.13232053212967" fill="red" stroke="none" /><path d="M 119.9155931802556 106.66101706037122 l 36.59089520112823 12.23827856810251 a59.583274536130624,59.583274536130624 0 0,0 -0.3336923527559847,0.9698661750368406 l -36.37481201742901 -12.866317446228651" fill="red" stroke="none" /><path d="M 119.26925614724726 108.34839909993367 l 35.800223748339405 15.510435557770963 a60.015761323123385,60.015761323123385 0 0,0 -0.41884975612113284,0.9443956269468542 l -35.527932907487 -16.124379521210503" fill="red" stroke="none" /><path d="M 119.12269723197855 108.67885076344098 l 36.88117247359269 16.738548333221747 a61.5018503692176,61.5018503692176 0 0,0 -0.4458163208339766,0.960248693394595 l -36.587581535918886 -17.37091709389517" fill="red" stroke="none" /><line stroke="#e1ed5e" stroke-width="0.3" x1="174.80103733775053" x2="179.2010983576182" y1="140.37084112569926" y2="142.7455964860345" /><path d="M 175.68104954172406 140.8457921977663 a86.0,86.0 0 0,1 -30.038265399797805,32.042727171017184" fill="none" id="id5" stroke="none" /><text fill="#e1ed5e" style="font-size:6.75px; font-family:Arial;" text-anchor="middle"><textPath startOffset="22.206326154141568" xlink:href="#id5">May</textPath></text><path d="M 116.0416608686014 113.55231037782055 l 28.040995607939326 23.689584195469216 a57.708225699953104,57.708225699953104 0 0,0 -0.6475893164559066,0.7532926776720194 l -27.62906378191264 -24.168753972302763" fill="red" stroke="none" /><path d="M 115.80600337817218 113.82643327865902 l 27.98176118768941 24.477278969536602 a58.176822684535594,58.176822684535594 0 0,0 -0.6658230708479016,0.7480592784395294 l -27.55627926719317 -24.955312417717" fill="red" stroke="none" /><path d="M 115.32070863581623 114.36230785411682 l 26.179048161602072 24.541394132755688 a56.883458426226646,56.883458426226646 0 0,0 -0.6758119148690755,0.7085860908797957 l -25.75272969535403 -24.98838734021799" fill="red" stroke="none" /><path d="M 114.81725581225074 114.88116024355365 l 29.37787435503982 29.504576382549867 a62.63627660027041,62.63627660027041 0 0,0 -0.7705754782229899,0.7541702900805565 l -28.865648924441032 -30.005896775552998" fill="red" stroke="none" /><path d="M 114.0293411484842 115.62618273729858 l 35.36341985505981 39.38853970563559 a73.93419050091981,73.93419050091981 0 0,0 -0.9543060817588304,0.8420641618866233 l -34.68017142039439 -39.9914270092945" fill="red" stroke="none" /><path d="M 112.63410532772338 116.77436683061366 l 22.468547052916282 29.83160585098879 a58.346489986581894,58.346489986581894 0 0,0 -0.8074460434963542,0.5973292796699902 l -21.951716039001365 -30.213945079398552" fill="red" stroke="none" /><path d="M 112.34349029814194 116.9893568818739 l 23.520046645474014 32.3725669714691 a61.014693382900305,61.014693382900305 0 0,0 -0.8549979458222405,0.6100183327407364 l -22.95932137180289 -32.77262956605406" fill="red" stroke="none" /><line stroke="#e1ed5e" stroke-width="0.3" x1="143.8653032363475" x2="146.44561519142675" y1="172.8068346515853" y2="177.08958963109032" /><path d="M 144.38136562736335 173.6633856474863 a86.0,86.0 0 0,1 -40.68145358897372,12.25698825130547" fill="none" id="id6" stroke="none" /><text fill="#e1ed5e" style="font-size:6.75px; font-family:Arial;" text-anchor="middle"><textPath startOffset="21.466115282336833" xlink:href="#id6">June</textPath></text><path d="M 110.8373102113329 117.98757091392108 l 28.12632682386436 46.68356708690686 a75.50179535171814,75.50179535171814 0 0,0 -1.118980214690221,0.6611132344599562 l -27.318578738145757 -47.16079889366057" fill="red" stroke="none" /><path d="M 110.5260780823613 118.17145234162733 l 23.761015677415394 41.019281881856905 a68.4042967686012,68.4042967686012 0 0,0 -1.023951192242763,0.581426210440002 l -23.05141571825143 -41.42221125809153" fill="red" stroke="none" /><path d="M 109.89434966115114 118.52300852407294 l 20.22154976515676 37.856347460676425 a63.91869194148598,63.91869194148598 0 0,0 -0.9749399298792539,0.5100424928061169 l -19.566918932751012 -38.19881937242726" fill="red" stroke="none" /><path d="M 109.57404056367764 118.69057910512821 l 24.682030165573693 48.1846127783284 a75.13833689440172,75.13833689440172 0 0,0 -1.1562219024115323,0.5797536646421027 l -23.8489543554794 -48.602334283879806" fill="red" stroke="none" /><path d="M 109.2508944713604 118.85261126421891 l 20.948742176485037 42.69192497550365 a68.5547080412747,68.5547080412747 0 0,0 -1.0638624237901906,0.5107186142323166 l -20.210767084694616 -43.04619786623553" fill="red" stroke="none" /><path d="M 108.2653958097858 119.30500536409082 l 24.796187429357403 57.91501609227246 a84.0,84.0 0 0,0 -1.3341141620101555,0.5576598279201073 l -23.79560180784979 -58.33326096321254" fill="red" stroke="none" /><path d="M 106.91757812671514 119.82793768551818 l 16.746328937459417 48.000204775541775 a71.83757656867147,71.83757656867147 0 0,0 -1.1710560367569385,0.39728578910299467 l -15.917603167765252 -48.28135355154289" fill="red" stroke="none" /><path d="M 105.88484417918355 120.15858648285463 l 15.69633109166975 53.767922843939 a77.01218025296905,77.01218025296905 0 0,0 -1.27572081839609,0.36053144610956495 l -14.768479105169055 -54.03014308338708" fill="red" stroke="none" /><path d="M 105.53697534728816 120.25689768951611 l 9.78905646749291 35.81303923197332 a58.12680171459191,58.12680171459191 0 0,0 -0.9674225108595672,0.25550507788438576 l -9.171143513821846 -35.97623565916129" fill="red" stroke="none" /><path d="M 105.18746579009965 120.34920634021253 l 13.618665811868338 53.422817980411764 a76.13134806499437,76.13134806499437 0 0,0 -1.2726504602994078,0.31278651970972976 l -12.697062066825719 -53.64932575843552" fill="red" stroke="none" /><path d="M 104.83641907484287 120.43548508189849 l 8.648355701071964 36.54218982625073 a58.551640358711445,58.551640358711445 0 0,0 -0.9827749260210228,0.22367637352192923 l -8.018060625658078 -36.685642933350344" fill="red" stroke="none" /><path d="M 100.90346689309514 120.98055641714683 l 1.632563447318451 37.911836917115956 a58.946971444892895,58.946971444892895 0 0,0 -1.0141114815931056,0.03492804989809981 l -0.9797316140506931 -37.93432176544015" fill="red" stroke="none" /><line stroke="#e1ed5e" stroke-width="0.3" x1="102.19456741930631" x2="102.32365962044197" y1="184.97166512339345" y2="189.96999836594603" /><path d="M 102.22038585953345 185.97133177190398 a86.0,86.0 0 0,1 -42.740103519485714,-10.115201625700543" fill="none" id="id7" stroke="none" /><text fill="#e1ed5e" style="font-size:6.75px; font-family:Arial;" text-anchor="middle"><textPath startOffset="22.20632615414155" xlink:href="#id7">July</textPath></text><path d="M 100.18074693466247 120.99922214144158 l 0.325135220586271 37.774287767855895 a58.775687012686525,58.775687012686525 0 0,0 -1.0117643104974268,0.0 l 0.32513522058624494 -37.774287767855895" fill="red" stroke="none" /><path d="M 98.01472825383883 120.90594882070398 l -3.558584911387355 37.47375852975725 a58.64234457254367,58.64234457254367 0 0,0 -1.0040893127099813,-0.10407796273588545 l 4.20310682070293 -37.4069511985656" fill="red" stroke="none" /><path d="M 97.65516085044442 120.86867818915974 l -4.110532110173884 36.58305168168342 a57.813260444756736,57.813260444756736 0 0,0 -0.9879806551243348,-0.11963069834717248 l 4.739640188349608 -36.506875454610906" fill="red" stroke="none" /><path d="M 97.2962882734958 120.8252237178851 l -4.664822913849296 35.930598603733024 a57.23214717402427,57.23214717402427 0 0,0 -0.9758664556193094,-0.13524619863343518 l 5.282617960655436 -35.84497783960698" fill="red" stroke="none" /><path d="M 95.86986931433489 120.58985236759428 l -7.130243490062449 35.54625070701465 a57.25432817683314,57.25432817683314 0 0,0 -0.9646223894803627,-0.20214600056343107 l 7.7410573409721986 -35.41824872572468" fill="red" stroke="none" /><path d="M 95.51606077576429 120.51570834832081 l -7.834071047925164 35.84382141723868 a57.689946892505006,57.689946892505006 0 0,0 -0.9683116124858977,-0.22038457044983484 l 8.449902809803923 -35.70366011321116" fill="red" stroke="none" /><path d="M 95.16358092515715 120.4354850818985 l -12.734176491801998 53.80614659347689 a76.29250095775274,76.29250095775274 0 0,0 -1.2753443742830743,-0.3134486182243129 l 13.658474150828283 -53.57897671693855" fill="red" stroke="none" /><line stroke="#e1ed5e" stroke-width="0.3" x1="58.666819895761336" x2="56.23545636021788" y1="174.27360380694188" y2="178.64263932499728" /><path d="M 58.180547188652646 175.14741091055294 a86.0,86.0 0 0,1 -31.652253787137756,-30.449443065178592" fill="none" id="id8" stroke="none" /><text fill="#e1ed5e" style="font-size:6.75px; font-family:Arial;" text-anchor="middle"><textPath startOffset="22.20632615414155" xlink:href="#id8">August</textPath></text><path d="M 88.54995079064634 117.60387380957326 l -18.533750384476736 28.49470749173097 a54.99188518387,54.99188518387 0 0,0 -0.7890688747565265,-0.5229518235779926 l 19.021493957973224 -28.171457647061658" fill="red" stroke="none" /><path d="M 88.24862548938628 117.40417183066458 l -18.433944184799735 27.30127712459226 a53.94191905220606,53.94191905220606 0 0,0 -0.7650585342823296,-0.5262142360555498 l 18.901159603704958 -26.97992209917161" fill="red" stroke="none" /><path d="M 85.97065885151581 115.62618273729859 l -24.23895006097299 26.99786533125557 a57.28238460331617,57.28238460331617 0 0,0 -0.728033059916095,-0.6650409387361063 l 24.70008267035594 -26.57663162593289" fill="red" stroke="none" /><path d="M 83.06392112726016 112.41649034213515 l -28.761823549768774 21.086398275029165 a56.66340822357261,56.66340822357261 0 0,0 -0.5699265166518437,-0.7915780844476107 l 29.120529858796225 -20.588186585130416" fill="red" stroke="none" /><path d="M 82.85270091963577 112.12312394758628 l -30.63444024561852 21.658519771655502 a58.51746803639025,58.51746803639025 0 0,0 -0.5744160845804911,-0.827489211814204 l 31.002717237361146 -21.127989297654285" fill="red" stroke="none" /><line stroke="#e1ed5e" stroke-width="0.3" x1="26.63291911575756" x2="22.317208475507996" y1="142.92168965132927" y2="145.44649492493687" /><path d="M 25.769776987707644 143.4266507060508 a86.0,86.0 0 0,1 -11.730757126820373,-40.83630448921669" fill="none" id="id9" stroke="none" /><text fill="#e1ed5e" style="font-size:6.75px; font-family:Arial;" text-anchor="middle"><textPath startOffset="21.46611528233685" xlink:href="#id9">September</textPath></text><line stroke="#e1ed5e" stroke-width="0.3" x1="15.007084014347285" x2="10.007500721073583" y1="101.09737516637583" y2="101.16192664675087" /><path d="M 14.007167355692545 101.11028546245083 a86.0,86.0 0 0,1 10.666146001902534,-42.60595125391555" fill="none" id="id10" stroke="none" /><text fill="#e1ed5e" style="font-size:6.75px; font-family:Arial;" text-anchor="middle"><textPath startOffset="22.20632615414155" xlink:href="#id10">October</textPath></text><line stroke="#e1ed5e" stroke-width="0.3" x1="26.266209847984243" x2="21.928928074336255" y1="57.711370442889674" y2="55.22380399835377" /><path d="M 25.398753493254645 57.213857153982495 a86.0,86.0 0 0,1 29.58750427330803,-30.492523968695096" fill="none" id="id11" stroke="none" /><text fill="#e1ed5e" style="font-size:6.75px; font-family:Arial;" text-anchor="middle"><textPath startOffset="21.46611528233685" xlink:href="#id11">November</textPath></text><line stroke="#e1ed5e" stroke-width="0.3" x1="56.762969772571076" x2="54.21961505331055" y1="26.818313649435495" y2="22.513508569990535" /><path d="M 56.25429882871897 25.957352633546506 a86.0,86.0 0 0,1 42.265352541879196,-11.944610805530505" fill="none" id="id12" stroke="none" /><text fill="#e1ed5e" style="font-size:6.75px; font-family:Arial;" text-anchor="middle"><textPath startOffset="22.20632615414155" xlink:href="#id12">December</textPath></text></svg>