<?xml version="1.0" encoding="utf-8" ?>
<svg baseProfile="full" height="200mm" version="1.1" viewBox="0,0,200,200" width="200mm" xmlns="http://www.w3.org/2000/svg" xmlns:ev="http://www.w3.org/2001/xml-events" xmlns:xlink="http://www.w3.org/1999/xlink"><defs /><rect fill="#1a1a1a" height="200" width="200" x="0" y="0" /><rect fill="#1a1a1a" height="200" width="180" x="10" y="0" /><text alignment-baseline="middle" fill="#e1ed5e" style="dominant-baseline: central; font-size:9.0px; font-family:Arial;" text-anchor="middle" x="100.0" y="100.0">2021</text><line stroke="#e1ed5e" stroke-width="0.3" x1="100.0" x2="100.0" y1="15.0" y2="10.0" /><path d="M 100.0 14.0 a86.0,86.0 0 0,1 42.46469731375804,11.215312516191453" fill="none" id="id85" stroke="none" /><text fill="#e1ed5e" style="font-size:6.75px; font-family:Arial;" text-anchor="middle"><textPath startOffset="22.20632615414155" xlink:href="#id85">January</textPath></text><path d="M 100.72285384407766 79.0124445844662 l 0.3725521252931029 -10.816790197388576 a31.8232040200849,31.8232040200849 0 0,0 0.5472972321237305,0.023567770085557375 l -0.5586901898061649 10.808774700778823" fill="#ff2203" stroke="none" /><path d="M 103.2404852339499 79.25152402106235 l 1.4018471850907823 -8.975875693327447 a30.084686015070275,30.084686015070275 0 0,0 0.5109680401932283,0.0843141047749951 l -1.5561444314228858 8.950415325612827" fill="#ff0600" stroke="none" /><path d="M 105.36241919743992 79.69619591428918 l 2.391069201175503 -9.053339328492205 a30.363768734950355,30.363768734950355 0 0,0 0.5041862023333469,0.13781313484183583 l -2.5465532927325607 9.010839652824076" fill="#ff0a01" stroke="none" /><path d="M 107.76421540070413 80.48803036053334 l 4.0072299097342325 -10.070424930509542 a31.83842007999767,31.83842007999767 0 0,0 0.5074682270283907,0.20700903157322934 l -4.17998200635101 9.999955012752734" fill="#ff2303" stroke="none" /><path d="M 110.36928655335952 81.73862282372117 l 7.306986666648835 -12.868352982152206 a35.798194572982524,35.798194572982524 0 0,0 0.5332282016319468,0.30888019188412025 l -7.52741160074611 12.740668632878036" fill="#ff6209" stroke="none" /><line stroke="#e1ed5e" stroke-width="0.3" x1="143.23703022742887" x2="145.7803849466894" y1="26.81831364943548" y2="22.513508569990506" /><path d="M 143.74570117128098 25.957352633546492 a86.0,86.0 0 0,1 28.547481713284135,27.462654790039103" fill="none" id="id86" stroke="none" /><text fill="#e1ed5e" style="font-size:6.75px; font-family:Arial;" text-anchor="middle"><textPath startOffset="19.985693538727396" xlink:href="#id86">February</textPath></text><path d="M 112.77801427241765 83.33499621200491 l 11.140407283668125 -14.529247316845488 a39.30867832586688,39.30867832586688 0 0,0 0.5334139820277223,0.4163380738450214 l -11.388853820855278 14.335330853777242" fill="#ff980e" stroke="none" /><path d="M 113.89432698308785 84.25364557470407 l 23.31821142201208 -26.42638409632315 a56.24333639609133,56.24333639609133 0 0,0 0.7204209291186245,0.6468010233227575 l -23.769643338726695 26.021084064231097" fill="#7fff26" stroke="none" /><path d="M 114.68862486808459 84.99185889309783 l 20.68306678727254 -21.132977910092585 a50.5701201735001,50.5701201735001 0 0,0 0.6168692556993807,0.6142202230750036 l -21.043771843139243 20.77382183636746" fill="#c7ff1e" stroke="none" /><path d="M 115.19652480421416 85.50635884689758 l 19.22069570677112 -18.33168239949598 a47.560981213958954,47.560981213958954 0 0,0 0.559934702630456,0.5972993004480608 l -19.533397731372037 17.998113682169866" fill="#efff19" stroke="none" /><path d="M 116.15771136456269 86.58626213691792 l 16.094191017049702 -13.36100481993712 a41.91744330198283,41.91744330198283 0 0,0 0.456104714419272,0.5591304494495367 l -16.321794223545382 13.081990200879483" fill="#ffbf11" stroke="none" /><path d="M 116.60985879189232 87.15038557335679 l 12.640349913058703 -9.778747949376928 a36.981312755277855,36.981312755277855 0 0,0 0.3851763267464832,0.5068468961368519 l -12.806802180029301 9.559716277359042" fill="#ff750a" stroke="none" /><path d="M 116.82858285166822 87.43820079747576 l 12.276037123398007 -9.163523435461022 a36.31898329548307,36.31898329548307 0 0,0 0.36965355265418076,0.5042070303952846 l -12.431953288565815 8.950853961394245" fill="#ff6a09" stroke="none" /><path d="M 117.04232023915458 87.72973835380427 l 12.816775576015734 -9.227921290727112 a36.793171547026525,36.793171547026525 0 0,0 0.36563193234548963,0.5171604385442148 l -12.973720128165105 9.005934351851105" fill="#ff720a" stroke="none" /><path d="M 117.65298651832404 88.62581576622439 l 12.426902241249742 -8.006910071583336 a35.78304800127499,35.78304800127499 0 0,0 0.3291570188596496,0.520647356606907 l -12.562886856355346 7.791815067262223" fill="#ff6209" stroke="none" /><line stroke="#e1ed5e" stroke-width="0.3" x1="172.23445277983987" x2="176.4835382374775" y1="55.19839476539836" y2="52.563006222186495" /><path d="M 173.08426987136738 54.67131705675599 a86.0,86.0 0 0,1 12.851231095245387,41.99856678651699" fill="none" id="id87" stroke="none" /><text fill="#e1ed5e" style="font-size:6.75px; font-family:Arial;" text-anchor="middle"><textPath startOffset="22.20632615414155" xlink:href="#id87">March</textPath></text><path d="M 118.56541770881063 90.18545643968196 l 20.03359723637929 -10.590691565910799 a43.66070974338002,43.66070974338002 0 0,0 0.3455237190897122,0.667441847290406 l -20.21293038862912 10.244276996360048" fill="#ffd814" stroke="none" /><path d="M 118.89224826269711 90.83032412892265 l 13.411451501524589 -6.509477406798444 a35.907727106684156,35.907727106684156 0 0,0 0.26510470788845913,0.5583781249427365 l -13.521514403254805 6.2776568662151675" fill="#ff6409" stroke="none" /><path d="M 119.04729006885535 91.15688171328212 l 14.081710544446636 -6.537740097079724 a36.52535401962041,36.52535401962041 0 0,0 0.2598477744107043,0.5725401267862444 l -14.192160635820688 6.294377961451417" fill="#ff6d0a" stroke="none" /><path d="M 119.34039704204932 91.81776055985345 l 14.25665722694799 -6.031488536319296 a36.480023554582836,36.480023554582836 0 0,0 0.2396881958291964,0.5804239780975529 l -14.358367109663384 5.78518998776844" fill="#ff6d0a" stroke="none" /><path d="M 119.47837535516314 92.15188598940014 l 18.219413179029473 -7.3408602734081185 a40.64268938159677,40.64268938159677 0 0,0 0.2558678898286484,0.6511558707690367 l -18.343074618739823 7.026155397743298" fill="#ffac0f" stroke="none" /><path d="M 119.7369772167798 92.82701384747503 l 22.30833406651975 -8.107491313766378 a44.735904959075036,44.735904959075036 0 0,0 0.25679883428579325,0.7260048854288647 l -22.444585981615354 7.722288801910899" fill="#ffe715" stroke="none" /><path d="M 119.97218684219823 93.5106431181261 l 14.95028354904842 -4.85764158935263 a36.71965839347523,36.71965839347523 0 0,0 0.19014578515215197,0.6028141009537774 l -15.03168481796878 4.599577321972434" fill="#ff700a" stroke="none" /><path d="M 120.18372546131832 94.20196356495316 l 14.766975589237921 -4.242004909645482 a36.3641847719495,36.3641847719495 0 0,0 0.1676444839759006,0.6031064055454615 l -14.837806843780184 3.987187200681069" fill="#ff6b09" stroke="none" /><path d="M 120.53481517161879 95.60439243477599 l 15.150923659597629 -3.2431514041725316 a36.494144660785295,36.494144660785295 0 0,0 0.12620145144029452,0.615403096756101 l -15.20450440695292 2.981872651253019" fill="#ff6d0a" stroke="none" /><path d="M 120.78858239683441 97.02765380044208 l 15.384891767391471 -2.1997278940183667 a36.54135442945924,36.54135442945924 0 0,0 0.0836692628959076,0.6234331927709227 l -15.420477029345214 1.9345763591827796" fill="#ff6e0a" stroke="none" /><path d="M 120.91429891909075 98.10471618934814 l 14.942302046277167 -1.3540928754885815 a36.0035315162007,36.0035315162007 0 0,0 0.05062013582556736,0.6176938731742188 l -14.963396665922229 1.0966850851065941" fill="#ff6509" stroke="none" /><line stroke="#e1ed5e" stroke-width="0.3" x1="184.98032266829074" x2="189.97916517819016" y1="98.17113171792111" y2="98.06355123074" /><path d="M 185.9800911702706 98.14961562048488 a86.0,86.0 0 0,1 -9.607161424134198,41.387399972396054" fill="none" id="id88" stroke="none" /><text fill="#e1ed5e" style="font-size:6.75px; font-family:Arial;" text-anchor="middle"><textPath startOffset="21.466115282336823" xlink:href="#id88">April</textPath></text><path d="M 120.99824983174949 100.27111621757518 l 18.321732610400662 0.2365587077283523 a39.32325969551327,39.32325969551327 0 0,0 -0.014564468996803574,0.6767536442994574 l -18.31494607871885 -0.5519021678179244" fill="#ff980e" stroke="none" /><path d="M 120.95626037817324 101.35467743843564 l 15.306532667603344 0.9894615781295168 a36.338480254542915,36.338480254542915 0 0,0 -0.045723223868239925,0.6238570624116382 l -15.287232885070766 -1.2527917770379253" fill="#ff6b09" stroke="none" /><path d="M 120.76222939487914 103.15116336523771 l 14.947685862587385 2.268667742245658 a36.11886787994725,36.11886787994725 0 0,0 -0.09858429244452314,0.6138844831581015 l -14.906419815781572 -2.5256314550969647" fill="#ff6709" stroke="none" /><path d="M 120.23288151984713 105.62410040840565 l 14.519484285888057 4.0359568864178055 a36.06998247899358,36.06998247899358 0 0,0 -0.17143094470442594,0.5967736081431917 l -14.44786070429753 -4.285287970065578" fill="#ff6609" stroke="none" /><path d="M 119.54520255179757 107.68017299344265 l 13.771536114349743 5.411444545706259 a35.79658538380032,35.79658538380032 0 0,0 -0.23028690970778376,0.5715532242027118 l -13.676346590384567 -5.647697137751784" fill="#ff6209" stroke="none" /><line stroke="#e1ed5e" stroke-width="0.3" x1="174.80103733775053" x2="179.2010983576182" y1="140.37084112569926" y2="142.7455964860345" /><path d="M 175.68104954172406 140.8457921977663 a86.0,86.0 0 0,1 -30.038265399797805,32.042727171017184" fill="none" id="id89" stroke="none" /><text fill="#e1ed5e" style="font-size:6.75px; font-family:Arial;" text-anchor="middle"><textPath startOffset="22.206326154141568" xlink:href="#id89">May</textPath></text><path d="M 117.75023020441432 111.22182372390056 l 16.298307888199556 10.303907950092299 a40.28225503053321,40.28225503053321 0 0,0 -0.3755747441516072,0.5829003433444969 l -16.118528280670898 -10.58292989335825" fill="#ffa70f" stroke="none" /><path d="M 116.93607887273984 112.41649034213515 l 12.029673094684698 8.819415693653516 a35.91627057754192,35.91627057754192 0 0,0 -0.3698328026059048,0.49545147630344916 l -11.876079025383701 -9.02518004946628" fill="#ff6409" stroke="none" /><path d="M 115.56566222782051 114.09645910891815 l 13.114368438367986 11.876536682154764 a38.692902054208915,38.692902054208915 0 0,0 -0.45133168301181814,0.4898314028193474 l -12.907990347360446 -12.100519339775445" fill="#ff8f0d" stroke="none" /><path d="M 112.92097659922987 116.55440617244103 l 8.959707694770081 11.479212830894658 a35.561891676313856,35.561891676313856 0 0,0 -0.48579452773146653,0.37248652852312936 l -8.760784438545121 -11.631738701245158" fill="#ff5e08" stroke="none" /><path d="M 111.7513745106137 117.40417183066458 l 10.43561377341658 15.45548693958755 a39.64870267251004,39.64870267251004 0 0,0 -0.5689122513030322,0.3770440183267708 l -10.168026823373584 -15.63282897900564" fill="#ff9d0e" stroke="none" /><line stroke="#e1ed5e" stroke-width="0.3" x1="143.8653032363475" x2="146.44561519142675" y1="172.8068346515853" y2="177.08958963109032" /><path d="M 144.38136562736335 173.6633856474863 a86.0,86.0 0 0,1 -40.68145358897372,12.25698825130547" fill="none" id="id90" stroke="none" /><text fill="#e1ed5e" style="font-size:6.75px; font-family:Arial;" text-anchor="middle"><textPath startOffset="21.466115282336833" xlink:href="#id90">June</textPath></text><path d="M 109.57404056367764 118.69057910512821 l 5.020464849256559 9.80102338040447 a32.012044615140994,32.012044615140994 0 0,0 -0.4925984344984734,0.24699908123328784 l -4.851012507075326 -9.88599030254706" fill="#ff2603" stroke="none" /><path d="M 106.57524785965236 119.94407469862006 l 4.771309609615604 14.472360174943798 a36.23858931870367,36.23858931870367 0 0,0 -0.5941034660211959,0.19021316865088897 l -4.521484798503468 -14.552346190254394" fill="#ff6909" stroke="none" /><line stroke="#e1ed5e" stroke-width="0.3" x1="102.19456741930631" x2="102.32365962044197" y1="184.97166512339345" y2="189.96999836594603" /><path d="M 102.22038585953345 185.97133177190398 a86.0,86.0 0 0,1 -42.740103519485714,-10.115201625700543" fill="none" id="id91" stroke="none" /><text fill="#e1ed5e" style="font-size:6.75px; font-family:Arial;" text-anchor="middle"><textPath startOffset="22.20632615414155" xlink:href="#id91">July</textPath></text><path d="M 98.37488393609728 120.93702456842531 l -1.1588368434238392 14.929761633944294 a35.974668119062656,35.974668119062656 0 0,0 -0.6169752924020295,-0.053235224325085775 l 1.4156564535674105 -14.907602157340545" fill="#ff6509" stroke="none" /><path d="M 96.93821686468263 120.77559828337769 l -2.0738014485199496 14.071690877437474 a35.2236822446946,35.2236822446946 0 0,0 -0.599077907116874,-0.09356364843222675 l 2.3157152192453405 -14.03390892165814" fill="#ff5908" stroke="none" /><path d="M 94.81253420990036 120.34920634021253 l -3.569018138398497 14.000417442528756 a35.44816870877693,35.44816870877693 0 0,0 -0.5899749404070594,-0.1558177439602951 l 3.8094835216170457 -13.936908349264879" fill="#ff5d08" stroke="none" /><path d="M 92.06813273071674 119.44442032107085 l -3.927464077004338 9.62790471859215 a31.39814999634303,31.39814999634303 0 0,0 -0.4986751972742881,-0.20844627290440917 l 4.092610733776088 -9.558873402667768" fill="#ff1b02" stroke="none" /><path d="M 90.10565033884886 118.52300852407294 l -5.428185227255104 10.161993933717035 a32.52090775808453,32.52090775808453 0 0,0 -0.49149496474953247,-0.26800224289499447 l 5.602303003873277 -10.067051039062274" fill="#ff2e04" stroke="none" /><line stroke="#e1ed5e" stroke-width="0.3" x1="58.666819895761336" x2="56.23545636021788" y1="174.27360380694188" y2="178.64263932499728" /><path d="M 58.180547188652646 175.14741091055294 a86.0,86.0 0 0,1 -31.652253787137756,-30.449443065178592" fill="none" id="id92" stroke="none" /><text fill="#e1ed5e" style="font-size:6.75px; font-family:Arial;" text-anchor="middle"><textPath startOffset="22.20632615414155" xlink:href="#id92">August</textPath></text><path d="M 87.95078237400918 117.19931262002967 l -8.630189603611177 12.318918420268204 a36.041141035157594,36.041141035157594 0 0,0 -0.5050439466567124,-0.36033544619110053 l 8.840960878116775 -12.168538712232884" fill="#ff6609" stroke="none" /><path d="M 85.97065885151581 115.62618273729859 l -19.932484265809983 22.201230852492913 a50.83619580932606,50.83619580932606 0 0,0 -0.6461049316619201,-0.5902015360730898 l 20.311688746938756 -21.854836549833248" fill="#c3ff1e" stroke="none" /><path d="M 83.06392112726016 112.41649034213515 l -9.18320177544759 6.732558168364103 a32.38677014517242,32.38677014517242 0 0,0 -0.32574953877841883,-0.45243761850342623 l 9.297731106601615 -6.573486944409538" fill="#ff2c04" stroke="none" /><path d="M 82.6465618267979 111.8261652097733 l -27.7175572890806 18.889191204669398 a54.54198155207925,54.54198155207925 0 0,0 -0.5220366150815791,-0.7803739086889011 l 28.038597009572907 -18.409280381774675" fill="#94ff23" stroke="none" /><line stroke="#e1ed5e" stroke-width="0.3" x1="26.63291911575756" x2="22.317208475507996" y1="142.92168965132927" y2="145.44649492493687" /><path d="M 25.769776987707644 143.4266507060508 a86.0,86.0 0 0,1 -11.730757126820373,-40.83630448921669" fill="none" id="id93" stroke="none" /><text fill="#e1ed5e" style="font-size:6.75px; font-family:Arial;" text-anchor="middle"><textPath startOffset="21.46611528233685" xlink:href="#id93">September</textPath></text><path d="M 81.35079622478065 109.6543875284942 l -27.73030593974896 14.355525471912108 a52.225806300026804,52.225806300026804 0 0,0 -0.40641955890643583,-0.8019043467559535 l 27.97330416844166 -13.876066913453469" fill="#b1ff20" stroke="none" /><path d="M 81.18737489456691 109.33194174019688 l -27.760077294027692 13.770296413147227 a51.98778718586287,51.98778718586287 0 0,0 -0.39076680490930943,-0.805095359417574 l 27.99299735555172 -13.290412097764369" fill="#b4ff20" stroke="none" /><path d="M 80.73074385275274 108.34839909993369 l -17.669974599455365 7.65551087777812 a40.25707270446827,40.25707270446827 0 0,0 -0.2700080566902063,-0.6382192869250967 l 17.799133637337878 -7.350217065186865" fill="#ffa60f" stroke="none" /><path d="M 80.32549172779594 107.34259656027581 l -29.908461899419166 11.161944503389295 a52.92342554121895,52.92342554121895 0 0,0 -0.3111790037541424,-0.8562309722672317 l 30.09616516417853 -10.645465734115946" fill="#a8ff21" stroke="none" /><path d="M 80.0844068197444 106.66101706037122 l -18.72157938720478 6.261664343440098 a40.74097198978105,40.74097198978105 0 0,0 -0.21671820344707046,-0.6669900469552489 l 18.826589841668103 -5.938475396507046" fill="#ffad10" stroke="none" /><path d="M 79.86692584326677 105.97154293290107 l -19.086621724545076 5.661161340035368 a40.908487551137256,40.908487551137256 0 0,0 -0.19442706054555464,-0.6768261041931398 l 19.181241421976736 -5.331777760337633" fill="#ffb010" stroke="none" /><path d="M 79.50377843672027 104.57218783832718 l -31.58329825786611 7.045433800715034 a53.35958693008281,53.35958693008281 0 0,0 -0.192262116111023,-0.8981845991164837 l 31.699894412701575 -6.500735382182386" fill="#a3ff22" stroke="none" /><path d="M 79.18660465613746 102.79330883721812 l -29.672512264500803 3.9822666778553373 a50.93854425286085,50.93854425286085 0 0,0 -0.10915036250197031,-0.8700357831403022 l 29.73666413624962 -3.4709131404276263" fill="#c2ff1e" stroke="none" /><path d="M 79.04373962182676 101.35467743843564 l -18.131620073863147 1.1720839593085022 a39.16946414483887,39.16946414483887 0 0,0 -0.037702752578437325,-0.6732079745646338 l 18.149109177329112 -0.8598042684084308" fill="#ff960d" stroke="none" /><line stroke="#e1ed5e" stroke-width="0.3" x1="15.007084014347285" x2="10.007500721073583" y1="101.09737516637583" y2="101.16192664675087" /><path d="M 14.007167355692545 101.11028546245083 a86.0,86.0 0 0,1 10.666146001902534,-42.60595125391555" fill="none" id="id94" stroke="none" /><text fill="#e1ed5e" style="font-size:6.75px; font-family:Arial;" text-anchor="middle"><textPath startOffset="22.20632615414155" xlink:href="#id94">October</textPath></text><path d="M 79.08570108090925 98.10471618934814 l -34.699342388339595 -3.1445042515316977 a55.84153080981262,55.84153080981262 0 0,0 0.09499142794432816,-0.9565507159624785 l 34.64007383471304 3.7413304981986064" fill="#84ff25" stroke="none" /><path d="M 79.21141760316559 97.0276538004421 l -17.245644840899384 -2.4657778930408583 a38.421031157662526,38.421031157662526 0 0,0 0.09924354801372075,-0.6538909827885558 l 17.20064539944636 2.7622679882215064" fill="#ff8b0c" stroke="none" /><path d="M 79.62865764111835 94.90015583598534 l -45.434345018956506 -11.374217526206943 a67.83644448114151,67.83644448114151 0 0,0 0.2933237138935188,-1.1302959239051174 l 45.23182497319268 12.154609875660924" fill="#36ff6f" stroke="none" /><path d="M 79.91906864156998 93.8553929516997 l -16.619383288448386 -5.085400565832532 a38.380023009286475,38.380023009286475 0 0,0 0.19874366833857443,-0.6300717402381855 l 16.52938413634161 5.370722472497132" fill="#ff8a0c" stroke="none" /><path d="M 80.02781315780177 93.51064311812611 l -16.64336748640173 -5.4077579079742755 a38.49987219606682,38.49987219606682 0 0,0 0.21021426359247228,-0.628513891564988 l 16.547815929037483 5.693444902461586" fill="#ff8c0c" stroke="none" /><path d="M 80.38941819471856 92.48833698450439 l -27.514747290809446 -10.53928494612123 a50.464179025600615,50.464179025600615 0 0,0 0.31769952224330844,-0.8085106309657939 l 27.329254218684444 11.011344581982787" fill="#c8ff1d" stroke="none" /><path d="M 80.52162464483688 92.15188598940014 l -16.64370834283696 -6.705986420943087 a38.94389258993972,38.94389258993972 0 0,0 0.25587679074499564,-0.6196259447539866 l 16.525809865205762 6.991486936150385" fill="#ff930d" stroke="none" /><path d="M 81.10775173730289 90.83032412892265 l -15.730327308668858 -7.6349834472192875 a38.485312964804656,38.485312964804656 0 0,0 0.29439429410238455,-0.5934809327270758 l 15.596573001613061 7.904623968445325" fill="#ff8c0c" stroke="none" /><path d="M 81.43458229118936 90.18545643968196 l -26.346247416719383 -13.927852148438106 a50.801171426837314,50.801171426837314 0 0,0 0.41534046115247414,-0.7695627952316176 l 26.102598856348436 14.379295927002197" fill="#c4ff1e" stroke="none" /><path d="M 81.6062741919709 89.86733742301443 l -55.18117742408733 -30.39798773095671 a84.0,84.0 0 0,0 0.7085694348302773,-1.2604659602608617 l 54.64975034796462 31.34333720115236" fill="#4dd2ff" stroke="none" /><line stroke="#e1ed5e" stroke-width="0.3" x1="26.266209847984243" x2="21.928928074336255" y1="57.711370442889674" y2="55.22380399835377" /><path d="M 25.398753493254645 57.213857153982495 a86.0,86.0 0 0,1 29.58750427330803,-30.492523968695096" fill="none" id="id95" stroke="none" /><text fill="#e1ed5e" style="font-size:6.75px; font-family:Arial;" text-anchor="middle"><textPath startOffset="21.46611528233685" xlink:href="#id95">November</textPath></text><path d="M 82.15384107792192 88.93136811851018 l -13.024293583868083 -8.077991002194821 a36.32599628051396,36.32599628051396 0 0,0 0.33415142953652865,-0.5285473148874142 l 12.883314558085592 8.30098596479645" fill="#ff6a09" stroke="none" /><path d="M 82.7489923806493 88.02491185347247 l -24.162941735572808 -16.77312789766096 a50.414037002560164,50.414037002560164 0 0,0 0.5009892051035535,-0.7086137016404054 l 23.870639910665375 17.18656809963315" fill="#c9ff1d" stroke="none" /><path d="M 82.95767976084542 87.72973835380427 l -11.917537463247285 -8.580480873515029 a35.685106441856654,35.685106441856654 0 0,0 0.36320197252644537,-0.49540708235148945 l 11.768072878207207 8.78435039953802" fill="#ff6008" stroke="none" /><path d="M 84.5562425177563 85.77008943001954 l -12.099802334992608 -11.148783276307384 a37.452981039555226,37.452981039555226 0 0,0 0.4409333715523322,-0.4703569775817729 l 11.90610164146982 11.355409670767207" fill="#ff7c0b" stroke="none" /><line stroke="#e1ed5e" stroke-width="0.3" x1="56.762969772571076" x2="54.21961505331055" y1="26.818313649435495" y2="22.513508569990535" /><path d="M 56.25429882871897 25.957352633546506 a86.0,86.0 0 0,1 42.265352541879196,-11.944610805530505" fill="none" id="id96" stroke="none" /><text fill="#e1ed5e" style="font-size:6.75px; font-family:Arial;" text-anchor="middle"><textPath startOffset="22.20632615414155" xlink:href="#id96">December</textPath></text><path d="M 91.90106846888425 80.62456947434976 l -3.532218824483083 -8.450282629533165 a30.158812496335024,30.158812496335024 0 0,0 0.4806971912658502,-0.19608845390501187 l 3.386237763628852 8.509831969621754" fill="#ff0701" stroke="none" /><path d="M 93.94186890950719 79.89281104454417 l -2.5215837578412077 -8.369241326832546 a29.740857225385298,29.740857225385298 0 0,0 0.4914461138333221,-0.14346659696771052 l 2.377147426284464 8.411406252718955" fill="#ff0000" stroke="none" /><path d="M 94.28887869178378 79.79150937346287 l -4.190691104747549 -14.828531445684531 a36.40932304713822,36.40932304713822 0 0,0 0.6045717999272603,-0.16525231075217192 l 3.9348214155965655 14.898470297263" fill="#ff6c09" stroke="none" /><path d="M 94.98787191387505 79.60689891045804 l -5.647684451374267 -22.979021676948925 a44.66287761224284,44.66287761224284 0 0,0 0.7481591626703985,-0.17706510175100915 l 5.251301601741335 23.072832690840805" fill="#ffe615" stroke="none" /><path d="M 96.40284397218896 79.31037775812273 l -3.2950805484798025 -18.952186471069083 a40.236499885767785,40.236499885767785 0 0,0 0.6833897312594968,-0.11276516116698598 l 2.9683616110814204 19.0060978951757" fill="#ffa60f" stroke="none" /><path d="M 96.75951476605007 79.25152402106235 l -1.3934377044106603 -8.922030699355878 a30.03018828354769,30.03018828354769 0 0,0 0.5114155644649908,-0.07536936020131464 l 1.2396531595170206 8.944694543718162" fill="#ff0500" stroke="none" /><path d="M 97.47563105711357 79.15227682838746 l -2.312074336966511 -19.09446947725187 a40.23394011525882,40.23394011525882 0 0,0 0.6882557589712868,-0.07733355385111719 l 1.9830518744855061 19.131438984573585" fill="#ffa60f" stroke="none" /><path d="M 99.27714615592234 79.0124445844662 l -0.7675789832653562 -22.286118527371315 a43.299333095668885,43.299333095668885 0 0,0 0.7451059854571238,-0.01924388932757543 l 0.3838463626133534 22.29602920884125" fill="#ffd313" stroke="none" /><path d="M 99.63851952072746 79.00311137660856 l -0.2574931812859527 -14.956701561379687 a35.958917886484514,35.958917886484514 0 0,0 0.6189736605584848,-0.0053277017133855735 l 3.66387818167827e-15 14.958917886484514" fill="#ff6509" stroke="none" /></svg>