<?xml version="1.0" encoding="utf-8" ?>
<svg baseProfile="full" height="200mm" version="1.1" viewBox="0,0,200,200" width="200mm" xmlns="http://www.w3.org/2000/svg" xmlns:ev="http://www.w3.org/2001/xml-events" xmlns:xlink="http://www.w3.org/1999/xlink"><defs /><rect fill="#1a1a1a" height="200" width="200" x="0" y="0" /><rect fill="#1a1a1a" height="200" width="180" x="10" y="0" /><text alignment-baseline="middle" fill="#e1ed5e" style="dominant-baseline: central; font-size:9.0px; font-family:Arial;" text-anchor="middle" x="100.0" y="100.0">2025</text><line stroke="#e1ed5e" stroke-width="0.3" x1="100.0" x2="100.0" y1="15.0" y2="10.0" /><path d="M 100.0 14.0 a86.0,86.0 0 0,1 42.46469731375804,11.215312516191453" fill="none" id="id133" stroke="none" /><text fill="#e1ed5e" style="font-size:6.75px; font-family:Arial;" text-anchor="middle"><textPath startOffset="22.20632615414155" xlink:href="#id133">January</textPath></text><path d="M 102.88285421437855 79.19881850522331 l 4.04692718187147 -29.200528554788516 a50.47962834729077,50.47962834729077 0 0,0 0.8596705215916252,0.12669308816221592 l -4.548966683891751 29.12654098246533" fill="red" stroke="none" /><path d="M 105.01212808612495 79.60689891045804 l 12.356799400593772 -50.27673973797527 a72.77297605997376,72.77297605997376 0 0,0 1.2138917456069656,0.3094480343823983 l -13.220400034885763 50.056588707424" fill="red" stroke="none" /><path d="M 106.74666289553966 80.11325718540242 l 15.382858511666424 -45.343150489570135 a68.88145394941294,68.88145394941294 0 0,0 1.119546658058168,0.3905878461216178 l -16.161087173787866 45.07164179027631" fill="red" stroke="none" /><path d="M 107.08798089147638 80.2323363322302 l 19.813820770045314 -55.25874730090367 a79.70363401675068,79.70363401675068 0 0,0 1.2874705408874252,0.4741862656196899 l -20.762073636705317 54.90949776747766" fill="red" stroke="none" /><path d="M 107.4271985657038 80.35727306442388 l 14.49230528185013 -38.32782883076377 a61.97620498853777,61.97620498853777 0 0,0 0.9946202119318499,0.3858971898774478 l -15.149908658781648 38.07268893699578" fill="red" stroke="none" /><path d="M 107.76421540070413 80.48803036053334 l 14.172348021004066 -35.616016562434396 a59.332180791132394,59.332180791132394 0 0,0 0.9456875220614306,0.3857696850484227 l -14.783319412653883 35.3667859912024" fill="red" stroke="none" /><line stroke="#e1ed5e" stroke-width="0.3" x1="143.23703022742887" x2="145.7803849466894" y1="26.81831364943548" y2="22.513508569990506" /><path d="M 143.74570117128098 25.957352633546492 a86.0,86.0 0 0,1 28.547481713284135,27.462654790039103" fill="none" id="id134" stroke="none" /><text fill="#e1ed5e" style="font-size:6.75px; font-family:Arial;" text-anchor="middle"><textPath startOffset="19.985693538727396" xlink:href="#id134">February</textPath></text><path d="M 111.60114157652 82.49532879139004 l 26.698463589043666 -40.2846412845385 a69.32866935308104,69.32866935308104 0 0,0 0.9890735181535301,0.6678268545863123 l -27.387941801603738 39.81910251765352" fill="red" stroke="none" /><path d="M 114.16331599549186 84.49514656593476 l 32.56945284837665 -35.654404166546435 a69.29084587490753,69.29084587490753 0 0,0 0.8736985577553273,0.8120075903249361 l -33.178359289926824 35.088491990146856" fill="red" stroke="none" /><path d="M 114.42810811169701 84.74124197986012 l 33.230957877445576 -35.14411876483806 a69.36740271308358,69.36740271308358 0 0,0 0.8605414644687464,0.8278402070128252 l -33.83098258552674 34.566895471062935" fill="red" stroke="none" /><path d="M 115.19652480421416 85.50635884689758 l 34.81209440135019 -33.20193337237057 a69.10665542595797,69.10665542595797 0 0,0 0.8135915947916204,0.8678827872902491 l -35.378453318112264 32.59778116820226" fill="red" stroke="none" /><path d="M 115.4437574822437 85.77008943001954 l 35.52968135453858 -32.737122998485106 a69.31229118322779,69.31229118322779 0 0,0 0.8009080113849193,0.884382630024157 l -36.08793300653954 32.1206875811914" fill="red" stroke="none" /><path d="M 115.9244219780498 86.31012108654704 l 36.16639070659343 -31.091458778997318 a68.69367490294763,68.69367490294763 0 0,0 0.7631192988297174,0.9032925495969829 l -36.69622061891026 30.46430727977123" fill="red" stroke="none" /><path d="M 117.45458315368197 88.32363383020206 l 37.62706836976669 -25.17089204096744 a66.26996885619798,66.26996885619798 0 0,0 0.6261040378950099,0.9535994042431026 l -38.05476904301962 24.519474572746663" fill="red" stroke="none" /><line stroke="#e1ed5e" stroke-width="0.3" x1="172.23445277983987" x2="176.4835382374775" y1="55.19839476539836" y2="52.563006222186495" /><path d="M 173.08426987136738 54.67131705675599 a86.0,86.0 0 0,1 12.851231095245387,41.99856678651699" fill="none" id="id135" stroke="none" /><text fill="#e1ed5e" style="font-size:6.75px; font-family:Arial;" text-anchor="middle"><textPath startOffset="22.20632615414155" xlink:href="#id135">March</textPath></text><path d="M 118.21658344932153 89.55222093294921 l 41.133509775266006 -23.59135145072219 a68.41853529690047,68.41853529690047 0 0,0 0.5771343200861847,1.0266575570553185 l -41.533501736644624 22.879810383732075" fill="red" stroke="none" /><path d="M 118.3937258080291 89.86733742301442 l 43.309919266516495 -23.85839621315532 a70.44665991486261,70.44665991486261 0 0,0 0.5759581402139592,1.0671629609347042 l -43.71418550594892 23.109352268888156" fill="red" stroke="none" /><path d="M 118.56541770881063 90.18545643968196 l 41.665262748073104 -22.026196372570464 a68.12905098247793,68.12905098247793 0 0,0 0.539162171478159,1.0414897034233843 l -42.03823435271138 21.305733946886733" fill="red" stroke="none" /><path d="M 119.34039704204932 91.81776055985345 l 43.61426933693362 -18.451658150861775 a68.35681765396458,68.35681765396458 0 0,0 0.44913135189151593,1.0876071933845786 l -43.92542237571133 17.698176387023896" fill="red" stroke="none" /><path d="M 119.47837535516314 92.15188598940014 l 44.60644777419557 -17.97257119018194 a69.09104384621106,69.09104384621106 0 0,0 0.43496579247025485,1.1069404978498432 l -44.90920711654753 17.202081687436316" fill="red" stroke="none" /><path d="M 119.61058180528143 92.48833698450437 l 44.20803857411787 -16.93350516787689 a68.34019720957241,68.34019720957241 0 0,0 0.4113279689611422,1.1021544574159379 l -44.49297113158064 16.17002757343162" fill="red" stroke="none" /><path d="M 119.7369772167798 92.82701384747503 l 45.65018931962387 -16.590594002987363 a69.57146893279491,69.57146893279491 0 0,0 0.3993631544468797,1.1290534164420738 l -45.92900555488056 15.802342960118674" fill="red" stroke="none" /><path d="M 119.85752413597 93.16781622104841 l 44.80666200292161 -15.416189210154705 a68.38455285857776,68.38455285857776 0 0,0 0.37338847118914115,1.1163840030738674 l -45.06538776788253 14.642632104158524" fill="red" stroke="none" /><path d="M 120.18372546131832 94.20196356495316 l 45.145121794284236 -12.968520679174498 a67.97089045810111,67.97089045810111 0 0,0 0.31335625774898784,1.1273091830050113 l -45.361664822599586 12.189500192750534" fill="red" stroke="none" /><path d="M 120.28053869075195 94.5502522615342 l 45.87910733860782 -12.328546360330286 a68.50668948207516,68.50668948207516 0 0,0 0.2962218426854561,1.141463596361575 l -46.08452551316358 11.53698633841986" fill="red" stroke="none" /><path d="M 120.37134235888165 94.90015583598534 l 45.97366817119421 -11.509233863471437 a68.39241109332963,68.39241109332963 0 0,0 0.2760682462758296,1.144481109553195 l -46.164969217730864 10.716167522258836" fill="red" stroke="none" /><path d="M 120.45610955862082 95.25157060432595 l 38.66092603692294 -8.974271335985273 a60.68884916502761,60.68884916502761 0 0,0 0.22745490836544655,1.0196357547767232 l -38.809675332290425 8.307457411658586" fill="red" stroke="none" /><path d="M 120.91429891909075 98.10471618934814 l 36.91494245990854 -3.3452851126434715 a58.06620980493194,58.06620980493194 0 0,0 0.0816397531969586,0.9962117749147988 l -36.96705669692499 2.709359420520904" fill="red" stroke="none" /><line stroke="#e1ed5e" stroke-width="0.3" x1="184.98032266829074" x2="189.97916517819016" y1="98.17113171792111" y2="98.06355123074" /><path d="M 185.9800911702706 98.14961562048488 a86.0,86.0 0 0,1 -9.607161424134198,41.387399972396054" fill="none" id="id136" stroke="none" /><text fill="#e1ed5e" style="font-size:6.75px; font-family:Arial;" text-anchor="middle"><textPath startOffset="21.466115282336823" xlink:href="#id136">April</textPath></text><path d="M 120.99824983174949 100.27111621757518 l 28.99824764601333 0.3744071663633802 a50.00066460041462,50.00066460041462 0 0,0 -0.018519144522380557,0.8605118763739301 l -28.98750643880594 -0.8735088585274251" fill="red" stroke="none" /><path d="M 120.8583938346157 102.4346265915055 l 45.999266957236685 5.369111323326994 a67.31155273800917,67.31155273800917 0 0,0 -0.14423420397436193,1.1496885189748371 l -45.90003124401547 -6.160117596589226" fill="red" stroke="none" /><path d="M 120.81339534386255 102.79330883721812 l 46.95664379483098 6.3019226758157085 a68.37763845831279,68.37763845831279 0 0,0 -0.16660032195063382,1.1652022636949397 l -46.841209421863745 -7.109270411491058" fill="red" stroke="none" /><path d="M 120.76222939487914 103.15116336523771 l 48.30259157147069 7.331069997887572 a69.85575646568415,69.85575646568415 0 0,0 -0.19066711468467135,1.1872843051474222 l -48.16924270242473 -8.161433532728198" fill="red" stroke="none" /><path d="M 120.49622156327973 104.57218783832717 l 47.049574902651 10.49556834191157 a69.20601055200382,69.20601055200382 0 0,0 -0.2693742922249991,1.160457400725071 l -46.86194004449545 -11.303894399985206" fill="red" stroke="none" /><path d="M 120.41448212921028 104.9243191809786 l 45.710972369077226 11.02626148405448 a68.02203140275083,68.02203140275083 0 0,0 -0.28436022551559964,1.1358777485990863 l -45.51440082926656 -11.811467072050961" fill="red" stroke="none" /><path d="M 120.32669344350535 105.2749913415812 l 45.697702658318704 11.859035830040717 a68.21140496814618,68.21140496814618 0 0,0 -0.30471633883294513,1.1339628540578233 l -45.48679824314399 -12.64388961727409" fill="red" stroke="none" /><path d="M 120.23288151984713 105.62410040840565 l 46.29782334224646 12.86932891451977 a69.05317963402584,69.05317963402584 0 0,0 -0.32819122732869627,1.1424767169753105 l -46.06943947803166 -13.664363106999662" fill="red" stroke="none" /><path d="M 119.9155931802556 106.66101706037122 l 43.542483684289046 14.563323524781026 a66.9133779794519,66.9133779794519 0 0,0 -0.3747441325211836,1.0891818629466654 l -43.28534872082463 -15.31067809081699" fill="red" stroke="none" /><path d="M 119.79798401119884 107.00284435728193 l 44.67249802835391 15.801333639151819 a68.38474675324407,68.38474675324407 0 0,0 -0.40208843530129684,1.106374683837738 l -44.39388533204738 -16.56795611999569" fill="red" stroke="none" /><path d="M 119.54520255179757 107.68017299344265 l 43.789935639412676 17.20699901631248 a68.04932814027511,68.04932814027511 0 0,0 -0.4377755396805726,1.0865229877764793 l -43.487257485474714 -17.958221371931774" fill="red" stroke="none" /><path d="M 118.64920377521936 109.65438752849418 l 32.47367670442037 16.81109087327888 a57.56709525041406,57.56709525041406 0 0,0 -0.463134111968387,0.8760752031970784 l -32.17949008422709 -17.36758109156209" fill="red" stroke="none" /><line stroke="#e1ed5e" stroke-width="0.3" x1="174.80103733775053" x2="179.2010983576182" y1="140.37084112569926" y2="142.7455964860345" /><path d="M 175.68104954172406 140.8457921977663 a86.0,86.0 0 0,1 -30.038265399797805,32.042727171017184" fill="none" id="id137" stroke="none" /><text fill="#e1ed5e" style="font-size:6.75px; font-family:Arial;" text-anchor="middle"><textPath startOffset="22.206326154141568" xlink:href="#id137">May</textPath></text><path d="M 117.14729908036423 112.12312394758627 l 38.25718237948196 27.047791124316326 a67.85290821626327,67.85290821626327 0 0,0 -0.6824716838742045,0.9478934782409749 l -37.785930903232156 -27.702318208008435" fill="red" stroke="none" /><path d="M 116.93607887273984 112.41649034213515 l 37.886760127392186 27.776239987506234 a67.9779320617042,67.9779320617042 0 0,0 -0.6999743772242859,0.9377300664698335 l -37.40302448347281 -28.424282933485383" fill="red" stroke="none" /><path d="M 116.27256486870786 113.27417163493432 l 38.51295843135646 31.416536023156826 a70.70157646221799,70.70157646221799 0 0,0 -0.7773941342361254,0.9364213141559974 l -37.96646829722679 -32.074818594426596" fill="red" stroke="none" /><path d="M 116.0416608686014 113.55231037782055 l 36.55788489535249 30.884819652820042 a68.85761206964949,68.85761206964949 0 0,0 -0.7727053360610693,0.8988308745401191 l -36.02083704972064 -31.50952762652169" fill="red" stroke="none" /><path d="M 115.80600337817218 113.82643327865902 l 36.540023015908595 31.963689880505978 a69.54740727145261,69.54740727145261 0 0,0 -0.795957327028402,0.8942664948020996 l -35.98440683923185 -32.58793054504894" fill="red" stroke="none" /><path d="M 115.56566222782051 114.09645910891815 l 34.31432982892765 31.07548784007873 a67.29426720564129,67.29426720564129 0 0,0 -0.7849510701579773,0.8519093569373059 l -33.774332350773946 -31.66154845181737" fill="red" stroke="none" /><path d="M 115.32070863581623 114.36230785411682 l 34.90138183406597 32.71809433560383 a68.83910691976536,68.83910691976536 0 0,0 -0.8178526754954499,0.8575152605250717 l -34.33302260719156 -33.31401671271141" fill="red" stroke="none" /><path d="M 115.07121518719521 114.62390073753431 l 21.1601851193024 20.532149725752642 a50.484277278642445,50.484277278642445 0 0,0 -0.6105216905812887,0.6184552492593671 l -20.803622803665576 -20.893345468992674" fill="red" stroke="none" /><path d="M 111.7513745106137 117.40417183066458 l 27.115856403899997 40.15947443108559 a69.45671320981172,69.45671320981172 0 0,0 -0.9966221444037348,0.6605068131662937 l -26.4205595607563 -40.62027926534321" fill="red" stroke="none" /><path d="M 111.45004920935366 117.60387380957326 l 20.08682015106558 30.882474014704442 a57.840297841496195,57.840297841496195 0 0,0 -0.8392853013014065,0.5356715887002097 l -19.552253047717244 -31.22366003222846" fill="red" stroke="none" /><line stroke="#e1ed5e" stroke-width="0.3" x1="143.8653032363475" x2="146.44561519142675" y1="172.8068346515853" y2="177.08958963109032" /><path d="M 144.38136562736335 173.6633856474863 a86.0,86.0 0 0,1 -40.68145358897372,12.25698825130547" fill="none" id="id138" stroke="none" /><text fill="#e1ed5e" style="font-size:6.75px; font-family:Arial;" text-anchor="middle"><textPath startOffset="21.466115282336833" xlink:href="#id138">June</textPath></text><path d="M 109.89434966115114 118.52300852407294 l 17.454585183088803 32.67636996900874 a58.046021355406566,58.046021355406566 0 0,0 -0.8853651767751447,0.4631812155463265 l -16.88952910378716 -32.97198060349978" fill="red" stroke="none" /><path d="M 109.57404056367764 118.69057910512821 l 25.012468077441763 48.829698402316104 a75.86312974472196,75.86312974472196 0 0,0 -1.167374948950602,0.5853460337102402 l -24.168239220808402 -49.25301227693565" fill="red" stroke="none" /><path d="M 109.2508944713604 118.85261126421891 l 20.485165539341985 41.74719145181158 a67.50236554508227,67.50236554508227 0 0,0 -1.0475317052933275,0.5028788769376936 l -19.763521166048427 -42.093624605248834" fill="red" stroke="none" /><path d="M 107.93186726928326 119.44442032107085 l 18.544337242526915 45.460151522677236 a70.09702455576452,70.09702455576452 0 0,0 -1.1211482466884317,0.44612802522015255 l -17.759067919796617 -45.77262639230346" fill="red" stroke="none" /><path d="M 107.2578585660854 119.70592522655815 l 12.324939122736065 33.46363483981677 a56.66116909289078,56.66116909289078 0 0,0 -0.9181279768648459,0.32920802707496266 l -11.747091585241485 -33.67083040793169" fill="red" stroke="none" /><path d="M 104.83641907484287 120.43548508189849 l 7.57449225466602 32.00475828869569 a53.88886568481545,53.88886568481545 0 0,0 -0.904511396474851,0.20586384900139668 l -7.022460708798307 -32.13039887127477" fill="red" stroke="none" /><path d="M 104.48393922423573 120.51570834832081 l 9.985776115755911 45.688681353033886 a67.7672035556229,67.7672035556229 0 0,0 -1.141743583477752,0.239263468882691 l -9.19784107084878 -45.853800802643114" fill="red" stroke="none" /><path d="M 103.06178313531738 120.77559828337769 l 7.114724270439581 48.27665670851905 a69.7981032868756,69.7981032868756 0 0,0 -1.1901288179246985,0.1649410096858765 l -6.282666861328052 -48.39197228369753" fill="red" stroke="none" /><path d="M 102.70371172650421 120.8252237178851 l 7.048069047281054 54.28744982310182 a75.74305878913817,75.74305878913817 0 0,0 -1.2943860330299435,0.1567321224955553 l -6.11255559119973 -54.40072747432272" fill="red" stroke="none" /><path d="M 102.34483914955558 120.86867818915974 l 3.689851060097442 32.83906034821088 a54.04570903156926,54.04570903156926 0 0,0 -0.9253845362424041,0.09591989085061467 l -3.1240339272494353 -32.89770960751725" fill="red" stroke="none" /><line stroke="#e1ed5e" stroke-width="0.3" x1="102.19456741930631" x2="102.32365962044197" y1="184.97166512339345" y2="189.96999836594603" /><path d="M 102.22038585953345 185.97133177190398 a86.0,86.0 0 0,1 -42.740103519485714,-10.115201625700543" fill="none" id="id139" stroke="none" /><text fill="#e1ed5e" style="font-size:6.75px; font-family:Arial;" text-anchor="middle"><textPath startOffset="22.20632615414155" xlink:href="#id139">July</textPath></text><path d="M 99.81925306533755 120.99922214144158 l -0.3200502068301675 37.183509652279135 a58.18488701335568,58.18488701335568 0 0,0 -1.0014458859841597,-0.017240799116673033 l 0.960055782706995 -37.172491375883304" fill="red" stroke="none" /><path d="M 98.37488393609728 120.93702456842531 l -4.011488033389701 51.68161547140549 a72.83706602399724,72.83706602399724 0 0,0 -1.2491753908370047,-0.1077841089773369 l 4.900507741968247 -51.6049071101495" fill="red" stroke="none" /><path d="M 98.01472825383883 120.90594882070398 l -4.538030422512241 47.78783153655797 a69.00281828270181,69.00281828270181 0 0,0 -1.1814840093717704,-0.12246564836803218 l 5.359947028489605 -47.70263651973418" fill="red" stroke="none" /><path d="M 95.86986931433489 120.58985236759428 l -10.417945553459154 51.93636164198429 a73.97092834906536,73.97092834906536 0 0,0 -1.2462640978997315,-0.2611667589137497 l 11.310401112788272 -51.749338902344" fill="red" stroke="none" /><path d="M 95.51606077576429 120.51570834832081 l -11.876379566894592 54.33890319284972 a76.62162162162161,76.62162162162161 0 0,0 -1.2860751305936091,-0.29270651262195374 l 12.809974846881063 -54.12641994665008" fill="red" stroke="none" /><path d="M 95.16358092515715 120.4354850818985 l -10.892835754150564 46.0258673015732 a68.29729729729729,68.29729729729729 0 0,0 -1.1416924703396485,-0.28060023196968636 l 11.683481509233424 -45.83154581128948" fill="red" stroke="none" /><path d="M 92.40401165467489 119.57807347666478 l -17.313378841146438 44.623897203569285 a68.86486486486487,68.86486486486487 0 0,0 -1.1014407956825556,-0.4382860237494754 l 18.07894071287085 -44.31926433541374" fill="red" stroke="none" /><path d="M 90.42595943632237 118.69057910512821 l -16.733007832013154 32.66641753508895 a57.7027027027027,57.7027027027027 0 0,0 -0.8801286011659355,-0.4604416866834359 l 17.292827335705585 -32.373546429460795" fill="red" stroke="none" /><path d="M 90.10565033884886 118.52300852407294 l -17.738518761883565 33.20791618279741 a58.648648648648646,58.648648648648646 0 0,0 -0.886368723610103,-0.48331890049074405 l 18.307510297362306 -32.8976566305469" fill="red" stroke="none" /><line stroke="#e1ed5e" stroke-width="0.3" x1="58.666819895761336" x2="56.23545636021788" y1="174.27360380694188" y2="178.64263932499728" /><path d="M 58.180547188652646 175.14741091055294 a86.0,86.0 0 0,1 -31.652253787137756,-30.449443065178592" fill="none" id="id140" stroke="none" /><text fill="#e1ed5e" style="font-size:6.75px; font-family:Arial;" text-anchor="middle"><textPath startOffset="22.20632615414155" xlink:href="#id140">August</textPath></text><path d="M 86.51685102203217 116.09983520530335 l -19.31369988735933 23.061926104893978 a51.08108108108108,51.08108108108108 0 0,0 -0.6692461380558083,-0.570346077836064 l 19.707811501992197 -22.726055636834964" fill="red" stroke="none" /><path d="M 86.24171649860922 115.8653595955263 l -24.04600900243073 27.7286465002892 a57.7027027027027,57.7027027027027 0 0,0 -0.7447980393107274,-0.6571976735085757 l 24.519749394648045 -27.310625685008336" fill="red" stroke="none" /><path d="M 84.67929136418377 114.36230785411682 l -27.53586822383188 25.813337089155915 a58.74324324324324,58.74324324324324 0 0,0 -0.6852080208768122,-0.7436579764340779 l 27.976122652704422 -25.335527857920493" fill="red" stroke="none" /><path d="M 84.19399662182784 113.82643327865904 l -35.59910670759497 31.1406154924753 a68.29729729729729,68.29729729729729 0 0,0 -0.7664176040085483,-0.8915168216458338 l 36.129866821174296 -30.523221571667932" fill="red" stroke="none" /><path d="M 83.28015986056508 112.70617746262583 l -38.259814373121365 29.07539707663931 a69.05405405405406,69.05405405405406 0 0,0 -0.7110552942008466,-0.9525747655775009 l 38.75463093401729 -28.4125094315525" fill="red" stroke="none" /><path d="M 83.06392112726016 112.41649034213515 l -38.296899072591884 28.076928611494786 a68.48648648648648,68.48648648648648 0 0,0 -0.6888442807209918,-0.9567444578980898 l 38.774523145688484 -27.413550548145558" fill="red" stroke="none" /><path d="M 82.6465618267979 111.8261652097733 l -39.08432020991463 26.635507229219133 a68.29729729729729,68.29729729729729 0 0,0 -0.6536926031236606,-0.9771817474927806 l 39.537015918449015 -25.95878856752053" fill="red" stroke="none" /><line stroke="#e1ed5e" stroke-width="0.3" x1="26.63291911575756" x2="22.317208475507996" y1="142.92168965132927" y2="145.44649492493687" /><path d="M 25.769776987707644 143.4266507060508 a86.0,86.0 0 0,1 -11.730757126820373,-40.83630448921669" fill="none" id="id141" stroke="none" /><text fill="#e1ed5e" style="font-size:6.75px; font-family:Arial;" text-anchor="middle"><textPath startOffset="21.46611528233685" xlink:href="#id141">September</textPath></text><path d="M 81.87401531095188 110.60418214915194 l -41.47747847764168 24.26542581878012 a69.05405405405406,69.05405405405406 0 0,0 -0.591392084724165,-1.0311419483037656 l 41.88902255851822 -23.547864024618047" fill="red" stroke="none" /><path d="M 81.69416730710424 110.29060199501025 l -32.81856491789419 18.448917090153504 a58.648648648648646,58.648648648648646 0 0,0 -0.48712894657684563,-0.8842805342042793 l 33.13127027392255 -17.881266037551402" fill="red" stroke="none" /><path d="M 80.58989483394504 108.01547362559985 l -43.71645307670034 18.05286852612578 a68.29729729729729,68.29729729729729 0 0,0 -0.4393707770548018,-1.09048223611484 l 44.02072646801253 -17.297686922168136" fill="red" stroke="none" /><path d="M 79.86692584326677 105.97154293290107 l -41.35442259220878 12.265871970283289 a64.13513513513513,64.13513513513513 0 0,0 -0.3048170819424389,-1.0611082504859635 l 41.55943231103733 -11.55220624429273" fill="red" stroke="none" /><path d="M 79.76711848015287 105.62410040840567 l -45.56955297262864 12.666892811724486 a68.29729729729729,68.29729729729729 0 0,0 -0.30510004000557894,-1.1353907488615356 l 45.780841088976 -11.880611129687411" fill="red" stroke="none" /><path d="M 79.67330655649465 105.27499134158121 l -46.33021118204372 12.023178463243662 a68.86486486486487,68.86486486486487 0 0,0 -0.28788361798737566,-1.1499519500842286 l 46.53030611432616 -11.223898673762042" fill="red" stroke="none" /><path d="M 79.58551787078972 104.9243191809786 l -45.97856335407722 11.090808966168023 a68.29729729729729,68.29729729729729 0 0,0 -0.2658372585501764,-1.1452199522267088 l 46.16266117855795 -10.29772035659274" fill="red" stroke="none" /><path d="M 79.29508885075956 103.50808413554451 l -48.311459348227686 8.185529649603856 a70.0,70.0 0 0,0 -0.19106081879569747,-1.1897359010226212 l 48.44520192138467 -7.35271451888802" fill="red" stroke="none" /><path d="M 79.1416061653843 102.43462659150553 l -52.4278547734935 6.119466838108499 a73.78378378378378,73.78378378378378 0 0,0 -0.13638650823954743,-1.262769679864279 l 52.5254235832341 -5.216100836359438" fill="red" stroke="none" /><path d="M 79.04373962182676 101.35467743843564 l -48.897940882404214 3.1609140230164963 a70.0,70.0 0 0,0 -0.06737883037489456,-1.2030942788818746 l 48.94510606366664 -2.3187480277991837" fill="red" stroke="none" /><line stroke="#e1ed5e" stroke-width="0.3" x1="15.007084014347285" x2="10.007500721073583" y1="101.09737516637583" y2="101.16192664675087" /><path d="M 14.007167355692545 101.11028546245083 a86.0,86.0 0 0,1 10.666146001902534,-42.60595125391555" fill="none" id="id142" stroke="none" /><text fill="#e1ed5e" style="font-size:6.75px; font-family:Arial;" text-anchor="middle"><textPath startOffset="22.20632615414155" xlink:href="#id142">October</textPath></text><path d="M 79.00175016825051 100.2711162175752 l -62.994749495248485 0.8133486527256131 a84.0,84.0 0 0,0 -0.006222810841987947,-1.4459620871852985 l 62.99941660337998 0.27112291266336075" fill="red" stroke="none" /><path d="M 79.16333360222342 97.38593545837743 l -48.61888826147869 -6.099483930452646 a70.0,70.0 0 0,0 0.1602800031405538,-1.194272193117802 l 48.5066922592803 6.9354744656351075" fill="red" stroke="none" /><path d="M 79.21141760316559 97.0276538004421 l -48.5066922592803 -6.9354744656351075 a70.0,70.0 0 0,0 0.18081368853565927,-1.1913362920263597 l 48.38012267730534 7.769409870053559" fill="red" stroke="none" /><path d="M 79.3925641242962 95.95851677861259 l -46.41314386419774 -9.10243968780948 a68.29729729729729,68.29729729729729 0 0,0 0.23618084842060322,-1.1517016948199252 l 46.249583719862144 9.900017038792809" fill="red" stroke="none" /><path d="M 79.46518482838121 95.60439243477599 l -46.249583719862144 -9.900017038792809 a68.29729729729729,68.29729729729729 0 0,0 0.2559705071375174,-1.1474655927249073 l 46.07231882572259 10.694660801067675" fill="red" stroke="none" /><path d="M 79.62865764111835 94.90015583598534 l -45.88140170919289 -11.486135504537502 a68.29729729729729,68.29729729729729 0 0,0 0.29531643418755893,-1.1379746880798212 l 45.676888943135026 12.274206618166188" fill="red" stroke="none" /><path d="M 80.02781315780177 93.51064311812611 l -47.50141735441739 -15.434146097429794 a70.94594594594594,70.94594594594594 0 0,0 0.38737400752779594,-1.1581989766137764 l 47.228706053117826 16.249518176965893" fill="red" stroke="none" /><path d="M 80.95270993114464 91.15688171328213 l -53.881523257843085 -25.015667946210918 a80.4054054054054,80.4054054054054 0 0,0 0.5936285370923928,-1.2503330932682326 l 53.442936526908944 25.939443455119683" fill="red" stroke="none" /><path d="M 81.10775173730289 90.83032412892265 l -42.55010869976826 -20.65242313305707 a68.29729729729729,68.29729729729729 0 0,0 0.5224417596740358,-1.0532107076745485 l 42.188306927140815 21.38179342923058" fill="red" stroke="none" /><path d="M 81.6062741919709 89.86733742301443 l -41.593019619957715 -22.912597358769172 a68.48648648648648,68.48648648648648 0 0,0 0.5777075121814423,-1.027677201834306 l 41.19245446648384 23.625158070538262" fill="red" stroke="none" /><line stroke="#e1ed5e" stroke-width="0.3" x1="26.266209847984243" x2="21.928928074336255" y1="57.711370442889674" y2="55.22380399835377" /><path d="M 25.398753493254645 57.213857153982495 a86.0,86.0 0 0,1 29.58750427330803,-30.492523968695096" fill="none" id="id143" stroke="none" /><text fill="#e1ed5e" style="font-size:6.75px; font-family:Arial;" text-anchor="middle"><textPath startOffset="21.46611528233685" xlink:href="#id143">November</textPath></text><path d="M 82.34701348167596 88.62581576622439 l -41.190301876089435 -26.539763212143075 a70.0,70.0 0 0,0 0.6613445488069325,-1.0072731200744434 l 40.72736069192459 27.244854396195187" fill="red" stroke="none" /><path d="M 82.54541684631803 88.32363383020206 l -40.72736069192459 -27.244854396195187 a70.0,70.0 0 0,0 0.6785851144375321,-0.9957399224319474 l 40.252351111818314 27.94187234189755" fill="red" stroke="none" /><path d="M 82.7489923806493 88.02491185347247 l -38.853620764303386 -26.970919248935854 a68.29729729729729,68.29729729729729 0 0,0 0.678704002259459,-0.9599786791011278 l 38.383604142240046 27.635724428368768" fill="red" stroke="none" /><path d="M 83.6137871275137 86.86637796730984 l -37.49637900550919 -30.053513480209922 a69.05405405405406,69.05405405405406 0 0,0 0.751378832361412,-0.9211016044418919 l 36.97350168107138 30.694499254259895" fill="red" stroke="none" /><path d="M 86.10567301691215 84.25364557470407 l -32.42009629387164 -36.74149365902386 a70.0,70.0 0 0,0 0.910354004510755,-0.7894500219343981 l 31.78284849071411 37.29410867437794" fill="red" stroke="none" /><path d="M 87.51073957382395 83.11751280151077 l -28.128964923819918 -38.023619816417195 a68.29729729729729,68.29729729729729 0 0,0 0.9511364035701333,-0.6910410471277738 l 27.470283203896003 38.502180098361634" fill="red" stroke="none" /><line stroke="#e1ed5e" stroke-width="0.3" x1="56.762969772571076" x2="54.21961505331055" y1="26.818313649435495" y2="22.513508569990535" /><path d="M 56.25429882871897 25.957352633546506 a86.0,86.0 0 0,1 42.265352541879196,-11.944610805530505" fill="none" id="id144" stroke="none" /><text fill="#e1ed5e" style="font-size:6.75px; font-family:Arial;" text-anchor="middle"><textPath startOffset="22.20632615414155" xlink:href="#id144">December</textPath></text><path d="M 89.63071344664047 81.73862282372117 l -23.35424899405298 -41.129227874501865 a68.29729729729729,68.29729729729729 0 0,0 1.0273081427476716,-0.5716958691961564 l 22.642816762233263 41.5251391412582" fill="red" stroke="none" /><path d="M 89.94658935756843 81.56283822128135 l -17.570825807493016 -32.22350797361637 a57.7027027027027,57.7027027027027 0 0,0 0.8761329802600619,-0.4679998956483461 l 17.01354778070465 32.521186595766466" fill="red" stroke="none" /><path d="M 91.56875222667455 80.76684994638697 l -18.989296786769025 -43.31790552615545 a68.29729729729729,68.29729729729729 0 0,0 1.0807762471864748,-0.46273198563454226 l 18.240836781792243 43.63835703975278" fill="red" stroke="none" /><path d="M 91.90106846888425 80.62456947434976 l -18.532690170300924 -44.33657075238884 a69.05405405405406,69.05405405405406 0 0,0 1.100643131533704,-0.44897996885580554 l 17.76676316917884 44.64901160742822" fill="red" stroke="none" /><path d="M 92.57280143429618 80.3572730644239 l -18.66836396244472 -49.37225959482643 a73.78378378378378,73.78378378378378 0 0,0 1.1918458824207017,-0.4389668968967051 l 17.815735754251445 49.68628975952946" fill="red" stroke="none" /></svg>