<?xml version="1.0" encoding="utf-8" ?>
<svg baseProfile="full" height="200mm" version="1.1" viewBox="0,0,200,200" width="200mm" xmlns="http://www.w3.org/2000/svg" xmlns:ev="http://www.w3.org/2001/xml-events" xmlns:xlink="http://www.w3.org/1999/xlink"><defs /><rect fill="#1a1a1a" height="200" width="200" x="0" y="0" /><rect fill="#1a1a1a" height="200" width="180" x="10" y="0" /><text alignment-baseline="middle" fill="#e1ed5e" style="dominant-baseline: central; font-size:9.0px; font-family:Arial;" text-anchor="middle" x="100.0" y="100.0">2026</text><line stroke="#e1ed5e" stroke-width="0.3" x1="100.0" x2="100.0" y1="15.0" y2="10.0" /><path d="M 100.0 14.0 a86.0,86.0 0 0,1 42.46469731375804,11.215312516191453" fill="none" id="id145" stroke="none" /><text fill="#e1ed5e" style="font-size:6.75px; font-family:Arial;" text-anchor="middle"><textPath startOffset="22.20632615414155" xlink:href="#id145">January</textPath></text><path d="M 100.0 79.0 l 0.0 -63.0 a84.0,84.0 0 0,0 1.4459219170901134,0.012445506434235476 l -1.084441437817585 62.990665870174325" fill="red" stroke="none" /><path d="M 101.08401301168833 79.027996857942 l 2.099115660775444 -40.610822710293235 a61.665036674816626,61.665036674816626 0 0,0 1.0595754996176676,0.06391648771211442 l -2.7978532092327235 40.56867295320082" fill="red" stroke="none" /><path d="M 104.66035177308747 79.52364482259891 l 9.024446465245184 -39.65103496455175 a61.665036674816626,61.665036674816626 0 0,0 1.0329666307041792,0.2444698276743686 l -9.705636782911887 39.48981922473651" fill="red" stroke="none" /><path d="M 105.01212808612495 79.60689891045804 l 9.705636782911887 -39.48981922473651 a61.665036674816626,61.665036674816626 0 0,0 1.028605439338105,0.2622144293427621 l -10.383951110935017 39.31690179922488" fill="red" stroke="none" /><path d="M 106.74666289553966 80.11325718540242 l 13.237645412397484 -39.01983156164928 a62.2041564792176,62.2041564792176 0 0,0 1.0110189537343373,0.3527246610803683 l -13.907346370195096 38.78618604739671" fill="red" stroke="none" /><path d="M 108.09893153111575 80.62456947434976 l 15.683016559030985 -37.519171091234696 a61.665036674816626,61.665036674816626 0 0,0 0.9758234887379741,0.41779669172784406 l -16.326523805559273 37.24365487154406" fill="red" stroke="none" /><path d="M 109.08828744355905 81.06846463323043 l 17.26552406759263 -35.965288459608686 a60.89486552567237,60.89486552567237 0 0,0 0.9410539787912662,0.46177110044031605 l -17.88204931339433 35.66276219903354" fill="red" stroke="none" /><path d="M 109.41281617654863 81.2277094730956 l 18.192741289881873 -36.282385480483924 a61.5880195599022,61.5880195599022 0 0,0 0.9435856849322437,0.4833412368891335 l -18.814587462402873 35.96385171828229" fill="red" stroke="none" /><path d="M 109.73455568895987 81.39251694778311 l 18.850288766885612 -36.032094321163285 a61.665036674816626,61.665036674816626 0 0,0 0.9362953523704115,0.5001365512748003 l -19.467729165784334 35.70227904338673" fill="red" stroke="none" /><path d="M 110.36928655335952 81.73862282372117 l 23.88231768524369 -42.05921100257863 a69.36674816625917,69.36674816625917 0 0,0 1.0332450230790744,0.5985222087189318 l -24.602759440788095 41.64188463646965" fill="red" stroke="none" /><line stroke="#e1ed5e" stroke-width="0.3" x1="143.23703022742887" x2="145.7803849466894" y1="26.81831364943548" y2="22.513508569990506" /><path d="M 143.74570117128098 25.957352633546492 a86.0,86.0 0 0,1 28.547481713284135,27.462654790039103" fill="none" id="id146" stroke="none" /><text fill="#e1ed5e" style="font-size:6.75px; font-family:Arial;" text-anchor="middle"><textPath startOffset="19.985693538727396" xlink:href="#id146">February</textPath></text><path d="M 111.60114157652 82.49532879139004 l 21.316033972505593 -32.16322839430413 a59.585574572127136,59.585574572127136 0 0,0 0.8500742106142009,0.5739739016562184 l -21.866512877526336 31.791542580349244" fill="red" stroke="none" /><path d="M 111.90073688211348 82.69761687909136 l 22.652136094682977 -32.93375369102048 a60.9718826405868,60.9718826405868 0 0,0 0.8596131338494243,0.6022139345179132 l -23.21568036811605 32.53895491373863" fill="red" stroke="none" /><path d="M 112.48926042617603 83.11751280151076 l 28.764995895984892 -38.883381273782085 a69.36674816625917,69.36674816625917 0 0,0 0.9538054921086176,0.7183865221946216 l -29.430047541851895 38.38247816208162" fill="red" stroke="none" /><path d="M 113.6212207817346 84.01681056812373 l 25.72712238114911 -30.18829788783476 a60.663814180929094,60.663814180929094 0 0,0 0.7889363738358145,0.6841578490822944 l -26.242952553631685 29.740975045332796" fill="red" stroke="none" /><path d="M 113.89432698308785 84.25364557470407 l 25.886252227659995 -29.3367287825807 a60.12469437652812,60.12469437652812 0 0,0 0.77013724578263,0.6914368233035518 l -26.387400461038617 28.88679295050785" fill="red" stroke="none" /><path d="M 114.16331599549186 84.49514656593476 l 31.997320244094073 -35.028079640773306 a68.44254278728607,68.44254278728607 0 0,0 0.8630021782432011,0.8020664713019664 l -32.59553030613212 34.4721085833967" fill="red" stroke="none" /><path d="M 114.42810811169701 84.74124197986012 l 27.40987775742928 -28.987909490583583 a60.89486552567237,60.89486552567237 0 0,0 0.7554348974955305,0.7267277728604155 l -27.904795898537227 28.511798630960865" fill="red" stroke="none" /><path d="M 114.94478906791727 85.2469230424477 l 37.709101022226456 -37.22536777553538 a73.9877750611247,73.9877750611247 0 0,0 0.8869222396181414,0.9140513305923845 l -38.344287525547706 36.57075224939288" fill="red" stroke="none" /><path d="M 116.15771136456269 86.58626213691792 l 48.47313409368808 -40.241213589246215 a84.0,84.0 0 0,0 0.9140060316943646,1.1204633215675965 l -49.158638617458855 39.400866098070516" fill="red" stroke="none" /><path d="M 116.38621287248628 86.86637796730983 l 39.543256980792094 -31.694095223142302 a71.67726161369194,71.67726161369194 0 0,0 0.7633489082905287,0.9693755942336393 l -40.08295996967659 31.008727234955625" fill="red" stroke="none" /><path d="M 116.60985879189232 87.15038557335679 l 37.64630586817649 -29.123698223712122 a68.59657701711492,68.59657701711492 0 0,0 0.7144629434244117,0.9401494851416606 l -38.14204475182502 28.471363962689427" fill="red" stroke="none" /><path d="M 117.2510076193507 88.02491185347247 l 39.732149578064444 -27.58076536437392 a69.36674816625917,69.36674816625917 0 0,0 0.6724463248937438,0.9867320062632785 l -40.20102036862692 26.89275533484024" fill="red" stroke="none" /><line stroke="#e1ed5e" stroke-width="0.3" x1="172.23445277983987" x2="176.4835382374775" y1="55.19839476539836" y2="52.563006222186495" /><path d="M 173.08426987136738 54.67131705675599 a86.0,86.0 0 0,1 12.851231095245387,41.99856678651699" fill="none" id="id147" stroke="none" /><text fill="#e1ed5e" style="font-size:6.75px; font-family:Arial;" text-anchor="middle"><textPath startOffset="22.20632615414155" xlink:href="#id147">March</textPath></text><path d="M 117.84615892207809 88.93136811851018 l 43.06640307112732 -26.710854931614794 a71.67726161369194,71.67726161369194 0 0,0 0.6412869085389521,1.0541070625988125 l -43.51980577795249 25.9655800958089" fill="red" stroke="none" /><path d="M 118.89224826269711 90.83032412892265 l 42.88863694844564 -20.816733609523986 a68.67359413202934,68.67359413202934 0 0,0 0.5070132414099049,1.0678991909065458 l -43.2406083836973 20.0753920029769" fill="red" stroke="none" /><path d="M 119.61058180528143 92.48833698450437 l 37.25531066675714 -14.27032313701738 a60.89486552567237,60.89486552567237 0 0,0 0.366515789821693,0.9820800965359676 l -37.49543104508046 13.626919903452078" fill="red" stroke="none" /><path d="M 119.85752413597 93.16781622104841 l 45.152805492547905 -15.535283409352008 a68.75061124694376,68.75061124694376 0 0,0 0.3753871971628359,1.122359939332571 l -45.41352998348251 14.755750367097123" fill="red" stroke="none" /><path d="M 120.08093135843002 93.85539295169968 l 36.823223762402236 -11.26761683673652 a59.50855745721272,59.50855745721272 0 0,0 0.2912918465709952,0.9820912977035987 l -37.01172150608493 10.632096152286392" fill="red" stroke="none" /><path d="M 120.37134235888165 94.90015583598534 l 37.35576227178787 -9.351792476799478 a59.50855745721272,59.50855745721272 0 0,0 0.24020827505552636,0.9958183777671108 l -37.511203347104214 8.707388867372961" fill="red" stroke="none" /><path d="M 120.53481517161879 95.60439243477599 l 46.54223389753209 -9.96266066739038 a68.59657701711492,68.59657701711492 0 0,0 0.2372157962287632,1.1567484678867528 l -46.70682898967585 9.160036543340215" fill="red" stroke="none" /><path d="M 120.67395015179393 96.31383870115 l 38.51723720211976 -6.867615916194851 a60.12469437652812,60.12469437652812 0 0,0 0.17289611286019277,1.0204426451886401 l -38.62974517650017 6.203587482690374" fill="red" stroke="none" /><path d="M 120.78858239683441 97.02765380044208 l 39.49322377100328 -5.646731044147917 a60.89486552567237,60.89486552567237 0 0,0 0.1394318462528271,1.0389292085851054 l -39.58457161631394 4.9660834934981475" fill="red" stroke="none" /><path d="M 120.91429891909075 98.10471618934814 l 47.40233520292699 -4.295667707761073 a68.59657701711492,68.59657701711492 0 0,0 0.09644520688790958,1.1768758107834254 l -47.46925489363439 3.4790779797698783" fill="red" stroke="none" /><line stroke="#e1ed5e" stroke-width="0.3" x1="184.98032266829074" x2="189.97916517819016" y1="98.17113171792111" y2="98.06355123074" /><path d="M 185.9800911702706 98.14961562048488 a86.0,86.0 0 0,1 -9.607161424134198,41.387399972396054" fill="none" id="id148" stroke="none" /><text fill="#e1ed5e" style="font-size:6.75px; font-family:Arial;" text-anchor="middle"><textPath startOffset="21.466115282336823" xlink:href="#id148">April</textPath></text><path d="M 120.99980553446 99.90962569577887 l 39.89449608869295 -0.17168908161324709 a60.89486552567237,60.89486552567237 0 0,0 -0.004511157493030382,1.048234129218655 l -39.89154063391041 -0.5150545258090927" fill="red" stroke="none" /><path d="M 120.9904718944345 100.63252640178507 l 47.57498153090658 1.433623409424842 a68.59657701711492,68.59657701711492 0 0,0 -0.045724084378465854,1.1799354474065717 l -47.5432553136769 -2.25233610384542" fill="red" stroke="none" /><path d="M 120.89721153311464 102.0752229133903 l 43.53159957509458 4.322958245008645 a64.74572127139365,64.74572127139365 0 0,0 -0.11967999463856621,1.1080881127219513 l -43.45073727895496 -5.071642679615388" fill="red" stroke="none" /><path d="M 120.8583938346157 102.4346265915055 l 38.248888449784296 4.464474189802278 a59.50855745721272,59.50855745721272 0 0,0 -0.12751406059389495,1.0164125251366976 l -38.16637287994355 -5.122204469226371" fill="red" stroke="none" /><path d="M 120.70491114924044 103.5080841355445 l 47.68710587428971 8.079743901425228 a69.36674816625917,69.36674816625917 0 0,0 -0.20959842640527152,1.1755392854753595 l -47.540961005545256 -8.899401937633806" fill="red" stroke="none" /><path d="M 120.5718875245553 104.21870165774334 l 37.72351013060261 7.736005484859419 a59.50855745721272,59.50855745721272 0 0,0 -0.21441772400579576,1.001688223219218 l -37.584758367872375 -8.384207527494805" fill="red" stroke="none" /><path d="M 120.41448212921028 104.9243191809786 l 37.43486943009221 9.02992514849377 a59.50855745721272,59.50855745721272 0 0,0 -0.24877038320788378,0.9937140198983329 l -37.27388773258927 -9.672967007789499" fill="red" stroke="none" /><path d="M 120.23288151984713 105.62410040840565 l 45.85790016845547 12.747044201936543 a68.59657701711492,68.59657701711492 0 0,0 -0.32602111765323033,1.1349222805033705 l -45.63168641391614 -13.534523957944495" fill="red" stroke="none" /><path d="M 119.9155931802556 106.66101706037122 l 36.52003639411175 12.214578961560925 a59.50855745721272,59.50855745721272 0 0,0 -0.33327390449094263,0.9686499685073371 l -36.304371658677574 -12.841401633157561" fill="red" stroke="none" /><path d="M 119.79798401119884 107.00284435728193 l 36.304371658677574 12.841401633157561 a59.50855745721272,59.50855745721272 0 0,0 -0.34989824326391744,0.9627696901464402 l -36.07794915440843 -13.464419120310133" fill="red" stroke="none" /><line stroke="#e1ed5e" stroke-width="0.3" x1="174.80103733775053" x2="179.2010983576182" y1="140.37084112569926" y2="142.7455964860345" /><path d="M 175.68104954172406 140.8457921977663 a86.0,86.0 0 0,1 -30.038265399797805,32.042727171017184" fill="none" id="id149" stroke="none" /><text fill="#e1ed5e" style="font-size:6.75px; font-family:Arial;" text-anchor="middle"><textPath startOffset="22.206326154141568" xlink:href="#id149">May</textPath></text><line stroke="#e1ed5e" stroke-width="0.3" x1="143.8653032363475" x2="146.44561519142675" y1="172.8068346515853" y2="177.08958963109032" /><path d="M 144.38136562736335 173.6633856474863 a86.0,86.0 0 0,1 -40.68145358897372,12.25698825130547" fill="none" id="id150" stroke="none" /><text fill="#e1ed5e" style="font-size:6.75px; font-family:Arial;" text-anchor="middle"><textPath startOffset="21.466115282336833" xlink:href="#id150">June</textPath></text><line stroke="#e1ed5e" stroke-width="0.3" x1="102.19456741930631" x2="102.32365962044197" y1="184.97166512339345" y2="189.96999836594603" /><path d="M 102.22038585953345 185.97133177190398 a86.0,86.0 0 0,1 -42.740103519485714,-10.115201625700543" fill="none" id="id151" stroke="none" /><text fill="#e1ed5e" style="font-size:6.75px; font-family:Arial;" text-anchor="middle"><textPath startOffset="22.20632615414155" xlink:href="#id151">July</textPath></text><line stroke="#e1ed5e" stroke-width="0.3" x1="58.666819895761336" x2="56.23545636021788" y1="174.27360380694188" y2="178.64263932499728" /><path d="M 58.180547188652646 175.14741091055294 a86.0,86.0 0 0,1 -31.652253787137756,-30.449443065178592" fill="none" id="id152" stroke="none" /><text fill="#e1ed5e" style="font-size:6.75px; font-family:Arial;" text-anchor="middle"><textPath startOffset="22.20632615414155" xlink:href="#id152">August</textPath></text><line stroke="#e1ed5e" stroke-width="0.3" x1="26.63291911575756" x2="22.317208475507996" y1="142.92168965132927" y2="145.44649492493687" /><path d="M 25.769776987707644 143.4266507060508 a86.0,86.0 0 0,1 -11.730757126820373,-40.83630448921669" fill="none" id="id153" stroke="none" /><text fill="#e1ed5e" style="font-size:6.75px; font-family:Arial;" text-anchor="middle"><textPath startOffset="21.46611528233685" xlink:href="#id153">September</textPath></text><line stroke="#e1ed5e" stroke-width="0.3" x1="15.007084014347285" x2="10.007500721073583" y1="101.09737516637583" y2="101.16192664675087" /><path d="M 14.007167355692545 101.11028546245083 a86.0,86.0 0 0,1 10.666146001902534,-42.60595125391555" fill="none" id="id154" stroke="none" /><text fill="#e1ed5e" style="font-size:6.75px; font-family:Arial;" text-anchor="middle"><textPath startOffset="22.20632615414155" xlink:href="#id154">October</textPath></text><line stroke="#e1ed5e" stroke-width="0.3" x1="26.266209847984243" x2="21.928928074336255" y1="57.711370442889674" y2="55.22380399835377" /><path d="M 25.398753493254645 57.213857153982495 a86.0,86.0 0 0,1 29.58750427330803,-30.492523968695096" fill="none" id="id155" stroke="none" /><text fill="#e1ed5e" style="font-size:6.75px; font-family:Arial;" text-anchor="middle"><textPath startOffset="21.46611528233685" xlink:href="#id155">November</textPath></text><line stroke="#e1ed5e" stroke-width="0.3" x1="56.762969772571076" x2="54.21961505331055" y1="26.818313649435495" y2="22.513508569990535" /><path d="M 56.25429882871897 25.957352633546506 a86.0,86.0 0 0,1 42.265352541879196,-11.944610805530505" fill="none" id="id156" stroke="none" /><text fill="#e1ed5e" style="font-size:6.75px; font-family:Arial;" text-anchor="middle"><textPath startOffset="22.20632615414155" xlink:href="#id156">December</textPath></text></svg>