<?xml version="1.0" encoding="utf-8" ?>
<svg baseProfile="full" height="200mm" version="1.1" viewBox="0,0,200,200" width="200mm" xmlns="http://www.w3.org/2000/svg" xmlns:ev="http://www.w3.org/2001/xml-events" xmlns:xlink="http://www.w3.org/1999/xlink"><defs /><rect fill="#1a1a1a" height="200" width="200" x="0" y="0" /><rect fill="#1a1a1a" height="200" width="180" x="10" y="0" /><text alignment-baseline="middle" fill="#e1ed5e" style="dominant-baseline: central; font-size:9.0px; font-family:Arial;" text-anchor="middle" x="100.0" y="100.0">2016</text><line stroke="#e1ed5e" stroke-width="0.3" x1="100.0" x2="100.0" y1="15.0" y2="10.0" /><path d="M 100.0 14.0 a86.0,86.0 0 0,1 42.35913384403234,11.155469271406648" fill="none" id="id25" stroke="none" /><text fill="#e1ed5e" style="font-size:6.75px; font-family:Arial;" text-anchor="middle"><textPath startOffset="22.145653131862478" xlink:href="#id25">January</textPath></text><line stroke="#e1ed5e" stroke-width="0.3" x1="143.13028292997686" x2="145.6673583964461" y1="26.7553504044142" y2="22.446841604673864" /><path d="M 143.63769802327073 25.89364864446614 a86.0,86.0 0 0,1 29.32050498858742,28.57503671076993" fill="none" id="id26" stroke="none" /><text fill="#e1ed5e" style="font-size:6.75px; font-family:Arial;" text-anchor="middle"><textPath startOffset="20.669276256404974" xlink:href="#id26">February</textPath></text><line stroke="#e1ed5e" stroke-width="0.3" x1="172.87174338648825" x2="177.1583165268699" y1="56.24261187166439" y2="53.66864786411523" /><path d="M 173.72905801456457 55.72781907015455 a86.0,86.0 0 0,1 12.242430191666344,42.057860355516425" fill="none" id="id27" stroke="none" /><text fill="#e1ed5e" style="font-size:6.75px; font-family:Arial;" text-anchor="middle"><textPath startOffset="22.145653131862474" xlink:href="#id27">March</textPath></text><line stroke="#e1ed5e" stroke-width="0.3" x1="184.99686870605535" x2="189.99668451229388" y1="99.2704041080226" y2="99.22748670261217" /><path d="M 185.99683186730306 99.26182062694052 a86.0,86.0 0 0,1 -10.086455211305974,41.156179273409016" fill="none" id="id28" stroke="none" /><text fill="#e1ed5e" style="font-size:6.75px; font-family:Arial;" text-anchor="middle"><textPath startOffset="21.40746469413373" xlink:href="#id28">April</textPath></text><line stroke="#e1ed5e" stroke-width="0.3" x1="174.33088141563837" x2="178.70328620479359" y1="141.23008692659167" y2="143.65538615756765" /><path d="M 175.20536237346943 141.71514677278685 a86.0,86.0 0 0,1 -30.301960400862466,31.631185727798858" fill="none" id="id29" stroke="none" /><text fill="#e1ed5e" style="font-size:6.75px; font-family:Arial;" text-anchor="middle"><textPath startOffset="22.145653131862474" xlink:href="#id29">May</textPath></text><line stroke="#e1ed5e" stroke-width="0.3" x1="143.1302829299769" x2="145.66735839644613" y1="173.24464959558577" y2="177.55315839532614" /><path d="M 143.63769802327073 174.10635135553383 a86.0,86.0 0 0,1 -40.68552437913181,11.842963189579606" fill="none" id="id30" stroke="none" /><text fill="#e1ed5e" style="font-size:6.75px; font-family:Arial;" text-anchor="middle"><textPath startOffset="21.407464694133747" xlink:href="#id30">June</textPath></text><path d="M 109.71004243097381 118.62028667847754 l 10.216906100766838 19.59226459778565 a43.09619882109888,43.09619882109888 0 0,0 -0.6589055375749551,0.3364418623736024 l -9.8790733414783 -19.76476441183209" fill="red" stroke="none" /><path d="M 109.06512990194946 118.94263497670748 l 10.165184232433708 21.24132543810156 a44.54835189236519,44.54835189236519 0 0,0 -0.6926447462514704,0.32419271492920004 l -9.79905077231073 -21.41269438460129" fill="red" stroke="none" /><path d="M 108.73861861582097 119.09545874513695 l 9.20060969214291 20.104992623015004 a43.11022268270136,43.11022268270136 0 0,0 -0.6755712611803026,0.3021744322064158 l -8.854125028106981 -20.25997080613127" fill="red" stroke="none" /><path d="M 107.74402155503746 119.51999308798841 l 8.870427767946342 22.359272567517447 a45.05455380036994,45.05455380036994 0 0,0 -0.7213614613648544,0.2790381098650849 l -8.485294044087958 -22.508250565520573" fill="red" stroke="none" /><path d="M 106.72888874123015 119.89276391827305 l 6.966403046149162 20.594932757239913 a42.74125172745649,42.74125172745649 0 0,0 -0.6970431848156358,0.22913193988578123 l -6.611837123685793 -20.711485618527714" fill="red" stroke="none" /><path d="M 106.0420521117495 120.11202640906438 l 6.437780898773856 21.429278837255758 a43.37541093221474,43.37541093221474 0 0,0 -0.7149506763342632,0.2081117220781009 l -6.068970210057986 -21.536634253636375" fill="red" stroke="none" /><path d="M 105.69591212413111 120.21278271476187 l 6.210264608144581 22.038038226362357 a43.896342838317686,43.896342838317686 0 0,0 -0.7270459271482851,0.1981596004738974 l -5.831037280061601 -22.141398320980393" fill="red" stroke="none" /><path d="M 104.9986988182912 120.39639698878246 l 5.606971933941871 22.87835887434687 a44.555412096828576,44.555412096828576 0 0,0 -0.744431499126018,0.17568380681185886 l -5.213408281075973 -22.971238824804953" fill="red" stroke="none" /><path d="M 104.64783097203109 120.47920084513623 l 8.476938140629755 37.35095354766949 a59.30081214752799,59.30081214752799 0 0,0 -0.9946654649222787,0.2167827085739039 l -7.834510259088341 -37.49096771437711" fill="red" stroke="none" /><path d="M 104.29559338865022 120.5559693870025 l 4.68217002740491 22.405878545762246 a43.88986914713533,43.88986914713533 0 0,0 -0.7388201425285088,0.14778472037057144 l -4.296853399345442 -22.48295266279568" fill="red" stroke="none" /><path d="M 103.94208987418118 120.62667999033965 l 4.198437990239696 21.96800165596095 a43.36559809873617,43.36559809873617 0 0,0 -0.7323938764002873,0.133466561603805 l -3.8207093802883514 -22.03683639149612" fill="red" stroke="none" /><path d="M 103.58742460773223 120.69131181640829 l 4.032178203350925 23.256532367268154 a44.603490394714285,44.603490394714285 0 0,0 -0.7555459512264796,0.12432479875535922 l -3.632354749071373 -23.322323164519183" fill="red" stroke="none" /><path d="M 103.2317021107853 120.74984581791261 l 3.4327038276056014 22.04042102880153 a43.306134014994505,43.306134014994505 0 0,0 -0.7355338464922659,0.10809814593527485 l -3.05384487550565 -22.096100248035686" fill="red" stroke="none" /><path d="M 102.15924093988457 120.88869738790638 l 4.024478422827357 38.93317802833694 a60.14062822646031,60.14062822646031 0 0,0 -1.0278332251798132,0.09733687505870396 l -3.3555456342625285 -38.99652665890083" fill="red" stroke="none" /><path d="M 101.80034050326958 120.92268563240118 l 5.401021509808741 62.76805689720356 a84.0,84.0 0 0,0 -1.4377240208990567,0.1112889320197854 l -4.322728494134449 -62.8515235962184" fill="red" stroke="none" /><path d="M 100.72087961077811 120.9876233191556 l 1.264245676670687 36.80713346323576 a57.82883911979076,57.82883911979076 0 0,0 -0.9924163657865482,0.025561125239460327 l -0.6322159968133949 -36.82341230582526" fill="red" stroke="none" /><line stroke="#e1ed5e" stroke-width="0.3" x1="101.45913802915013" x2="101.54496967792366" y1="184.9874750549273" y2="189.98673829345242" /><path d="M 101.47630435890484 185.9873277026323 a86.0,86.0 0 0,1 -42.54439059252881,-10.42667462771756" fill="none" id="id31" stroke="none" /><text fill="#e1ed5e" style="font-size:6.75px; font-family:Arial;" text-anchor="middle"><textPath startOffset="22.145653131862474" xlink:href="#id31">July</textPath></text><path d="M 99.27912038922189 120.98762331915562 l -1.2995132359240957 37.83390997061651 a58.85622113094566,58.85622113094566 0 0,0 -1.0094521276070094,-0.04335021776462873 l 1.9487911241319438 -37.80602718442605" fill="red" stroke="none" /><path d="M 97.12497278360702 120.80226474461374 l -5.076569198543563 36.73152583054371 a58.08067616249063,58.08067616249063 0 0,0 -0.9864723350709809,-0.1449774622149021 l 5.706366639222229 -36.63896729502993" fill="red" stroke="none" /><path d="M 95.00130118170881 120.39639698878247 l -7.66878442373835 31.29125742795394 a53.21727868644797,53.21727868644797 0 0,0 -0.8854207372378473,-0.2250704889950036 l 8.204810454201576 -31.155001707123674" fill="red" stroke="none" /><path d="M 92.59220618246901 119.65005319985036 l -15.991322437687764 42.41888264936322 a66.33303429648785,66.33303429648785 0 0,0 -1.0620479068308242,-0.4108229457497334 l 16.717142607012114 -42.13811981547544" fill="red" stroke="none" /><path d="M 90.28995756902619 118.62028667847754 l -25.008324709213763 47.956760101130975 a75.08573882419375,75.08573882419375 0 0,0 -1.137767708037506,-0.6057972195089608 l 25.827881233037832 -47.520392413899444" fill="red" stroke="none" /><line stroke="#e1ed5e" stroke-width="0.3" x1="58.13341422392154" x2="55.67067388415222" y1="173.97424548756322" y2="178.32567169271397" /><path d="M 57.64086615596768 174.84453072859336 a86.0,86.0 0 0,1 -31.369924170532247,-30.572349798747897" fill="none" id="id32" stroke="none" /><text fill="#e1ed5e" style="font-size:6.75px; font-family:Arial;" text-anchor="middle"><textPath startOffset="22.145653131862474" xlink:href="#id32">August</textPath></text><path d="M 86.13680546590413 115.77377054828092 l -27.888050268081965 31.731481866299788 a63.24488476947687,63.24488476947687 0 0,0 -0.8093386862897316,-0.7237156439102707 l 28.428653981195065 -31.248070692506133" fill="red" stroke="none" /><line stroke="#e1ed5e" stroke-width="0.3" x1="26.387840678322732" x2="22.057713659400548" y1="142.50000000000003" y2="145.00000000000006" /><path d="M 25.521815274538298 143.00000000000003 a86.0,86.0 0 0,1 -11.493303480769221,-40.785679425670985" fill="none" id="id33" stroke="none" /><text fill="#e1ed5e" style="font-size:6.75px; font-family:Arial;" text-anchor="middle"><textPath startOffset="21.40746469413373" xlink:href="#id33">September</textPath></text><line stroke="#e1ed5e" stroke-width="0.3" x1="15.003131293944662" x2="10.003315487706104" y1="100.72959589197737" y2="100.7725132973878" /><path d="M 14.003168132696942 100.73817937305945 a86.0,86.0 0 0,1 10.791469493833604,-42.45332614584628" fill="none" id="id34" stroke="none" /><text fill="#e1ed5e" style="font-size:6.75px; font-family:Arial;" text-anchor="middle"><textPath startOffset="22.145653131862435" xlink:href="#id34">October</textPath></text><path d="M 79.34024301695615 96.23510406497455 l -33.91553467451062 -6.180540203598611 a55.47408547686553,55.47408547686553 0 0,0 0.17876843078456728,-0.9353919702133687 l 33.8044399514439 6.761834738845294" fill="red" stroke="none" /><path d="M 80.28708602549916 92.7611449362534 l -32.700909486561436 -12.008226918258472 a55.836001420494156,55.836001420494156 0 0,0 0.3381250532943059,-0.8969168755360696 l 32.48995374945269 12.567812073988687" fill="red" stroke="none" /><path d="M 80.41425534168474 92.42381321644754 l -39.966438439080314 -15.459876965120657 a63.852351128980835,63.852351128980835 0 0,0 0.4042198174102165,-1.0188979958020292 l 39.69515994670397 16.14367597813627" fill="red" stroke="none" /><path d="M 81.46374523516351 90.13048839642627 l -33.033286539259855 -17.588364474892177 a58.42390391830462,58.42390391830462 0 0,0 0.4789498453886704,-0.88121377026982 l 32.726491344255834 18.152833078636615" fill="red" stroke="none" /><line stroke="#e1ed5e" stroke-width="0.3" x1="26.387840678322718" x2="22.05771365940052" y1="57.49999999999999" y2="54.99999999999999" /><path d="M 25.521815274538284 56.99999999999999 a86.0,86.0 0 0,1 29.574782752854787,-30.34633250058573" fill="none" id="id35" stroke="none" /><text fill="#e1ed5e" style="font-size:6.75px; font-family:Arial;" text-anchor="middle"><textPath startOffset="21.40746469413373" xlink:href="#id35">November</textPath></text><path d="M 84.34580500576568 86.00192230759919 l -33.145201311650844 -29.638643396331858 a65.46407035309281,65.46407035309281 0 0,0 0.7562730466623886,-0.8312765578199899 l 32.63153056414659 30.203257529709504" fill="red" stroke="none" /><path d="M 85.86807049272753 84.46653392183569 l -28.651945953328525 -31.493507684876995 a63.57669589352684,63.57669589352684 0 0,0 0.8135848412192527,-0.7275125818313394 l 28.10709608528588 31.980715796591735" fill="red" stroke="none" /><path d="M 86.13680546590413 84.22622945171909 l -34.5035817681335 -39.25874231699088 a73.26610759509613,73.26610759509613 0 0,0 0.9518332185640589,-0.8221708641074394 l 33.82456906980659 39.84525731356303" fill="red" stroke="none" /><line stroke="#e1ed5e" stroke-width="0.3" x1="56.869717070023135" x2="54.33264160355391" y1="26.7553504044142" y2="22.446841604673864" /><path d="M 56.362301976729285 25.89364864446614 a86.0,86.0 0 0,1 42.16139366436587,-11.88097634709845" fill="none" id="id36" stroke="none" /><text fill="#e1ed5e" style="font-size:6.75px; font-family:Arial;" text-anchor="middle"><textPath startOffset="22.145653131862474" xlink:href="#id36">December</textPath></text><path d="M 90.28995756902619 81.37971332152246 l -18.556754438897837 -35.58502343637389 a61.132867182308736,61.132867182308736 0 0,0 0.9346714052780205,-0.4772498793323945 l 17.943155811906234 35.89833126737912" fill="red" stroke="none" /><path d="M 92.592206182469 80.34994680014964 l -20.576587401610226 -54.581842728416326 a79.33158239518005,79.33158239518005 0 0,0 1.2784127666177811,-0.4694508757639833 l 19.63658548333832 54.927024453189034" fill="red" stroke="none" /></svg>