<?xml version="1.0" encoding="utf-8" ?>
<svg baseProfile="full" height="200mm" version="1.1" viewBox="0,0,200,200" width="200mm" xmlns="http://www.w3.org/2000/svg" xmlns:ev="http://www.w3.org/2001/xml-events" xmlns:xlink="http://www.w3.org/1999/xlink"><defs /><rect fill="#1a1a1a" height="200" width="200" x="0" y="0" /><rect fill="#1a1a1a" height="200" width="180" x="10" y="0" /><text alignment-baseline="middle" fill="#e1ed5e" style="dominant-baseline: central; font-size:9.0px; font-family:Arial;" text-anchor="middle" x="100.0" y="100.0">2017</text><line stroke="#e1ed5e" stroke-width="0.3" x1="100.0" x2="100.0" y1="15.0" y2="10.0" /><path d="M 100.0 14.0 a86.0,86.0 0 0,1 42.46469731375804,11.215312516191453" fill="none" id="id37" stroke="none" /><text fill="#e1ed5e" style="font-size:6.75px; font-family:Arial;" text-anchor="middle"><textPath startOffset="22.20632615414155" xlink:href="#id37">January</textPath></text><path d="M 102.52436894288641 79.15227682838746 l 3.606934266023563 -29.788184206656382 a51.00576433169313,51.00576433169313 0 0,0 0.8707054892434205,0.11304256191866022 l -4.11915448377483 29.721683321573583" fill="red" stroke="none" /><path d="M 110.36928655335952 81.73862282372117 l 11.132846484091662 -19.606084531026916 a43.54637047234266,43.54637047234266 0 0,0 0.648640332048768,0.37573434715910453 l -11.468683548605759 19.41154602647776" fill="red" stroke="none" /><line stroke="#e1ed5e" stroke-width="0.3" x1="143.23703022742887" x2="145.7803849466894" y1="26.81831364943548" y2="22.513508569990506" /><path d="M 143.74570117128098 25.957352633546492 a86.0,86.0 0 0,1 28.547481713284135,27.462654790039103" fill="none" id="id38" stroke="none" /><text fill="#e1ed5e" style="font-size:6.75px; font-family:Arial;" text-anchor="middle"><textPath startOffset="19.985693538727396" xlink:href="#id38">February</textPath></text><path d="M 111.60114157652 82.49532879139004 l 18.486140590848485 -27.893273332158554 a54.46299584805765,54.46299584805765 0 0,0 0.7769932326016226,0.5246292990756691 l -18.963538517856648 27.570932120784217" fill="red" stroke="none" /><line stroke="#e1ed5e" stroke-width="0.3" x1="172.23445277983987" x2="176.4835382374775" y1="55.19839476539836" y2="52.563006222186495" /><path d="M 173.08426987136738 54.67131705675599 a86.0,86.0 0 0,1 12.851231095245387,41.99856678651699" fill="none" id="id39" stroke="none" /><text fill="#e1ed5e" style="font-size:6.75px; font-family:Arial;" text-anchor="middle"><textPath startOffset="22.20632615414155" xlink:href="#id39">March</textPath></text><path d="M 119.61058180528143 92.48833698450437 l 31.588936141890564 -12.099867595564561 a54.82702591725488,54.82702591725488 0 0,0 0.3299945000973089,0.8842211973174916 l -31.7925352304895 11.554323261217736" fill="red" stroke="none" /><line stroke="#e1ed5e" stroke-width="0.3" x1="184.98032266829074" x2="189.97916517819016" y1="98.17113171792111" y2="98.06355123074" /><path d="M 185.9800911702706 98.14961562048488 a86.0,86.0 0 0,1 -9.607161424134198,41.387399972396054" fill="none" id="id40" stroke="none" /><text fill="#e1ed5e" style="font-size:6.75px; font-family:Arial;" text-anchor="middle"><textPath startOffset="21.466115282336823" xlink:href="#id40">April</textPath></text><path d="M 120.99824983174949 100.27111621757518 l 26.92833513780731 0.3476817557013991 a47.93057956853724,47.93057956853724 0 0,0 -0.017752430635968812,0.8248856948167429 l -26.918360644486334 -0.8111572663082568" fill="red" stroke="none" /><path d="M 120.9904718944345 100.63252640178507 l 19.335106050236377 0.5826436451546123 a40.34388274341856,40.34388274341856 0 0,0 -0.02689182432900043,0.6939584947962754 l -19.322212093056173 -0.9153793869648938" fill="red" stroke="none" /><path d="M 120.8583938346157 102.4346265915055 l 31.576792580618626 3.6856960080811696 a52.79116519952355,52.79116519952355 0 0,0 -0.11312013138470826,0.9016787470262015 l -31.50867093998707 -4.228692509394766" fill="red" stroke="none" /><path d="M 120.41448212921028 104.9243191809786 l 37.08332439006133 8.945126525014363 a59.14692957981065,59.14692957981065 0 0,0 -0.24725862910924598,0.9876753137505845 l -36.92385444665702 -9.582129678162342" fill="red" stroke="none" /><path d="M 119.79798401119884 107.00284435728193 l 30.668459481824787 10.847894831480932 a53.53046617039478,53.53046617039478 0 0,0 -0.31474827948210504,0.8660520861276381 l -30.477186941337454 -11.374194714614703" fill="red" stroke="none" /><path d="M 119.67450827220406 107.3425965602758 l 30.913991234005962 11.537211632368765 a53.996698414633286,53.996698414633286 0 0,0 -0.33248009467030043,0.8680006120761115 l -30.710816859742156 -12.06763581127802" fill="red" stroke="none" /><path d="M 118.64920377521936 109.65438752849418 l 32.576710399486686 16.864429730672065 a57.683116696823895,57.683116696823895 0 0,0 -0.4640675182713899,0.8778408561590103 l -32.2815903729904 -17.42268560191721" fill="red" stroke="none" /><line stroke="#e1ed5e" stroke-width="0.3" x1="174.80103733775053" x2="179.2010983576182" y1="140.37084112569926" y2="142.7455964860345" /><path d="M 175.68104954172406 140.8457921977663 a86.0,86.0 0 0,1 -30.038265399797805,32.042727171017184" fill="none" id="id41" stroke="none" /><text fill="#e1ed5e" style="font-size:6.75px; font-family:Arial;" text-anchor="middle"><textPath startOffset="22.206326154141568" xlink:href="#id41">May</textPath></text><path d="M 118.48025628344425 109.97397251340804 l 26.991476988491062 14.567560397994729 a51.67170758157209,51.67170758157209 0 0,0 -0.4291792745785457,0.7790850469073037 l -26.736721304461007 -15.030015963299839" fill="red" stroke="none" /><path d="M 116.0416608686014 113.55231037782055 l 10.338660247956236 8.73430336913449 a34.534251034569465,34.534251034569465 0 0,0 -0.38753594917425604,0.4507918605657231 l -10.186781789211201 -8.910972328861742" fill="red" stroke="none" /><path d="M 115.80600337817218 113.82643327865902 l 36.364388648916226 31.81005225317173 a69.31405785233676,69.31405785233676 0 0,0 -0.7932866857034403,0.8912660009622307 l -35.81144311356445 -32.43129242387483" fill="red" stroke="none" /><path d="M 114.0293411484842 115.62618273729858 l 20.564258836243162 22.904914994312602 a51.78187571251452,51.78187571251452 0 0,0 -0.6683749234627475,0.5897631593360498 l -20.16694155987383 -23.25550129542094" fill="red" stroke="none" /><path d="M 111.7513745106137 117.40417183066458 l 23.082027068825887 34.18524062381509 a62.24815935425663,62.24815935425663 0 0,0 -0.8931878747763856,0.5919562193556194 l -22.49016449530954 -34.57749486426203" fill="red" stroke="none" /><line stroke="#e1ed5e" stroke-width="0.3" x1="143.8653032363475" x2="146.44561519142675" y1="172.8068346515853" y2="177.08958963109032" /><path d="M 144.38136562736335 173.6633856474863 a86.0,86.0 0 0,1 -40.68145358897372,12.25698825130547" fill="none" id="id42" stroke="none" /><text fill="#e1ed5e" style="font-size:6.75px; font-family:Arial;" text-anchor="middle"><textPath startOffset="21.466115282336833" xlink:href="#id42">June</textPath></text><path d="M 110.21172684928248 118.3499491758327 l 11.647000470459194 20.92906222798571 a44.95158169519865,44.95158169519865 0 0,0 -0.6793622190704223,0.37044244907326235 l -11.285015439520123 -21.126445328818743" fill="red" stroke="none" /><path d="M 109.89434966115114 118.52300852407294 l 11.19138476615432 20.95116127071849 a44.752857755978866,44.752857755978866 0 0,0 -0.6826070227227482,0.35710773228827697 l -10.829086840905076 -21.140698421951484" fill="red" stroke="none" /><path d="M 107.93186726928326 119.44442032107085 l 8.19128107256322 20.080355197035917 a42.68681051812045,42.68681051812045 0 0,0 -0.6827428563824306,0.27167747276128607 l -7.844417140138923 -20.218379514203274" fill="red" stroke="none" /><path d="M 107.59598834532513 119.57807347666477 l 11.101750104770503 28.613903733084857 a51.69208924519508,51.69208924519508 0 0,0 -0.8323159392818088,0.31471066979249507 l -10.607563944728419 -28.800762652983984" fill="red" stroke="none" /><path d="M 103.06178313531738 120.77559828337769 l 3.9803049012985325 27.008188372611773 a48.299909638637686,48.299909638637686 0 0,0 -0.823562699516942,0.11413828583263944 l -3.5148136105947603 -27.072701223937013" fill="red" stroke="none" /><path d="M 102.70371172650421 120.8252237178851 l 4.057490166284784 31.252644140154747 a52.51493284461584,52.51493284461584 0 0,0 -0.897436632296714,0.10866707813268973 l -3.5189261109366896 -31.317856747012787" fill="red" stroke="none" /><line stroke="#e1ed5e" stroke-width="0.3" x1="102.19456741930631" x2="102.32365962044197" y1="184.97166512339345" y2="189.96999836594603" /><path d="M 102.22038585953345 185.97133177190398 a86.0,86.0 0 0,1 -42.740103519485714,-10.115201625700543" fill="none" id="id43" stroke="none" /><text fill="#e1ed5e" style="font-size:6.75px; font-family:Arial;" text-anchor="middle"><textPath startOffset="22.20632615414155" xlink:href="#id43">July</textPath></text><path d="M 100.54218724476979 120.99299961872073 l 0.8282605695229918 32.069499952143204 a53.080193932573714,53.080193932573714 0 0,0 -0.9135867502641318,0.01572822441771674 l -0.276114129366192 -32.07900565384008" fill="red" stroke="none" /><path d="M 96.58105272829116 120.7198165907248 l -3.1085453017836446 18.838690216103853 a40.093436122174765,40.093436122174765 0 0,0 -0.6799675481967719,-0.11822107412677615 l 3.4323618214524663 -18.78239056345607" fill="red" stroke="none" /><path d="M 95.51606077576429 120.51570834832081 l -6.490504008813027 29.696496901362835 a51.39750928120708,51.39750928120708 0 0,0 -0.8626945901437536,-0.19634648002426636 l 7.000718748349644 -29.580373687760883" fill="red" stroke="none" /><path d="M 94.11515582081647 120.15858648285463 l -10.033640295647906 34.370324766311064 a56.80493209215939,56.80493209215939 0 0,0 -0.9362670748723223,-0.28208958934310313 l 10.623782344960475 -34.19251980786224" fill="red" stroke="none" /><path d="M 91.7346041902142 119.30500536409082 l -13.261482979756886 30.974076251363527 a54.69362447775044,54.69362447775044 0 0,0 -0.8622822996483978,-0.3779992200249425 l 13.792685954063026 -30.74121247804413" fill="red" stroke="none" /><path d="M 91.40352486487194 119.15986991738527 l -7.761402459115195 17.298655455356723 a39.960032929705115,39.960032929705115 0 0,0 -0.6251499860759971,-0.2869756969369376 l 8.058020440958611 -17.162492688085713" fill="red" stroke="none" /><path d="M 90.10565033884886 118.52300852407294 l -17.740199235269838 33.21106216246505 a58.65221532481437,58.65221532481437 0 0,0 -0.886422627498315,-0.48334829318848804 l 18.309244674636794 -32.90077321751679" fill="red" stroke="none" /><line stroke="#e1ed5e" stroke-width="0.3" x1="58.666819895761336" x2="56.23545636021788" y1="174.27360380694188" y2="178.64263932499728" /><path d="M 58.180547188652646 175.14741091055294 a86.0,86.0 0 0,1 -31.652253787137756,-30.449443065178592" fill="none" id="id44" stroke="none" /><text fill="#e1ed5e" style="font-size:6.75px; font-family:Arial;" text-anchor="middle"><textPath startOffset="22.20632615414155" xlink:href="#id44">August</textPath></text><path d="M 89.7882731507175 118.34994917583269 l -30.635180547847483 55.04984752749809 a84.0,84.0 0 0,0 -1.257404932315171,-0.7139873368214675 l 31.57823424708386 -54.51435702488198" fill="red" stroke="none" /><path d="M 89.4739219176387 118.17145234162733 l -9.765957068024742 16.859234944244367 a40.48352433107863,40.48352433107863 0 0,0 -0.5999892126588521,-0.35448420250378415 l 10.054714151711977 -16.688632169446834" fill="red" stroke="none" /><path d="M 89.1626897886671 117.98757091392108 l -10.047607460666972 16.67683661255656 a40.46975333910416,40.46975333910416 0 0,0 -0.5935964667644278,-0.36463543220806005 l 10.333183127363709 -16.50141271352012" fill="red" stroke="none" /><path d="M 88.8546689885994 117.79835938074946 l -22.042855652500293 35.20098831339083 a62.53308396394905,62.53308396394905 0 0,0 -0.9073794599020468,-0.5791325024827448 l 22.645516914449264 -34.81634138208428" fill="red" stroke="none" /><path d="M 88.54995079064634 117.60387380957326 l -30.07388012971108 46.23707558699224 a76.15709768373844,76.15709768373844 0 0,0 -1.092764781078221,-0.724224910256397 l 30.865319609529262 -45.71255265564453" fill="red" stroke="none" /><path d="M 88.24862548938628 117.40417183066458 l -10.50033906760087 15.551347227314412 a39.76436839115787,39.76436839115787 0 0,0 -0.5639782553631204,-0.38790938666704405 l 10.76647420758688 -15.368297051282267" fill="red" stroke="none" /><path d="M 87.95078237400918 117.19931262002967 l -14.212652974996086 20.28744680896668 a45.770547079431196,45.770547079431196 0 0,0 -0.6413819616610734,-0.45760899989789955 l 14.559762264506046 -20.039793547224562" fill="red" stroke="none" /><path d="M 87.65650970185807 116.9893568818739 l -18.919119475688557 26.039933997571808 a53.187128550606595,53.187128550606595 0 0,0 -0.7360466160517218,-0.5445096901656918 l 19.364551062158846 -25.710414358666352" fill="red" stroke="none" /><path d="M 87.07902340077011 116.55440617244103 l -19.040538517935058 24.394813035006365 a51.94590457662993,51.94590457662993 0 0,0 -0.7001380511635332,-0.556232011695702 l 19.45763406181595 -24.06344710930553" fill="red" stroke="none" /><path d="M 86.79598089348748 116.32954008644616 l -33.30755527530963 41.19178067391825 a73.97316333301224,73.97316333301224 0 0,0 -0.9832437891564975,-0.8091426995794254 l 34.01166919301082 -40.61234285548165" fill="red" stroke="none" /><path d="M 86.51685102203217 116.09983520530335 l -15.563682075660521 18.584139136585726 a45.24042960015795,45.24042960015795 0 0,0 -0.5927240017851753,-0.5051322531939367 l 15.881271554022755 -18.313482493168838" fill="red" stroke="none" /><path d="M 85.97065885151581 115.62618273729859 l -14.328638065445533 15.959546098246815 a42.44800644518273,42.44800644518273 0 0,0 -0.5394948592596728,-0.4928157626340568 l 14.60123247417206 -15.710537569026181" fill="red" stroke="none" /><path d="M 85.44109423537348 115.13401014063109 l -15.925087507127085 16.554158651735833 a43.970602534032395,43.970602534032395 0 0,0 -0.5409432027967758,-0.5294267773886995 l 16.207680662299655 -16.277581771424565" fill="red" stroke="none" /><path d="M 85.18274418774928 114.88116024355367 l -19.02990601895645 19.111978930249798 a47.97044793325886,47.97044793325886 0 0,0 -0.5801211891874527,-0.5876597018493533 l 19.356067833199436 -18.781578734419778" fill="red" stroke="none" /><path d="M 84.67929136418377 114.36230785411682 l -22.91237790361269 21.479073386478337 a52.40585382917779,52.40585382917779 0 0,0 -0.6112858160718038,-0.6634300229310043 l 23.278710127680224 -21.08149210874599" fill="red" stroke="none" /><path d="M 84.43433777217949 114.09645910891817 l -13.94207579445284 12.62611885401684 a39.80958146195782,39.80958146195782 0 0,0 -0.4556133620754823,-0.5118864422158983 l 14.15734800617666 -12.384258242060078" fill="red" stroke="none" /><path d="M 84.19399662182784 113.82643327865904 l -15.795817797826139 13.817523357302615 a41.98646734521378,41.98646734521378 0 0,0 -0.47116312031245366,-0.5480691535537945 l 16.03132342770937 -13.54357710458729" fill="red" stroke="none" /><path d="M 83.06392112726016 112.41649034213515 l -24.5394100515599 17.990784655432808 a51.427799430730374,51.427799430730374 0 0,0 -0.5172662130202136,-0.7184375285035894 l 24.845456056955722 -17.56571352147808" fill="red" stroke="none" /><line stroke="#e1ed5e" stroke-width="0.3" x1="26.63291911575756" x2="22.317208475507996" y1="142.92168965132927" y2="145.44649492493687" /><path d="M 25.769776987707644 143.4266507060508 a86.0,86.0 0 0,1 -11.730757126820373,-40.83630448921669" fill="none" id="id45" stroke="none" /><text fill="#e1ed5e" style="font-size:6.75px; font-family:Arial;" text-anchor="middle"><textPath startOffset="21.46611528233685" xlink:href="#id45">September</textPath></text><path d="M 79.76711848015287 105.62410040840567 l -27.314606106994518 7.592595607852336 a49.35022424681401,49.35022424681401 0 0,0 -0.22045902235992407,-0.8204100349706253 l 27.441253205696217 -7.121294639706171" fill="red" stroke="none" /><path d="M 79.23777060512086 103.15116336523772 l -30.50357594923709 4.629644977513356 a51.85290518425599,51.85290518425599 0 0,0 -0.12633824291898907,-0.8836093767217603 l 30.578748243172676 -4.103890128811196" fill="red" stroke="none" /><path d="M 79.18660465613746 102.79330883721812 l -30.76487521901532 4.128869720938112 a52.04070090081831,52.04070090081831 0 0,0 -0.11151204753681025,-0.8888607365506089 l 30.831388775798978 -3.5986912301000946" fill="red" stroke="none" /><line stroke="#e1ed5e" stroke-width="0.3" x1="15.007084014347285" x2="10.007500721073583" y1="101.09737516637583" y2="101.16192664675087" /><path d="M 14.007167355692545 101.11028546245083 a86.0,86.0 0 0,1 10.666146001902534,-42.60595125391555" fill="none" id="id46" stroke="none" /><text fill="#e1ed5e" style="font-size:6.75px; font-family:Arial;" text-anchor="middle"><textPath startOffset="22.20632615414155" xlink:href="#id46">October</textPath></text><path d="M 79.00175016825051 100.2711162175752 l -26.229491379686984 0.3386587238823075 a47.23167756298356,47.23167756298356 0 0,0 -0.003498973752669202,-0.8130382746456517 l 26.231434650729156 0.11288902896701955" fill="red" stroke="none" /><path d="M 79.00019446554 99.90962569577889 l -31.818883811762824 -0.13693505308237025 a52.81917846574963,52.81917846574963 0 0,0 0.01173841571179836,-0.9091532330667429 l 31.81181238893331 0.6846245442095851" fill="red" stroke="none" /><path d="M 79.00486145842228 99.54816195383935 l -31.205203702799025 -0.6715696704356301 a52.21242931838903,52.21242931838903 0 0,0 0.02707166112531693,-0.8983766375331622 l 31.18902034721806 1.2086164553937868" fill="red" stroke="none" /><path d="M 79.12142395522702 97.74499172005258 l -32.65736781479519 -3.5271866561076277 a53.84729392656028,53.84729392656028 0 0,0 0.10746290857972057,-0.9206765742187196 l 32.591814553211876 4.088806968651209" fill="red" stroke="none" /><path d="M 79.46518482838121 95.60439243477599 l -23.801328922000092 -5.0948255729384835 a45.34051162305152,45.34051162305152 0 0,0 0.16993108385397665,-0.7617677287803041 l 23.71010345114408 5.503771471268747" fill="red" stroke="none" /><path d="M 80.14247586403 93.16781622104843 l -29.699854766736784 -10.218538050620102 a52.40859584663454,52.40859584663454 0 0,0 0.30084260801883833,-0.8505225647705479 l 29.519559077908134 10.728258241817262" fill="red" stroke="none" /><path d="M 80.2630227832202 92.82701384747504 l -28.909086859653492 -10.506395049700945 a51.75905785292148,51.75905785292148 0 0,0 0.3115289245756226,-0.834742635425918 l 28.72395334657624 11.002460822156205" fill="red" stroke="none" /><path d="M 81.10775173730289 90.83032412892265 l -22.97295387041073 -11.150316143622623 a46.53597774973088,46.53597774973088 0 0,0 0.3559780410912876,-0.7176300087655247 l 22.77761581636603 11.54410574088711" fill="red" stroke="none" /><line stroke="#e1ed5e" stroke-width="0.3" x1="26.266209847984243" x2="21.928928074336255" y1="57.711370442889674" y2="55.22380399835377" /><path d="M 25.398753493254645 57.213857153982495 a86.0,86.0 0 0,1 29.58750427330803,-30.492523968695096" fill="none" id="id47" stroke="none" /><text fill="#e1ed5e" style="font-size:6.75px; font-family:Arial;" text-anchor="middle"><textPath startOffset="21.46611528233685" xlink:href="#id47">November</textPath></text><line stroke="#e1ed5e" stroke-width="0.3" x1="56.762969772571076" x2="54.21961505331055" y1="26.818313649435495" y2="22.513508569990535" /><path d="M 56.25429882871897 25.957352633546506 a86.0,86.0 0 0,1 42.265352541879196,-11.944610805530505" fill="none" id="id48" stroke="none" /><text fill="#e1ed5e" style="font-size:6.75px; font-family:Arial;" text-anchor="middle"><textPath startOffset="22.20632615414155" xlink:href="#id48">December</textPath></text><path d="M 92.23578459929587 80.48803036053334 l -9.461196988207453 -23.776592850602167 a46.589853771230736,46.589853771230736 0 0,0 0.7476935743384798,-0.29009349072670115 l 9.050520248869297 23.93592904521942" fill="red" stroke="none" /><path d="M 94.28887869178378 79.79150937346287 l -6.294531415681288 -22.272855407438094 a44.145220105750624,44.145220105750624 0 0,0 0.7330253062646955,-0.2003635063935067 l 5.910208220192869 22.377905454657895" fill="red" stroke="none" /><path d="M 97.11714578562143 79.19881850522333 l -3.301934056530798 -23.82504437828014 a45.05276508305638,45.05276508305638 0 0,0 0.769083462965294,-0.09984910633607981 l 2.8913358650576466 23.87835180778036" fill="red" stroke="none" /><path d="M 99.63851952072746 79.00311137660856 l -0.541442652181836 -31.45013829431224 a52.454798662159114,52.454798662159114 0 0,0 0.902923131454364,-0.007771744455433663 l 7.704203699887521e-15 31.454798662159114" fill="red" stroke="none" /></svg>