<?xml version="1.0" encoding="utf-8" ?>
<svg baseProfile="full" height="200mm" version="1.1" viewBox="0,0,200,200" width="200mm" xmlns="http://www.w3.org/2000/svg" xmlns:ev="http://www.w3.org/2001/xml-events" xmlns:xlink="http://www.w3.org/1999/xlink"><defs /><rect fill="#1a1a1a" height="200" width="200" x="0" y="0" /><rect fill="#1a1a1a" height="200" width="180" x="10" y="0" /><text alignment-baseline="middle" fill="#e1ed5e" style="dominant-baseline: central; font-size:9.0px; font-family:Arial;" text-anchor="middle" x="100.0" y="100.0">2024</text><line stroke="#e1ed5e" stroke-width="0.3" x1="100.0" x2="100.0" y1="15.0" y2="10.0" /><path d="M 100.0 14.0 a86.0,86.0 0 0,1 42.35913384403234,11.155469271406648" fill="none" id="id121" stroke="none" /><text fill="#e1ed5e" style="font-size:6.75px; font-family:Arial;" text-anchor="middle"><textPath startOffset="22.145653131862478" xlink:href="#id121">January</textPath></text><path d="M 101.80034050326958 79.07731436759882 l 3.2319565013491385 -37.56023359609862 a58.69902771451949,58.69902771451949 0 0,0 1.0031955559817272,0.0950036621699565 l -3.8762516207158786 37.49921817842348" fill="red" stroke="none" /><path d="M 104.9986988182912 79.60360301121754 l 8.476007613683024 -34.585003508517154 a56.608498602880694,56.608498602880694 0 0,0 0.9418433223954367,0.23941288950325823 l -9.068456229303855 34.43440538717863" fill="red" stroke="none" /><path d="M 105.69591212413111 79.78721728523813 l 9.541468454805639 -33.85930549027932 a56.17800717150007,56.17800717150007 0 0,0 0.9259740336556748,0.2695375459070054 l -10.121302500842917 33.6905242500698" fill="red" stroke="none" /><path d="M 106.72888874123014 80.10723608172694 l 11.95294848586959 -35.33676829871527 a58.30362142343476,58.30362142343476 0 0,0 0.9453355506453309,0.32883677658662486 l -12.557789808559939 35.12637308956006" fill="red" stroke="none" /><line stroke="#e1ed5e" stroke-width="0.3" x1="143.13028292997686" x2="145.6673583964461" y1="26.7553504044142" y2="22.446841604673864" /><path d="M 143.63769802327073 25.89364864446614 a86.0,86.0 0 0,1 29.32050498858742,28.57503671076993" fill="none" id="id122" stroke="none" /><text fill="#e1ed5e" style="font-size:6.75px; font-family:Arial;" text-anchor="middle"><textPath startOffset="20.669276256404974" xlink:href="#id122">February</textPath></text><path d="M 111.27062007382361 82.28071324371311 l 18.532202650174295 -29.135700683117324 a55.53015478336769,55.53015478336769 0 0,0 0.7999366507124285,0.5185092724313651 l -19.02962493314373 28.813277568982066" fill="red" stroke="none" /><path d="M 111.5731344415666 82.4767994020092 l 18.936882281814807 -28.67285337435859 a55.36186885462981,55.36186885462981 0 0,0 0.7885209748717528,0.5305521024667281 l -19.42629954478356 28.34355159783474" fill="red" stroke="none" /><path d="M 115.8921839302757 86.27271002978787 l 25.702496247054146 -22.2012040943878 a54.96338876747275,54.96338876747275 0 0,0 0.6106313051201675,0.7193221420209851 l -26.079822115681427 21.756715169917264" fill="red" stroke="none" /><path d="M 116.35404254752997 86.82634096563983 l 27.223702363982458 -21.929487559647832 a55.95757993670976,55.95757993670976 0 0,0 0.5961709091381115,0.753242468328952 l -27.596139703762127 21.4589251474042" fill="red" stroke="none" /><path d="M 117.42321728460499 88.27688183743584 l 28.844643141742136 -19.407963201286865 a55.76611099327845,55.76611099327845 0 0,0 0.5275887328951789,0.7988365854074085 l -29.17355631355804 18.9099467375404" fill="red" stroke="none" /><line stroke="#e1ed5e" stroke-width="0.3" x1="172.87174338648825" x2="177.1583165268699" y1="56.24261187166439" y2="53.66864786411523" /><path d="M 173.72905801456457 55.72781907015455 a86.0,86.0 0 0,1 12.242430191666344,42.057860355516425" fill="none" id="id123" stroke="none" /><text fill="#e1ed5e" style="font-size:6.75px; font-family:Arial;" text-anchor="middle"><textPath startOffset="22.145653131862474" xlink:href="#id123">March</textPath></text><path d="M 118.70294669586156 90.45014215332178 l 30.61111894503232 -15.630255446191393 a55.370706835619664,55.370706835619664 0 0,0 0.4249835872996498,0.8502518598182576 l -30.874922445543707 15.102471730209384" fill="red" stroke="none" /><path d="M 119.31412917781788 91.75594674310238 l 37.17530356599132 -15.867926512128351 a61.420221263841604,61.420221263841604 0 0,0 0.40559034819740813,0.9732691856919066 l -37.442219758725216 15.227424816995168" fill="red" stroke="none" /><path d="M 119.71291397450082 92.76114493625339 l 32.02953846920348 -11.76169018122708 a55.12079557204608,55.12079557204608 0 0,0 0.3185452560793371,0.8910277749134852 l -32.226723895326764 11.210127449932678" fill="red" stroke="none" /><path d="M 119.94978838288452 93.4421083053983 l 22.124884502059775 -7.272888991873136 a44.2895991489247,44.2895991489247 0 0,0 0.2312239424192242,0.7243057063398254 l -22.246473160256254 6.892014251841924" fill="red" stroke="none" /><path d="M 120.16314734710363 94.1308016681162 l 33.319220581894044 -9.69873951186554 a55.70210380227593,55.70210380227593 0 0,0 0.25936360497165223,0.9203899353010281 l -33.48080267894028 9.125341652661499" fill="red" stroke="none" /><path d="M 120.43855184770803 95.1765574152323 l 34.21225422869501 -8.07399884283347 a56.15206674895426,56.15206674895426 0 0,0 0.2133488108407366,0.9400542260617315 l -34.345813901093415 7.4855102828327125" fill="red" stroke="none" /><path d="M 120.7213421655516 96.59031103205396 l 41.23118599815042 -6.7845759656892595 a62.78565746578943,62.78565746578943 0 0,0 0.16586926625333273,1.0649996759294587 l -41.34157675654202 6.07578810782836" fill="red" stroke="none" /><path d="M 120.86939407059847 97.66154086499901 l 34.59766898083517 -3.876740973134256 a55.814189915610875,55.814189915610875 0 0,0 0.09851897551169599,0.9530817188656988 l -34.65912034882853 3.282254731985626" fill="red" stroke="none" /><path d="M 120.93736805541906 98.37931529534042 l 35.49319734131332 -2.747397948886042 a56.59937152533671,56.59937152533671 0 0,0 0.06666877390874199,0.9693493408485372 l -35.53513007638713 2.1377051838831704" fill="red" stroke="none" /><path d="M 120.98066250479742 99.09900007780936 l 41.184055488803374 -1.7686205467735872 a62.222014084021964,62.222014084021964 0 0,0 0.036667471427442644,1.0675334228893434 l -41.20834764722767 1.061380859320124" fill="red" stroke="none" /><path d="M 120.99303781780057 99.45929381324524 l 35.09024457486878 -0.9038002265818386 a56.1018819890569,56.1018819890569 0 0,0 0.016532873053944998,0.96295697061405 l -35.10058887952139 0.3012963399987222" fill="red" stroke="none" /><line stroke="#e1ed5e" stroke-width="0.3" x1="184.99686870605535" x2="189.99668451229388" y1="99.2704041080226" y2="99.22748670261217" /><path d="M 185.99683186730306 99.26182062694052 a86.0,86.0 0 0,1 -10.086455211305974,41.156179273409016" fill="none" id="id124" stroke="none" /><text fill="#e1ed5e" style="font-size:6.75px; font-family:Arial;" text-anchor="middle"><textPath startOffset="21.40746469413373" xlink:href="#id124">April</textPath></text><path d="M 120.99922638620191 100.18025310272382 l 35.06937959413019 0.30102844581908983 a56.07067155391221,56.07067155391221 0 0,0 -0.016523675534285045,0.9624212612044256 l -35.05904448699724 -0.9029966229925865" fill="red" stroke="none" /><path d="M 120.96210409425399 101.26102812881392 l 35.03429325149588 2.1075760841852658 a56.097629272964284,56.097629272964284 0 0,0 -0.06607776839256048,0.9607562503511143 l -34.99295152193825 -2.7086757586907235" fill="red" stroke="none" /><path d="M 120.77682067341334 103.0534771498775 l 34.50653289092601 5.071272037245174 a55.877193296311894,55.877193296311894 0 0,0 -0.14761825274195164,0.9478150767927154 l -34.41439314604579 -5.66287529596934" fill="red" stroke="none" /><path d="M 120.592083275326 104.11899336999214 l 40.939219278517676 8.188990425408955 a62.750200470440774,62.750200470440774 0 0,0 -0.22034968709144495,1.0544530202171967 l -40.79261188060187 -8.89055989691156" fill="red" stroke="none" /><path d="M 120.35273937422433 105.17358676015961 l 34.118844743114316 8.672876912995148 a56.20389695122833,56.20389695122833 0 0,0 -0.2457194742804624,0.9330368670200078 l -33.96493578802912 -9.257294284387958" fill="red" stroke="none" /><path d="M 120.16314734710363 105.8691983318838 l 33.460147754028576 9.739761357779285 a55.84888002544579,55.84888002544579 0 0,0 -0.275850064757858,0.9182151502075995 l -33.28802136926709 -10.312714111577607" fill="red" stroke="none" /><path d="M 119.58574465831526 107.57618678355244 l 32.177283551227994 12.446864524394485 a55.50075380661642,55.50075380661642 0 0,0 -0.35134970244907143,0.8856307687846462 l -31.958875173812796 -12.997396310392695" fill="red" stroke="none" /><path d="M 119.31412917781788 108.2440532568976 l 31.6092680603248 13.49211693168926 a55.36834366983439,55.36834366983439 0 0,0 -0.3806339445125954,0.8709649546587049 l -31.37300023379524 -14.03274395612381" fill="red" stroke="none" /><path d="M 118.8641267826498 109.22738970284198 l 31.140178108280963 15.232221566984938 a55.66599582416726,55.66599582416726 0 0,0 -0.4272500018140298,0.8547862070578998 l -30.874108193255204 -15.764539630206585" fill="red" stroke="none" /><line stroke="#e1ed5e" stroke-width="0.3" x1="174.33088141563837" x2="178.70328620479359" y1="141.23008692659167" y2="143.65538615756765" /><path d="M 175.20536237346943 141.71514677278685 a86.0,86.0 0 0,1 -30.301960400862466,31.631185727798858" fill="none" id="id125" stroke="none" /><text fill="#e1ed5e" style="font-size:6.75px; font-family:Arial;" text-anchor="middle"><textPath startOffset="22.145653131862474" xlink:href="#id125">May</textPath></text><path d="M 117.21940702142032 112.02048342749411 l 28.133237509533206 19.639184718987245 a55.310007711953496,55.310007711953496 0 0,0 -0.5501631195818344,0.7738733265068999 l -27.791959291421414 -20.11923527220365" fill="red" stroke="none" /><path d="M 116.79662413953412 112.60449989151573 l 28.083861000342573 21.074652858308188 a56.111881775045326,56.111881775045326 0 0,0 -0.5847606844475102,0.7654705070119451 l -27.717948338540758 -21.553644278561013" fill="red" stroke="none" /><path d="M 116.57777611688842 112.89097897827486 l 27.84181914692601 21.649966968387268 a56.268795884498175,56.268795884498175 0 0,0 -0.5994865974638183,0.7574317322134859 l -27.46606611882063 -22.124718644515436" fill="red" stroke="none" /><path d="M 115.6541949942343 113.99807769240083 l 26.261418457327427 23.48312232048438 a56.22952076468951,56.22952076468951 0 0,0 -0.6495910008606158,0.7140143015401116 l -25.85442975562493 -23.930474197582164" fill="red" stroke="none" /><path d="M 115.41159269507618 114.26474011684316 l 25.7109734746238 23.797693205565434 a56.0340457115507,56.0340457115507 0 0,0 -0.6594517861793092,0.7003149443265193 l -25.29866585470823 -24.23554960983645" fill="red" stroke="none" /><path d="M 115.16444852881244 114.52719865689866 l 25.24648250713087 24.185559143292423 a55.96178127693955,55.96178127693955 0 0,0 -0.6705106095423633,0.6880029541511596 l -24.8275850964377 -24.615384789511317" fill="red" stroke="none" /><path d="M 114.65682725009322 115.03919595460226 l 29.548667671907225 30.319536126920475 a63.33672202871227,63.33672202871227 0 0,0 -0.7851567332940187,0.7521623895318185 l -29.023838452747892 -30.822310646757874" fill="red" stroke="none" /><path d="M 113.59037401385872 116.0094264158162 l 22.486130514597093 26.488605205624435 a55.745823795946016,55.745823795946016 0 0,0 -0.7348511804764968,0.6130389906414033 l -22.0281049999587 -26.870706380177708" fill="red" stroke="none" /><path d="M 112.7482090630111 116.68781488649013 l 25.942197852742225 33.959169744978226 a63.73432858018326,63.73432858018326 0 0,0 -0.8751239595178555,0.656709334040712 l -25.355420904313604 -34.399498106282955" fill="red" stroke="none" /><path d="M 111.27062007382361 117.71928675628689 l 19.114335632503302 30.05091042105685 a56.6148149483662,56.6148149483662 0 0,0 -0.82451625014965,0.5145591210515785 l -18.595655253563937 -30.37460533894998" fill="red" stroke="none" /><line stroke="#e1ed5e" stroke-width="0.3" x1="143.1302829299769" x2="145.66735839644613" y1="173.24464959558577" y2="177.55315839532614" /><path d="M 143.63769802327073 174.10635135553383 a86.0,86.0 0 0,1 -40.68552437913181,11.842963189579606" fill="none" id="id126" stroke="none" /><text fill="#e1ed5e" style="font-size:6.75px; font-family:Arial;" text-anchor="middle"><textPath startOffset="21.407464694133747" xlink:href="#id126">June</textPath></text><path d="M 109.71004243097381 118.62028667847754 l 15.753690762973413 30.20977923998938 a55.07065503309684,55.07065503309684 0 0,0 -0.8419851530252045,0.429923618516406 l -15.232778388234626 -30.475760810178624" fill="red" stroke="none" /><path d="M 108.07796709384702 119.3841803445677 l 18.05632043770167 43.32859587783076 a67.94036566211788,67.94036566211788 0 0,0 -1.0803991437121154,0.4393889261703973 l -17.309866832799113 -43.632172060580444" fill="red" stroke="none" /><path d="M 107.06938296918513 119.77432235084164 l 11.849725178013935 33.14579029885853 a56.200275586000195,56.200275586000195 0 0,0 -0.9112318784053403,0.31697374907062104 l -11.278987527563572 -33.34432248049774" fill="red" stroke="none" /><path d="M 104.9986988182912 120.39639698878246 l 8.380895127047278 34.196912105827636 a56.208922174702614,56.208922174702614 0 0,0 -0.9391382601924121,0.22163407226450405 l -7.7926247131149875 -34.335742321738365" fill="red" stroke="none" /><path d="M 103.94208987418118 120.62667999033965 l 7.495019259285576 39.21710785825959 a60.926893974656075,60.926893974656075 0 0,0 -1.0289834802584708,0.18751506734629625 l -6.820701045476048 -39.339991099537244" fill="red" stroke="none" /><path d="M 103.58742460773223 120.69131181640829 l 7.359808885573223 42.449421858884264 a64.08271350536876,64.08271350536876 0 0,0 -1.0855077552030659,0.17861988803451231 l -6.630023627317085 -42.56950774541445" fill="red" stroke="none" /><path d="M 102.875027216393 120.80226474461374 l 3.6504264690480515 26.41266747212008 a47.66373222935448,47.66373222935448 0 0,0 -0.8114686363549363,0.10506086114422009 l -3.1964800108023397 -26.471439929464697" fill="red" stroke="none" /><path d="M 101.80034050326958 120.92268563240118 l 3.902000648342081 45.34716224759749 a66.51473094471275,66.51473094471275 0 0,0 -1.138450314557754,0.08812325440976732 l -3.1229813390090913 -45.40746326900231" fill="red" stroke="none" /><path d="M 101.44090949804482 120.95050786540614 l 2.609480032825019 37.941266975131306 a59.03089698810563,59.03089698810563 0 0,0 -1.011552460945546,0.060852484144135625 l -1.957783219747008 -37.980471437100135" fill="red" stroke="none" /><path d="M 101.08105385017728 120.97215588758144 l 2.219934793461786 43.06614193281089 a64.12331957843963,64.12331957843963 0 0,0 -1.0997889455673537,0.04722966942324244 l -1.4803200872936026 -43.097904170659966" fill="red" stroke="none" /><line stroke="#e1ed5e" stroke-width="0.3" x1="101.45913802915013" x2="101.54496967792366" y1="184.9874750549273" y2="189.98673829345242" /><path d="M 101.47630435890484 185.9873277026323 a86.0,86.0 0 0,1 -42.54439059252881,-10.42667462771756" fill="none" id="id127" stroke="none" /><text fill="#e1ed5e" style="font-size:6.75px; font-family:Arial;" text-anchor="middle"><textPath startOffset="22.145653131862474" xlink:href="#id127">July</textPath></text><path d="M 100.36049292484886 120.99690560180557 l 0.6581319149208087 38.332884610486 a59.33853388143933,59.33853388143933 0 0,0 -1.0186248397696562,0.008743669147768602 l -4.695116280190703e-15 -38.33853388143933" fill="red" stroke="none" /><path d="M 99.63950707515114 120.99690560180557 l -0.7185444475642856 41.851611768898714 a62.857779608786544,62.857779608786544 0 0,0 -1.0787193751467692,-0.027783984622722933 l 1.4368771367817987 -41.83311006692594" fill="red" stroke="none" /><path d="M 98.91894614982273 120.97215588758144 l -2.2976047806254787 44.57291893408325 a65.63209708306691,65.63209708306691 0 0,0 -1.1246705150825345,-0.06765738538410557 l 3.0624196478404593 -44.52690957087445" fill="red" stroke="none" /><path d="M 98.55909050195518 120.95050786540614 l -3.233507950455552 47.01449594217685 a68.12555996869027,68.12555996869027 0 0,0 -1.1660208810022037,-0.0902573906210165 l 4.040097826232992 -46.95206078456078" fill="red" stroke="none" /><path d="M 97.84075906011543 120.88869738790638 l -4.207774569676166 40.706401976239 a61.92330055946572,61.92330055946572 0 0,0 -1.0564235926114147,-0.11837446704085798 l 4.90593406388838 -40.628171748691166" fill="red" stroke="none" /><path d="M 96.76829788921471 120.74984581791261 l -5.345161217356323 34.319769375364494 a55.733518658750036,55.733518658750036 0 0,0 -0.9440793533775826,-0.15534789833395093 l 5.933518073786969 -34.22295547853488" fill="red" stroke="none" /><path d="M 96.41257539226777 120.69131181640829 l -7.323632589701833 42.24076659777467 a63.870945371855505,63.870945371855505 0 0,0 -1.0787050408883336,-0.19657599200538056 l 8.047672364141224 -42.10882243183792" fill="red" stroke="none" /><path d="M 96.05791012581884 120.62667999033965 l -9.307675534988388 48.70169144837098 a70.58313799868814,70.58313799868814 0 0,0 -1.1881613021328399,-0.23766553682455938 l 10.142333322652187 -48.534736514883555" fill="red" stroke="none" /><path d="M 95.35216902796893 120.47920084513623 l -8.891817073280562 39.17898667522941 a61.17533332484607,61.17533332484607 0 0,0 -1.0221170213301527,-0.24121683395355747 l 9.563066248350601 -39.02057369762963" fill="red" stroke="none" /><path d="M 93.95794788825049 120.11202640906438 l -12.109819390281451 40.30965024494277 a63.08937667078062,63.08937667078062 0 0,0 -1.0345437058511016,-0.32050428459002234 l 12.800003729004187 -40.0958293725461" fill="red" stroke="none" /><path d="M 93.61358852112213 120.00534299687104 l -19.15923443663362 60.0160289906131 a84.0,84.0 0 0,0 -1.3699090494090258,-0.4503163143919138 l 20.18666622369039 -59.67829175481917" fill="red" stroke="none" /><path d="M 92.93061703081489 119.77432235084164 l -13.81094188700665 38.6316624849497 a62.026180204320084,62.026180204320084 0 0,0 -0.9995396315523076,-0.36704479777252486 l 14.472070670213075 -38.38888683816846" fill="red" stroke="none" /><path d="M 92.25597844496254 119.51999308798841 l -15.679867194471472 39.523508177422514 a63.52018266525965,63.52018266525965 0 0,0 -1.0101086488300834,-0.4108023938263551 l 16.356030304491995 -39.24851852701687" fill="red" stroke="none" /><path d="M 91.59046798132341 119.24265499422711 l -15.895746772800228 36.37257939505765 a60.6943232378984,60.6943232378984 0 0,0 -0.9511280143019112,-0.4254274629373082 l 16.517788189957773 -36.094348181210485" fill="red" stroke="none" /><line stroke="#e1ed5e" stroke-width="0.3" x1="58.13341422392154" x2="55.67067388415222" y1="173.97424548756322" y2="178.32567169271397" /><path d="M 57.64086615596768 174.84453072859336 a86.0,86.0 0 0,1 -31.369924170532247,-30.572349798747897" fill="none" id="id128" stroke="none" /><text fill="#e1ed5e" style="font-size:6.75px; font-family:Arial;" text-anchor="middle"><textPath startOffset="22.145653131862474" xlink:href="#id128">August</textPath></text><path d="M 87.2517909369889 116.68781488649013 l -21.036179739674445 27.53703454967534 a55.65269296649112,55.65269296649112 0 0,0 -0.7542001415491593,-0.5864705918073984 l 21.50578982585883 -27.17186290624715" fill="red" stroke="none" /><path d="M 86.40962598614128 116.0094264158162 l -24.848977826277984 29.272033397489484 a59.39692224950581,59.39692224950581 0 0,0 -0.7716523442188086,-0.6665349162682253 l 25.347809650259656 -28.841154348756536" fill="red" stroke="none" /><path d="M 85.34317274990678 115.03919595460226 l -29.190257392352876 29.951775605875444 a62.823199167167104,62.823199167167104 0 0,0 -0.7658688852418757,-0.7593230366672974 l 29.700118197724716 -29.446272558979487" fill="red" stroke="none" /><path d="M 84.58840730492382 114.26474011684316 l -30.845007680595266 28.54967861993237 a63.02973528488378,63.02973528488378 0 0,0 -0.728150414068595,-0.8003648582392916 l 31.33055579550574 -28.0159761861354" fill="red" stroke="none" /><path d="M 82.98947788004972 112.3143062007846 l -31.824928019251608 23.038793617472997 a60.28882862569283,60.28882862569283 0 0,0 -0.599686953677235,-0.8435348012017385 l 32.2157300714588 -22.489081589561753" fill="red" stroke="none" /><line stroke="#e1ed5e" stroke-width="0.3" x1="26.387840678322732" x2="22.057713659400548" y1="142.50000000000003" y2="145.00000000000006" /><path d="M 25.521815274538298 143.00000000000003 a86.0,86.0 0 0,1 -11.493303480769221,-40.785679425670985" fill="none" id="id129" stroke="none" /><text fill="#e1ed5e" style="font-size:6.75px; font-family:Arial;" text-anchor="middle"><textPath startOffset="21.40746469413373" xlink:href="#id129">September</textPath></text><path d="M 81.63589988554817 110.18625677009913 l -31.24335052578755 17.330159867917036 a56.727879773711614,56.727879773711614 0 0,0 -0.4650461099765208,-0.8556324631218044 l 31.5362419853794 -16.791272571320643" fill="red" stroke="none" /><path d="M 81.29705330413844 109.54985784667822 l -30.97222765634516 15.814640127189163 a55.776166096178194,55.776166096178194 0 0,0 -0.42809558533802733,-0.8564779405398479 l 31.239143154894926 -15.280630330485563" fill="red" stroke="none" /><path d="M 80.5471966667186 107.91128576633889 l -32.16428276219974 13.080933788383021 a55.72249867712288,55.72249867712288 0 0,0 -0.3527534670635759,-0.8891691726201109 l 32.38409490422944 -12.526863598549344" fill="red" stroke="none" /><path d="M 80.28708602549918 107.23885506374661 l -32.50601355801736 11.9366584337072 a55.628380441438516,55.628380441438516 0 0,0 -0.32147860910018156,-0.8992328853815058 l 32.706132337161485 -11.376890591944774" fill="red" stroke="none" /><path d="M 80.05021161711548 106.5578916946017 l -33.43298431797198 10.99008600876577 a56.19298837674672,56.19298837674672 0 0,0 -0.29336829771476386,-0.9189720141902152 l 33.616717331464 -10.414544960884163" fill="red" stroke="none" /><path d="M 79.94057633289273 106.21446072829308 l -33.20102165728865 10.285761378416632 a55.75780094052955,55.75780094052955 0 0,0 -0.2754002048598478,-0.9167177129161259 l 33.37269818215212 -9.714306061909783" fill="red" stroke="none" /><path d="M 79.56144815229197 104.8234425847677 l -34.96599474650394 8.251879552707349 a56.9265125605719,56.9265125605719 0 0,0 -0.2162913043683197,-0.9530193954707546 l 35.10249691242992 -7.650425823297567" fill="red" stroke="none" /><path d="M 79.0935383218832 101.97986365728391 l -35.23210643355926 3.3365171099410085 a56.389739617162725,56.389739617162725 0 0,0 -0.08299059850400879,-0.9644765530691259 l 35.28419065476101 -2.7312195094962206" fill="red" stroke="none" /><line stroke="#e1ed5e" stroke-width="0.3" x1="15.003131293944662" x2="10.003315487706104" y1="100.72959589197737" y2="100.7725132973878" /><path d="M 14.003168132696942 100.73817937305945 a86.0,86.0 0 0,1 10.791469493833604,-42.45332614584628" fill="none" id="id130" stroke="none" /><text fill="#e1ed5e" style="font-size:6.75px; font-family:Arial;" text-anchor="middle"><textPath startOffset="22.145653131862435" xlink:href="#id130">October</textPath></text><path d="M 79.13060592940154 97.66154086499901 l -34.63913948167792 -3.8813878292528887 a55.85591994930289,55.85591994930289 0 0,0 0.11495125382170684,-0.9519612824339942 l 34.56740614159655 4.475442788610319" fill="red" stroke="none" /><path d="M 79.22317932658666 96.9465228501225 l -36.18438356941 -5.317858307020957 a57.57306702030526,57.57306702030526 0 0,0 0.15209846911000266,-0.9765812797659721 l 36.08776360816173 5.938227768718379" fill="red" stroke="none" /><path d="M 79.34024301695615 96.23510406497455 l -34.363420290530506 -6.2621598826923 a55.929347266446946,55.929347266446946 0 0,0 0.18023553808376888,-0.943068495543327 l 34.25085846016458 6.851130943268942" fill="red" stroke="none" /><path d="M 79.48165901384962 95.52812308129327 l -37.46032834480064 -8.164304209846293 a59.33969304690881,59.33969304690881 0 0,0 0.22546014207836496,-0.9934189861853 l 37.31465734116461 8.806157529970601" fill="red" stroke="none" /><path d="M 79.73907114497095 94.47779374421319 l -37.13615975900969 -10.12162547948534 a59.490799731801594,59.490799731801594 0 0,0 0.2770047669268862,-0.9829921956003763 l 36.956936500008226 10.757625598988728" fill="red" stroke="none" /><path d="M 80.28708602549916 92.7611449362534 l -32.91094839755804 -12.08535611571849 a56.059754090273685,56.059754090273685 0 0,0 0.3394800282471896,-0.900511107579302 l 32.698637685496415 12.648535503491937" fill="red" stroke="none" /><path d="M 80.5471966667186 92.08871423366112 l -35.742163785975634 -14.536026852970979 a59.584949770264075,59.584949770264075 0 0,0 0.3934710756060818,-0.9441873433390057 l 35.487366865833074 15.147446705751248" fill="red" stroke="none" /><path d="M 81.29705330413844 90.45014215332179 l -35.11743898904521 -17.931214569465908 a60.43048284114131,60.43048284114131 0 0,0 0.4796797084555526,-0.919849089103842 l 34.80445121161472 18.531409901674234" fill="red" stroke="none" /><path d="M 81.63589988554816 89.8137432299009 l -29.503766557099787 -16.36524196462932 a54.738603788786286,54.738603788786286 0 0,0 0.4628452227715868,-0.8178031596647222 l 29.218487969306832 16.869301894393146" fill="red" stroke="none" /><line stroke="#e1ed5e" stroke-width="0.3" x1="26.387840678322718" x2="22.05771365940052" y1="57.49999999999999" y2="54.99999999999999" /><path d="M 25.521815274538284 56.99999999999999 a86.0,86.0 0 0,1 29.574782752854787,-30.34633250058573" fill="none" id="id131" stroke="none" /><text fill="#e1ed5e" style="font-size:6.75px; font-family:Arial;" text-anchor="middle"><textPath startOffset="21.40746469413373" xlink:href="#id131">November</textPath></text><path d="M 81.81346652052679 89.5 l -18.396852860320244 -10.621427951147831 a42.24285590229566,42.24285590229566 0 0,0 0.3679680430347284,-0.6248901825710047 l 18.211811107155736 10.935669302012409" fill="red" stroke="none" /><path d="M 82.576782715395 88.27688183743585 l -29.64371833758153 -19.945616654640517 a56.72922698032719,56.72922698032719 0 0,0 0.5505713657678244,-0.8033000766798634 l 29.29695723499839 20.451551466390416" fill="red" stroke="none" /><path d="M 82.98947788004972 87.6856937992154 l -27.2078990929496 -19.69642072994818 a54.58896787076465,54.58896787076465 0 0,0 0.556022380026684,-0.7543511456962205 l 26.865774693339095 20.160578184913263" fill="red" stroke="none" /><path d="M 84.10781606972428 86.27271002978789 l -25.538397852590904 -22.05945980962955 a54.74654844528372,54.74654844528372 0 0,0 0.6204320388777353,-0.705937769104366 l 25.155954749754578 22.494609856545217" fill="red" stroke="none" /><path d="M 84.58840730492382 85.73525988315684 l -25.945875097074264 -24.015114640428003 a56.35412515882521,56.35412515882521 0 0,0 0.6632187275190312,-0.704315305489979 l 25.52980053581896 24.456971405862493" fill="red" stroke="none" /><path d="M 87.83215693770416 82.88440491214696 l -20.908297490779812 -29.410138838611868 a57.0848052574678,57.0848052574678 0 0,0 0.8035499358808155,-0.5609402620777734 l 20.40035246372523 29.764723916494766" fill="red" stroke="none" /><path d="M 88.4268655584334 82.4767994020092 l -18.953575240407897 -28.698128641269015 a55.39215901778526,55.39215901778526 0 0,0 0.7979487601515993,-0.5172207457868492 l 18.45814084799927 29.01926322875977" fill="red" stroke="none" /><line stroke="#e1ed5e" stroke-width="0.3" x1="56.869717070023135" x2="54.33264160355391" y1="26.7553504044142" y2="22.446841604673864" /><path d="M 56.362301976729285 25.89364864446614 a86.0,86.0 0 0,1 42.16139366436587,-11.88097634709845" fill="none" id="id132" stroke="none" /><text fill="#e1ed5e" style="font-size:6.75px; font-family:Arial;" text-anchor="middle"><textPath startOffset="22.145653131862474" xlink:href="#id132">December</textPath></text><path d="M 89.97174638481275 81.54914285379989 l -15.493141974671031 -28.505636204446354 a53.443932308947325,53.443932308947325 0 0,0 0.8098312851929979,-0.4311895454367277 l 15.001521873691473 28.767396217605658" fill="red" stroke="none" /><path d="M 90.61103034731259 81.2157712731953 l -15.92890031337068 -31.868470974041603 a56.6276480758502,56.6276480758502 0 0,0 0.8732515922742623,-0.4271511129766732 l 15.379488471834364 32.13721583711549" fill="red" stroke="none" /><path d="M 93.27111125876988 80.10723608172694 l -6.941547619080858 -20.521452103632477 a42.663681122783565,42.663681122783565 0 0,0 0.6957781291809434,-0.22871609097145915 l 6.588246752252153 20.637589116005966" fill="red" stroke="none" /><path d="M 94.6519064749342 79.69241777938228 l -9.072358629078428 -34.44922343475171 a56.62382189423336,56.62382189423336 0 0,0 0.9420982689140038,-0.2394776959113188 l 8.479655066939046 34.59988636249829" fill="red" stroke="none" /><path d="M 95.35216902796891 79.52079915486377 l -8.744227209799167 -38.528678504572866 a60.508487402143444,60.508487402143444 0 0,0 1.0149220655506441,-0.22119754039986106 l 8.081542727629405 38.673107503106436" fill="red" stroke="none" /><path d="M 97.12497278360702 79.19773525538626 l -4.852595351883252 -35.110962648556516 a56.44470876953921,56.44470876953921 0 0,0 0.9609635820012123,-0.12441597485121685 l 4.249153947991245 35.189090219608126" fill="red" stroke="none" /><path d="M 97.84075906011542 79.11130261209362 l -3.623761218323052 -35.05660257610135 a56.24339696377376,56.24339696377376 0 0,0 0.9612276060480139,-0.0910292536773215 l 3.021434048890023 35.11364358528385" fill="red" stroke="none" /><path d="M 98.1996594967304 79.07731436759882 l -3.302355606887759 -38.37837791452693 a59.52019527344833,59.52019527344833 0 0,0 1.0187335056338525,-0.07885641625703742 l 2.6430531064786895 38.42941209777902" fill="red" stroke="none" /><path d="M 99.27912038922189 79.0123766808444 l -1.2143127208939717 -35.353389937430286 a56.37423830207687,56.37423830207687 0 0,0 0.9674535673081721,-0.02491817209979957 l 0.6072458395150556 35.36902582688013" fill="red" stroke="none" /></svg>