<?xml version="1.0" encoding="utf-8" ?>
<svg baseProfile="full" height="200mm" version="1.1" viewBox="0,0,200,200" width="200mm" xmlns="http://www.w3.org/2000/svg" xmlns:ev="http://www.w3.org/2001/xml-events" xmlns:xlink="http://www.w3.org/1999/xlink"><defs /><rect fill="#1a1a1a" height="200" width="200" x="0" y="0" /><rect fill="#1a1a1a" height="200" width="180" x="10" y="0" /><text alignment-baseline="middle" fill="#e1ed5e" style="dominant-baseline: central; font-size:9.0px; font-family:Arial;" text-anchor="middle" x="100.0" y="100.0">2025</text><line stroke="#e1ed5e" stroke-width="0.3" x1="100.0" x2="100.0" y1="15.0" y2="10.0" /><path d="M 100.0 14.0 a86.0,86.0 0 0,1 42.46469731375804,11.215312516191453" fill="none" id="id133" stroke="none" /><text fill="#e1ed5e" style="font-size:6.75px; font-family:Arial;" text-anchor="middle"><textPath startOffset="22.20632615414155" xlink:href="#id133">January</textPath></text><path d="M 102.88285421437855 79.19881850522331 l 2.725341270755539 -19.664649750737283 a40.85260524115803,40.85260524115803 0 0,0 0.695721850692428,0.10253131583826368 l -3.063432101876623 19.61482395073805" fill="red" stroke="none" /><path d="M 105.01212808612495 79.60689891045804 l 8.32149773579867 -33.858102112817036 a55.86571960033017,55.86571960033017 0 0,0 0.9318697620576397,0.23755435129426847 l -8.903076386541336 33.7098447653539" fill="red" stroke="none" /><path d="M 106.74666289553966 80.11325718540242 l 10.359351003852368 -30.535651822170472 a53.24503350015068,53.24503350015068 0 0,0 0.8654041965645376,0.30192253152453213 l -10.88343720448018 30.35280843747373" fill="red" stroke="none" /><path d="M 107.08798089147638 80.2323363322302 l 13.343314828557453 -37.213158977513594 a60.533065296024056,60.533065296024056 0 0,0 0.9778040773130499,0.36013349370245795 l -13.981901231643079 36.97796221600481" fill="red" stroke="none" /><path d="M 107.4271985657038 80.35727306442388 l 9.759621539508357 -25.811290650065388 a48.594799104479605,48.594799104479605 0 0,0 0.7798697805556539,0.30257735885161097 l -10.202474485063679 25.63947058732323" fill="red" stroke="none" /><path d="M 107.76421540070413 80.48803036053334 l 9.544151211362145 -23.985062116345766 a46.814221411274644,46.814221411274644 0 0,0 0.7461654780483004,0.30437963359529274 l -9.955600558998833 23.817221596566892" fill="red" stroke="none" /><line stroke="#e1ed5e" stroke-width="0.3" x1="143.23703022742887" x2="145.7803849466894" y1="26.81831364943548" y2="22.513508569990506" /><path d="M 143.74570117128098 25.957352633546492 a86.0,86.0 0 0,1 28.547481713284135,27.462654790039103" fill="none" id="id134" stroke="none" /><text fill="#e1ed5e" style="font-size:6.75px; font-family:Arial;" text-anchor="middle"><textPath startOffset="19.985693538727396" xlink:href="#id134">February</textPath></text><path d="M 111.60114157652 82.49532879139004 l 17.979672332857835 -27.129076095598048 a53.54620387998703,53.54620387998703 0 0,0 0.7639138721330633,0.5157980565022908 l -18.443990899397438 26.815566126797087" fill="red" stroke="none" /><path d="M 114.16331599549186 84.49514656593476 l 21.93340033673642 -24.010913661745594 a53.52073223658026,53.52073223658026 0 0,0 0.6748508547511166,0.6272003215880738 l -22.343459075282382 23.62980875408288" fill="red" stroke="none" /><path d="M 114.42810811169701 84.74124197986012 l 22.378880790303704 -23.66726975548268 a53.57228826940793,53.57228826940793 0 0,0 0.6645942272479357,0.639339120055198 l -22.782958261164058 23.27854754866518" fill="red" stroke="none" /><path d="M 115.19652480421416 85.50635884689758 l 23.443673021456103 -22.35933468087567 a53.39669199329398,53.39669199329398 0 0,0 0.6286384361628767,0.6705876531511582 l -23.825078779589443 21.952477610846454" fill="red" stroke="none" /><path d="M 115.4437574822437 85.77008943001954 l 23.926920989850643 -22.046315237209875 a53.535174251769234,53.535174251769234 0 0,0 0.6186024039485938,0.6830762249428844 l -24.302867034415275 21.631186224997442" fill="red" stroke="none" /><path d="M 115.9244219780498 86.31012108654704 l 24.355703173628072 -20.938067815495277 a53.11857657070369,53.11857657070369 0 0,0 0.5900952447912882,0.6984866442114689 l -24.712509031906478 20.515722221654702" fill="red" stroke="none" /><path d="M 117.45458315368197 88.32363383020206 l 25.33937422571652 -16.950952616166795 a51.48636876944249,51.48636876944249 0 0,0 0.4864318474790498,0.7408690758814074 l -25.627402708553493 16.512265476307714" fill="red" stroke="none" /><line stroke="#e1ed5e" stroke-width="0.3" x1="172.23445277983987" x2="176.4835382374775" y1="55.19839476539836" y2="52.563006222186495" /><path d="M 173.08426987136738 54.67131705675599 a86.0,86.0 0 0,1 12.851231095245387,41.99856678651699" fill="none" id="id135" stroke="none" /><text fill="#e1ed5e" style="font-size:6.75px; font-family:Arial;" text-anchor="middle"><textPath startOffset="22.20632615414155" xlink:href="#id135">March</textPath></text><path d="M 118.21658344932153 89.55222093294921 l 27.700733609374655 -15.887235142150319 a52.933288007336714,52.933288007336714 0 0,0 0.4465108329412664,0.7942929487848863 l -27.970102083608356 15.408058683430637" fill="red" stroke="none" /><path d="M 118.3937258080291 89.86733742301442 l 29.16640332419914 -16.067072356780297 a54.29909754014166,54.29909754014166 0 0,0 0.4439388222566144,0.822551215019275 l -29.43865024567422 15.562640158428563" fill="red" stroke="none" /><path d="M 118.56541770881063 90.18545643968196 l 28.05883452335452 -14.833205371432545 a52.738339219311506,52.738339219311506 0 0,0 0.41736259471673554,0.8062116891469554 l -28.31000655123137 14.348020960025245" fill="red" stroke="none" /><path d="M 119.34039704204932 91.81776055985345 l 29.37136322843975 -12.425987227465153 a52.891725203790244,52.891725203790244 0 0,0 0.34751957244275117,0.8415462096753461 l -29.580904487768702 11.918566447336504" fill="red" stroke="none" /><path d="M 119.47837535516314 92.15188598940014 l 30.03953063583386 -12.103353434578924 a53.38617861346927,53.38617861346927 0 0,0 0.33609510285086935,0.855325377110149 l -30.24341928856643 11.584479052572991" fill="red" stroke="none" /><path d="M 119.61058180528143 92.48833698450437 l 29.77122804801256 -11.403610299512627 a52.88053241948635,52.88053241948635 0 0,0 0.3182788883530535,0.8528291824785847 l -29.963111524867237 10.88945798000471" fill="red" stroke="none" /><path d="M 119.7369772167798 92.82701384747503 l 30.74242243050224 -11.17268201544004 a53.70971354679806,53.70971354679806 0 0,0 0.30831145231686397,0.8716379933664473 l -30.930186963628916 10.64184639564698" fill="red" stroke="none" /><path d="M 119.85752413597 93.16781622104841 l 30.174361848756064 -10.381797053432935 a52.910403053523694,52.910403053523694 0 0,0 0.28889761913063944,0.8637671096175833 l -30.348596761658474 9.860856840893037" fill="red" stroke="none" /><path d="M 120.18372546131832 94.20196356495316 l 30.402292423347053 -8.733452083330182 a52.631828430973286,52.631828430973286 0 0,0 0.24264082292379194,0.8729081391857636 l -30.548120016837206 8.208832640725465" fill="red" stroke="none" /><path d="M 120.28053869075195 94.5502522615342 l 30.896583772359662 -8.302471157559427 a52.99265409628505,52.99265409628505 0 0,0 0.22913939885099585,0.8829675756163569 l -31.03491950308096 7.76940715639422" fill="red" stroke="none" /><path d="M 120.37134235888165 94.90015583598534 l 30.960264320109356 -7.750717676217417 a52.91569506163802,52.91569506163802 0 0,0 0.2135959663155924,0.8854931772222396 l -31.089093086685768 7.216639267335772" fill="red" stroke="none" /><path d="M 120.45610955862082 95.25157060432595 l 26.035609873595167 -6.043585898081006 a47.72784899683343,47.72784899683343 0 0,0 0.17887855296999813,0.8018774784050329 l -26.135782813567204 5.5945302501260095" fill="red" stroke="none" /><path d="M 120.91429891909075 98.10471618934814 l 24.859803913504173 -2.2528311408151516 a45.961672595539426,45.961672595539426 0 0,0 0.06462105275727067,0.7885405227631401 l -24.89489945008094 1.8245767008442426" fill="red" stroke="none" /><line stroke="#e1ed5e" stroke-width="0.3" x1="184.98032266829074" x2="189.97916517819016" y1="98.17113171792111" y2="98.06355123074" /><path d="M 185.9800911702706 98.14961562048488 a86.0,86.0 0 0,1 -9.607161424134198,41.387399972396054" fill="none" id="id136" stroke="none" /><text fill="#e1ed5e" style="font-size:6.75px; font-family:Arial;" text-anchor="middle"><textPath startOffset="21.466115282336823" xlink:href="#id136">April</textPath></text><path d="M 120.99824983174949 100.27111621757518 l 19.52842676371631 0.2521387849842372 a40.53005442472511,40.53005442472511 0 0,0 -0.015011439175654671,0.6975225921750748 l -19.521193261855647 -0.588251192949427" fill="red" stroke="none" /><path d="M 120.8583938346157 102.4346265915055 l 30.977503431402315 3.615745976920986 a52.187807518518554,52.187807518518554 0 0,0 -0.11182726543092034,0.8913733333123529 l -30.910674656724545 -4.148437064520734" fill="red" stroke="none" /><path d="M 120.81339534386255 102.79330883721812 l 31.622234233292982 4.243933528245087 a52.90574665632211,52.90574665632211 0 0,0 -0.12890346354028528,0.901550523772485 l -31.544496718736095 -4.787629523997982" fill="red" stroke="none" /><path d="M 120.76222939487914 103.15116336523771 l 32.528642196448274 4.9369970662040155 a53.90116264171013,53.90116264171013 0 0,0 -0.1471200038337945,0.9161164043100488 l -32.438840438253195 -5.49619270020727" fill="red" stroke="none" /><path d="M 120.49622156327973 104.57218783832717 l 31.684817267802103 7.06808012024056 a53.46360118471378,53.46360118471378 0 0,0 -0.20809926210253,0.8964861746740057 l -31.55845743976902 -7.612434952263131" fill="red" stroke="none" /><path d="M 120.41448212921028 104.9243191809786 l 30.783355846349124 7.425467307454582 a52.66626851867826,52.66626851867826 0 0,0 -0.22016678543991317,0.8794568653486577 l -30.65097774661415 -7.9542520122006355" fill="red" stroke="none" /><path d="M 120.32669344350535 105.2749913415812 l 30.774419562409264 7.9862864653849694 a52.79379925253333,52.79379925253333 0 0,0 -0.23584227929077123,0.87765685672235 l -30.632389206776715 -8.514834255282867" fill="red" stroke="none" /><path d="M 120.23288151984713 105.62410040840565 l 31.17856166673692 8.666652905142945 a53.36067953836476,53.36067953836476 0 0,0 -0.25360898660428843,0.8828461527428785 l -31.02476004324653 -9.202056533390406" fill="red" stroke="none" /><path d="M 119.9155931802556 106.66101706037122 l 29.323020277601223 9.807447690001784 a51.91966281175676,51.91966281175676 0 0,0 -0.29077278099992165,0.8451218093075137 l -29.149856665658074 -10.310742202398597" fill="red" stroke="none" /><path d="M 119.79798401119884 107.00284435728193 l 30.08401117020274 10.64116668386498 a52.91053362892387,52.91053362892387 0 0,0 -0.31110320192567514,0.8560223981908605 l -29.896383707271838 -11.157436879061972" fill="red" stroke="none" /><path d="M 119.54520255179757 107.68017299344265 l 29.489663015540405 11.587790552564423 a52.68465108945075,52.68465108945075 0 0,0 -0.3389313633783913,0.8411998483463639 l -29.28582903790462 -12.093689768753599" fill="red" stroke="none" /><path d="M 118.64920377521936 109.65438752849418 l 21.868901356115483 11.321172263391576 a45.6255515256186,45.6255515256186 0 0,0 -0.3670629757671031,0.69434481885722 l -21.67078587212349 -11.69593209733493" fill="red" stroke="none" /><line stroke="#e1ed5e" stroke-width="0.3" x1="174.80103733775053" x2="179.2010983576182" y1="140.37084112569926" y2="142.7455964860345" /><path d="M 175.68104954172406 140.8457921977663 a86.0,86.0 0 0,1 -30.038265399797805,32.042727171017184" fill="none" id="id137" stroke="none" /><text fill="#e1ed5e" style="font-size:6.75px; font-family:Arial;" text-anchor="middle"><textPath startOffset="22.206326154141568" xlink:href="#id137">May</textPath></text><path d="M 117.14729908036423 112.12312394758627 l 25.763714876976806 18.21492162351831 a52.5523750930587,52.5523750930587 0 0,0 -0.5285773132529076,0.7341476574300193 l -25.446357771348296 -18.655702886399464" fill="red" stroke="none" /><path d="M 116.93607887273984 112.41649034213515 l 25.514259671617864 18.70548437922581 a52.63657049131916,52.63657049131916 0 0,0 -0.5420031108836835,0.7261017399112004 l -25.188495294039086 -19.141898998646322" fill="red" stroke="none" /><path d="M 116.27256486870786 113.27417163493432 l 25.93596335067485 21.15698611816701 a54.47076719365513,54.47076719365513 0 0,0 -0.5989294301848818,0.7214490814900815 l -25.567937920596425 -21.60029645677086" fill="red" stroke="none" /><path d="M 116.0416608686014 113.55231037782055 l 24.619348952743042 20.79890985356147 a53.22897755054458,53.22897755054458 0 0,0 -0.5973241556035567,0.6948229397533897 l -24.257682287568706 -21.219609892476388" fill="red" stroke="none" /><path d="M 115.80600337817218 113.82643327865902 l 24.60732014297356 21.525458522505446 a53.6935095886461,53.6935095886461 0 0,0 -0.614512374331104,0.690411166961948 l -24.233148918994118 -21.94584385920826" fill="red" stroke="none" /><path d="M 115.56566222782051 114.09645910891815 l 23.1084610763487 20.927312430727664 a52.17616684088041,52.17616684088041 0 0,0 -0.6086066421280076,0.6605223087582981 l -22.74480802622497 -21.321985994287296" fill="red" stroke="none" /><path d="M 115.32070863581623 114.36230785411682 l 23.503802278644166 22.033500674963747 a53.21651554012672,53.21651554012672 0 0,0 -0.6322462850333878,0.6629077021701698 l -23.12104944223181 -22.434815493716425" fill="red" stroke="none" /><path d="M 115.07121518719521 114.62390073753431 l 14.250003326176385 13.827062487210059 a40.8557359929379,40.8557359929379 0 0,0 -0.4940808178886936,0.5005012599809325 l -14.009881883232156 -14.070304241171657" fill="red" stroke="none" /><path d="M 111.7513745106137 117.40417183066458 l 18.260759145968894 27.04478439077718 a53.63243305870268,53.63243305870268 0 0,0 -0.7695623356534425,0.510023953119539 l -17.792522111575487 -27.35510636498804" fill="red" stroke="none" /><path d="M 111.45004920935366 117.60387380957326 l 13.527162090084207 20.797330219415507 a45.80953563585632,45.80953563585632 0 0,0 -0.6647142451440504,0.4242520811169333 l -13.167166042893227 -21.02709672935625" fill="red" stroke="none" /><line stroke="#e1ed5e" stroke-width="0.3" x1="143.8653032363475" x2="146.44561519142675" y1="172.8068346515853" y2="177.08958963109032" /><path d="M 144.38136562736335 173.6633856474863 a86.0,86.0 0 0,1 -40.68145358897372,12.25698825130547" fill="none" id="id138" stroke="none" /><text fill="#e1ed5e" style="font-size:6.75px; font-family:Arial;" text-anchor="middle"><textPath startOffset="21.466115282336833" xlink:href="#id138">June</textPath></text><path d="M 109.89434966115114 118.52300852407294 l 11.754523673290265 22.005402037857767 a45.94807699270018,45.94807699270018 0 0,0 -0.7008374796273755,0.3666450457161743 l -11.373995291136394 -22.20447650251866" fill="red" stroke="none" /><path d="M 109.57404056367764 118.69057910512821 l 16.84426441875932 32.88361423712034 a57.946736379615785,57.946736379615785 0 0,0 -0.891679115410003,0.44710641942136364 l -16.275731395666554 -33.168688497451" fill="red" stroke="none" /><path d="M 109.2508944713604 118.85261126421891 l 13.795421704823008 28.114008156959343 a52.316307487688874,52.316307487688874 0 0,0 -0.8118677079639226,0.3897458369420462 l -13.309441328858853 -28.347308270400948" fill="red" stroke="none" /><path d="M 107.93186726928326 119.44442032107085 l 12.48840054554575 30.614444380058888 a54.063640950229704,54.063640950229704 0 0,0 -0.8647065498867642,0.34408458170930833 l -11.959572919617118 -30.824875806174266" fill="red" stroke="none" /><path d="M 107.2578585660854 119.70592522655815 l 8.30004191852271 22.535573535145975 a45.01546939801939,45.01546939801939 0 0,0 -0.7294230335817508,0.26154514821394154 l -7.910899324311225 -22.675106224399876" fill="red" stroke="none" /><path d="M 104.83641907484287 120.43548508189849 l 5.100926065369245 21.553115414446825 a43.148504030584746,43.148504030584746 0 0,0 -0.7242370597439047,0.1648339968842837 l -4.729168856232479 -21.637726144908793" fill="red" stroke="none" /><path d="M 104.48393922423573 120.51570834832081 l 6.724768335517551 30.768344302217045 a52.494658598977566,52.494658598977566 0 0,0 -0.8844313543651422,0.18534118947220157 l -6.194145519723031 -30.879541472415788" fill="red" stroke="none" /><path d="M 103.06178313531738 120.77559828337769 l 4.791302341968088 32.51117675929631 a53.86233698942237,53.86233698942237 0 0,0 -0.918407756560579,0.1272829465087595 l -4.230965994220678 -32.58883427129768" fill="red" stroke="none" /><path d="M 102.70371172650421 120.8252237178851 l 4.746414400470374 36.55905353319225 a57.865876429346,57.865876429346 0 0,0 -0.9888798186471329,0.11973957452768613 l -4.116407158771861 -36.63533863644529" fill="red" stroke="none" /><path d="M 102.34483914955558 120.86867818915974 l 2.484873812919528 22.11496338770875 a43.25412778578014,43.25412778578014 0 0,0 -0.740608305429639,0.07676707902244544 l -2.1038329108842864 -22.154459835186955" fill="red" stroke="none" /><line stroke="#e1ed5e" stroke-width="0.3" x1="102.19456741930631" x2="102.32365962044197" y1="184.97166512339345" y2="189.96999836594603" /><path d="M 102.22038585953345 185.97133177190398 a86.0,86.0 0 0,1 -42.740103519485714,-10.115201625700543" fill="none" id="id139" stroke="none" /><text fill="#e1ed5e" style="font-size:6.75px; font-family:Arial;" text-anchor="middle"><textPath startOffset="22.20632615414155" xlink:href="#id139">July</textPath></text><path d="M 99.81925306533755 120.99922214144158 l -0.2155329211989277 25.04066638531175 a46.041593948081704,46.041593948081704 0 0,0 -0.7924422854490721,-0.01364261259264969 l 0.6465348965406678 -25.033246295439938" fill="red" stroke="none" /><path d="M 98.37488393609728 120.93702456842531 l -2.7014753177454502 34.80419420801252 a55.90888000726233,55.90888000726233 0 0,0 -0.9588524201581831,-0.08273382145181729 l 3.300172055645175 -34.75253613428203" fill="red" stroke="none" /><path d="M 98.01472825383883 120.90594882070398 l -3.05606724376431 32.1819849168294 a53.32676445587223,53.32676445587223 0 0,0 -0.9130745822296722,-0.09464391378482137 l 3.609574422599576 -32.12461163458882" fill="red" stroke="none" /><path d="M 95.86986931433489 120.58985236759428 l -7.015806239487741 34.97574912388927 a56.67246226387066,56.67246226387066 0 0,0 -0.9548190976561098,-0.2000916254460378 l 7.616816798573238 -34.8498015177167" fill="red" stroke="none" /><path d="M 95.51606077576429 120.51570834832081 l -7.99796633994479 36.59370401880553 a58.45753114382786,58.45753114382786 0 0,0 -0.981195325925644,-0.22331686168295128 l 8.626681815263296 -36.450610423544894" fill="red" stroke="none" /><path d="M 95.16358092515715 120.4354850818985 l -7.335613788489198 30.995417026823887 a52.85164212910532,52.85164212910532 0 0,0 -0.8834950173976083,-0.21714157994935288 l 7.8680620906300165 -30.864554188560504" fill="red" stroke="none" /><path d="M 92.40401165467489 119.57807347666478 l -11.659430420040774 30.0512816874061 a53.23386183465458,53.23386183465458 0 0,0 -0.8514348681504847,-0.33880350565014494 l 12.174986364233117 -29.846131337349888" fill="red" stroke="none" /><path d="M 90.42595943632237 118.69057910512821 l -11.268588432414619 21.99869972331463 a45.71687429218573,45.71687429218573 0 0,0 -0.6973109878018888,-0.3648001518653763 l 11.645590322743002 -21.80147015250454" fill="red" stroke="none" /><path d="M 90.10565033884886 118.52300852407294 l -11.945734403226071 22.3633637131361 a46.35390713476784,46.35390713476784 0 0,0 -0.7005558431111799,-0.3819989027205363 l 12.328913058205892 -22.154424158655797" fill="red" stroke="none" /><line stroke="#e1ed5e" stroke-width="0.3" x1="58.666819895761336" x2="56.23545636021788" y1="174.27360380694188" y2="178.64263932499728" /><path d="M 58.180547188652646 175.14741091055294 a86.0,86.0 0 0,1 -31.652253787137756,-30.449443065178592" fill="none" id="id140" stroke="none" /><text fill="#e1ed5e" style="font-size:6.75px; font-family:Arial;" text-anchor="middle"><textPath startOffset="22.20632615414155" xlink:href="#id140">August</textPath></text><path d="M 86.51685102203217 116.09983520530335 l -13.006516062309208 15.530701732991616 a41.25764439411098,41.25764439411098 0 0,0 -0.5405429679965238,-0.46066244415589525 l 13.271924506882788 -15.30451489861277" fill="red" stroke="none" /><path d="M 86.24171649860922 115.8653595955263 l -16.193417322863276 18.67343327252124 a45.71687429218573,45.71687429218573 0 0,0 -0.5900908751478653,-0.5206865886283905 l 16.51245055091773 -18.391923542120562" fill="red" stroke="none" /><path d="M 84.67929136418377 114.36230785411682 l -18.54360968802786 17.383597416859974 a46.41761041902605,46.41761041902605 0 0,0 -0.5414362097331098,-0.587622070715149 l 18.8400923057567 -17.06182409134348" fill="red" stroke="none" /><path d="M 84.19399662182784 113.82643327865904 l -23.973674432998553 20.97117165303809 a52.85164212910532,52.85164212910532 0 0,0 -0.5930897785337268,-0.6898974025955726 l 24.331106721103062 -20.55539715128099" fill="red" stroke="none" /><path d="M 83.28015986056508 112.70617746262583 l -25.76548735287456 19.58038186887415 a53.36126840317101,53.36126840317101 0 0,0 -0.5494653850973943,-0.7360986756878837 l 26.098714004667038 -19.133970313676958" fill="red" stroke="none" /><path d="M 83.06392112726016 112.41649034213515 l -25.790461477052858 18.907978538318563 a52.97904869762174,52.97904869762174 0 0,0 -0.5328688412216412,-0.7401082144309459 l 26.112110110650107 -18.46123671843648" fill="red" stroke="none" /><path d="M 82.6465618267979 111.8261652097733 l -51.59864877140924 35.163875819955365 a83.44132219705548,83.44132219705548 0 0,0 -0.798640316287183,-1.1938589119082679 l 52.196292193107155 -34.27047999384128" fill="red" stroke="none" /><line stroke="#e1ed5e" stroke-width="0.3" x1="26.63291911575756" x2="22.317208475507996" y1="142.92168965132927" y2="145.44649492493687" /><path d="M 25.769776987707644 143.4266507060508 a86.0,86.0 0 0,1 -11.730757126820373,-40.83630448921669" fill="none" id="id141" stroke="none" /><text fill="#e1ed5e" style="font-size:6.75px; font-family:Arial;" text-anchor="middle"><textPath startOffset="21.46611528233685" xlink:href="#id141">September</textPath></text><path d="M 81.87401531095188 110.60418214915194 l -54.3779540671444 31.812546447455823 a84.0,84.0 0 0,0 -0.7193920153904911,-1.2543206165667722 l 54.91749807868727 -30.871805985030743" fill="red" stroke="none" /><path d="M 81.69416730710424 110.29060199501025 l -43.471539997491845 24.43747431374521 a70.86947904869761,70.86947904869761 0 0,0 -0.5886337617130647,-1.0685412577431193 l 43.88575016865642 -23.685562537604266" fill="red" stroke="none" /><line stroke="#e1ed5e" stroke-width="0.3" x1="15.007084014347285" x2="10.007500721073583" y1="101.09737516637583" y2="101.16192664675087" /><path d="M 14.007167355692545 101.11028546245083 a86.0,86.0 0 0,1 10.666146001902534,-42.60595125391555" fill="none" id="id142" stroke="none" /><text fill="#e1ed5e" style="font-size:6.75px; font-family:Arial;" text-anchor="middle"><textPath startOffset="22.20632615414155" xlink:href="#id142">October</textPath></text><line stroke="#e1ed5e" stroke-width="0.3" x1="26.266209847984243" x2="21.928928074336255" y1="57.711370442889674" y2="55.22380399835377" /><path d="M 25.398753493254645 57.213857153982495 a86.0,86.0 0 0,1 29.58750427330803,-30.492523968695096" fill="none" id="id143" stroke="none" /><text fill="#e1ed5e" style="font-size:6.75px; font-family:Arial;" text-anchor="middle"><textPath startOffset="21.46611528233685" xlink:href="#id143">November</textPath></text><line stroke="#e1ed5e" stroke-width="0.3" x1="56.762969772571076" x2="54.21961505331055" y1="26.818313649435495" y2="22.513508569990535" /><path d="M 56.25429882871897 25.957352633546506 a86.0,86.0 0 0,1 42.265352541879196,-11.944610805530505" fill="none" id="id144" stroke="none" /><text fill="#e1ed5e" style="font-size:6.75px; font-family:Arial;" text-anchor="middle"><textPath startOffset="22.20632615414155" xlink:href="#id144">December</textPath></text></svg>