<?xml version="1.0" encoding="utf-8" ?>
<svg baseProfile="full" height="200mm" version="1.1" viewBox="0,0,200,200" width="200mm" xmlns="http://www.w3.org/2000/svg" xmlns:ev="http://www.w3.org/2001/xml-events" xmlns:xlink="http://www.w3.org/1999/xlink"><defs /><rect fill="#1a1a1a" height="200" width="200" x="0" y="0" /><rect fill="#1a1a1a" height="200" width="180" x="10" y="0" /><text alignment-baseline="middle" fill="#e1ed5e" style="dominant-baseline: central; font-size:9.0px; font-family:Arial;" text-anchor="middle" x="100.0" y="100.0">2020</text><line stroke="#e1ed5e" stroke-width="0.3" x1="100.0" x2="100.0" y1="15.0" y2="10.0" /><path d="M 100.0 14.0 a86.0,86.0 0 0,1 42.35913384403234,11.155469271406648" fill="none" id="id73" stroke="none" /><text fill="#e1ed5e" style="font-size:6.75px; font-family:Arial;" text-anchor="middle"><textPath startOffset="22.145653131862478" xlink:href="#id73">January</textPath></text><path d="M 101.44090949804482 79.04949213459386 l 2.677809673509513 -38.934764954389124 a60.02674194319926,60.02674194319926 0 0,0 1.027403437952941,0.07952752385102266 l -3.3457821062376873 38.883059663543044" fill="red" stroke="none" /><path d="M 103.58742460773223 79.30868818359171 l 5.447369545571752 -31.418979956733516 a52.887711371116694,52.887711371116694 0 0,0 0.8932111545386701,0.16277282678600635 l -5.985915433661476 31.320838956016143" fill="red" stroke="none" /><path d="M 103.94208987418118 79.37332000966035 l 5.956845031981549 -31.168730330444273 a52.73284974828135,52.73284974828135 0 0,0 0.8876784625707358,0.17756055339941765 l -6.491019980083242 31.061880380381997" fill="red" stroke="none" /><path d="M 106.04205211174951 79.88797359093562 l 6.511784915220243 -21.67561413950384 a43.63262227641218,43.63262227641218 0 0,0 0.7154905806312624,0.2216608108281605 l -6.882916128723136 21.560636740869032" fill="red" stroke="none" /><path d="M 107.74402155503746 80.48000691201159 l 6.9170506442071416 -17.435486175313976 a39.75744566256534,39.75744566256534 0 0,0 0.6322296006417714,0.2571222746110791 l -7.215334706039353 17.314176644123602" fill="red" stroke="none" /><path d="M 108.07796709384702 80.6158196554323 l 8.67169906393968 -20.808920932255646 a43.54350361014009,43.54350361014009 0 0,0 0.6874999286339147,0.2934528382610566 l -9.027634067744025 20.656993444335185" fill="red" stroke="none" /><path d="M 108.4095320186766 80.7573450057729 l 12.786624573315908 -29.25829935109099 a52.93032804242665,52.93032804242665 0 0,0 0.8294600733913011,0.37100694052172606 l -13.286998049562841 29.034488659659413" fill="red" stroke="none" /><path d="M 109.06512990194946 81.05736502329252 l 16.14888577523 -33.74496028511862 a58.41001010993794,58.41001010993794 0 0,0 0.900737291171545,0.44059574563327 l -16.725783315663612 33.46277078938814" fill="red" stroke="none" /><path d="M 109.3889696526874 81.21577127319529 l 16.114927123033056 -32.24064920778593 a57.0437281301501,57.0437281301501 0 0,0 0.8721518225982176,0.4453269349464186 l -16.66600616734485 31.95926432116667" fill="red" stroke="none" /><path d="M 109.71004243097381 81.37971332152246 l 19.71304945550994 -37.80237159394043 a63.63359727916159,63.63359727916159 0 0,0 0.9642343974268178,0.5134005059113567 l -20.359072668723318 37.4584006203065" fill="red" stroke="none" /><path d="M 110.02825361518725 81.54914285379988 l 4.788411554613888 -8.810137930456111 a31.027333422701236,31.027333422701236 0 0,0 0.4657879613107163,0.2583647303576891 l -4.938943704080704 8.726640284665278" fill="red" stroke="none" /><path d="M 110.34350942703115 81.72400993836675 l 20.29118315527477 -35.85257637175304 a62.196351128871726,62.196351128871726 0 0,0 0.9246747282872966,0.5338612032895148 l -20.903650351422463 35.49896827118735" fill="red" stroke="none" /><line stroke="#e1ed5e" stroke-width="0.3" x1="143.13028292997686" x2="145.6673583964461" y1="26.7553504044142" y2="22.446841604673864" /><path d="M 143.63769802327073 25.89364864446614 a86.0,86.0 0 0,1 29.32050498858742,28.57503671076993" fill="none" id="id74" stroke="none" /><text fill="#e1ed5e" style="font-size:6.75px; font-family:Arial;" text-anchor="middle"><textPath startOffset="20.669276256404974" xlink:href="#id74">February</textPath></text><path d="M 110.65571695917076 81.90426304109057 l 16.270507893678896 -27.630879476249305 a53.06547875440631,53.06547875440631 0 0,0 0.7809905352659235,0.46896237674649244 l -16.742431185502255 27.34750309896689" fill="red" stroke="none" /><path d="M 110.96478420261332 82.08984904055464 l 17.688968579948575 -28.89360079774816 a54.8783083474078,54.8783083474078 0 0,0 0.7992264401893454,0.49877640921009336 l -18.182359148927635 28.58568859169652" fill="red" stroke="none" /><path d="M 111.27062007382361 82.28071324371311 l 16.973249664579672 -26.684767654554214 a52.62543326112224,52.62543326112224 0 0,0 0.7580928414375929,0.49138662080197815 l -17.428828138274273 26.38946719204834" fill="red" stroke="none" /><path d="M 111.8722381534696 82.67804972795209 l 17.970212857938176 -26.219077606049485 a52.786295485187516,52.786295485187516 0 0,0 0.74304228877018,0.5187012251338514 l -18.417650237882118 25.90673156511051" fill="red" stroke="none" /><path d="M 112.45986205192187 83.09580414077388 l 21.194104997316632 -28.753873874581306 a56.72079715561526,56.72079715561526 0 0,0 0.7788224917343032,0.5844429172805965 l -21.684580477961703 28.38581193003669" fill="red" stroke="none" /><path d="M 112.7482090630111 83.31218511350987 l 22.223175890006512 -29.090850613548344 a57.60802010568111,57.60802010568111 0 0,0 0.7806985538728953,0.6070759175045508 l -22.71928438851463 28.705073644423003" fill="red" stroke="none" /><path d="M 113.31354834802062 83.75963576809568 l 11.263387117771252 -13.739500882553216 a38.766197507245494,38.766197507245494 0 0,0 0.5110227827121337,0.42631338049354167 l -11.497584234645279 13.544125318147804" fill="red" stroke="none" /><path d="M 113.86319453409587 84.22622945171908 l 14.782467468914755 -16.819734399499687 a43.392516824583076,43.392516824583076 0 0,0 0.5552898497581218,0.4965436077408406 l -15.06902234549625 16.56349526187546" fill="red" stroke="none" /><path d="M 114.65682725009322 84.96080404539774 l 28.535679340543155 -29.280120859539675 a61.88533322568806,61.88533322568806 0 0,0 0.7544354919631349,0.7479873641114355 l -29.03410675263625 28.78595348519958" fill="red" stroke="none" /><path d="M 114.91283532996326 85.21462403516908 l 22.660166769845265 -22.466491294566993 a52.90965980899912,52.90965980899912 0 0,0 0.6339413692649808,0.6504796920523325 l -23.042494940261058 22.074188910446917" fill="red" stroke="none" /><path d="M 115.6541949942343 86.00192230759917 l 16.237796939488327 -14.519938150515152 a42.78289818510939,42.78289818510939 0 0,0 0.48485030570676885,0.5516706451512825 l -16.484658309153687 14.239055227552573" fill="red" stroke="none" /><path d="M 115.8921839302757 86.27271002978787 l 11.625574896794118 -10.041894706157173 a36.36208452556218,36.36208452556218 0 0,0 0.4039748572394079,0.47588136604769565 l -11.796244317540639 9.840846557659924" fill="red" stroke="none" /><path d="M 116.1254893667686 86.54754324733833 l 16.50993553518476 -13.77317541965623 a42.500658885638344,42.500658885638344 0 0,0 0.46255527489365383,0.5642422249345974 l -16.743937629317042 13.487730913023139" fill="red" stroke="none" /><path d="M 116.35404254752997 86.82634096563983 l 32.08277279428241 -25.84361074274921 a62.197045117244635,62.197045117244635 0 0,0 0.6626460432204342,0.8372316286706667 l -32.5216852681444 25.289059170163867" fill="red" stroke="none" /><path d="M 116.57777611688842 87.10902102172516 l 29.495932887494185 -22.936215817870593 a58.36415465318998,58.36415465318998 0 0,0 0.6082323732970506,0.7961957011673235 l -29.885317238145543 22.426499203462388" fill="red" stroke="none" /><path d="M 116.7966241395341 87.39550010848427 l 19.106444191471674 -14.337831920154882 a44.887855362347494,44.887855362347494 0 0,0 0.4572105527247365,0.6202939246002162 l -19.34975676378024 14.00773168628579" fill="red" stroke="none" /><path d="M 117.01052211995028 87.68569379921539 l 19.278299973225064 -13.956002480514398 a44.79963981016884,44.79963981016884 0 0,0 0.44561754036382717,0.6268168767351961 l -19.515032612118855 13.623008377069699" fill="red" stroke="none" /><path d="M 117.21940702142032 87.97951657250589 l 19.657151489362136 -13.722218390893742 a44.97296148253516,44.97296148253516 0 0,0 0.43647386266427346,0.6368284098065983 l -19.889815088841733 13.382755246017096" fill="red" stroke="none" /><path d="M 117.42321728460499 88.27688183743584 l 16.998771404511942 -11.437532032019774 a41.48842034531533,41.48842034531533 0 0,0 0.39251119954277897,0.59431198360943 l -17.192607042975443 11.144040170071285" fill="red" stroke="none" /><path d="M 117.81537515405839 88.88188828441811 l 31.123268487249387 -19.423221403028453 a57.686773788389644,57.686773788389644 0 0,0 0.5170713740090155,0.8445972300213679 l -31.452107825713803 18.88608705688253" fill="red" stroke="none" /><line stroke="#e1ed5e" stroke-width="0.3" x1="172.87174338648825" x2="177.1583165268699" y1="56.24261187166439" y2="53.66864786411523" /><path d="M 173.72905801456457 55.72781907015455 a86.0,86.0 0 0,1 12.242430191666344,42.057860355516425" fill="none" id="id75" stroke="none" /><text fill="#e1ed5e" style="font-size:6.75px; font-family:Arial;" text-anchor="middle"><textPath startOffset="22.145653131862474" xlink:href="#id75">March</textPath></text><path d="M 118.00360718960297 89.18935116829356 l 20.37295303709143 -12.233372936287648 a44.76368298159669,44.76368298159669 0 0,0 0.3899264023214638,0.6621802771957438 l -20.579953149542664 11.881841490798346" fill="red" stroke="none" /><path d="M 118.18653347947321 89.5 l 19.603980568634306 -11.31836345848921 a43.63672691697842,43.63672691697842 0 0,0 0.36897270286328593,0.6519394116778839 l -19.795386636518966 10.98016727671221" fill="red" stroke="none" /><path d="M 118.53625476483649 90.13048839642627 l 17.84141731972054 -9.499549800924218 a41.21280827585973,41.21280827585973 0 0,0 0.3271353616413544,0.6273251903615519 l -18.001860750336842 9.191878367458168" fill="red" stroke="none" /><path d="M 118.8641267826498 90.77261029715802 l 19.93823292538181 -9.7527888413974 a43.19572081216704,43.19572081216704 0 0,0 0.32010238694028137,0.6688908748763301 l -20.102714570282007 9.409085464455966" fill="red" stroke="none" /><path d="M 119.16976305983485 91.42560881287824 l 57.310756083075596 -25.63437223257165 a83.78251191670995,83.78251191670995 0 0,0 0.575969333346778,1.3179305512164858 l -57.74235929843935 24.646779611579316" fill="red" stroke="none" /><path d="M 119.4528033332814 92.08871423366111 l 18.444695417329026 -7.501297053156221 a40.91171129053775,40.91171129053775 0 0,0 0.25899319563654555,0.6528320398814998 l -18.5707472879317 7.183563996061156" fill="red" stroke="none" /><path d="M 119.71291397450082 92.76114493625339 l 18.223097376349493 -6.691773772795325 a40.41291101855121,40.41291101855121 0 0,0 0.23354780996383942,0.6532747905565055 l -18.335285356357275 6.377964025857902" fill="red" stroke="none" /><path d="M 120.05942366710727 93.78553927170692 l 60.17827100132179 -18.643382184879226 a84.0,84.0 0 0,0 0.41489471998549066,1.3810495856371061 l -60.48944204131091 17.607594995651397" fill="red" stroke="none" /><path d="M 120.592083275326 95.88100663000786 l 38.353989424549326 -7.671872051030552 a60.113758775472164,60.113758775472164 0 0,0 0.19372004481867755,1.013625132790513 l -38.480035761650164 7.012344353206725" fill="red" stroke="none" /><path d="M 120.65975698304385 96.23510406497455 l 34.32728671141556 -6.255575140904713 a55.892618607826385,55.892618607826385 0 0,0 0.1639122437047585,0.945402263705336 l -34.42961377261255 5.665379844278784" fill="red" stroke="none" /><path d="M 120.93736805541906 98.37931529534042 l 30.33793571418361 -2.3483480947929873 a51.42868847275964,51.42868847275964 0 0,0 0.06057819215675717,0.8807936188736285 l -30.373777867505435 1.8272110517650246" fill="red" stroke="none" /><path d="M 120.96210409425399 98.7389718711861 l 50.907496601145674 -3.0624685810591044 a71.99952866454387,71.99952866454387 0 0,0 0.06362841961380329,1.2343743420388764 l -50.952566610216046 2.188122445643497" fill="red" stroke="none" /><line stroke="#e1ed5e" stroke-width="0.3" x1="184.99686870605535" x2="189.99668451229388" y1="99.2704041080226" y2="99.22748670261217" /><path d="M 185.99683186730306 99.26182062694052 a86.0,86.0 0 0,1 -10.086455211305974,41.156179273409016" fill="none" id="id76" stroke="none" /><text fill="#e1ed5e" style="font-size:6.75px; font-family:Arial;" text-anchor="middle"><textPath startOffset="21.40746469413373" xlink:href="#id76">April</textPath></text><path d="M 120.98066250479742 100.90099992219065 l 38.50344112656778 1.6535034320854765 a59.53892904826222,59.53892904826222 0 0,0 -0.05261656612350672,1.020747326167425 l -38.469382970987695 -2.314222551629632" fill="red" stroke="none" /><path d="M 120.7213421655516 103.40968896794604 l 29.506185790428738 4.855231643394505 a50.902981025481694,50.902981025481694 0 0,0 -0.14927949412588684,0.8610044526362957 l -29.41849147881062 -5.3610291289513885" fill="red" stroke="none" /><path d="M 120.65975698304385 103.76489593502545 l 30.016913048735766 5.470081473463081 a51.51125792722561,51.51125792722561 0 0,0 -0.16599799110216065,0.8685716335208539 l -29.918588765351444 -5.984555672017248" fill="red" stroke="none" /><path d="M 120.16314734710363 105.8691983318838 l 22.929007868349643 6.6743000195353615 a44.88065498636102,44.88065498636102 0 0,0 -0.22167555694441968,0.7378858330004263 l -22.811055991401595 -7.066923456126512" fill="red" stroke="none" /><path d="M 120.05942366710727 106.21446072829308 l 28.50265315200247 8.830194805433388 a50.839128288293864,50.839128288293864 0 0,0 -0.2654172514058905,0.8314157597303086 l -28.346871184819324 -9.31817959885508" fill="red" stroke="none" /><path d="M 119.31412917781788 108.2440532568976 l 36.16908915814586 15.438433414626298 a60.326177500842284,60.326177500842284 0 0,0 -0.41471695516914614,0.9489535530458689 l -35.898738320959744 -16.05704903744801" fill="red" stroke="none" /><path d="M 119.16976305983485 108.57439118712176 l 20.909160560700787 9.352401565016075 a43.9054668231512,43.9054668231512 0 0,0 -0.313642957203029,0.6853664650303051 l -20.745533138642703 -9.709957012261068" fill="red" stroke="none" /><path d="M 118.70294669586154 109.54985784667822 l 20.79417913758774 10.617656032044705 a44.34807284597392,44.34807284597392 0 0,0 -0.352022185711191,0.6750489569662259 l -20.6088488829016 -10.973051232115433" fill="red" stroke="none" /><line stroke="#e1ed5e" stroke-width="0.3" x1="174.33088141563837" x2="178.70328620479359" y1="141.23008692659167" y2="143.65538615756765" /><path d="M 175.20536237346943 141.71514677278685 a86.0,86.0 0 0,1 -30.301960400862466,31.631185727798858" fill="none" id="id77" stroke="none" /><text fill="#e1ed5e" style="font-size:6.75px; font-family:Arial;" text-anchor="middle"><textPath startOffset="22.145653131862474" xlink:href="#id77">May</textPath></text><path d="M 118.36410011445183 110.18625677009912 l 34.40969139762458 19.08647577455974 a60.34870289568151,60.34870289568151 0 0,0 -0.5102817189767033,0.901618903181883 l -34.076976313626496 -19.67435144784075" fill="red" stroke="none" /><path d="M 118.18653347947321 110.5 l 20.896686003531766 12.064707289310144 a45.1294145786203,45.1294145786203 0 0,0 -0.39311220823250903,0.6675904721164024 l -20.68650008516949 -12.421648929720096" fill="red" stroke="none" /><path d="M 118.00360718960297 110.81064883170644 l 29.705031419830956 17.83701787273223 a55.64892636497289,55.64892636497289 0 0,0 -0.4988052707404831,0.8147609230831778 l -29.394458184635067 -18.344315911939965" fill="red" stroke="none" /><path d="M 117.81537515405839 111.11811171558189 l 33.392950747438164 20.83967099836042 a60.362177873445155,60.362177873445155 0 0,0 -0.5561435006401333,0.8743499559864599 l -33.03028955517214 -21.40983462902555" fill="red" stroke="none" /><path d="M 117.62189284568427 111.42229804090321 l 25.808628492206307 16.72884117764478 a51.75612836160603,51.75612836160603 0 0,0 -0.4896513257872842,0.741394515735119 l -25.517652727498298 -17.16941557171896" fill="red" stroke="none" /><path d="M 117.423217284605 111.72311816256416 l 15.76894493971809 10.61004990109519 a40.006124892139134,40.006124892139134 0 0,0 -0.38826946872695434,0.566496758446279 l -15.584485734175816 -10.879181394611512" fill="red" stroke="none" /><path d="M 116.79662413953412 112.60449989151573 l 17.933441201585914 13.457588608407304 a43.42130693077175,43.42130693077175 0 0,0 -0.4525079601186302,0.5923474454959551 l -17.69978126411298 -13.763456967144137" fill="red" stroke="none" /><path d="M 116.57777611688842 112.89097897827486 l 24.419944381352 18.989096453652433 a51.93411494958988,51.93411494958988 0 0,0 -0.5533049956734847,0.6990827869853035 l -24.09037295503695 -19.40549918455242" fill="red" stroke="none" /><path d="M 116.1254893667686 113.45245675266167 l 13.94637103107797 11.634558733999272 a39.16216457009928,39.16216457009928 0 0,0 -0.4350831380492013,0.5125268426209695 l -13.744593329521654 -11.872252359069797" fill="red" stroke="none" /><path d="M 115.89218393027572 113.72728997021213 l 16.60680567386426 14.3445632119703 a42.94430423667385,42.94430423667385 0 0,0 -0.48667948925356275,0.5537519202489403 l -16.358115120652112 -14.627527410030533" fill="red" stroke="none" /><path d="M 115.6541949942343 113.99807769240083 l 14.303821093565414 12.790565023604023 a40.188482261496596,40.188482261496596 0 0,0 -0.4642770569673525,0.5103218149765802 l -14.082146335756182 -13.034224414138274" fill="red" stroke="none" /><path d="M 115.16444852881244 114.52719865689866 l 22.973950590611736 22.00852497401878 a52.81473836560467,52.81473836560467 0 0,0 -0.6328040603120468,0.6493127128751717 l -22.592759729148884 -22.399660378961688" fill="red" stroke="none" /><path d="M 114.91283532996324 114.78537596483092 l 22.27439369068156 22.08401540139559 a52.36642074793603,52.36642074793603 0 0,0 -0.6383917535878797,0.6329354466001295 l -21.892010016963717 -22.46313085822438" fill="red" stroke="none" /><path d="M 114.39649973595853 115.28858382429668 l 14.10594977060849 14.980029829793045 a41.57617828053643,41.57617828053643 0 0,0 -0.5238009045510853,0.4848222973590366 l -13.846719094743438 -15.219969873284462" fill="red" stroke="none" /><path d="M 113.31354834802062 116.24036423190432 l 20.57884941808432 25.102850215952365 a53.459854163824104,53.459854163824104 0 0,0 -0.7147053749244839,0.5757160587002209 l -20.144893272804584 -25.452414568445988" fill="red" stroke="none" /><path d="M 113.03279911837588 116.46651593811092 l 14.309416421204435 18.079480196437824 a44.057038025054794,44.057038025054794 0 0,0 -0.5970568995599091,0.46427505636415967 l -13.996949577009294 -18.32245630442278" fill="red" stroke="none" /><path d="M 112.7482090630111 116.68781488649013 l 13.997349373024935 18.322979650240875 a44.05769660511784,44.05769660511784 0 0,0 -0.6049478634077146,0.453964154662967 l -13.680748520706455 -18.560562832167857" fill="red" stroke="none" /><path d="M 112.16784306229584 117.11559508785304 l 13.438667393568462 18.903168659479118 a44.19326554592246,44.19326554592246 0 0,0 -0.6220831539255377,0.4342623548524754 l -13.112189148469167 -19.131075830136716" fill="red" stroke="none" /><path d="M 111.8722381534696 117.32195027204791 l 12.920244476249326 18.851022817031943 a43.853747582711904,43.853747582711904 0 0,0 -0.6246104134688666,0.4202657616589288 l -12.594737774683457 -19.070038252747995" fill="red" stroke="none" /><path d="M 111.5731344415666 117.5232005979908 l 17.33181397561756 26.242575384849257 a52.44939647298352,52.44939647298352 0 0,0 -0.7555569529774304,0.48974288853983977 l -16.878771390383122 -26.536232115092993" fill="red" stroke="none" /><path d="M 111.27062007382361 117.71928675628689 l 17.4700089555854 27.46575576954033 a53.55102076587264,53.55102076587264 0 0,0 -0.7798963376252728,0.48671299556190545 l -16.995948489170413 -27.761604561943784" fill="red" stroke="none" /><path d="M 110.96478420261333 117.91015095944535 l 12.34494551801694 20.164540745007567 a44.64331582709745,44.64331582709745 0 0,0 -0.6570374552769892,0.3945321136743958 l -11.996975306182515 -20.373486859217884" fill="red" stroke="none" /><line stroke="#e1ed5e" stroke-width="0.3" x1="143.1302829299769" x2="145.66735839644613" y1="173.24464959558577" y2="177.55315839532614" /><path d="M 143.63769802327073 174.10635135553383 a86.0,86.0 0 0,1 -40.68552437913181,11.842963189579606" fill="none" id="id78" stroke="none" /><text fill="#e1ed5e" style="font-size:6.75px; font-family:Arial;" text-anchor="middle"><textPath startOffset="21.407464694133747" xlink:href="#id78">June</textPath></text><path d="M 110.65571695917076 118.09573695890943 l 16.64031053354147 28.258885205315135 a53.79427583740598,53.79427583740598 0 0,0 -0.7997608620206436,0.4617421489749475 l -16.15275720366043 -28.540374251566256" fill="red" stroke="none" /><path d="M 110.34350942703117 118.27599006163325 l 10.27729990795409 18.159004185497658 a41.86557754788864,41.86557754788864 0 0,0 -0.6284936494368389,0.348614832833663 l -9.964062070361157 -18.332751933764463" fill="red" stroke="none" /><path d="M 110.02825361518725 118.45085714620011 l 8.940178545687026 16.448921570768853 a39.72147999678624,39.72147999678624 0 0,0 -0.6018961518327652,0.3204757989153736 l -8.656493578067707 -16.599967837406794" fill="red" stroke="none" /><path d="M 109.3889696526874 118.78422872680471 l 10.558738815710715 21.12455065014841 a44.61638426070091,44.61638426070091 0 0,0 -0.6880266075149102,0.33654829118851876 l -10.194551958933735 -21.302692691434153" fill="red" stroke="none" /><path d="M 109.06512990194946 118.94263497670748 l 10.103780626268202 21.113015517512718 a44.406106194463135,44.406106194463135 0 0,0 -0.690433087881554,0.3231575471389014 l -9.739858824515142 -21.283349296222152" fill="red" stroke="none" /><path d="M 108.4095320186766 119.2426549942271 l 13.16801418272712 30.130993414920468 a53.882721324222594,53.882721324222594 0 0,0 -0.85074383073707,0.36313195298644335 l -12.648835276819618 -30.352600017566317" fill="red" stroke="none" /><path d="M 108.07796709384702 119.3841803445677 l 8.736943846069275 20.965484657837717 a43.71311811943478,43.71311811943478 0 0,0 -0.6951333706400262,0.2827046902511395 l -8.375756014238808 -21.11237660466815" fill="red" stroke="none" /><path d="M 107.74402155503746 119.51999308798841 l 12.055879601927566 30.3886920803009 a53.69276432679739,53.69276432679739 0 0,0 -0.8596665080984391,0.332537473072433 l -11.532440831335599 -30.591169441511372" fill="red" stroke="none" /><path d="M 107.407793817531 119.65005319985036 l 8.141215789540489 21.595542116377626 a44.07914283139873,44.07914283139873 0 0,0 -0.7103266723777404,0.26084179314672395 l -7.769299965508622 -21.732114758533072" fill="red" stroke="none" /><path d="M 107.06938296918513 119.77432235084164 l 11.756090202787401 32.883876608298344 a55.922127621980096,55.922127621980096 0 0,0 -0.9067219842974226,0.31540497379269744 l -11.189862446444957 -33.080840014659636" fill="red" stroke="none" /><path d="M 106.72888874123015 119.89276391827305 l 11.212319592846722 33.14723057762304 a55.992213499837966,55.992213499837966 0 0,0 -0.9131457139270517,0.30016913354634184 l -10.641651141271936 -33.3348206325714" fill="red" stroke="none" /><path d="M 106.0420521117495 120.11202640906438 l 10.576251036526555 35.204899961368525 a57.75924465053104,57.75924465053104 0 0,0 -0.9520373441991694,0.2771241957554544 l -9.970353679945779 -35.3812678514265" fill="red" stroke="none" /><path d="M 105.69591212413111 120.21278271476187 l 6.002308416943322 21.300075066935673 a43.129638591472826,43.129638591472826 0 0,0 -0.7143471653847137,0.1946984964863507 l -5.635779850623913 -21.399974057566165" fill="red" stroke="none" /><path d="M 105.3480935250658 120.30758222061773 l 5.986511748274025 22.731760200710568 a44.50683400066525,44.50683400066525 0 0,0 -0.7404977245299215,0.1882316258816765 l -5.595408730518706 -22.831177058427514" fill="red" stroke="none" /><path d="M 104.29559338865022 120.5559693870025 l 8.332299882733114 39.873071265389605 a61.73437164693513,61.73437164693513 0 0,0 -1.039205587653786,0.2078702221806629 l -7.6465978095483695 -40.01023088423313" fill="red" stroke="none" /><path d="M 103.94208987418118 120.62667999033965 l 4.421327905225727 23.134255875480953 a44.55296022494312,44.55296022494312 0 0,0 -0.7524470242508859,0.13712091314768565 l -4.023546147423784 -23.206744962560002" fill="red" stroke="none" /><path d="M 103.58742460773223 120.69131181640829 l 3.9198636583447155 22.60873191810121 a43.9460255827579,43.9460255827579 0 0,0 -0.7444090452948668,0.12249222512240214 l -3.5311771099967766 -22.672690141719283" fill="red" stroke="none" /><path d="M 103.2317021107853 120.74984581791261 l 4.794662684806836 30.785173895395037 a52.1563111107652,52.1563111107652 0 0,0 -0.8858498455868989,0.13018942138647074 l -4.265487733612251 -30.86294439008039" fill="red" stroke="none" /><path d="M 102.875027216393 120.80226474461374 l 2.5214725756310306 18.244119487107497 a39.41753837540497,39.41753837540497 0 0,0 -0.6710782940799397,0.0868845206241516 l -2.2079164596603156 -18.284715603932042" fill="red" stroke="none" /><path d="M 102.51750503828377 120.84855314841334 l 3.7726976923905924 31.243348933403734 a52.47030505814314,52.47030505814314 0 0,0 -0.8951536444946034,0.10030383297744747 l -3.2358081462951893 -31.303508526888155" fill="red" stroke="none" /><path d="M 102.15924093988457 120.88869738790638 l 3.256067688266052 31.49950121748134 a52.66734206940454,52.66734206940454 0 0,0 -0.9001110506695259,0.08524145234033552 l -2.714857074211511 -31.550754425326858" fill="red" stroke="none" /><path d="M 101.80034050326958 120.92268563240118 l 2.6148216254744203 30.388190875697646 a51.50048256718051,51.50048256718051 0 0,0 -0.881470010413435,0.06823135361196542 l -2.0927826202857496 -30.428599996304666" fill="red" stroke="none" /><path d="M 101.44090949804482 120.95050786540614 l 1.6158639627229203 23.49430738459879 a44.54980882784486,44.54980882784486 0 0,0 -0.7634047770532827,0.045924535686234724 l -1.2123148335371723 -23.518583898109718" fill="red" stroke="none" /><path d="M 101.08105385017728 120.97215588758144 l 1.211405127105509 23.50093583636548 a44.532137335289896,44.532137335289896 0 0,0 -0.7637775568360685,0.03279989462309983 l -0.807801809668611 -23.51826829941441" fill="red" stroke="none" /><path d="M 100.72087961077811 120.9876233191556 l 0.7978016693814403 23.227125126063573 a44.24082247093423,44.24082247093423 0 0,0 -0.7592287330040264,0.019555038992461315 l -0.39895962230667 -23.23739788240608" fill="red" stroke="none" /><line stroke="#e1ed5e" stroke-width="0.3" x1="101.45913802915013" x2="101.54496967792366" y1="184.9874750549273" y2="189.98673829345242" /><path d="M 101.47630435890484 185.9873277026323 a86.0,86.0 0 0,1 -42.54439059252881,-10.42667462771756" fill="none" id="id79" stroke="none" /><text fill="#e1ed5e" style="font-size:6.75px; font-family:Arial;" text-anchor="middle"><textPath startOffset="22.145653131862474" xlink:href="#id79">July</textPath></text><path d="M 99.63950707515114 120.99690560180557 l -0.4091410226342269 23.830413408748683 a44.833925392353464,44.833925392353464 0 0,0 -0.7694071328261803,-0.019817198466605256 l 0.8181614695311512 -23.81987849293203" fill="red" stroke="none" /><path d="M 99.27912038922189 120.98762331915562 l -1.123840542405641 32.71939117454852 a53.73868623506261,53.73868623506261 0 0,0 -0.921680497191612,-0.039580926296509424 l 1.6853468001980918 -32.69527767982618" fill="red" stroke="none" /><path d="M 98.91894614982273 120.97215588758144 l -1.1949943077688585 23.182570325420397 a44.213349139851886,44.213349139851886 0 0,0 -0.7576392094817023,-0.04557769345829333 l 1.592777869383007 -23.15864065413741" fill="red" stroke="none" /><path d="M 97.84075906011543 120.88869738790638 l -2.415454342662081 23.36732964171651 a44.491839312112795,44.491839312112795 0 0,0 -0.7590394617750574,-0.08505195489670596 l 2.8162297060379378 -23.322421926312835" fill="red" stroke="none" /><path d="M 97.48249496171623 120.84855314841334 l -2.841766166091248 23.533900448320765 a44.70485404414491,44.70485404414491 0 0,0 -0.7610941328531825,-0.0985388731332235 l 3.2453381208352248 -23.481649978987143" fill="red" stroke="none" /><path d="M 95.35216902796893 120.47920084513623 l -5.183302629779454 22.83858777032706 a44.41938764132853,44.41938764132853 0 0,0 -0.7421588035193325,-0.1751474568369098 l 5.574593587038674 -22.746244169843923" fill="red" stroke="none" /><path d="M 94.30408787586889 120.21278271476187 l -8.278648192478988 29.37800187920912 a51.522172437584615,51.522172437584615 0 0,0 -0.8492325776008695,-0.2471992264914173 l 8.781740782461464 -29.231558958415185" fill="red" stroke="none" /><path d="M 92.59220618246901 119.65005319985036 l -8.39678029489461 22.27345732971922 a44.803630410917435,44.803630410917435 0 0,0 -0.7173439659589964,-0.2774840563364671 l 8.777896523347135 -22.126033385244714" fill="red" stroke="none" /><path d="M 90.6110303473126 118.78422872680471 l -10.65211449517337 21.31136455896163 a44.82523457561852,44.82523457561852 0 0,0 -0.6853410763111538,-0.34994003681297636 l 11.016382793198106 -21.125366570475816" fill="red" stroke="none" /><line stroke="#e1ed5e" stroke-width="0.3" x1="58.13341422392154" x2="55.67067388415222" y1="173.97424548756322" y2="178.32567169271397" /><path d="M 57.64086615596768 174.84453072859336 a86.0,86.0 0 0,1 -31.369924170532247,-30.572349798747897" fill="none" id="id80" stroke="none" /><text fill="#e1ed5e" style="font-size:6.75px; font-family:Arial;" text-anchor="middle"><textPath startOffset="22.145653131862474" xlink:href="#id80">August</textPath></text><path d="M 85.08716467003676 114.78537596483092 l -16.302876963590574 16.16353697212466 a43.957432886523115,43.957432886523115 0 0,0 -0.5266795381798423,-0.5404196041074119 l 16.577943302921224 -15.881294675949512" fill="red" stroke="none" /><path d="M 83.64595745247003 113.17365903436017 l -23.763272825269002 19.142010474214644 a51.51409019392699,51.51409019392699 0 0,0 -0.5488300605399911,-0.6934288526287374 l 24.088369316450553 -18.731261677671224" fill="red" stroke="none" /><path d="M 82.18462484594161 111.11811171558189 l -25.94192835164553 16.189681948152092 a51.57923230207442,51.57923230207442 0 0,0 -0.46232685181176253,-0.7551761672227241 l 26.2160231679127 -15.74196866480481" fill="red" stroke="none" /><line stroke="#e1ed5e" stroke-width="0.3" x1="26.387840678322732" x2="22.057713659400548" y1="142.50000000000003" y2="145.00000000000006" /><path d="M 25.521815274538298 143.00000000000003 a86.0,86.0 0 0,1 -11.493303480769221,-40.785679425670985" fill="none" id="id81" stroke="none" /><text fill="#e1ed5e" style="font-size:6.75px; font-family:Arial;" text-anchor="middle"><textPath startOffset="21.40746469413373" xlink:href="#id81">September</textPath></text><path d="M 80.05021161711548 106.5578916946017 l -30.86441775579762 10.145747161564456 a53.48920542073611,53.48920542073611 0 0,0 -0.27925258281672405,-0.8747547383201454 l 31.0340350543916 -9.61442338955292" fill="red" stroke="none" /><path d="M 79.0935383218832 101.97986365728391 l -21.544216489392767 2.040259700982924 a42.64060821209233,42.64060821209233 0 0,0 -0.06275555837146371,-0.7293147141373366 l 21.576065670461972 -1.6701239394699254" fill="red" stroke="none" /><line stroke="#e1ed5e" stroke-width="0.3" x1="15.003131293944662" x2="10.003315487706104" y1="100.72959589197737" y2="100.7725132973878" /><path d="M 14.003168132696942 100.73817937305945 a86.0,86.0 0 0,1 10.791469493833604,-42.45332614584628" fill="none" id="id82" stroke="none" /><text fill="#e1ed5e" style="font-size:6.75px; font-family:Arial;" text-anchor="middle"><textPath startOffset="22.145653131862435" xlink:href="#id82">October</textPath></text><path d="M 79.03789590574601 98.7389718711861 l -22.076135421089088 -1.3280454870524865 a43.11604530529689,43.11604530529689 0 0,0 0.05078667481336641,-0.7384271056433368 l 22.05008478511066 1.7068160168501483" fill="red" stroke="none" /><path d="M 79.06263194458094 98.37931529534042 l -30.560091296223423 -2.365544341852978 a51.651508609965404,51.651508609965404 0 0,0 0.07601719111096952,-0.8834349887615899 l 30.51498048241471 2.889800377990248" fill="red" stroke="none" /><path d="M 79.2786578344484 96.59031103205396 l -22.189705671417585 -3.6513076240584392 a43.4881098616502,43.4881098616502 0 0,0 0.1275344372736901,-0.7355847432368016 l 22.12375641665166 4.031685400215833" fill="red" stroke="none" /><path d="M 79.34024301695615 96.23510406497455 l -22.1319499056479 -4.033178526850427 a43.49643828821699,43.49643828821699 0 0,0 0.14016977388018545,-0.7334274870497316 l 22.059453839485556 4.4125085789334735" fill="red" stroke="none" /><path d="M 79.48165901384962 95.52812308129327 l -22.147925743929125 -4.8270373320318525 a43.667838541939275,43.667838541939275 0 0,0 0.16591520070954607,-0.7310529877352728 l 22.06179968166192 5.206524653706134" fill="red" stroke="none" /><path d="M 79.83685265289637 94.1308016681162 l -19.794017589594624 -5.761750039227654 a41.61554985567257,41.61554985567257 0 0,0 0.2055484750525132,-0.684204022431392 l 19.69219279453848 6.10069166524977" fill="red" stroke="none" /><path d="M 80.5471966667186 92.08871423366112 l -26.741468151539575 -10.8755222953561 a49.86837550151711,49.86837550151711 0 0,0 0.3293073741433642,-0.7902178178038383 l 26.550834932859733 11.332972622601202" fill="red" stroke="none" /><path d="M 80.68587082218212 91.75594674310238 l -24.434754667646768 -10.429743787292324 a47.5675891103549,47.5675891103549 0 0,0 0.32700705627016385,-0.7482561396412692 l 24.25211372935963 10.84766199670946" fill="red" stroke="none" /><path d="M 80.9802524753101 91.09779779509293 l -16.91123382179722 -7.915311326855102 a39.671957122287395,39.671957122287395 0 0,0 0.29398949550253317,-0.6143249749894182 l 16.772865068334784 8.204448803909607" fill="red" stroke="none" /><path d="M 81.63589988554816 89.8137432299009 l -27.349526956646514 -15.170321572245705 a52.27515437783925,52.27515437783925 0 0,0 0.4420153931362556,-0.7809988465748183 l 27.08507819848889 15.637577188919629" fill="red" stroke="none" /><line stroke="#e1ed5e" stroke-width="0.3" x1="26.387840678322718" x2="22.05771365940052" y1="57.49999999999999" y2="54.99999999999999" /><path d="M 25.521815274538284 56.99999999999999 a86.0,86.0 0 0,1 29.574782752854787,-30.34633250058573" fill="none" id="id83" stroke="none" /><text fill="#e1ed5e" style="font-size:6.75px; font-family:Arial;" text-anchor="middle"><textPath startOffset="21.40746469413373" xlink:href="#id83">November</textPath></text><path d="M 81.81346652052679 89.5 l -18.670287809164353 -10.77929569246883 a42.55859138493766,42.55859138493766 0 0,0 0.37071834400711334,-0.6295607948953381 l 18.48249575502746 11.098207655657742" fill="red" stroke="none" /><path d="M 82.98947788004972 87.6856937992154 l -17.858213326067972 -12.927969261932075 a43.046500231030144,43.046500231030144 0 0,0 0.43845521254295367,-0.5948487035762554 l 17.633656093941198 13.232624274777194" fill="red" stroke="none" /><path d="M 84.10781606972428 86.27271002978789 l -15.8498810150441 -13.690749719575862 a41.94410074639448,41.94410074639448 0 0,0 0.4753443766594299,-0.5408546428747384 l 15.612525574426078 13.960816640261902" fill="red" stroke="none" /><path d="M 84.58840730492382 85.73525988315684 l -17.40022874761341 -16.105391958459215 a44.70973662031856,44.70973662031856 0 0,0 0.5261785990904531,-0.5587834380778207 l 17.121194314786685 16.401716856481546" fill="red" stroke="none" /><path d="M 84.83555147118756 85.47280134310135 l -22.609116850280593 -21.659022503654608 a52.30951006584834,52.30951006584834 0 0,0 0.6267506265667809,-0.643101356574128 l 22.23397942256301 22.043946552296468" fill="red" stroke="none" /><path d="M 85.08716467003674 85.21462403516908 l -15.390575112761455 -15.259032526158048 a42.67274500232727,42.67274500232727 0 0,0 0.5202175005156641,-0.5157712238097684 l 15.126365692115815 15.52098376019649" fill="red" stroke="none" /><path d="M 86.68645165197937 83.75963576809568 l -19.99788158946769 -24.394163929087618 a52.54347003526356,52.54347003526356 0 0,0 0.7024542254886897,-0.5658473999281082 l 19.576176593623753 24.733859622809124" fill="red" stroke="none" /><path d="M 88.4268655584334 82.4767994020092 l -18.45071355503827 -27.936731957400294 a54.47969269795802,54.47969269795802 0 0,0 0.7848042757787757,-0.5087006498235398 l 17.968423647002467 28.24934644892774" fill="red" stroke="none" /><path d="M 88.72937992617638 82.28071324371311 l -11.115115365148222 -17.47480752560358 a41.71025561497119,41.71025561497119 0 0,0 0.6074520173528134,-0.37909498578511064 l 10.81349921900571 17.663038308230227" fill="red" stroke="none" /><line stroke="#e1ed5e" stroke-width="0.3" x1="56.869717070023135" x2="54.33264160355391" y1="26.7553504044142" y2="22.446841604673864" /><path d="M 56.362301976729285 25.89364864446614 a86.0,86.0 0 0,1 42.16139366436587,-11.88097634709845" fill="none" id="id84" stroke="none" /><text fill="#e1ed5e" style="font-size:6.75px; font-family:Arial;" text-anchor="middle"><textPath startOffset="22.145653131862474" xlink:href="#id84">December</textPath></text><path d="M 90.61103034731259 81.2157712731953 l -14.94599453169902 -29.902000988217917 a54.42921500186569,54.42921500186569 0 0,0 0.8393496866222051,-0.4105679920760951 l 14.430484595814761 30.154162730391228" fill="red" stroke="none" /><path d="M 90.93487009805054 81.0573650232925 l -9.39267949852785 -19.627087655473627 a42.7587912807148,42.7587912807148 0 0,0 0.6648203778269199,-0.3111695055717833 l 9.054370406829406 19.785433392615953" fill="red" stroke="none" /><path d="M 91.92203290615298 80.6158196554323 l -8.22653860708277 -19.740697890773177 a42.38623600984053,42.38623600984053 0 0,0 0.6740330677340635,-0.27412338075114645 l 7.886451078158265 19.87900852810361" fill="red" stroke="none" /><path d="M 93.27111125876988 80.10723608172694 l -12.991107661788222 -38.40590143352217 a61.54358325557317,61.54358325557317 0 0,0 1.0036799004150379,-0.3299295188823796 l 12.329905023725424 38.62325187380658" fill="red" stroke="none" /><path d="M 95.35216902796891 79.52079915486377 l -4.779095595820747 -21.057576997501958 a42.59308462725316,42.59308462725316 0 0,0 0.7144231046590969,-0.15570519049626394 l 4.416910074542533 21.136513646131935" fill="red" stroke="none" /><path d="M 96.76829788921471 79.25015418208739 l -3.6098346947816053 -23.17772826118201 a44.457152296748305,44.457152296748305 0 0,0 0.7550833381155129,-0.11097124798016986 l 3.2114262510584077 23.236280582461067" fill="red" stroke="none" /><path d="M 97.84075906011542 79.11130261209362 l -3.3136779155420286 -32.05682790659105 a53.22763839875249,53.22763839875249 0 0,0 0.9096867933950847,-0.08614828513230818 l 2.7628915587619285 32.10898794722855" fill="red" stroke="none" /><path d="M 98.1996594967304 79.07731436759882 l -2.954135883880378 -34.33153689625637 a55.458400201974584,55.458400201974584 0 0,0 0.9492127872740012,-0.07347507297623336 l 2.36435410183116 34.377189736227656" fill="red" stroke="none" /></svg>