<?xml version="1.0" encoding="utf-8" ?>
<svg baseProfile="full" height="200mm" version="1.1" viewBox="0,0,200,200" width="200mm" xmlns="http://www.w3.org/2000/svg" xmlns:ev="http://www.w3.org/2001/xml-events" xmlns:xlink="http://www.w3.org/1999/xlink"><defs /><rect fill="#1a1a1a" height="200" width="200" x="0" y="0" /><rect fill="#1a1a1a" height="200" width="180" x="10" y="0" /><text alignment-baseline="middle" fill="#e1ed5e" style="dominant-baseline: central; font-size:9.0px; font-family:Arial;" text-anchor="middle" x="100.0" y="100.0">2025</text><line stroke="#e1ed5e" stroke-width="0.3" x1="100.0" x2="100.0" y1="15.0" y2="10.0" /><path d="M 100.0 14.0 a86.0,86.0 0 0,1 42.46469731375804,11.215312516191453" fill="none" id="id133" stroke="none" /><text fill="#e1ed5e" style="font-size:6.75px; font-family:Arial;" text-anchor="middle"><textPath startOffset="22.20632615414155" xlink:href="#id133">January</textPath></text><path d="M 102.88285421437855 79.19881850522331 l 2.3203301175217477 -16.742299233043493 a37.90232278306882,37.90232278306882 0 0,0 0.6454783971919567,0.09512673684662386 l -2.60817749514236 16.699878012035903" fill="red" stroke="none" /><path d="M 105.01212808612495 79.60689891045804 l 7.084845493096652 -28.82647208168412 a50.684348204688035,50.684348204688035 0 0,0 0.8454417456616823,0.2155219255148792 l -7.579996127443359 28.700247160000373" fill="red" stroke="none" /><path d="M 106.74666289553966 80.11325718540242 l 8.819854742651753 -25.99776891849498 a48.45312052246411,48.45312052246411 0 0,0 0.7875200949337199,0.2747502977599634 l -9.266056841648746 25.84209776756281" fill="red" stroke="none" /><path d="M 107.08798089147638 80.2323363322302 l 11.360373688427352 -31.68293617764497 a54.65808276146217,54.65808276146217 0 0,0 0.8829041767653918,0.3251810594375495 l -11.90406019096532 31.482691850401096" fill="red" stroke="none" /><path d="M 107.4271985657038 80.35727306442388 l 8.309250675038303 -21.97549191733 a44.49395436679957,44.49395436679957 0 0,0 0.7140576989213351,0.277043293629529 l -8.686291538959305 21.829205919809922" fill="red" stroke="none" /><path d="M 107.76421540070413 80.48803036053334 l 8.125801249017849 -20.420657991121374 a42.97798714006561,42.97798714006561 0 0,0 0.6850202642096574,0.27943696560562303 l -8.476105382815895 20.27776013933217" fill="red" stroke="none" /><line stroke="#e1ed5e" stroke-width="0.3" x1="143.23703022742887" x2="145.7803849466894" y1="26.81831364943548" y2="22.513508569990506" /><path d="M 143.74570117128098 25.957352633546492 a86.0,86.0 0 0,1 28.547481713284135,27.462654790039103" fill="none" id="id134" stroke="none" /><text fill="#e1ed5e" style="font-size:6.75px; font-family:Arial;" text-anchor="middle"><textPath startOffset="19.985693538727396" xlink:href="#id134">February</textPath></text><path d="M 111.60114157652 82.49532879139004 l 15.3077251883163 -23.097442144449097 a48.709534172504355,48.709534172504355 0 0,0 0.6949117988441159,0.4692075485989755 l -15.703041681566958 22.83052268355145" fill="red" stroke="none" /><path d="M 114.16331599549186 84.49514656593476 l 18.673892303726902 -20.44266775555689 a48.68784785307945,48.68784785307945 0 0,0 0.6139122984043539,0.5705645747875482 l -19.023012485926102 20.1181985946947" fill="red" stroke="none" /><path d="M 114.42810811169701 84.74124197986012 l 19.053170203442136 -20.150092541597125 a48.73174217816586,48.73174217816586 0 0,0 0.604544543112937,0.5815713714946317 l -19.39719799016749 19.819138083340192" fill="red" stroke="none" /><path d="M 115.19652480421416 85.50635884689758 l 19.959724369468155 -19.036528828333292 a48.58224114783107,48.58224114783107 0 0,0 0.5719579801740499,0.6101248946327832 l -20.284449671612666 18.690134516822454" fill="red" stroke="none" /><path d="M 115.4437574822437 85.77008943001954 l 20.37115717875674 -18.7700269959568 a48.70014364999863,48.70014364999863 0 0,0 0.5627333123611789,0.6213841785995097 l -20.691234131733953 18.416590030087743" fill="red" stroke="none" /><path d="M 115.9244219780498 86.31012108654704 l 20.736218327447183 -17.826475486329777 a48.34545627317769,48.34545627317769 0 0,0 0.5370705635550012,0.6357221464731136 l -21.039999504489302 17.46689439022756" fill="red" stroke="none" /><path d="M 117.45458315368197 88.32363383020206 l 21.57370667886469 -14.431882824374512 a46.95580978744772,46.95580978744772 0 0,0 0.4436281262534718,0.6756760718603351 l -21.818931440476085 14.058388688536501" fill="red" stroke="none" /><line stroke="#e1ed5e" stroke-width="0.3" x1="172.23445277983987" x2="176.4835382374775" y1="55.19839476539836" y2="52.563006222186495" /><path d="M 173.08426987136738 54.67131705675599 a86.0,86.0 0 0,1 12.851231095245387,41.99856678651699" fill="none" id="id135" stroke="none" /><text fill="#e1ed5e" style="font-size:6.75px; font-family:Arial;" text-anchor="middle"><textPath startOffset="22.20632615414155" xlink:href="#id135">March</textPath></text><path d="M 118.21658344932153 89.55222093294921 l 23.584146015394307 -13.526243696541414 a48.187703319950835,48.187703319950835 0 0,0 0.406480163180788,0.7230828540231612 l -23.81348381986753 13.118277332583459" fill="red" stroke="none" /><path d="M 118.3937258080291 89.86733742301442 l 24.832003528924695 -13.679355422340612 a49.35054080668036,49.35054080668036 0 0,0 0.40348038836646033,0.7475878815920249 l -25.06379201650962 13.249886557416128" fill="red" stroke="none" /><path d="M 118.56541770881063 90.18545643968196 l 23.889029790771623 -12.628852588864477 a48.021725741625815,48.021725741625815 0 0,0 0.38003608674429645,0.7341087565330695 l -24.102875310676037 12.215771110071064" fill="red" stroke="none" /><path d="M 119.34039704204932 91.81776055985345 l 25.006504478144183 -10.579369531887956 a48.152317136990064,48.152317136990064 0 0,0 0.31637978528965416,0.7661387450983609 l -25.184905950320037 10.147356216336291" fill="red" stroke="none" /><path d="M 119.47837535516314 92.15188598940014 l 25.57537597161889 -10.304682132332795 a48.57329015438817,48.57329015438817 0 0,0 0.30579534580370527,0.7782158003776046 l -25.748964867304295 9.862917327059407" fill="red" stroke="none" /><path d="M 119.61058180528143 92.48833698450437 l 25.346945652887396 -9.708927359069738 a48.14278770491565,48.14278770491565 0 0,0 0.2897632125067481,0.7764213483125532 l -25.51031345389577 9.271182873727852" fill="red" stroke="none" /><path d="M 119.7369772167798 92.82701384747503 l 26.173811484275195 -9.512317173669842 a48.848744776504205,48.848744776504205 0 0,0 0.28040788995788046,0.7927508650434831 l -26.333672455042883 9.060368682199744" fill="red" stroke="none" /><path d="M 119.85752413597 93.16781622104841 l 25.69017000768419 -8.838965099736217 a48.168219283899916,48.168219283899916 0 0,0 0.26300468463270366,0.786350531183665 l -25.838511986088665 8.395441465630238" fill="red" stroke="none" /><path d="M 120.18372546131832 94.20196356495316 l 25.88422797121435 -7.435579579091097 a47.931043450687014,47.931043450687014 0 0,0 0.2209694812659515,0.7949447928194935 l -26.008384223046665 6.988923482852651" fill="red" stroke="none" /><path d="M 120.28053869075195 94.5502522615342 l 26.305063011673873 -7.068646441992252 a48.23824705391341,48.23824705391341 0 0,0 0.2085814179353287,0.8037492890200924 l -26.422840761479506 6.614800727423309" fill="red" stroke="none" /><path d="M 120.37134235888165 94.90015583598534 l 26.3592800355855 -6.598888678462542 a48.172724850208844,48.172724850208844 0 0,0 0.19445080901705905,0.8061241401700624 l -26.468963644863376 6.144179306633073" fill="red" stroke="none" /><path d="M 120.45610955862082 95.25157060432595 l 22.166475210277717 -5.145452618218152 a43.755841137918516,43.755841137918516 0 0,0 0.1639919190000637,0.7351436172934 l -22.251761516279817 4.763130831374788" fill="red" stroke="none" /><path d="M 120.91429891909075 98.10471618934814 l 21.1654049917196 -1.9180394036579198 a42.25213503668498,42.25213503668498 0 0,0 0.05940552841364454,0.7248979153321724 l -21.19528500395274 1.5534275711179786" fill="red" stroke="none" /><line stroke="#e1ed5e" stroke-width="0.3" x1="184.98032266829074" x2="189.97916517819016" y1="98.17113171792111" y2="98.06355123074" /><path d="M 185.9800911702706 98.14961562048488 a86.0,86.0 0 0,1 -9.607161424134198,41.387399972396054" fill="none" id="id136" stroke="none" /><text fill="#e1ed5e" style="font-size:6.75px; font-family:Arial;" text-anchor="middle"><textPath startOffset="21.466115282336823" xlink:href="#id136">April</textPath></text><path d="M 120.99824983174949 100.27111621757518 l 16.626320253502367 0.21466860788119763 a37.62770602889144,37.62770602889144 0 0,0 -0.01393647327617546,0.6475731508236696 l -16.620161717541183 -0.5008315744949821" fill="red" stroke="none" /><path d="M 120.8583938346157 102.4346265915055 l 26.373957254017405 3.078412372639114 a47.553008190650544,47.553008190650544 0 0,0 -0.10189588568340685,0.8122104651529733 l -26.317059859087152 -3.531940592079482" fill="red" stroke="none" /><path d="M 120.81339534386255 102.79330883721812 l 26.922875040341516 3.613245389858078 a48.16425487078883,48.16425487078883 0 0,0 -0.11735094321629484,0.8207522235334004 l -26.856690046108618 -4.076143085371887" fill="red" stroke="none" /><path d="M 120.76222939487914 103.15116336523771 l 27.69458231907352 4.20331321649634 a49.01174274878149,49.01174274878149 0 0,0 -0.13377462428838086,0.8330147131415984 l -27.618125940423848 -4.679407159331143" fill="red" stroke="none" /><path d="M 120.49622156327973 104.57218783832717 l 26.97615765172513 6.017697435559803 a48.639207008824826,48.639207008824826 0 0,0 -0.1893210121184776,0.8155899652151704 l -26.868576073676103 -6.481156058123538" fill="red" stroke="none" /><path d="M 120.41448212921028 104.9243191809786 l 26.208661812423717 6.3219735506311405 a47.96036541986916,47.96036541986916 0 0,0 -0.20049416410185358,0.8008745221464733 l -26.095956334026802 -6.772175912175009" fill="red" stroke="none" /><path d="M 120.32669344350535 105.2749913415812 l 26.20105354369536 6.799449746582303 a48.068943896204914,48.068943896204914 0 0,0 -0.21473524262486518,0.799109721278144 l -26.080130224728716 -7.249450401035995" fill="red" stroke="none" /><path d="M 120.23288151984713 105.62410040840565 l 26.545136358751442 7.378707382336605 a48.551580479871866,48.551580479871866 0 0,0 -0.23075262965277807,0.80328017572234 l -26.414191092212565 -7.834545033563527" fill="red" stroke="none" /><path d="M 119.9155931802556 106.66101706037122 l 24.96534574106997 8.34996941312289 a47.324712290379324,47.324712290379324 0 0,0 -0.265039051824866,0.7703275466331871 l -24.817915858301873 -8.778469662845378" fill="red" stroke="none" /><path d="M 119.79798401119884 107.00284435728193 l 25.613246283365562 9.059789981933495 a48.16833045457675,48.16833045457675 0 0,0 -0.2832200094773003,0.7792998279275769 l -25.453502012883035 -9.499337606867204" fill="red" stroke="none" /><path d="M 119.54520255179757 107.68017299344265 l 25.107223812581868 9.865736707240064 a47.976016169028036,47.976016169028036 0 0,0 -0.30863973156098845,0.7660185023742143 l -24.93368146676349 -10.29645457745709" fill="red" stroke="none" /><path d="M 118.64920377521936 109.65438752849418 l 18.61897847370857 9.63874038465534 a41.96596469536303,41.96596469536303 0 0,0 -0.33762116548591775,0.6386520092411149 l -18.450304799997756 -9.95780740898259" fill="red" stroke="none" /><line stroke="#e1ed5e" stroke-width="0.3" x1="174.80103733775053" x2="179.2010983576182" y1="140.37084112569926" y2="142.7455964860345" /><path d="M 175.68104954172406 140.8457921977663 a86.0,86.0 0 0,1 -30.038265399797805,32.042727171017184" fill="none" id="id137" stroke="none" /><text fill="#e1ed5e" style="font-size:6.75px; font-family:Arial;" text-anchor="middle"><textPath startOffset="22.206326154141568" xlink:href="#id137">May</textPath></text><path d="M 117.14729908036423 112.12312394758627 l 21.934986348230673 15.508014238389583 a47.86339762046417,47.86339762046417 0 0,0 -0.48141508490492957,0.6686434471797371 l -21.66479147095014 -15.883291291020452" fill="red" stroke="none" /><path d="M 116.93607887273984 112.41649034213515 l 21.72260251499188 15.925674789314641 a47.93508079659951,47.93508079659951 0 0,0 -0.4935914834440522,0.6612464536407259 l -21.445249764852736 -16.297234122464683" fill="red" stroke="none" /><path d="M 116.27256486870786 113.27417163493432 l 22.08163709083947 18.01286048567525 a49.49669874718716,49.49669874718716 0 0,0 -0.5442374158471313,0.6555690269790976 l -21.7683036750988 -18.390290769768118" fill="red" stroke="none" /><path d="M 116.0416608686014 113.55231037782055 l 20.960683882716292 17.707997696545146 a48.439450636847866,48.439450636847866 0 0,0 -0.5435771130880814,0.6323029868378433 l -20.65276426005743 -18.066177782544518" fill="red" stroke="none" /><path d="M 115.80600337817218 113.82643327865902 l 20.950442666364573 18.326574451128504 a48.834948877793636,48.834948877793636 0 0,0 -0.5589070376501672,0.6279379817327889 l -20.63187677906607 -18.68448660260216" fill="red" stroke="none" /><path d="M 115.56566222782051 114.09645910891815 l 19.674328048525894 17.817318452137542 a47.543097426372334,47.543097426372334 0 0,0 -0.5545644042666309,0.6018701330313797 l -19.36471723626354 -18.153339839970258" fill="red" stroke="none" /><path d="M 115.32070863581623 114.36230785411682 l 20.01091785774605 18.759116797281276 a48.42884059750795,48.42884059750795 0 0,0 -0.5753656406376508,0.6032685739270592 l -19.685045665729433 -19.10079248779084" fill="red" stroke="none" /><path d="M 115.07121518719521 114.62390073753431 l 12.132319811582972 11.772231929337156 a37.90498827590939,37.90498827590939 0 0,0 -0.45839652999177144,0.4643532647394832 l -11.927882656535665 -11.979325688057303" fill="red" stroke="none" /><path d="M 111.7513745106137 117.40417183066458 l 15.547039877121856 23.025676973807222 a48.782948890334396,48.782948890334396 0 0,0 -0.6999779414634736,0.4639072109714691 l -15.148387236918419 -23.28988220587001" fill="red" stroke="none" /><path d="M 111.45004920935366 117.60387380957326 l 11.516899530721648 17.70665281077877 a42.12260704937239,42.12260704937239 0 0,0 -0.6112154720557151,0.39010663292511644 l -11.210402256619002 -17.902273872527697" fill="red" stroke="none" /><line stroke="#e1ed5e" stroke-width="0.3" x1="143.8653032363475" x2="146.44561519142675" y1="172.8068346515853" y2="177.08958963109032" /><path d="M 144.38136562736335 173.6633856474863 a86.0,86.0 0 0,1 -40.68145358897372,12.25698825130547" fill="none" id="id138" stroke="none" /><text fill="#e1ed5e" style="font-size:6.75px; font-family:Arial;" text-anchor="middle"><textPath startOffset="21.466115282336833" xlink:href="#id138">June</textPath></text><path d="M 109.89434966115114 118.52300852407294 l 10.007691729812818 18.735193879943203 a42.24055986733931,42.24055986733931 0 0,0 -0.6442874098991898,0.3370607219557393 l -9.683713417387132 -18.90468402084366" fill="red" stroke="none" /><path d="M 109.57404056367764 118.69057910512821 l 14.34104948901022 27.99680220092383 a52.45610646478508,52.45610646478508 0 0,0 -0.8071898010605897,0.40474172323717345 l -13.85700578026687 -28.239511765070304" fill="red" stroke="none" /><path d="M 109.2508944713604 118.85261126421891 l 11.74529326257185 23.936004107390286 a47.662411864886124,47.662411864886124 0 0,0 -0.739646487586752,0.3550752622846697 l -11.331534106984865 -24.134633646174514" fill="red" stroke="none" /><path d="M 107.93186726928326 119.44442032107085 l 10.632507648288595 26.06485216677177 a49.150075263959465,49.150075263959465 0 0,0 -0.78611782819619,0.3128125074622571 l -10.182268744050537 -26.244011518640097" fill="red" stroke="none" /><path d="M 107.2578585660854 119.70592522655815 l 7.066578210552749 19.186576943712097 a41.44654646689371,41.44654646689371 0 0,0 -0.671592811530224,0.2408092880870121 l -6.735265838392791 -19.30537377283907" fill="red" stroke="none" /><path d="M 104.83641907484287 120.43548508189849 l 4.342880836148183 18.35012127075702 a39.85702958072857,39.85702958072857 0 0,0 -0.6689904682028326,0.15226005251699531 l -4.026370218552488 -18.4221580568517" fill="red" stroke="none" /><path d="M 104.48393922423573 120.51570834832081 l 5.725404986778847 26.19588112387879 a47.81425833617296,47.81425833617296 0 0,0 -0.805575850702835,0.16881625198206415 l -5.2736376746466345 -26.290553356587395" fill="red" stroke="none" /><path d="M 103.06178313531738 120.77559828337769 l 4.079270088306771 27.679712408917947 a48.978686950851724,48.978686950851724 0 0,0 -0.8351365446814609,0.11574231531132444 l -3.602204952438479 -27.745829289721875" fill="red" stroke="none" /><path d="M 102.70371172650421 120.8252237178851 l 4.041052913933661 31.126036908265398 a52.38726305793341,52.38726305793341 0 0,0 -0.89525486156599,0.10840289608135487 l -3.5046706293162906 -31.190985333072103" fill="red" stroke="none" /><path d="M 102.34483914955558 120.86867818915974 l 2.1155983686255424 18.82847339047771 a39.9469566599298,39.9469566599298 0 0,0 -0.6839820704628328,0.07089753823743007 l -1.7911837015571068 -18.8621002971709" fill="red" stroke="none" /><line stroke="#e1ed5e" stroke-width="0.3" x1="102.19456741930631" x2="102.32365962044197" y1="184.97166512339345" y2="189.96999836594603" /><path d="M 102.22038585953345 185.97133177190398 a86.0,86.0 0 0,1 -42.740103519485714,-10.115201625700543" fill="none" id="id139" stroke="none" /><text fill="#e1ed5e" style="font-size:6.75px; font-family:Arial;" text-anchor="middle"><textPath startOffset="22.20632615414155" xlink:href="#id139">July</textPath></text><path d="M 99.81925306533755 120.99922214144158 l -0.18350271716124192 21.319389611909276 a42.32017933019304,42.32017933019304 0 0,0 -0.7283913686144228,-0.012539917972960187 l 0.5504537756683325 -21.313072216657154" fill="red" stroke="none" /><path d="M 98.37488393609728 120.93702456842531 l -2.3000108679118387 29.631966059993395 a50.72109457225815,50.72109457225815 0 0,0 -0.8698804962174963,-0.07505694947988328 l 2.8097356818708765 -29.587984858234847" fill="red" stroke="none" /><path d="M 98.01472825383883 120.90594882070398 l -2.6019071236947005 27.399441547167598 a48.522705495226795,48.522705495226795 0 0,0 -0.8308182485995336,-0.08611770847820151 l 3.073157968899827 -27.350594470233638" fill="red" stroke="none" /><path d="M 95.86986931433489 120.58985236759428 l -5.973191941450848 29.77802631394735 a51.371201377679384,51.371201377679384 0 0,0 -0.8655033182882579,-0.18137463547844734 l 6.484886721168492 -29.67079569774236" fill="red" stroke="none" /><path d="M 95.51606077576429 120.51570834832081 l -13.451817672707142 61.54712504496245 a84.0,84.0 0 0,0 -1.4099194024285495,-0.320893065689253 l 14.509257224528554 -61.30645524569551" fill="red" stroke="none" /><path d="M 95.16358092515715 120.4354850818985 l -12.320305681739883 52.057404262844095 a74.49545093441769,74.49545093441769 0 0,0 -1.2453039691476504,-0.30606541752145144 l 13.214562935630743 -51.837617587008616" fill="red" stroke="none" /><path d="M 92.40401165467489 119.57807347666478 l -19.125964941249308 49.29569792749158 a73.87597156641564,73.87597156641564 0 0,0 -1.1815896112423796,-0.47017889154376913 l 19.971675628533543 -48.95917219154175" fill="red" stroke="none" /><path d="M 90.42595943632237 118.69057910512821 l -9.593971001818861 18.729487591905656 a42.04371604634241,42.04371604634241 0 0,0 -0.6412849876779158,-0.3354899965528063 l 9.914946892023274 -18.56156817640813" fill="red" stroke="none" /><path d="M 90.10565033884886 118.52300852407294 l -19.904239971730807 37.26231832185612 a63.24522618677264,63.24522618677264 0 0,0 -0.9558377166614154,-0.5211989344375745 l 20.54270050026086 -36.91417873565878" fill="red" stroke="none" /><line stroke="#e1ed5e" stroke-width="0.3" x1="58.666819895761336" x2="56.23545636021788" y1="174.27360380694188" y2="178.64263932499728" /><path d="M 58.180547188652646 175.14741091055294 a86.0,86.0 0 0,1 -31.652253787137756,-30.449443065178592" fill="none" id="id140" stroke="none" /><text fill="#e1ed5e" style="font-size:6.75px; font-family:Arial;" text-anchor="middle"><textPath startOffset="22.20632615414155" xlink:href="#id140">August</textPath></text><path d="M 86.51685102203217 116.09983520530335 l -21.606340848174412 25.79950185328672 a54.651868606739136,54.651868606739136 0 0,0 -0.7160293249184998,-0.6102157246200139 l 22.047235649669968 -25.423761738443755" fill="red" stroke="none" /><path d="M 86.24171649860922 115.8653595955263 l -27.03515857118785 31.175583233955876 a62.26520070163942,62.26520070163942 0 0,0 -0.803688514189784,-0.7091616705112378 l 27.567789438284223 -30.70559842167235" fill="red" stroke="none" /><path d="M 84.67929136418377 114.36230785411682 l -30.533980964026984 28.623900175994343 a62.85273772164554,62.85273772164554 0 0,0 -0.7331430415342579,-0.7956819740761758 l 31.02217041355697 -28.094066947116826" fill="red" stroke="none" /><path d="M 84.19399662182784 113.82643327865904 l -39.73416458606962 34.75779185845522 a73.79117284384355,73.79117284384355 0 0,0 -0.8280686956290034,-0.9632309693441573 l 40.3265757912694 -34.06868378994953" fill="red" stroke="none" /><path d="M 83.28015986056508 112.70617746262583 l -42.541684485569306 32.32938760926147 a74.43205238487099,74.43205238487099 0 0,0 -0.7664329869042655,-1.0267622346469343 l 43.091878739168656 -31.592312495105226" fill="red" stroke="none" /><path d="M 83.06392112726016 112.41649034213515 l -42.52277863695671 31.175083337404708 a73.72639305036662,73.72639305036662 0 0,0 -0.7415478117855242,-1.0299450529656342 l 43.05310624111784 -30.438504678987933" fill="red" stroke="none" /><path d="M 82.6465618267979 111.8261652097733 l -43.40665794283167 29.58112985522131 a73.52790874646979,73.52790874646979 0 0,0 -0.703756253508744,-1.0520201120931965 l 43.90941730175115 -28.82957282892229" fill="red" stroke="none" /><line stroke="#e1ed5e" stroke-width="0.3" x1="26.63291911575756" x2="22.317208475507996" y1="142.92168965132927" y2="145.44649492493687" /><path d="M 25.769776987707644 143.4266507060508 a86.0,86.0 0 0,1 -11.730757126820373,-40.83630448921669" fill="none" id="id141" stroke="none" /><text fill="#e1ed5e" style="font-size:6.75px; font-family:Arial;" text-anchor="middle"><textPath startOffset="21.46611528233685" xlink:href="#id141">September</textPath></text><path d="M 81.87401531095188 110.60418214915194 l -23.781362546292712 13.912728302605158 a48.552081833871,48.552081833871 0 0,0 -0.4158092857365775,-0.7249985383507316 l 24.017323828181667 -13.50130991839612" fill="red" stroke="none" /><path d="M 81.69416730710424 110.29060199501025 l -18.81672221184311 10.577797928192233 a42.58607986196979,42.58607986196979 0 0,0 -0.3537150931861541,-0.6420956376268774 l 18.99601371448078 -10.252331772167532" fill="red" stroke="none" /><line stroke="#e1ed5e" stroke-width="0.3" x1="15.007084014347285" x2="10.007500721073583" y1="101.09737516637583" y2="101.16192664675087" /><path d="M 14.007167355692545 101.11028546245083 a86.0,86.0 0 0,1 10.666146001902534,-42.60595125391555" fill="none" id="id142" stroke="none" /><text fill="#e1ed5e" style="font-size:6.75px; font-family:Arial;" text-anchor="middle"><textPath startOffset="22.20632615414155" xlink:href="#id142">October</textPath></text><line stroke="#e1ed5e" stroke-width="0.3" x1="26.266209847984243" x2="21.928928074336255" y1="57.711370442889674" y2="55.22380399835377" /><path d="M 25.398753493254645 57.213857153982495 a86.0,86.0 0 0,1 29.58750427330803,-30.492523968695096" fill="none" id="id143" stroke="none" /><text fill="#e1ed5e" style="font-size:6.75px; font-family:Arial;" text-anchor="middle"><textPath startOffset="21.46611528233685" xlink:href="#id143">November</textPath></text><line stroke="#e1ed5e" stroke-width="0.3" x1="56.762969772571076" x2="54.21961505331055" y1="26.818313649435495" y2="22.513508569990535" /><path d="M 56.25429882871897 25.957352633546506 a86.0,86.0 0 0,1 42.265352541879196,-11.944610805530505" fill="none" id="id144" stroke="none" /><text fill="#e1ed5e" style="font-size:6.75px; font-family:Arial;" text-anchor="middle"><textPath startOffset="22.20632615414155" xlink:href="#id144">December</textPath></text></svg>