<?xml version="1.0" encoding="utf-8" ?>
<svg baseProfile="full" height="200mm" version="1.1" viewBox="0,0,200,200" width="200mm" xmlns="http://www.w3.org/2000/svg" xmlns:ev="http://www.w3.org/2001/xml-events" xmlns:xlink="http://www.w3.org/1999/xlink"><defs /><rect fill="#1a1a1a" height="200" width="200" x="0" y="0" /><rect fill="#1a1a1a" height="200" width="180" x="10" y="0" /><text alignment-baseline="middle" fill="#e1ed5e" style="dominant-baseline: central; font-size:9.0px; font-family:Arial;" text-anchor="middle" x="100.0" y="100.0">2025</text><line stroke="#e1ed5e" stroke-width="0.3" x1="100.0" x2="100.0" y1="15.0" y2="10.0" /><path d="M 100.0 14.0 a86.0,86.0 0 0,1 42.46469731375804,11.215312516191453" fill="none" id="id133" stroke="none" /><text fill="#e1ed5e" style="font-size:6.75px; font-family:Arial;" text-anchor="middle"><textPath startOffset="22.20632615414155" xlink:href="#id133">January</textPath></text><path d="M 102.88285421437855 79.19881850522331 l 4.343111235416064 -31.337639138775447 a52.637165517715204,52.637165517715204 0 0,0 0.8964134843545758,0.1321080457578875 l -4.881893700199296 31.25823660885659" fill="red" stroke="none" /><path d="M 105.01212808612495 79.60689891045804 l 13.261161345058712 -53.95636329070594 a76.5621052496962,76.5621052496962 0 0,0 1.277096425358579,0.32556031456198403 l -14.187966659102317 53.72009997997508" fill="red" stroke="none" /><path d="M 106.74666289553966 80.11325718540242 l 16.508689836108832 -48.66169750288035 a72.38577277775119,72.38577277775119 0 0,0 1.1765031856587274,0.41045886023071715 l -17.343875025830833 48.370317789477426" fill="red" stroke="none" /><path d="M 107.08798089147638 80.2323363322302 l 21.26394267442914 -59.302991003309366 a84.0,84.0 0 0,0 1.3568706969096942,0.49974692877470117 l -22.28159569711141 58.92818080672834" fill="red" stroke="none" /><path d="M 107.4271985657038 80.35727306442388 l 15.552959336316993 -41.13294273484182 a64.97514664153954,64.97514664153954 0 0,0 1.0427484892768653,0.4045702137696633 l -16.258690990593525 40.8591298171816" fill="red" stroke="none" /><path d="M 107.76421540070413 80.48803036053334 l 15.209585237406005 -38.222659993981146 a62.137613203847955,62.137613203847955 0 0,0 0.9904029259335957,0.40401022102480577 l -15.865272032927988 37.95518888677276" fill="red" stroke="none" /><line stroke="#e1ed5e" stroke-width="0.3" x1="143.23703022742887" x2="145.7803849466894" y1="26.81831364943548" y2="22.513508569990506" /><path d="M 143.74570117128098 25.957352633546492 a86.0,86.0 0 0,1 28.547481713284135,27.462654790039103" fill="none" id="id134" stroke="none" /><text fill="#e1ed5e" style="font-size:6.75px; font-family:Arial;" text-anchor="middle"><textPath startOffset="19.985693538727396" xlink:href="#id134">February</textPath></text><path d="M 111.60114157652 82.49532879139004 l 28.65245455894269 -43.23296919236285 a72.86571871130363,72.86571871130363 0 0,0 1.0395346316476177,0.7018984236710772 l -29.39239388499685 42.7333588563931" fill="red" stroke="none" /><path d="M 114.16331599549186 84.49514656593476 l 34.95312622149151 -38.26385708679431 a72.82512703133622,72.82512703133622 0 0,0 0.9182628333112678,0.8534252276639798 l -35.60659693859762 37.656527273055694" fill="red" stroke="none" /><path d="M 114.42810811169701 84.74124197986012 l 35.663045079657095 -37.71622522641487 a72.90728686497982,72.90728686497982 0 0,0 0.9044557090992137,0.8700856755541244 l -36.306984032368725 37.09675646409844" fill="red" stroke="none" /><path d="M 115.19652480421416 85.50635884689758 l 37.35990086506838 -35.63189634669784 a72.62745616345586,72.62745616345586 0 0,0 0.8550419278935238,0.9120991126024631 l -37.96771011493237 34.98352781721732" fill="red" stroke="none" /><path d="M 115.4437574822437 85.77008943001954 l 38.13000613722188 -35.133067712912954 a72.84814186588277,72.84814186588277 0 0,0 0.8417649949076985,0.9294979316931314 l -38.72911477274562 34.47151699395027" fill="red" stroke="none" /><path d="M 115.9244219780498 86.31012108654704 l 38.81331458739396 -33.366961618047554 a72.1842506722553,72.1842506722553 0 0,0 0.8018961692963136,0.9491921333748785 l -39.38192137017739 32.693910535043564" fill="red" stroke="none" /><path d="M 117.45458315368197 88.32363383020206 l 40.38089544199076 -27.013084030342334 a69.58315989648395,69.58315989648395 0 0,0 0.6574063355185676,1.0012749510509806 l -40.83989841286725 26.31399101531368" fill="red" stroke="none" /><line stroke="#e1ed5e" stroke-width="0.3" x1="172.23445277983987" x2="176.4835382374775" y1="55.19839476539836" y2="52.563006222186495" /><path d="M 173.08426987136738 54.67131705675599 a86.0,86.0 0 0,1 12.851231095245387,41.99856678651699" fill="none" id="id135" stroke="none" /><text fill="#e1ed5e" style="font-size:6.75px; font-family:Arial;" text-anchor="middle"><textPath startOffset="22.20632615414155" xlink:href="#id135">March</textPath></text><path d="M 118.21658344932153 89.55222093294921 l 44.14396415564863 -25.317940980815685 a71.88897431549645,71.88897431549645 0 0,0 0.6064086893007021,1.0787333933660475 l -44.57323048624177 24.554324077514842" fill="red" stroke="none" /><path d="M 118.3937258080291 89.86733742301442 l 46.4796593855156 -25.60453005345277 a74.06553208865162,74.06553208865162 0 0,0 0.6055453326998278,1.1219835350952418 l -46.9135128174339 24.800665535025068" fill="red" stroke="none" /><path d="M 118.56541770881063 90.18545643968196 l 44.71463474270784 -23.638236281521902 a71.5783033985407,71.5783033985407 0 0,0 0.5664589912019357,1.0942184707265061 l -45.11490316706989 22.86504508853505" fill="red" stroke="none" /><path d="M 119.34039704204932 91.81776055985345 l 46.80628404440482 -19.802086923146756 a71.82273971911948,71.82273971911948 0 0,0 0.4719038318883721,1.1427525599938764 l -47.14020956317939 18.993459792699575" fill="red" stroke="none" /><path d="M 119.47837535516314 92.15188598940014 l 47.871077435724814 -19.28793683638693 a72.61070201287339,72.61070201287339 0 0,0 0.45712395970093617,1.1633306165450916 l -48.195994945307454 18.461057214946056" fill="red" stroke="none" /><path d="M 119.61058180528143 92.48833698450437 l 47.44350970460729 -18.172824279870593 a71.8049028677176,71.8049028677176 0 0,0 0.4321814402650474,1.1580313928167634 l -47.74929573337396 17.353469750024495" fill="red" stroke="none" /><path d="M 119.7369772167798 92.82701384747503 l 48.991207704716686 -17.80481634050051 a73.1262881594848,73.1262881594848 0 0,0 0.4197689880685712,1.1867434559697034 l -49.290429773595065 16.95887525810419" fill="red" stroke="none" /><path d="M 119.85752413597 93.16781622104841 l 48.08594482206314 -16.544459921554697 a71.85250479107623,71.85250479107623 0 0,0 0.39232393564865037,1.1729986316563918 l -48.363606051483565 15.714288186975992" fill="red" stroke="none" /><path d="M 120.18372546131832 94.20196356495316 l 48.449175603478835 -13.917652909781758 a71.40856751757468,71.40856751757468 0 0,0 0.3292044776479195,1.1843236621626598 l -48.68156685169311 13.081617944200147" fill="red" stroke="none" /><path d="M 120.28053869075195 94.5502522615342 l 49.23687963691552 -13.23084053840998 a71.98358027574112,71.98358027574112 0 0,0 0.3112558635307534,1.1993958114415755 l -49.45733183231658 12.381348301419555" fill="red" stroke="none" /><path d="M 120.37134235888165 94.90015583598534 l 49.33836113039925 -12.351564695156748 a71.86093814954984,71.86093814954984 0 0,0 0.290069071312752,1.2025235682172286 l -49.543663001972824 11.500455895280114" fill="red" stroke="none" /><path d="M 120.45610955862082 95.25157060432595 l 41.490418457418706 -9.631074866774775 a63.59357260034818,63.59357260034818 0 0,0 0.23834148163051574,1.068438128081529 l -41.650054326051254 8.915458569143281" fill="red" stroke="none" /><path d="M 120.91429891909075 98.10471618934814 l 39.616650892696555 -3.5901178117252805 a60.77898910047693,60.77898910047693 0 0,0 0.08545385838670876,1.042753519003931 l -39.67257923490276 2.907650375513581" fill="red" stroke="none" /><line stroke="#e1ed5e" stroke-width="0.3" x1="184.98032266829074" x2="189.97916517819016" y1="98.17113171792111" y2="98.06355123074" /><path d="M 185.9800911702706 98.14961562048488 a86.0,86.0 0 0,1 -9.607161424134198,41.387399972396054" fill="none" id="id136" stroke="none" /><text fill="#e1ed5e" style="font-size:6.75px; font-family:Arial;" text-anchor="middle"><textPath startOffset="21.466115282336823" xlink:href="#id136">April</textPath></text><path d="M 120.99824983174949 100.27111621757518 l 31.120553817461275 0.40180905110852894 a52.123147662456255,52.123147662456255 0 0,0 -0.019305265484699283,0.8970398284898743 l -31.10902648929157 -0.9374386953885181" fill="red" stroke="none" /><path d="M 120.8583938346157 102.4346265915055 l 49.365833424877934 5.762062588375402 a70.70097458808178,70.70097458808178 0 0,0 -0.15149700720193446,1.2075802066344283 l -49.259334908429146 -6.610960549297225" fill="red" stroke="none" /><path d="M 120.81339534386255 102.79330883721812 l 50.393278178148734 6.763143972707079 a71.84508434387581,71.84508434387581 0 0,0 -0.1750486628688916,1.2242899404002554 l -50.26939546426324 -7.629579385087744" fill="red" stroke="none" /><path d="M 120.76222939487914 103.15116336523771 l 51.83773236481981 7.867611905169775 a73.43138195601043,73.43138195601043 0 0,0 -0.20042657088307897,1.2480564482110348 l -51.69462403957544 -8.758747583074015" fill="red" stroke="none" /><path d="M 120.49622156327973 104.57218783832717 l 50.493010671557755 11.263711635837637 a72.7340828322427,72.7340828322427 0 0,0 -0.28310679848894343,1.2196166782970628 l -50.29164330713826 -12.131196971483265" fill="red" stroke="none" /><path d="M 120.41448212921028 104.9243191809786 l 49.056439307149816 11.833244825988409 a71.46345133468236,71.46345133468236 0 0,0 -0.2987467842195544,1.1933448992215292 l -48.8454812086352 -12.675917564607335" fill="red" stroke="none" /><path d="M 120.32669344350535 105.2749913415812 l 49.042198420843725 12.726967756023074 a71.66668465779321,71.66668465779321 0 0,0 -0.320151883331182,1.1914042572992591 l -48.81585846117077 -13.569262946497881" fill="red" stroke="none" /><path d="M 120.23288151984713 105.62410040840565 l 49.68624037362404 13.811201558380501 a72.57006661767812,72.57006661767812 0 0,0 -0.34490604714812173,1.2006631975450832 l -49.44114168958982 -14.664422231430166" fill="red" stroke="none" /><path d="M 119.9155931802556 106.66101706037122 l 46.729244586927344 15.629175219363857 a70.27365845664858,70.27365845664858 0 0,0 -0.3935631703650306,1.1438787959172338 l -46.45329058561909 -16.43122671837039" fill="red" stroke="none" /><path d="M 119.79798401119884 107.00284435728193 l 47.941961735848174 16.95779206756621 a71.85271287638784,71.85271287638784 0 0,0 -0.4224793724376785,1.1624817852780331 l -47.64295810240527 -17.780521649850375" fill="red" stroke="none" /><path d="M 119.54520255179757 107.68017299344265 l 46.99480690574972 18.466334430307377 a71.49274584928668,71.49274584928668 0 0,0 -0.45992776494282317,1.141502994186614 l -46.669976526549505 -19.272536792336805" fill="red" stroke="none" /><path d="M 118.64920377521936 109.65438752849418 l 34.85034047116601 18.041450802080888 a60.24334565248096,60.24334565248096 0 0,0 -0.4846648640060691,0.9168032719766154 l -34.53462309893504 -18.638669089143637" fill="red" stroke="none" /><line stroke="#e1ed5e" stroke-width="0.3" x1="174.80103733775053" x2="179.2010983576182" y1="140.37084112569926" y2="142.7455964860345" /><path d="M 175.68104954172406 140.8457921977663 a86.0,86.0 0 0,1 -30.038265399797805,32.042727171017184" fill="none" id="id137" stroke="none" /><text fill="#e1ed5e" style="font-size:6.75px; font-family:Arial;" text-anchor="middle"><textPath startOffset="22.206326154141568" xlink:href="#id137">May</textPath></text><path d="M 117.14729908036423 112.12312394758627 l 41.057125853905895 29.02734846612223 a71.28195046293607,71.28195046293607 0 0,0 -0.7169613512692072,0.9957966097010773 l -40.55138471026108 -29.72977868127444" fill="red" stroke="none" /><path d="M 116.93607887273984 112.41649034213515 l 40.659593362561374 29.809110603162488 a71.416124477794,71.416124477794 0 0,0 -0.7353777283154193,0.9851586407893557 l -40.140454367550866 -30.50458212346116" fill="red" stroke="none" /><path d="M 116.27256486870786 113.27417163493432 l 41.331621488426485 33.71583041850725 a74.33910531375734,74.33910531375734 0 0,0 -0.8173903229181769,0.9845992999645473 l -40.74513516561476 -34.422290975585575" fill="red" stroke="none" /><path d="M 116.0416608686014 113.55231037782055 l 39.233461215535996 33.1451991127578 a72.36018597294336,72.36018597294336 0 0,0 -0.8120104682559794,0.9445516230530736 l -38.65710823770924 -33.8156278349724" fill="red" stroke="none" /><path d="M 115.80600337817218 113.82643327865902 l 39.21429207168632 34.30302904071114 a73.10046548785714,73.10046548785714 0 0,0 -0.8366214269806442,0.9399530421756076 l -38.61801179505734 -34.97295625262761" fill="red" stroke="none" /><path d="M 115.56566222782051 114.09645910891815 l 36.82570620083906 33.34982180773218 a70.68242397264856,70.68242397264856 0 0,0 -0.8244720782699789,0.8948016057489844 l -36.24618771457336 -33.9787746682825" fill="red" stroke="none" /><path d="M 115.32070863581623 114.36230785411682 l 37.45572301228825 35.112646391786924 a72.34032647936637,72.34032647936637 0 0,0 -0.859449406081368,0.9011292662428695 l -36.845767054827924 -35.7521827746123" fill="red" stroke="none" /><path d="M 115.07121518719521 114.62390073753431 l 22.7088439215818 22.034844254332157 a52.64215469223671,52.64215469223671 0 0,0 -0.6366175572081066,0.6448902243770596 l -22.326185739318156 -22.422474972689884" fill="red" stroke="none" /><path d="M 111.7513745106137 117.40417183066458 l 29.100395266130345 43.09864170310922 a73.003133764207,73.003133764207 0 0,0 -1.0475091083060177,0.6942319180593965 l -28.35421145908436 -43.59317164225994" fill="red" stroke="none" /><path d="M 111.45004920935366 117.60387380957326 l 21.556922168669125 33.142681803501596 a60.53654322919764,60.53654322919764 0 0,0 -0.8784088744337714,0.5606421041410805 l -20.983231492188423 -33.50883833646648" fill="red" stroke="none" /><line stroke="#e1ed5e" stroke-width="0.3" x1="143.8653032363475" x2="146.44561519142675" y1="172.8068346515853" y2="177.08958963109032" /><path d="M 144.38136562736335 173.6633856474863 a86.0,86.0 0 0,1 -40.68145358897372,12.25698825130547" fill="none" id="id138" stroke="none" /><text fill="#e1ed5e" style="font-size:6.75px; font-family:Arial;" text-anchor="middle"><textPath startOffset="21.466115282336833" xlink:href="#id138">June</textPath></text><path d="M 109.89434966115114 118.52300852407294 l 18.73204078338353 35.06786832754067 a60.75732311094491,60.75732311094491 0 0,0 -0.9267201585987074,0.4848161874792679 l -18.125629722258328 -35.38511393396466" fill="red" stroke="none" /><path d="M 109.57404056367764 118.69057910512821 l 26.84306542980272 52.40341677089569 a79.87841922922915,79.87841922922915 0 0,0 -1.229161858781126,0.6163272729744724 l -25.937049663338836 -52.85771188477946" fill="red" stroke="none" /><path d="M 109.2508944713604 118.85261126421891 l 21.984421417765915 44.802559594754506 a70.90575248721788,70.90575248721788 0 0,0 -1.1003469762616809,0.5282334165812343 l -21.209961773504002 -45.1743472878353" fill="red" stroke="none" /><path d="M 107.93186726928326 119.44442032107085 l 19.901548955995317 48.78726153667839 a73.69030782882311,73.69030782882311 0 0,0 -1.1786200618899403,0.46899724657192254 l -19.05880781806351 -49.12260562765639" fill="red" stroke="none" /><path d="M 107.2578585660854 119.70592522655815 l 13.22696929649724 35.91275106251332 a59.271117120467395,59.271117120467395 0 0,0 -0.9604191321770996,0.3443721307227021 l -12.606830603690405 -36.13511073427598" fill="red" stroke="none" /><path d="M 104.83641907484287 120.43548508189849 l 8.128849602527087 34.34710313866585 a56.295916050991714,56.295916050991714 0 0,0 -0.9449131466402637,0.21505915580223908 l -7.53641630649396 -34.48193902804578" fill="red" stroke="none" /><path d="M 104.48393922423573 120.51570834832081 l 10.71660904524432 49.03251686973599 a71.18997330154258,71.18997330154258 0 0,0 -1.199410495938113,0.25134813107364723 l -9.87100708787683 -49.20972098153618" fill="red" stroke="none" /><path d="M 103.06178313531738 120.77559828337769 l 7.6354323977591365 51.809899396838844 a73.36950929129766,73.36950929129766 0 0,0 -1.2510249312317088,0.17338065610357994 l -6.7424788753405975 -51.93365461843503" fill="red" stroke="none" /><path d="M 102.70371172650421 120.8252237178851 l 7.5638988525311035 58.260606794453466 a79.74956059332902,79.74956059332902 0 0,0 -1.3628538247927657,0.1650226185699382 l -6.559917604686958 -58.38217494174875" fill="red" stroke="none" /><path d="M 102.34483914955558 120.86867818915974 l 3.959901642883093 35.24246559160119 a56.46423835353725,56.46423835353725 0 0,0 -0.9667952175916061,0.10021227729052007 l -3.352673828685884 -35.305407237347474" fill="red" stroke="none" /><line stroke="#e1ed5e" stroke-width="0.3" x1="102.19456741930631" x2="102.32365962044197" y1="184.97166512339345" y2="189.96999836594603" /><path d="M 102.22038585953345 185.97133177190398 a86.0,86.0 0 0,1 -42.740103519485714,-10.115201625700543" fill="none" id="id139" stroke="none" /><text fill="#e1ed5e" style="font-size:6.75px; font-family:Arial;" text-anchor="middle"><textPath startOffset="22.20632615414155" xlink:href="#id139">July</textPath></text><path d="M 99.81925306533755 120.99922214144158 l -0.34347384736943426 39.90487381795055 a60.90635198449468,60.90635198449468 0 0,0 -1.0482862261324797,-0.018047198050810346 l 1.030319763394582 -39.89304914262058" fill="red" stroke="none" /><path d="M 98.37488393609728 120.93702456842531 l -4.305078388016629 55.46405821774996 a76.63088579115853,76.63088579115853 0 0,0 -1.3142404263897476,-0.11339819402421901 l 5.259163132147918 -55.381735771447076" fill="red" stroke="none" /><path d="M 98.01472825383883 120.90594882070398 l -4.870157042350951 51.28529838449334 a72.51601945029988,72.51601945029988 0 0,0 -1.241637943725839,-0.12870084961842926 l 5.752227582682384 -51.19386816641914" fill="red" stroke="none" /><path d="M 95.86986931433489 120.58985236759428 l -11.180407837794968 55.737448596646836 a77.84773254478384,77.84773254478384 0 0,0 -1.3115805944145684,-0.27485446581883427 l 12.138179893638924 -55.53673815010146" fill="red" stroke="none" /><path d="M 95.51606077576429 120.51570834832081 l -12.745580835776915 58.31582590223805 a80.69242314985598,80.69242314985598 0 0,0 -1.3544025360471024,-0.30825760764823495 l 13.74750352121688 -58.08779156101213" fill="red" stroke="none" /><path d="M 95.16358092515715 120.4354850818985 l -11.690054014640205 49.39438057909196 a71.75886322266666,71.75886322266666 0 0,0 -1.1995577726132556,-0.2948221154127292 l 12.538565071996672 -49.185837205365196" fill="red" stroke="none" /><path d="M 92.40401165467489 119.57807347666478 l -18.580499917279216 47.88980394335855 a72.36796958133866,72.36796958133866 0 0,0 -1.1574702739055034,-0.46058130945103315 l 19.402091267226577 -47.562875789501454" fill="red" stroke="none" /><path d="M 90.42595943632237 118.69057910512821 l -17.95765306652099 35.057187500919824 a60.38887786078933,60.38887786078933 0 0,0 -0.9211003316679581,-0.48187615963852365 l 18.558444300715443 -34.74288192233658" fill="red" stroke="none" /><path d="M 90.10565033884886 118.52300852407294 l -19.036754720836978 35.63831702342773 a61.404055125242664,61.404055125242664 0 0,0 -0.9280117312148813,-0.5060259885372336 l 19.6473892639205 -35.30535038313074" fill="red" stroke="none" /><line stroke="#e1ed5e" stroke-width="0.3" x1="58.666819895761336" x2="56.23545636021788" y1="174.27360380694188" y2="178.64263932499728" /><path d="M 58.180547188652646 175.14741091055294 a86.0,86.0 0 0,1 -31.652253787137756,-30.449443065178592" fill="none" id="id140" stroke="none" /><text fill="#e1ed5e" style="font-size:6.75px; font-family:Arial;" text-anchor="middle"><textPath startOffset="22.20632615414155" xlink:href="#id140">August</textPath></text><path d="M 86.51685102203217 116.09983520530335 l -20.727219247729074 24.74976837368782 a53.282637009615996,53.282637009615996 0 0,0 -0.6980901400170659,-0.5949275620647069 l 21.150174864323198 -24.389316421400164" fill="red" stroke="none" /><path d="M 86.24171649860922 115.8653595955263 l -25.805873733828303 29.758033872651772 a60.38887786078933,60.38887786078933 0 0,0 -0.7794698639789054,-0.6877915275543132 l 26.314285950713796 -29.30941920332517" fill="red" stroke="none" /><path d="M 84.67929136418377 114.36230785411682 l -29.55114665654952 27.702547957299988 a61.505572851687994,61.505572851687994 0 0,0 -0.7174290951572071,-0.7786275888259889 l 30.023622159702455 -27.189769113672654" fill="red" stroke="none" /><path d="M 84.19399662182784 113.82643327865904 l -38.20451255093563 33.41971598327526 a71.75886322266666,71.75886322266666 0 0,0 -0.805262553481303,-0.9367022736889696 l 38.77411761398771 -32.75713661042476" fill="red" stroke="none" /><path d="M 83.28015986056508 112.70617746262583 l -41.05995047630038 31.203349613851824 a72.57100503422933,72.57100503422933 0 0,0 -0.7472696287269693,-1.00108978473721 l 41.590981371722435 -30.491946949605307" fill="red" stroke="none" /><path d="M 83.06392112726016 112.41649034213515 l -41.0997493082769 30.13180584390131 a71.96189867555734,71.96189867555734 0 0,0 -0.7238003418712723,-1.0052953694923223 l 41.61232944252378 -29.41987686895785" fill="red" stroke="none" /><path d="M 82.6465618267979 111.8261652097733 l -41.94479974650322 28.58489058721627 a71.75886322266666,71.75886322266666 0 0,0 -0.6868242222386737,-1.0267090227126123 l 42.430627074152625 -27.85864465029784" fill="red" stroke="none" /><line stroke="#e1ed5e" stroke-width="0.3" x1="26.63291911575756" x2="22.317208475507996" y1="142.92168965132927" y2="145.44649492493687" /><path d="M 25.769776987707644 143.4266507060508 a86.0,86.0 0 0,1 -11.730757126820373,-40.83630448921669" fill="none" id="id141" stroke="none" /><text fill="#e1ed5e" style="font-size:6.75px; font-family:Arial;" text-anchor="middle"><textPath startOffset="21.46611528233685" xlink:href="#id141">September</textPath></text><path d="M 81.87401531095188 110.60418214915194 l -44.51310703091738 26.04134909513331 a72.57100503422933,72.57100503422933 0 0,0 -0.6215119234581871,-1.083658425945296 l 44.954770950527944 -25.271270823329708" fill="red" stroke="none" /><path d="M 81.69416730710424 110.29060199501025 l -35.22047015415379 19.799145251348865 a61.404055125242664,61.404055125242664 0 0,0 -0.5100150366277063,-0.9258254353608149 l 35.55606160023301 -19.18994929759023" fill="red" stroke="none" /><path d="M 80.58989483394504 108.01547362559985 l -46.915946345779 19.374110925081652 a71.75886322266666,71.75886322266666 0 0,0 -0.4616397535830451,-1.1457520095924665 l 47.24248871361943 -18.56365954764638" fill="red" stroke="none" /><line stroke="#e1ed5e" stroke-width="0.3" x1="15.007084014347285" x2="10.007500721073583" y1="101.09737516637583" y2="101.16192664675087" /><path d="M 14.007167355692545 101.11028546245083 a86.0,86.0 0 0,1 10.666146001902534,-42.60595125391555" fill="none" id="id142" stroke="none" /><text fill="#e1ed5e" style="font-size:6.75px; font-family:Arial;" text-anchor="middle"><textPath startOffset="22.20632615414155" xlink:href="#id142">October</textPath></text><line stroke="#e1ed5e" stroke-width="0.3" x1="26.266209847984243" x2="21.928928074336255" y1="57.711370442889674" y2="55.22380399835377" /><path d="M 25.398753493254645 57.213857153982495 a86.0,86.0 0 0,1 29.58750427330803,-30.492523968695096" fill="none" id="id143" stroke="none" /><text fill="#e1ed5e" style="font-size:6.75px; font-family:Arial;" text-anchor="middle"><textPath startOffset="21.46611528233685" xlink:href="#id143">November</textPath></text><line stroke="#e1ed5e" stroke-width="0.3" x1="56.762969772571076" x2="54.21961505331055" y1="26.818313649435495" y2="22.513508569990535" /><path d="M 56.25429882871897 25.957352633546506 a86.0,86.0 0 0,1 42.265352541879196,-11.944610805530505" fill="none" id="id144" stroke="none" /><text fill="#e1ed5e" style="font-size:6.75px; font-family:Arial;" text-anchor="middle"><textPath startOffset="22.20632615414155" xlink:href="#id144">December</textPath></text></svg>