<?xml version="1.0" encoding="utf-8" ?>
<svg baseProfile="full" height="200mm" version="1.1" viewBox="0,0,200,200" width="200mm" xmlns="http://www.w3.org/2000/svg" xmlns:ev="http://www.w3.org/2001/xml-events" xmlns:xlink="http://www.w3.org/1999/xlink"><defs /><rect fill="#1a1a1a" height="200" width="200" x="0" y="0" /><rect fill="#1a1a1a" height="200" width="180" x="10" y="0" /><text alignment-baseline="middle" fill="#e1ed5e" style="dominant-baseline: central; font-size:9.0px; font-family:Arial;" text-anchor="middle" x="100.0" y="100.0">2019</text><line stroke="#e1ed5e" stroke-width="0.3" x1="100.0" x2="100.0" y1="15.0" y2="10.0" /><path d="M 100.0 14.0 a86.0,86.0 0 0,1 42.46469731375804,11.215312516191453" fill="none" id="id61" stroke="none" /><text fill="#e1ed5e" style="font-size:6.75px; font-family:Arial;" text-anchor="middle"><textPath startOffset="22.20632615414155" xlink:href="#id61">January</textPath></text><line stroke="#e1ed5e" stroke-width="0.3" x1="143.23703022742887" x2="145.7803849466894" y1="26.81831364943548" y2="22.513508569990506" /><path d="M 143.74570117128098 25.957352633546492 a86.0,86.0 0 0,1 28.547481713284135,27.462654790039103" fill="none" id="id62" stroke="none" /><text fill="#e1ed5e" style="font-size:6.75px; font-family:Arial;" text-anchor="middle"><textPath startOffset="19.985693538727396" xlink:href="#id62">February</textPath></text><path d="M 111.2981086023043 82.29822771554956 l 27.30775301183577 -42.78553538748442 a71.75741731953181,71.75741731953181 0 0,0 1.0354696948750635,0.6734982930101637 l -28.040189732495115 42.30913817031473" fill="red" stroke="none" /><path d="M 112.19680574252982 82.90503203632743 l 31.206176826517442 -43.73838563795695 a74.72961799922379,74.72961799922379 0 0,0 1.0407155614745338,0.7561241149682218 l -31.954437704345764 43.19474228817205" fill="red" stroke="none" /><path d="M 113.6212207817346 84.01681056812373 l 38.551482092036 -45.23644767456221 a80.43528387839984,80.43528387839984 0 0,0 1.0460654683237596,0.9071376660300684 l -39.32444135900652 44.56614501511247" fill="red" stroke="none" /><path d="M 113.89432698308785 84.25364557470407 l 29.29073882719227 -33.195012289054795 a65.27026340460702,65.27026340460702 0 0,0 0.8360468425026112,0.7506111100048404 l -29.857796657290873 32.685902170280656" fill="red" stroke="none" /><path d="M 114.94478906791727 85.2469230424477 l 37.2677930892617 -36.78972095125307 a73.36766148507198,73.36766148507198 0 0,0 0.8794886802059829,0.9063903941898354 l -37.895546033170795 36.14276636151312" fill="red" stroke="none" /><line stroke="#e1ed5e" stroke-width="0.3" x1="172.23445277983987" x2="176.4835382374775" y1="55.19839476539836" y2="52.563006222186495" /><path d="M 173.08426987136738 54.67131705675599 a86.0,86.0 0 0,1 12.851231095245387,41.99856678651699" fill="none" id="id63" stroke="none" /><text fill="#e1ed5e" style="font-size:6.75px; font-family:Arial;" text-anchor="middle"><textPath startOffset="22.20632615414155" xlink:href="#id63">March</textPath></text><line stroke="#e1ed5e" stroke-width="0.3" x1="184.98032266829074" x2="189.97916517819016" y1="98.17113171792111" y2="98.06355123074" /><path d="M 185.9800911702706 98.14961562048488 a86.0,86.0 0 0,1 -9.607161424134198,41.387399972396054" fill="none" id="id64" stroke="none" /><text fill="#e1ed5e" style="font-size:6.75px; font-family:Arial;" text-anchor="middle"><textPath startOffset="21.466115282336823" xlink:href="#id64">April</textPath></text><path d="M 120.95626037817324 101.35467743843564 l 45.32547330329204 2.929978677605029 a66.42007601511318,66.42007601511318 0 0,0 -0.08357366581407501,1.1402962704464217 l -45.26832307881363 -3.709748084548221" fill="red" stroke="none" /><path d="M 120.92983693683757 101.71520430193887 l 14.654906389919741 1.2009724949295173 a35.704034012164406,35.704034012164406 0 0,0 -0.05546945353256654,0.612100797536859 l -14.6320623401101 -1.4530546810149467" fill="red" stroke="none" /><path d="M 119.9155931802556 106.66101706037122 l 24.10244689987423 8.061362197131064 a46.4148284872157,46.4148284872157 0 0,0 -0.2599433052520904,0.7555169218266038 l -23.96011276367891 -8.47505182204697" fill="red" stroke="none" /><line stroke="#e1ed5e" stroke-width="0.3" x1="174.80103733775053" x2="179.2010983576182" y1="140.37084112569926" y2="142.7455964860345" /><path d="M 175.68104954172406 140.8457921977663 a86.0,86.0 0 0,1 -30.038265399797805,32.042727171017184" fill="none" id="id65" stroke="none" /><text fill="#e1ed5e" style="font-size:6.75px; font-family:Arial;" text-anchor="middle"><textPath startOffset="22.206326154141568" xlink:href="#id65">May</textPath></text><path d="M 118.30583269289576 110.29060199501025 l 39.47602672162086 22.19140129551399 a66.28592471380776,66.28592471380776 0 0,0 -0.5676852972843799,0.9898071661514265 l -39.08818942818411 -22.867628307523734" fill="red" stroke="none" /><path d="M 118.12598468904814 110.60418214915192 l 22.845531566399902 13.365242340223261 a47.4678676013817,47.4678676013817 0 0,0 -0.41866461283811474,0.7017059726602177 l -22.612086077863562 -13.756510406769584" fill="red" stroke="none" /><line stroke="#e1ed5e" stroke-width="0.3" x1="143.8653032363475" x2="146.44561519142675" y1="172.8068346515853" y2="177.08958963109032" /><path d="M 144.38136562736335 173.6633856474863 a86.0,86.0 0 0,1 -40.68145358897372,12.25698825130547" fill="none" id="id66" stroke="none" /><text fill="#e1ed5e" style="font-size:6.75px; font-family:Arial;" text-anchor="middle"><textPath startOffset="21.466115282336833" xlink:href="#id66">June</textPath></text><path d="M 110.8373102113329 117.98757091392108 l 14.43353955697311 23.956527150846128 a48.96859412398012,48.96859412398012 0 0,0 -0.7257428477120662,0.42878166668025586 l -14.019028838232662 -24.201427389820132" fill="red" stroke="none" /><path d="M 110.5260780823613 118.17145234162733 l 18.69241266577741 32.269215870191246 a58.29220540735984,58.29220540735984 0 0,0 -0.8725822213660148,0.4954749582887129 l -18.134181677490197 -32.58619399427459" fill="red" stroke="none" /><path d="M 105.88484417918355 120.15858648285463 l 14.669092590987354 50.24910815250277 a73.3464912631676,73.3464912631676 0 0,0 -1.2149980113973262,0.3433705743079894 l -13.801963411485422 -50.49416752014928" fill="red" stroke="none" /><path d="M 103.41894727170886 120.7198165907248 l 8.1515615451681 49.40083795427156 a71.06886004503059,71.06886004503059 0 0,0 -1.2087260963005007,0.18877815753445007 l -7.299999585259082 -49.533834419153116" fill="red" stroke="none" /><path d="M 101.26447882468166 120.96189622390904 l 2.7132235658083554 44.978460460227545 a66.06022067733701,66.06022067733701 0 0,0 -1.1356441841789158,0.05869983253193785 l -1.9385913132159602 -45.01850009952168" fill="red" stroke="none" /><line stroke="#e1ed5e" stroke-width="0.3" x1="102.19456741930631" x2="102.32365962044197" y1="184.97166512339345" y2="189.96999836594603" /><path d="M 102.22038585953345 185.97133177190398 a86.0,86.0 0 0,1 -42.740103519485714,-10.115201625700543" fill="none" id="id67" stroke="none" /><text fill="#e1ed5e" style="font-size:6.75px; font-family:Arial;" text-anchor="middle"><textPath startOffset="22.20632615414155" xlink:href="#id67">July</textPath></text><path d="M 98.37488393609728 120.93702456842531 l -3.0791908222070377 39.67045513081441 a60.78977791349838,60.78977791349838 0 0,0 -1.0425611399417223,-0.0899565620226645 l 3.7615962798903015 -39.61157431651308" fill="red" stroke="none" /><path d="M 96.22490169976321 120.6578951692458 l -8.506255885930301 46.54748787953575 a68.31833700683543,68.31833700683543 0 0,0 -1.1550105788586489,-0.22136052638660061 l 9.306234079360644 -46.39417015480068" fill="red" stroke="none" /><path d="M 95.86986931433489 120.58985236759428 l -3.235493690315608 16.129837646808795 a37.451142268319316,37.451142268319316 0 0,0 -0.6309778054168657,-0.13222753400739598 l 3.5126629571618606 -16.071754132074858" fill="red" stroke="none" /><path d="M 93.76903079525671 120.05430185196036 l -7.016149398628797 22.581395165850267 a44.64626313014733,44.64626313014733 0 0,0 -0.7319407341506222,-0.23434430914846852 l 7.403811477870359 -22.457278010042092" fill="red" stroke="none" /><path d="M 93.42475214034765 119.94407469862007 l -10.993369081876786 33.3451420902091 a56.110577676629006,56.110577676629006 0 0,0 -0.9146832876708069,-0.31031023308497846 l 11.565722102484818 -33.150968870226" fill="red" stroke="none" /><path d="M 91.40352486487194 119.15986991738527 l -20.292606668440907 45.22827065051485 a70.57203194782593,70.57203194782593 0 0,0 -1.1040557665992838,-0.506817851929949 l 21.06813043080761 -44.872265728250824" fill="red" stroke="none" /><path d="M 91.07499286063937 119.00905698771935 l -19.85484956564423 42.28814173284387 a67.71725572517562,67.71725572517562 0 0,0 -1.0508664666010865,-0.5044797650185358 l 20.579828700245557 -41.94010769132577" fill="red" stroke="none" /><line stroke="#e1ed5e" stroke-width="0.3" x1="58.666819895761336" x2="56.23545636021788" y1="174.27360380694188" y2="178.64263932499728" /><path d="M 58.180547188652646 175.14741091055294 a86.0,86.0 0 0,1 -31.652253787137756,-30.449443065178592" fill="none" id="id68" stroke="none" /><text fill="#e1ed5e" style="font-size:6.75px; font-family:Arial;" text-anchor="middle"><textPath startOffset="22.20632615414155" xlink:href="#id68">August</textPath></text><path d="M 88.8546689885994 117.79835938074946 l -33.435993034201786 53.395078142248366 a84.0,84.0 0 0,0 -1.2188727918123061,-0.7779422847047832 l 34.350147628061016 -52.81162142871978" fill="red" stroke="none" /><path d="M 86.79598089348748 116.32954008644616 l -16.95097362296942 20.963435530326205 a47.95924954446522,47.95924954446522 0 0,0 -0.6374694838304652,-0.5245939864909616 l 17.309313235344575 -20.668546424978064" fill="red" stroke="none" /><path d="M 85.18274418774928 114.88116024355367 l -33.49080595074766 33.63524638798368 a68.46539668865103,68.46539668865103 0 0,0 -0.8279728261130846,-0.8387321015019144 l 34.064819401916274 -33.0537737925011" fill="red" stroke="none" /><path d="M 84.9287848128048 114.62390073753433 l -20.980329589354458 20.35763231727654 a50.233669342786314,50.233669342786314 0 0,0 -0.5968081619628998,-0.6257509718105113 l 21.327644302696314 -19.993474228883528" fill="red" stroke="none" /><line stroke="#e1ed5e" stroke-width="0.3" x1="26.63291911575756" x2="22.317208475507996" y1="142.92168965132927" y2="145.44649492493687" /><path d="M 25.769776987707644 143.4266507060508 a86.0,86.0 0 0,1 -11.730757126820373,-40.83630448921669" fill="none" id="id69" stroke="none" /><text fill="#e1ed5e" style="font-size:6.75px; font-family:Arial;" text-anchor="middle"><textPath startOffset="21.46611528233685" xlink:href="#id69">September</textPath></text><path d="M 80.73074385275274 108.34839909993369 l -42.216219730618754 18.29016377739358 a67.00803516069519,67.00803516069519 0 0,0 -0.4494293335531113,-1.0623181852406263 l 42.524800045364174 -17.560771066486797" fill="red" stroke="none" /><path d="M 79.97269907076064 106.31721596034903 l -43.17220526321607 13.61781825198805 a66.2690212091386,66.2690212091386 0 0,0 -0.3337851550547757,-1.090829199398833 l 43.40021719077698 -12.872662080037168" fill="red" stroke="none" /><path d="M 79.86692584326677 105.97154293290107 l -33.519496366200734 9.942004389481053 a55.96283867085458,55.96283867085458 0 0,0 -0.26597635048125523,-0.9258985688443208 l 33.68566535356809 -9.363548345132136" fill="red" stroke="none" /><line stroke="#e1ed5e" stroke-width="0.3" x1="15.007084014347285" x2="10.007500721073583" y1="101.09737516637583" y2="101.16192664675087" /><path d="M 14.007167355692545 101.11028546245083 a86.0,86.0 0 0,1 10.666146001902534,-42.60595125391555" fill="none" id="id70" stroke="none" /><text fill="#e1ed5e" style="font-size:6.75px; font-family:Arial;" text-anchor="middle"><textPath startOffset="22.20632615414155" xlink:href="#id70">October</textPath></text><line stroke="#e1ed5e" stroke-width="0.3" x1="26.266209847984243" x2="21.928928074336255" y1="57.711370442889674" y2="55.22380399835377" /><path d="M 25.398753493254645 57.213857153982495 a86.0,86.0 0 0,1 29.58750427330803,-30.492523968695096" fill="none" id="id71" stroke="none" /><text fill="#e1ed5e" style="font-size:6.75px; font-family:Arial;" text-anchor="middle"><textPath startOffset="21.46611528233685" xlink:href="#id71">November</textPath></text><path d="M 81.96595687620814 89.24020034530311 l -37.90258265139158 -22.61413000540801 a65.13620563151147,65.13620563151147 0 0,0 0.5827649522733978,-0.9579123538105517 l 37.50770190083197 23.263210132425638" fill="red" stroke="none" /><path d="M 82.15384107792192 88.93136811851018 l -27.42650243165532 -17.01059934175621 a53.2734182509283,53.2734182509283 0 0,0 0.49004544093933444,-0.7751342028988374 l 27.129629394470022 17.480181192369262" fill="red" stroke="none" /><path d="M 83.6137871275137 86.86637796730984 l -36.631787404915634 -29.360539491454983 a67.94602355586917,67.94602355586917 0 0,0 0.7393223257109076,-0.9063217528657667 l 36.120966587128336 29.986745413928833" fill="red" stroke="none" /><path d="M 87.22198572758235 83.33499621200491 l -30.438591981618004 -39.69781531468938 a71.02423835084954,71.02423835084954 0 0,0 0.9765962857232702,-0.7355520754424693 l 29.750749542136344 40.2158839796377" fill="red" stroke="none" /><line stroke="#e1ed5e" stroke-width="0.3" x1="56.762969772571076" x2="54.21961505331055" y1="26.818313649435495" y2="22.513508569990535" /><path d="M 56.25429882871897 25.957352633546506 a86.0,86.0 0 0,1 42.265352541879196,-11.944610805530505" fill="none" id="id72" stroke="none" /><text fill="#e1ed5e" style="font-size:6.75px; font-family:Arial;" text-anchor="middle"><textPath startOffset="22.20632615414155" xlink:href="#id72">December</textPath></text><path d="M 93.94186890950719 79.89281104454417 l -12.989592935563934 -43.11299899398375 a66.0273273344854,66.0273273344854 0 0,0 1.09105373726877,-0.3185085045721641 l 12.245548980571742 43.330205827474614" fill="red" stroke="none" /><path d="M 96.40284397218896 79.31037775812273 l -9.344498528421353 -53.7463882850989 a75.55267093773031,75.55267093773031 0 0,0 1.2832110057946577,-0.2117408109322888 l 8.417958316487809 53.89927535897082" fill="red" stroke="none" /><path d="M 98.55514903715128 79.0497635885617 l -3.2991155813079027 -47.836941770649105 a68.95056998188136,68.95056998188136 0 0,0 1.184761066838203,-0.07146802299380678 l 2.475192465630077 47.886643063023214" fill="red" stroke="none" /><path d="M 98.91598698831166 79.02799685794201 l -2.5820388343536678 -49.953760668095725 a71.0204471134305,71.0204471134305 0 0,0 1.2214135982297425,-0.052596638851533296 l 1.7217844037346013 49.99080503347145" fill="red" stroke="none" /></svg>