<?xml version="1.0" encoding="utf-8" ?>
<svg baseProfile="full" height="200mm" version="1.1" viewBox="0,0,200,200" width="200mm" xmlns="http://www.w3.org/2000/svg" xmlns:ev="http://www.w3.org/2001/xml-events" xmlns:xlink="http://www.w3.org/1999/xlink"><defs /><rect fill="#1a1a1a" height="200" width="200" x="0" y="0" /><rect fill="#1a1a1a" height="200" width="180" x="10" y="0" /><text alignment-baseline="middle" fill="#e1ed5e" style="dominant-baseline: central; font-size:9.0px; font-family:Arial;" text-anchor="middle" x="100.0" y="100.0">2015</text><line stroke="#e1ed5e" stroke-width="0.3" x1="100.0" x2="100.0" y1="15.0" y2="10.0" /><path d="M 100.0 14.0 a86.0,86.0 0 0,1 42.46469731375804,11.215312516191453" fill="none" id="id13" stroke="none" /><text fill="#e1ed5e" style="font-size:6.75px; font-family:Arial;" text-anchor="middle"><textPath startOffset="22.20632615414155" xlink:href="#id13">January</textPath></text><line stroke="#e1ed5e" stroke-width="0.3" x1="143.23703022742887" x2="145.7803849466894" y1="26.81831364943548" y2="22.513508569990506" /><path d="M 143.74570117128098 25.957352633546492 a86.0,86.0 0 0,1 28.547481713284135,27.462654790039103" fill="none" id="id14" stroke="none" /><text fill="#e1ed5e" style="font-size:6.75px; font-family:Arial;" text-anchor="middle"><textPath startOffset="19.985693538727396" xlink:href="#id14">February</textPath></text><path d="M 117.45458315368197 88.32363383020206 l 15.331727984798187 -10.256267273187708 a39.44594539130226,39.44594539130226 0 0,0 0.37267658510104396,0.567612006979746 l -15.506001205257155 9.990837202230288" fill="red" stroke="none" /><path d="M 117.65298651832404 88.62581576622439 l 15.354152396779094 -9.892997875070776 a39.26530598647808,39.26530598647808 0 0,0 0.36118921626409706,0.5713146003518971 l -15.522169209289148 9.627235627004673" fill="red" stroke="none" /><line stroke="#e1ed5e" stroke-width="0.3" x1="172.23445277983987" x2="176.4835382374775" y1="55.19839476539836" y2="52.563006222186495" /><path d="M 173.08426987136738 54.67131705675599 a86.0,86.0 0 0,1 12.851231095245387,41.99856678651699" fill="none" id="id15" stroke="none" /><text fill="#e1ed5e" style="font-size:6.75px; font-family:Arial;" text-anchor="middle"><textPath startOffset="22.20632615414155" xlink:href="#id15">March</textPath></text><path d="M 117.84615892207809 88.93136811851018 l 13.464247365055158 -8.35086128594001 a36.84370036716191,36.84370036716191 0 0,0 0.32963567769837016,0.5418343822705564 l -13.605998841039751 8.117859130462373" fill="red" stroke="none" /><path d="M 118.03404312379186 89.2402003453031 l 17.126815092835955 -10.218512723796058 a40.94356531592522,40.94356531592522 0 0,0 0.3558977019578289,0.6083445385810313 l -17.300172469264112 9.922188772861132" fill="red" stroke="none" /><path d="M 118.21658344932153 89.55222093294921 l 16.167392192445412 -9.272503935051702 a39.63770102587479,39.63770102587479 0 0,0 0.334357897784229,0.5947853915013183 l -16.324607731522075 8.99283503361559" fill="red" stroke="none" /><path d="M 118.89224826269711 90.83032412892265 l 27.647041457089845 -13.418964510238721 a51.7315393343238,51.7315393343238 0 0,0 0.3819310139876093,0.80444412001015 l -27.873930664919207 12.941077974588032" fill="red" stroke="none" /><path d="M 119.196687751892 91.48605970444005 l 22.921228228876295 -10.16581460113202 a46.074419036636215,46.074419036636215 0 0,0 0.3153010501983747,0.7277582955775022 l -23.092819988917352 9.769757160967915" fill="red" stroke="none" /><path d="M 120.37134235888165 94.90015583598534 l 17.99233274145071 -4.504273283124697 a39.54757437747993,39.54757437747993 0 0,0 0.15963510173599718,0.6617905565854532 l -18.067200643447528 4.193897494879838" fill="red" stroke="none" /><path d="M 120.45610955862082 95.25157060432595 l 20.920930251715976 -4.856327148004991 a42.477179422950655,42.477179422950655 0 0,0 0.15919964023370317,0.713660771255241 l -21.001424278951717 4.495488207199786" fill="red" stroke="none" /><path d="M 120.67395015179393 96.31383870115 l 19.56707137264663 -3.488805027394676 a40.87566458313839,40.87566458313839 0 0,0 0.11754310920473696,0.6937460842602616 l -19.62422634337159 3.1514731548185764" fill="red" stroke="none" /><path d="M 120.73433829027371 96.67025291283417 l 17.66198937826249 -2.83635565613447 a38.88828617296646,38.88828617296646 0 0,0 0.10045049233949492,0.6618432378937587 l -17.708195764041285 2.531913305848629" fill="red" stroke="none" /><path d="M 120.96714384426684 98.82574320788733 l 13.122116834837323 -0.7348990847132956 a34.14267959328818,34.14267959328818 0 0,0 0.02781228824195204,0.5870734472031389 l -13.132822731312771 0.5089145308871569" fill="red" stroke="none" /><path d="M 120.98425023603335 99.18683210126433 l 13.767918662604803 -0.5335253517711694 a34.77825219688928,34.77825219688928 0 0,0 0.01803220172468399,0.5984009875770574 l -13.775062558785132 0.296454216769113" fill="red" stroke="none" /><line stroke="#e1ed5e" stroke-width="0.3" x1="184.98032266829074" x2="189.97916517819016" y1="98.17113171792111" y2="98.06355123074" /><path d="M 185.9800911702706 98.14961562048488 a86.0,86.0 0 0,1 -9.607161424134198,41.387399972396054" fill="none" id="id16" stroke="none" /><text fill="#e1ed5e" style="font-size:6.75px; font-family:Arial;" text-anchor="middle"><textPath startOffset="21.466115282336823" xlink:href="#id16">April</textPath></text><path d="M 120.99513854157772 99.54816195383933 l 15.682109585169112 -0.33749592747901985 a36.68574080310898,36.68574080310898 0 0,0 0.008152956724259131,0.6314554831674161 l -15.685595549011088 0.06750418625114113" fill="red" stroke="none" /><path d="M 120.99980553446 99.90962569577887 l 13.44299182537995 -0.05785296587034767 a34.44311631218343,34.44311631218343 0 0,0 -0.0025515833049917494,0.5928980994277318 l -13.441995944785456 -0.17355461176106876" fill="red" stroke="none" /><path d="M 120.5718875245553 104.21870165774334 l 21.04423118870351 4.315565739689542 a42.482173399755986,42.482173399755986 0 0,0 -0.15306926130321097,0.7150886294276079 l -20.966827888675855 -4.677168188533319" fill="red" stroke="none" /><path d="M 120.49622156327973 104.57218783832717 l 11.835189813306627 2.6401310486241254 a33.126087987100625,33.126087987100625 0 0,0 -0.12893846119049132,0.5554635161755865 l -11.787990786185583 -2.843463222148277" fill="red" stroke="none" /><path d="M 120.41448212921028 104.9243191809786 l 20.48246409820071 4.940717584413055 a42.06993179350634,42.06993179350634 0 0,0 -0.17586971523087405,0.7025120894491931 l -20.394383068674774 -5.292557513259644" fill="red" stroke="none" /><path d="M 119.67450827220406 107.3425965602758 l 18.09721841449926 6.753946367675896 a40.316446512739695,40.316446512739695 0 0,0 -0.24824510288379326,0.648089629130143 l -17.97827903202196 -7.064459563639183" fill="red" stroke="none" /><path d="M 119.12269723197855 108.67885076344098 l 11.255578692747607 5.108352997775071 a33.36055508698988,33.36055508698988 0 0,0 -0.24182491812156898,0.5208693598791956 l -11.165979157786207 -5.301342424933097" fill="red" stroke="none" /><path d="M 118.81262510543309 109.33194174019688 l 16.19323680683795 8.032602660166848 a39.07605111130334,39.07605111130334 0 0,0 -0.30408858343375866,0.5999956240061912 l -16.05256955361792 -8.310152495875734" fill="red" stroke="none" /><path d="M 118.64920377521936 109.65438752849418 l 11.929731855042563 6.175826905416931 a34.43351555248621,34.43351555248621 0 0,0 -0.27702171836150863,0.5240206927796507 l -11.821657628456162 -6.380262613282715" fill="red" stroke="none" /><line stroke="#e1ed5e" stroke-width="0.3" x1="174.80103733775053" x2="179.2010983576182" y1="140.37084112569926" y2="142.7455964860345" /><path d="M 175.68104954172406 140.8457921977663 a86.0,86.0 0 0,1 -30.038265399797805,32.042727171017184" fill="none" id="id17" stroke="none" /><text fill="#e1ed5e" style="font-size:6.75px; font-family:Arial;" text-anchor="middle"><textPath startOffset="22.206326154141568" xlink:href="#id17">May</textPath></text><path d="M 116.27256486870786 113.27417163493432 l 10.177141046456988 8.301894513469676 a34.1337600249227,34.1337600249227 0 0,0 -0.3753153204013579,0.45209148111010644 l -10.032729726162087 -8.475847251693555" fill="red" stroke="none" /><line stroke="#e1ed5e" stroke-width="0.3" x1="143.8653032363475" x2="146.44561519142675" y1="172.8068346515853" y2="177.08958963109032" /><path d="M 144.38136562736335 173.6633856474863 a86.0,86.0 0 0,1 -40.68145358897372,12.25698825130547" fill="none" id="id18" stroke="none" /><text fill="#e1ed5e" style="font-size:6.75px; font-family:Arial;" text-anchor="middle"><textPath startOffset="21.466115282336833" xlink:href="#id18">June</textPath></text><path d="M 106.91757812671514 119.82793768551818 l 7.081001302327223 20.296359506428594 a42.49611101240767,42.49611101240767 0 0,0 -0.6927478586669888,0.2350176857822289 l -6.730583710723007 -20.415240179108945" fill="red" stroke="none" /><path d="M 106.2309692047433 120.05430185196036 l 5.486544177656405 17.65837856798876 a39.4910924680988,39.4910924680988 0 0,0 -0.6508978757096815,0.19611019055463544 l -5.181771327506477 -17.75020412764912" fill="red" stroke="none" /><path d="M 105.88484417918355 120.15858648285463 l 4.825648677499149 16.530302798048904 a38.22027281299088,38.22027281299088 0 0,0 -0.6331257932465919,0.17892767329410136 l -4.540391716147951 -16.610919264681524" fill="red" stroke="none" /><path d="M 105.53697534728816 120.25689768951611 l 5.569119363130085 20.37449583641034 a42.12191210730441,42.12191210730441 0 0,0 -0.7010481356455709,0.18515318435134762 l -5.217580784673016 -20.46734037006527" fill="red" stroke="none" /><path d="M 105.18746579009965 120.34920634021253 l 2.9984503878915385 11.762214559669038 a33.13838523347884,33.13838523347884 0 0,0 -0.5539581564346107,0.13614943711664215 l -2.795538946713717 -11.81208525509971" fill="red" stroke="none" /><line stroke="#e1ed5e" stroke-width="0.3" x1="102.19456741930631" x2="102.32365962044197" y1="184.97166512339345" y2="189.96999836594603" /><path d="M 102.22038585953345 185.97133177190398 a86.0,86.0 0 0,1 -42.740103519485714,-10.115201625700543" fill="none" id="id19" stroke="none" /><text fill="#e1ed5e" style="font-size:6.75px; font-family:Arial;" text-anchor="middle"><textPath startOffset="22.20632615414155" xlink:href="#id19">July</textPath></text><path d="M 92.7421414339146 119.70592522655815 l -5.039673496373302 13.68329627555195 a35.5818690816569,35.5818690816569 0 0,0 -0.5729185494055791,-0.21662877269364372 l 5.274462266539164 -13.594519252751674" fill="red" stroke="none" /><path d="M 91.7346041902142 119.30500536409082 l -7.4720303473114065 17.451987691226417 a39.98428591983014,39.98428591983014 0 0,0 -0.6303795431728217,-0.27633986657985204 l 7.771330565141971 -17.320783271352113" fill="red" stroke="none" /><path d="M 91.07499286063937 119.00905698771935 l -8.686621517804678 18.501327885159252 a41.439093103847796,41.439093103847796 0 0,0 -0.6430702615286917,-0.30871280484921254 l 9.003804447333613 -18.349060803810477" fill="red" stroke="none" /><path d="M 90.7491055286396 118.85261126421891 l -10.12487269123045 20.633711641443437 a43.98397491984062,43.98397491984062 0 0,0 -0.676821410472665,-0.3393723057929944 l 10.478548009385877 -20.45637149474114" fill="red" stroke="none" /><path d="M 90.42595943632237 118.69057910512821 l -11.484503555931012 22.420212319719017 a46.19046927684104,46.19046927684104 0 0,0 -0.7045346440925042,-0.3685792274255458 l 11.868729102550011 -22.219203673348755" fill="red" stroke="none" /><line stroke="#e1ed5e" stroke-width="0.3" x1="58.666819895761336" x2="56.23545636021788" y1="174.27360380694188" y2="178.64263932499728" /><path d="M 58.180547188652646 175.14741091055294 a86.0,86.0 0 0,1 -31.652253787137756,-30.449443065178592" fill="none" id="id20" stroke="none" /><text fill="#e1ed5e" style="font-size:6.75px; font-family:Arial;" text-anchor="middle"><textPath startOffset="22.20632615414155" xlink:href="#id20">August</textPath></text><path d="M 89.7882731507175 118.34994917583269 l -16.11414700844223 28.956295343680065 a54.138086454110706,54.138086454110706 0 0,0 -0.8103987730179042,-0.4601655734283437 l 16.61019454838134 -28.67462660445709" fill="red" stroke="none" /><path d="M 87.65650970185807 116.9893568818739 l -11.058269241768093 15.220401856072082 a39.81345133896906,39.81345133896906 0 0,0 -0.550970825648264,-0.40759504496246485 l 11.318625037834922 -15.02779686236985" fill="red" stroke="none" /><path d="M 87.36589467227662 116.77436683061367 l -23.89169539926404 31.721127253318315 a60.712000998091604,60.712000998091604 0 0,0 -0.8293585200965352,-0.6359167475484664 l 24.434182647854065 -31.30517116394248" fill="red" stroke="none" /><path d="M 85.44109423537348 115.13401014063109 l -23.450206004617655 24.37653359471936 a54.82495457134403,54.82495457134403 0 0,0 -0.6744776011667452,-0.6601182914590062 l 23.866333558160193 -23.969265200337784" fill="red" stroke="none" /><path d="M 83.95833913139862 113.55231037782056 l -29.997258744756497 25.342273741021685 a60.269152913766135,60.269152913766135 0 0,0 -0.662685166229368,-0.7982469726787339 l 30.4290399108794 -24.82216551122919" fill="red" stroke="none" /><path d="M 83.72743513129214 113.27417163493432 l -30.218832491599226 24.650691045773076 a59.99787694464264,59.99787694464264 0 0,0 -0.6459259662819204,-0.8058919585943018 l 30.638676369936007 -24.126871253600516" fill="red" stroke="none" /><path d="M 83.50135304334701 112.99209946851258 l -21.30394048979901 16.77609773952586 a48.116329688197524,48.116329688197524 0 0,0 -0.5068097194055788,-0.6551198809694042 l 21.589557026422657 -16.406899864443204" fill="red" stroke="none" /><path d="M 83.06392112726016 112.41649034213515 l -22.295891642282903 16.345975082301447 a48.645934339711516,48.645934339711516 0 0,0 -0.4892859214912587,-0.6795753507953255 l 22.57395735614977 -15.959766126054983" fill="red" stroke="none" /><path d="M 82.85270091963577 112.12312394758628 l -22.434560453266887 15.861212649869687 a48.47521736867013,48.47521736867013 0 0,0 -0.47583987302362063,-0.6854828269052613 l 22.70426123345264 -15.472688560777414" fill="red" stroke="none" /><path d="M 82.44556493220864 111.52570212397912 l -21.945142199264936 14.408505376579727 a47.252510229174,47.252510229174 0 0,0 -0.44056246171898433,-0.6837627241969902 l 22.189909524360964 -14.028621052461288" fill="red" stroke="none" /><line stroke="#e1ed5e" stroke-width="0.3" x1="26.63291911575756" x2="22.317208475507996" y1="142.92168965132927" y2="145.44649492493687" /><path d="M 25.769776987707644 143.4266507060508 a86.0,86.0 0 0,1 -11.730757126820373,-40.83630448921669" fill="none" id="id21" stroke="none" /><text fill="#e1ed5e" style="font-size:6.75px; font-family:Arial;" text-anchor="middle"><textPath startOffset="21.46611528233685" xlink:href="#id21">September</textPath></text><path d="M 81.87401531095188 110.60418214915194 l -21.570329533638073 12.619215304210961 a45.99047240617454,45.99047240617454 0 0,0 -0.39387117420284135,-0.6867475917227378 l 21.784352703993292 -12.246047866629917" fill="red" stroke="none" /><path d="M 81.69416730710424 110.29060199501025 l -22.011062145942812 12.373492308778609 a46.25054788926292,46.25054788926292 0 0,0 -0.38415174417522957,-0.6973470000949524 l 22.220790299569558 -11.992774790285834" fill="red" stroke="none" /><path d="M 81.18737489456691 109.33194174019688 l -56.437875316299255 27.995825220590643 a84.0,84.0 0 0,0 -0.6313869735411242,-1.300844176138861 l 56.9114155464551 -27.020192088486496" fill="red" stroke="none" /><path d="M 80.87730276802145 108.67885076344099 l -22.372525642339586 10.153787872895816 a45.56886875264932,45.56886875264932 0 0,0 -0.31802495116242663,-0.717062308736142 l 22.54399167823329 -9.767177227666979" fill="red" stroke="none" /><path d="M 80.58989483394504 108.01547362559985 l -17.779126466327583 7.341955031046198 a40.23542673255716,40.23542673255716 0 0,0 -0.2588429031336612,-0.6424268580257573 l 17.902871983718633 -7.034828805177636" fill="red" stroke="none" /><path d="M 80.45479744820244 107.68017299344265 l -22.915390536477656 9.004468644724325 a45.62103935688161,45.62103935688161 0 0,0 -0.28090768379687864,-0.7333613211171534 l 23.066992499868043 -8.608683756774013" fill="red" stroke="none" /><path d="M 80.20201598880116 107.00284435728193 l -23.204751521764905 8.207869203470517 a45.61360619755119,45.61360619755119 0 0,0 -0.2554561105988953,-0.7424750337551533 l 23.342598463307027 -7.807221466626067" fill="red" stroke="none" /><path d="M 79.97269907076064 106.31721596034903 l -19.297006473540275 6.086859018712367 a41.23423612478453,41.23423612478453 0 0,0 -0.20768943991251293,-0.6787411064646659 l 19.39892268595892 -5.753790939695653" fill="red" stroke="none" /><path d="M 79.86692584326677 105.97154293290107 l -23.442086390207372 6.953007982096126 a45.45149758859441,45.45149758859441 0 0,0 -0.2160187678045337,-0.7519896697275242 l 23.55829779489801 -6.548460836864005" fill="red" stroke="none" /><path d="M 79.76711848015287 105.62410040840567 l -17.522241557783314 4.8706283286759735 a39.18658762729857,39.18658762729857 0 0,0 -0.1750556746151658,-0.651447287552437 l 17.603485308740254 -4.568290107947997" fill="red" stroke="none" /><path d="M 79.67330655649465 105.27499134158121 l -18.670749530990882 4.845256430444009 a40.289204180726465,40.289204180726465 0 0,0 -0.1684255372916195,-0.6727762990007135 l 18.75138638257756 -4.523152292045904" fill="red" stroke="none" /><path d="M 79.0235259727143 100.99374915477108 l -20.300617508504505 0.9617308163500603 a41.323385480517686,41.323385480517686 0 0,0 -0.027544726671185796,-0.7108070031416396 l 20.314164368026894 -0.6121465661944239" fill="red" stroke="none" /><line stroke="#e1ed5e" stroke-width="0.3" x1="15.007084014347285" x2="10.007500721073583" y1="101.09737516637583" y2="101.16192664675087" /><path d="M 14.007167355692545 101.11028546245083 a86.0,86.0 0 0,1 10.666146001902534,-42.60595125391555" fill="none" id="id22" stroke="none" /><text fill="#e1ed5e" style="font-size:6.75px; font-family:Arial;" text-anchor="middle"><textPath startOffset="22.20632615414155" xlink:href="#id22">October</textPath></text><path d="M 79.16333360222342 97.38593545837743 l -21.131184996970056 -2.65101338038125 a42.29682725945658,42.29682725945658 0 0,0 0.0968476515140166,-0.7216274950439434 l 21.082421346398206 3.014359217489853" fill="red" stroke="none" /><path d="M 79.3925641242962 95.95851677861259 l -23.837234222008252 -4.674903890692706 a45.29132482476193,45.29132482476193 0 0,0 0.1566232332246141,-0.7637505088123342 l 23.753231692868646 5.084530055668442" fill="red" stroke="none" /><path d="M 79.46518482838121 95.60439243477599 l -22.35883675682886 -4.78605096644646 a43.86534200426367,43.86534200426367 0 0,0 0.16440231580051626,-0.7369833456791127 l 22.273140054026307 5.170212481675532" fill="red" stroke="none" /><path d="M 79.54389044137918 95.25157060432595 l -24.07594515024389 -5.588693458667703 a45.716080382061136,45.716080382061136 0 0,0 0.1845344817637535,-0.7650145617572576 l 23.97617786821932 6.002293252084358" fill="red" stroke="none" /><path d="M 79.81627453868168 94.20196356495316 l -22.959819659405426 -6.595505432456598 a44.88836559294052,44.88836559294052 0 0,0 0.21972663196419243,-0.7408089710233783 l 22.842887130329526 6.989743790226515" fill="red" stroke="none" /><path d="M 79.91906864156998 93.8553929516997 l -20.22826471099834 -6.1896898953297566 a42.15407653901649,42.15407653901649 0 0,0 0.21828688859206935,-0.6920290891082915 l 20.11872233863807 6.536969150864463" fill="red" stroke="none" /><path d="M 80.2630227832202 92.82701384747504 l -22.90996995958227 -8.32614313072902 a45.376041167145004,45.376041167145004 0 0,0 0.273110637880399,-0.7318007274531491 l 22.76325473320024 8.719266995211512" fill="red" stroke="none" /><path d="M 81.10775173730289 90.83032412892265 l -20.57422268986241 -9.986050931688837 a43.86962729259777,43.86962729259777 0 0,0 0.33558173142959596,-0.6765122930872405 l 20.399280945479404 10.338722813275039" fill="red" stroke="none" /><path d="M 81.26839172434947 90.50648371742162 l -19.023103485299767 -9.641251302357537 a42.32679518557899,42.32679518557899 0 0,0 0.33496733735272044,-0.6470502778033695 l 18.854326714786932 9.967274302421243" fill="red" stroke="none" /><path d="M 81.6062741919709 89.86733742301443 l -26.25845832554928 -14.465155172014473 a50.979115193498714,50.979115193498714 0 0,0 0.4300267004857737,-0.7649695164955053 l 26.005573983771075 14.915008198444763" fill="red" stroke="none" /><line stroke="#e1ed5e" stroke-width="0.3" x1="26.266209847984243" x2="21.928928074336255" y1="57.711370442889674" y2="55.22380399835377" /><path d="M 25.398753493254645 57.213857153982495 a86.0,86.0 0 0,1 29.58750427330803,-30.492523968695096" fill="none" id="id23" stroke="none" /><text fill="#e1ed5e" style="font-size:6.75px; font-family:Arial;" text-anchor="middle"><textPath startOffset="21.46611528233685" xlink:href="#id23">November</textPath></text><path d="M 81.78341655067845 89.55222093294921 l -30.3391216054029 -17.400432990273057 a55.97481047892051,55.97481047892051 0 0,0 0.4865552441087626,-0.8316806313815387 l 30.035106686823813 17.920093034008485" fill="red" stroke="none" /><path d="M 82.15384107792192 88.93136811851018 l -20.91824656057304 -12.974017086600192 a45.61499864985411,45.61499864985411 0 0,0 0.41959804459188027,-0.6637033398559907 l 20.691820919735196 13.332168074170399" fill="red" stroke="none" /><path d="M 85.31137513191541 84.99185889309783 l -15.399047170924561 -15.734016964054698 a43.01567495212265,43.01567495212265 0 0,0 0.5336335291594828,-0.5133550322541259 l 15.12593039815265 15.996755083071136" fill="red" stroke="none" /><path d="M 85.83668400450813 84.49514656593479 l -12.72183368194518 -13.92683512207863 a39.86270894512869,39.86270894512869 0 0,0 0.5106014624237811,-0.4584230344471579 l 12.480221231925428 14.143757165295067" fill="red" stroke="none" /><path d="M 88.70189139769569 82.29822771554957 l -14.686561274762646 -23.010768658610015 a48.29817862674041,48.29817862674041 0 0,0 0.7046493765017895,-0.4412513749207645 l 14.288292745888613 23.260164374853712" fill="red" stroke="none" /><line stroke="#e1ed5e" stroke-width="0.3" x1="56.762969772571076" x2="54.21961505331055" y1="26.818313649435495" y2="22.513508569990535" /><path d="M 56.25429882871897 25.957352633546506 a86.0,86.0 0 0,1 42.265352541879196,-11.944610805530505" fill="none" id="id24" stroke="none" /><text fill="#e1ed5e" style="font-size:6.75px; font-family:Arial;" text-anchor="middle"><textPath startOffset="22.20632615414155" xlink:href="#id24">December</textPath></text><path d="M 89.3179101791058 81.91981866633112 l -10.124069273740977 -17.13569267558728 a40.902983247033134,40.902983247033134 0 0,0 0.6092660386470587,-0.3529262149860453 l 9.8276065026286 17.30742304796337" fill="red" stroke="none" /></svg>