<?xml version="1.0" encoding="utf-8" ?>
<svg baseProfile="full" height="200mm" version="1.1" viewBox="0,0,200,200" width="200mm" xmlns="http://www.w3.org/2000/svg" xmlns:ev="http://www.w3.org/2001/xml-events" xmlns:xlink="http://www.w3.org/1999/xlink"><defs /><rect fill="#1a1a1a" height="200" width="200" x="0" y="0" /><rect fill="#1a1a1a" height="200" width="180" x="10" y="0" /><text alignment-baseline="middle" fill="#e1ed5e" style="dominant-baseline: central; font-size:9.0px; font-family:Arial;" text-anchor="middle" x="100.0" y="100.0">2025</text><line stroke="#e1ed5e" stroke-width="0.3" x1="100.0" x2="100.0" y1="15.0" y2="10.0" /><path d="M 100.0 14.0 a86.0,86.0 0 0,1 42.46469731375804,11.215312516191453" fill="none" id="id133" stroke="none" /><text fill="#e1ed5e" style="font-size:6.75px; font-family:Arial;" text-anchor="middle"><textPath startOffset="22.20632615414155" xlink:href="#id133">January</textPath></text><path d="M 102.88285421437855 79.19881850522331 l 2.388946624159379 -17.237400373083137 a38.40215611914366,38.40215611914366 0 0,0 0.6539905831727277,0.09638121179002235 l -2.6853061877607627 17.193724677132145" fill="red" stroke="none" /><path d="M 105.01212808612495 79.60689891045804 l 7.2943576414468545 -29.678924841744386 a51.56216996816892,51.56216996816892 0 0,0 0.8600842771410245,0.219254632818527 l -7.8041508072729044 29.548967212756992" fill="red" stroke="none" /><path d="M 106.74666289553966 80.11325718540242 l 9.080674363498844 -26.76657162897516 a49.26496070517281,49.26496070517281 0 0,0 0.8007151265614837,0.2793537852036525 l -9.5400714941236 26.6062969905993" fill="red" stroke="none" /><path d="M 107.08798089147638 80.2323363322302 l 11.696321211890307 -32.61985993005264 a55.65341529702331,55.65341529702331 0 0,0 0.8989820047556745,0.3311026591727425 l -12.256085542418559 32.41369400307357" fill="red" stroke="none" /><path d="M 107.4271985657038 80.35727306442388 l 8.554970777446172 -22.625348364748433 a45.188714592329674,45.188714592329674 0 0,0 0.7252075033162052,0.28136924451213424 l -8.943161445762044 22.474736416345753" fill="red" stroke="none" /><path d="M 107.76421540070413 80.48803036053334 l 8.366096408369925 -21.02453508775155 a43.627917375892906,43.627917375892906 0 0,0 0.6953794134274489,0.28366272267430664 l -8.72675969138576 20.87741147889366" fill="red" stroke="none" /><line stroke="#e1ed5e" stroke-width="0.3" x1="143.23703022742887" x2="145.7803849466894" y1="26.81831364943548" y2="22.513508569990506" /><path d="M 143.74570117128098 25.957352633546492 a86.0,86.0 0 0,1 28.547481713284135,27.462654790039103" fill="none" id="id134" stroke="none" /><text fill="#e1ed5e" style="font-size:6.75px; font-family:Arial;" text-anchor="middle"><textPath startOffset="19.985693538727396" xlink:href="#id134">February</textPath></text><path d="M 111.60114157652 82.49532879139004 l 15.760403287462378 -23.7804767610534 a49.5289569870063,49.5289569870063 0 0,0 0.7066020478213046,0.47710085689252035 l -16.167410029690224 23.50566399186221" fill="red" stroke="none" /><path d="M 114.16331599549186 84.49514656593476 l 19.226114267978097 -21.047195722137012 a49.506629362506075,49.506629362506075 0 0,0 0.6242364359562932,0.5801597354769186 l -19.58555858772924 20.713131400585453" fill="red" stroke="none" /><path d="M 114.42810811169701 84.74124197986012 l 19.61660812542573 -20.745968511222564 a49.55182172498205,49.55182172498205 0 0,0 0.6147180889946681,0.5913583145723671 l -19.970809458032818 20.405227109887893" fill="red" stroke="none" /><path d="M 115.19652480421416 85.50635884689758 l 20.54997079575929 -19.599474633692193 a49.39789966922384,49.39789966922384 0 0,0 0.5815607154407901,0.620368423083988 l -20.884298833170543 19.24283679373015" fill="red" stroke="none" /><path d="M 115.4437574822437 85.77008943001954 l 20.973570443669804 -19.32509184307958 a49.51928876916534,49.51928876916534 0 0,0 0.5721985872385188,0.6318359715281989 l -21.303112671524357 18.96120308428183" fill="red" stroke="none" /><path d="M 115.9244219780498 86.31012108654704 l 21.349427134142477 -18.353637748413316 a49.154112622422346,49.154112622422346 0 0,0 0.5460539418223836,0.6463556328383284 l -21.662191689451976 17.98342316594588" fill="red" stroke="none" /><path d="M 117.45458315368197 88.32363383020206 l 22.211681584396526 -14.85866062471176 a47.723371687849934,47.723371687849934 0 0,0 0.450879881663513,0.6867209928641692 l -22.46415810141796 14.474121567869917" fill="red" stroke="none" /><line stroke="#e1ed5e" stroke-width="0.3" x1="172.23445277983987" x2="176.4835382374775" y1="55.19839476539836" y2="52.563006222186495" /><path d="M 173.08426987136738 54.67131705675599 a86.0,86.0 0 0,1 12.851231095245387,41.99856678651699" fill="none" id="id135" stroke="none" /><text fill="#e1ed5e" style="font-size:6.75px; font-family:Arial;" text-anchor="middle"><textPath startOffset="22.20632615414155" xlink:href="#id135">March</textPath></text><path d="M 118.21658344932153 89.55222093294921 l 24.28157337686672 -13.926240051963996 a48.99169461895955,48.99169461895955 0 0,0 0.413262111518253,0.7351471833653799 l -24.517693129677408 13.506209358663822" fill="red" stroke="none" /><path d="M 118.3937258080291 89.86733742301442 l 25.566332373816817 -14.083879578212908 a50.18891938770732,50.18891938770732 0 0,0 0.4103348079927006,0.7602880801535215 l -25.804975281027982 13.641710514726928" fill="red" stroke="none" /><path d="M 118.56541770881063 90.18545643968196 l 24.59547313640892 -13.002311408773693 a48.82080877283296,48.82080877283296 0 0,0 0.38635989921612734,0.7463243493995638 l -24.815642468785164 12.577014337113784" fill="red" stroke="none" /><path d="M 119.34039704204932 91.81776055985345 l 25.74599364287613 -10.892221299929508 a48.95526200030427,48.95526200030427 0 0,0 0.3216554508974393,0.7789141878296549 l -25.929670780659766 10.44743254164655" fill="red" stroke="none" /><path d="M 119.47837535516314 92.15188598940014 l 26.331687731684664 -10.609410879588417 a49.38868397814315,49.38868397814315 0 0,0 0.31092869451261157,0.7912796129206615 l -26.510409976078975 10.15458226177197" fill="red" stroke="none" /><path d="M 119.61058180528143 92.48833698450437 l 26.096502300668444 -9.996038522066415 a48.94545076507855,48.94545076507855 0 0,0 0.29459430430597827,0.7893662724667629 l -26.26470119347605 9.54534911257032" fill="red" stroke="none" /><path d="M 119.7369772167798 92.82701384747503 l 26.947820103083735 -9.793614205310966 a49.672284309252944,49.672284309252944 0 0,0 0.28513527821998474,0.8061158282574016 l -27.112408462113528 9.32830075062695" fill="red" stroke="none" /><path d="M 119.85752413597 93.16781622104841 l 26.449876442360342 -9.100349849628454 a48.9716344034767,48.9716344034767 0 0,0 0.2673914347201013,0.7994663555888939 l -26.602605170852215 8.643710391117246" fill="red" stroke="none" /><path d="M 120.18372546131832 94.20196356495316 l 26.649673063266064 -7.65546359115067 a48.72744483673897,48.72744483673897 0 0,0 0.22464101412829027,0.8081532499958447 l -26.77750084796072 7.195599037735874" fill="red" stroke="none" /><path d="M 120.28053869075195 94.5502522615342 l 27.082952983929903 -7.277679554066867 a49.043733025783865,49.043733025783865 0 0,0 0.2120643265483216,0.8171703566737938 l -27.20421364234853 6.810412771844224" fill="red" stroke="none" /><path d="M 120.37134235888165 94.90015583598534 l 27.13877330676568 -6.7940301737986974 a48.97627320781852,48.97627320781852 0 0,0 0.19769435873751573,0.8195707477862467 l -27.251700465764014 6.3258741943530445" fill="red" stroke="none" /><path d="M 120.45610955862082 95.25157060432595 l 22.821979391304943 -5.297613287540789 a44.42877397307585,44.42877397307585 0 0,0 0.16651399477613585,0.7464495884681688 l -22.909787773083117 4.9039855295226555" fill="red" stroke="none" /><path d="M 120.91429891909075 98.10471618934814 l 21.79130565177465 -1.974759420554868 a42.8806004665808,42.8806004665808 0 0,0 0.06028913632884821,0.7356801699944343 l -21.82206927192299 1.599365333352665" fill="red" stroke="none" /><line stroke="#e1ed5e" stroke-width="0.3" x1="184.98032266829074" x2="189.97916517819016" y1="98.17113171792111" y2="98.06355123074" /><path d="M 185.9800911702706 98.14961562048488 a86.0,86.0 0 0,1 -9.607161424134198,41.387399972396054" fill="none" id="id136" stroke="none" /><text fill="#e1ed5e" style="font-size:6.75px; font-family:Arial;" text-anchor="middle"><textPath startOffset="21.466115282336823" xlink:href="#id136">April</textPath></text><path d="M 120.99824983174949 100.27111621757518 l 17.117991677934125 0.22101676060582093 a38.11941843329646,38.11941843329646 0 0,0 -0.014118592717054818,0.6560355256167317 l -17.11165102253206 -0.5156421020126675" fill="red" stroke="none" /><path d="M 120.8583938346157 102.4346265915055 l 27.153884558031258 3.169446791149426 a48.338230366152374,48.338230366152374 0 0,0 -0.1035784481978587,0.8256221438811797 l -27.09530460058655 -3.636386689318001" fill="red" stroke="none" /><path d="M 120.81339534386255 102.79330883721812 l 27.719034871203334 3.720095822218706 a48.96755275524613,48.96755275524613 0 0,0 -0.11930815743413362,0.8344409752144291 l -27.6508926627526 -4.196682269413545" fill="red" stroke="none" /><path d="M 120.76222939487914 103.15116336523771 l 28.513562979270592 4.3276130594548095 a49.84010243680133,49.84010243680133 0 0,0 -0.13603558257767268,0.8470937025672717 l -28.43484564233163 -4.8177859917152865" fill="red" stroke="none" /><path d="M 120.49622156327973 104.57218783832717 l 27.77389314918287 6.195652017501515 a49.456550117401754,49.456550117401754 0 0,0 -0.1925024008392224,0.8292953045594604 l -27.663130182413095 -6.672815979409541" fill="red" stroke="none" /><path d="M 120.41448212921028 104.9243191809786 l 26.983701020696525 6.508926147084583 a48.757633911458306,48.757633911458306 0 0,0 -0.20382707615092838,0.814187849028661 l -26.867662630250535 -6.97244183551064" fill="red" stroke="none" /><path d="M 120.32669344350535 105.2749913415812 l 26.975867761214584 7.000522208274484 a48.869423256663936,48.869423256663936 0 0,0 -0.21831117160835875,0.8124170833039575 l -26.85136851326445 -7.463830224753989" fill="red" stroke="none" /><path d="M 120.23288151984713 105.62410040840565 l 27.330125749443184 7.596909577038969 a49.36633230789775,49.36633230789775 0 0,0 -0.2346249263931349,0.8167601486731291 l -27.19530818616395 -8.06622720121668" fill="red" stroke="none" /><path d="M 119.9155931802556 106.66101706037122 l 25.70361776487256 8.596893644866048 a48.10318332860202,48.10318332860202 0 0,0 -0.26939882953630084,0.7829991014293266 l -25.55182810439303 -9.038065449384675" fill="red" stroke="none" /><path d="M 119.79798401119884 107.00284435728193 l 26.370677939465835 9.327704937110152 a48.97174886167862,48.97174886167862 0 0,0 -0.28794394669343876,0.7922980742960858 l -26.20620973176717 -9.780250808412369" fill="red" stroke="none" /><path d="M 119.54520255179757 107.68017299344265 l 25.849691436640693 10.157485016304156 a48.77374748257748,48.77374748257748 0 0,0 -0.31377170370315727,0.7787556363611052 l -25.671017118680144 -10.600940020508075" fill="red" stroke="none" /><path d="M 118.64920377521936 109.65438752849418 l 19.1695765331742 9.923775987386085 a42.58596753238186,42.58596753238186 0 0,0 -0.3426091618767645,0.6480874186370775 l -18.995914863072542 -10.252278421109295" fill="red" stroke="none" /><line stroke="#e1ed5e" stroke-width="0.3" x1="174.80103733775053" x2="179.2010983576182" y1="140.37084112569926" y2="142.7455964860345" /><path d="M 175.68104954172406 140.8457921977663 a86.0,86.0 0 0,1 -30.038265399797805,32.042727171017184" fill="none" id="id137" stroke="none" /><text fill="#e1ed5e" style="font-size:6.75px; font-family:Arial;" text-anchor="middle"><textPath startOffset="22.206326154141568" xlink:href="#id137">May</textPath></text><path d="M 117.14729908036423 112.12312394758627 l 22.583644970119902 15.966615259808671 a48.65779859264249,48.65779859264249 0 0,0 -0.48940525339447855,0.6797410923718358 l -22.30545992434982 -16.35298995763164" fill="red" stroke="none" /><path d="M 116.93607887273984 112.41649034213515 l 22.36498054922114 16.39662681533795 a48.731601574530444,48.731601574530444 0 0,0 -0.501793323637901,0.6722341589059551 l -22.079425958888148 -16.779173853753218" fill="red" stroke="none" /><path d="M 116.27256486870786 113.27417163493432 l 22.734632449806597 18.545534501214966 a50.339399492211044,50.339399492211044 0 0,0 -0.5535032717004029,0.66673034725768 l -22.41203317821265 -18.93412610558642" fill="red" stroke="none" /><path d="M 116.0416608686014 113.55231037782055 l 21.580530556216278 18.23165634852261 a49.25088657544059,49.25088657544059 0 0,0 -0.5526828729420262,0.6428950427107778 l -21.263505173703475 -18.600428490394915" fill="red" stroke="none" /><path d="M 115.80600337817218 113.82643327865902 l 21.569986487919287 18.86852557608912 a49.65808043998324,49.65808043998324 0 0,0 -0.5683276274857582,0.6385221142800624 l -21.24200001078519 -19.237021860110048" fill="red" stroke="none" /><path d="M 115.56566222782051 114.09645910891815 l 20.256134771172096 18.3442099235725 a48.328026522015506,48.328026522015506 0 0,0 -0.5637201757640816,0.6118069147050302 l -19.937368187412293 -18.690168093078864" fill="red" stroke="none" /><path d="M 115.32070863581623 114.36230785411682 l 20.602678171350757 19.31385900939872 a49.23996277736897,49.23996277736897 0 0,0 -0.5850022915855813,0.6133725639191414 l -20.267169328386213 -19.66563868990037" fill="red" stroke="none" /><path d="M 115.07121518719521 114.62390073753431 l 12.49109522745806 12.120358872231751 a38.40490043559895,38.40490043559895 0 0,0 -0.4644421194966237,0.4704774149897115 l -12.2806124829059 -12.333576781202128" fill="red" stroke="none" /><path d="M 111.7513745106137 117.40417183066458 l 16.006794959757872 23.706589359927808 a49.60454271551937,49.60454271551937 0 0,0 -0.7117668465533425,0.4717202544356878 l -15.596353414464565 -23.978607635454814" fill="red" stroke="none" /><path d="M 111.45004920935366 117.60387380957326 l 11.857475816452375 18.230271691965687 a42.74724209412859,42.74724209412859 0 0,0 -0.6202791703993553,0.39589151404207235 l -11.54191484400609 -18.43167763483157" fill="red" stroke="none" /><line stroke="#e1ed5e" stroke-width="0.3" x1="143.8653032363475" x2="146.44561519142675" y1="172.8068346515853" y2="177.08958963109032" /><path d="M 144.38136562736335 173.6633856474863 a86.0,86.0 0 0,1 -40.68145358897372,12.25698825130547" fill="none" id="id138" stroke="none" /><text fill="#e1ed5e" style="font-size:6.75px; font-family:Arial;" text-anchor="middle"><textPath startOffset="21.466115282336833" xlink:href="#id138">June</textPath></text><path d="M 109.89434966115114 118.52300852407294 l 10.303637914720117 19.289228646596783 a42.868682997801855,42.868682997801855 0 0,0 -0.6538680552811273,0.34207286281030463 l -9.970078956912495 -19.463730928351804" fill="red" stroke="none" /><path d="M 109.57404056367764 118.69057910512821 l 14.765141177525765 28.82472006896578 a53.386322437820965,53.386322437820965 0 0,0 -0.8215038799509528,0.4119190995482048 l -14.266783389892051 -29.07460700942329" fill="red" stroke="none" /><path d="M 109.2508944713604 118.85261126421891 l 12.092623578644702 24.64383657153435 a48.450869311905,48.450869311905 0 0,0 -0.7518821206250534,0.3609491097012496 l -11.666628790019415 -24.84833995773516" fill="red" stroke="none" /><path d="M 107.93186726928326 119.44442032107085 l 10.94693080993883 26.835638654523937 a49.98252570349533,49.98252570349533 0 0,0 -0.7994322357142748,0.31811058499175815 l -10.483377498182689 -27.02009608392176" fill="red" stroke="none" /><path d="M 107.2578585660854 119.70592522655815 l 7.275550161150716 19.75395995282364 a42.05118913423136,42.05118913423136 0 0,0 -0.6813903387923033,0.2443223327838704 l -6.934440261728677 -19.87626982664747" fill="red" stroke="none" /><path d="M 104.83641907484287 120.43548508189849 l 4.471307954974826 18.89276871926795 a40.414667257204556,40.414667257204556 0 0,0 -0.6783502798646024,0.15439031517828358 l -4.1454375257173615 -18.966935768023916" fill="red" stroke="none" /><path d="M 104.48393922423573 120.51570834832081 l 5.894715933661713 26.970542383258138 a48.607206167696305,48.607206167696305 0 0,0 -0.8189354561044548,0.17161588718698387 l -5.42958901612788 -27.068014251171665" fill="red" stroke="none" /><path d="M 103.06178313531738 120.77559828337769 l 4.199901743680854 28.498253338026252 a49.806069117026325,49.806069117026325 0 0,0 -0.8492442541037958,0.11769751528751903 l -3.708728898390228 -28.56632541880637" fill="red" stroke="none" /><path d="M 102.70371172650421 120.8252237178851 l 4.160554415895848 32.046492106424985 a53.31544320251216,53.31544320251216 0 0,0 -0.9111166901544432,0.1103235426256547 l -3.6083103026900245 -32.11336117777599" fill="red" stroke="none" /><path d="M 102.34483914955558 120.86867818915974 l 2.1781605740665517 19.385266606933506 a40.507253648535695,40.507253648535695 0 0,0 -0.6935756196686765,0.0718919488382719 l -1.8441523577922723 -19.419887924227535" fill="red" stroke="none" /><line stroke="#e1ed5e" stroke-width="0.3" x1="102.19456741930631" x2="102.32365962044197" y1="184.97166512339345" y2="189.96999836594603" /><path d="M 102.22038585953345 185.97133177190398 a86.0,86.0 0 0,1 -42.740103519485714,-10.115201625700543" fill="none" id="id139" stroke="none" /><text fill="#e1ed5e" style="font-size:6.75px; font-family:Arial;" text-anchor="middle"><textPath startOffset="22.20632615414155" xlink:href="#id139">July</textPath></text><path d="M 99.81925306533755 120.99922214144158 l -0.18892923613586354 21.94984388553576 a42.95065695726801,42.95065695726801 0 0,0 -0.7392427985689803,-0.012726735180553306 l 0.5667317245975119 -21.943339673076046" fill="red" stroke="none" /><path d="M 98.37488393609728 120.93702456842531 l -4.77160917697666 61.474562210262164 a82.6594684787438,82.6594684787438 0 0,0 -1.4176322507182622,-0.12231927567739126 l 5.829085745436464 -61.38331868230611" fill="red" stroke="none" /><path d="M 98.01472825383883 120.90594882070398 l -5.412346606852651 56.99483780070184 a78.2512448049911,78.2512448049911 0 0,0 -1.3398379479481288,-0.13887968157166145 l 6.392617151406373 -56.89322875067442" fill="red" stroke="none" /><path d="M 95.86986931433489 120.58985236759428 l -12.390392056995301 61.76955710278283 a84.0,84.0 0 0,0 -1.415234154282453,-0.29657607709383527 l 13.451817672707142 -61.54712504496245" fill="red" stroke="none" /><path d="M 95.51606077576429 120.51570834832081 l -6.950191256601224 31.79973894712727 a53.55040023730552,53.55040023730552 0 0,0 -0.8988303369332314,-0.20457085834566036 l 7.496541742927318 -31.67539135520392" fill="red" stroke="none" /><path d="M 95.16358092515715 120.4354850818985 l -6.339755340374117 26.787582646632263 a48.527569486352334,48.527569486352334 0 0,0 -0.8112116127418854,-0.19937607773147406 l 6.7999202378592125 -26.67448531058676" fill="red" stroke="none" /><path d="M 92.40401165467489 119.57807347666478 l -9.693513526767411 24.98428268269987 a47.79885418563039,47.79885418563039 0 0,0 -0.7645060814429363,-0.304212747413514 l 10.122140684252205 -24.81372309088029" fill="red" stroke="none" /><path d="M 90.10565033884886 118.52300852407294 l -10.226041011335944 19.143961079545857 a42.70398950839894,42.70398950839894 0 0,0 -0.6453939101031777,-0.35192021864672945 l 10.554057733307763 -18.96510020913936" fill="red" stroke="none" /><line stroke="#e1ed5e" stroke-width="0.3" x1="58.666819895761336" x2="56.23545636021788" y1="174.27360380694188" y2="178.64263932499728" /><path d="M 58.180547188652646 175.14741091055294 a86.0,86.0 0 0,1 -31.652253787137756,-30.449443065178592" fill="none" id="id140" stroke="none" /><text fill="#e1ed5e" style="font-size:6.75px; font-family:Arial;" text-anchor="middle"><textPath startOffset="22.20632615414155" xlink:href="#id140">August</textPath></text><path d="M 86.51685102203217 116.09983520530335 l -11.108896375569616 13.264809374406148 a38.30210237001495,38.30210237001495 0 0,0 -0.5018205086509931,-0.42766232423581857 l 11.335582360797666 -13.071622659947378" fill="red" stroke="none" /><path d="M 86.24171649860922 115.8653595955263 l -13.912931972926744 16.043692424005123 a42.23604818885488,42.23604818885488 0 0,0 -0.5451620878378562,-0.48104215760783436 l 14.187036413671189 -15.801827124625" fill="red" stroke="none" /><path d="M 84.67929136418377 114.36230785411682 l -15.516547808564642 14.54589613033616 a42.268435535553635,42.268435535553635 0 0,0 -0.4930383387064208,-0.5350957404112957 l 15.764632555266791 -14.27664913512352" fill="red" stroke="none" /><path d="M 84.19399662182784 113.82643327865904 l -20.35259459046036 17.80360186062031 a48.04064248081246,48.04064248081246 0 0,0 -0.5391017736017001,-0.6270971559516252 l 20.656038873632838 -17.450627605507155" fill="red" stroke="none" /><path d="M 83.28015986056508 112.70617746262583 l -21.6204372265022 16.430367152349064 a48.15511499931667,48.15511499931667 0 0,0 -0.49585719379070226,-0.6642817429071514 l 21.90005568698799 -16.055772529932604" fill="red" stroke="none" /><path d="M 83.06392112726016 112.41649034213515 l -21.609135761555244 15.842487951393911 a47.79438696539607,47.79438696539607 0 0,0 -0.48072096848150087,-0.6676793801767316 l 21.87863652241235 -15.468174965766043" fill="red" stroke="none" /><path d="M 82.6465618267979 111.8261652097733 l -22.157804510701187 15.100284693673451 a47.81393105392118,47.81393105392118 0 0,0 -0.45764055523540953,-0.6841105365910136 l 22.414448171347328 -14.716637242876617" fill="red" stroke="none" /><line stroke="#e1ed5e" stroke-width="0.3" x1="26.63291911575756" x2="22.317208475507996" y1="142.92168965132927" y2="145.44649492493687" /><path d="M 25.769776987707644 143.4266507060508 a86.0,86.0 0 0,1 -11.730757126820373,-40.83630448921669" fill="none" id="id141" stroke="none" /><text fill="#e1ed5e" style="font-size:6.75px; font-family:Arial;" text-anchor="middle"><textPath startOffset="21.46611528233685" xlink:href="#id141">September</textPath></text><path d="M 81.87401531095188 110.60418214915194 l -23.181346028817927 13.561702714039654 a47.85692804867644,47.85692804867644 0 0,0 -0.4098558561825603,-0.714618232107232 l 23.411353881152863 -13.160664636074115" fill="red" stroke="none" /><path d="M 81.69416730710424 110.29060199501025 l -18.732587798617068 10.530501868235946 a42.48956293715202,42.48956293715202 0 0,0 -0.352913434682563,-0.6406403945854066 l 18.91107764275115 -10.206490955252718" fill="red" stroke="none" /><line stroke="#e1ed5e" stroke-width="0.3" x1="15.007084014347285" x2="10.007500721073583" y1="101.09737516637583" y2="101.16192664675087" /><path d="M 14.007167355692545 101.11028546245083 a86.0,86.0 0 0,1 10.666146001902534,-42.60595125391555" fill="none" id="id142" stroke="none" /><text fill="#e1ed5e" style="font-size:6.75px; font-family:Arial;" text-anchor="middle"><textPath startOffset="22.20632615414155" xlink:href="#id142">October</textPath></text><line stroke="#e1ed5e" stroke-width="0.3" x1="26.266209847984243" x2="21.928928074336255" y1="57.711370442889674" y2="55.22380399835377" /><path d="M 25.398753493254645 57.213857153982495 a86.0,86.0 0 0,1 29.58750427330803,-30.492523968695096" fill="none" id="id143" stroke="none" /><text fill="#e1ed5e" style="font-size:6.75px; font-family:Arial;" text-anchor="middle"><textPath startOffset="21.46611528233685" xlink:href="#id143">November</textPath></text><line stroke="#e1ed5e" stroke-width="0.3" x1="56.762969772571076" x2="54.21961505331055" y1="26.818313649435495" y2="22.513508569990535" /><path d="M 56.25429882871897 25.957352633546506 a86.0,86.0 0 0,1 42.265352541879196,-11.944610805530505" fill="none" id="id144" stroke="none" /><text fill="#e1ed5e" style="font-size:6.75px; font-family:Arial;" text-anchor="middle"><textPath startOffset="22.20632615414155" xlink:href="#id144">December</textPath></text></svg>