<?xml version="1.0" encoding="utf-8" ?>
<svg baseProfile="full" height="200mm" version="1.1" viewBox="0,0,200,200" width="200mm" xmlns="http://www.w3.org/2000/svg" xmlns:ev="http://www.w3.org/2001/xml-events" xmlns:xlink="http://www.w3.org/1999/xlink"><defs /><rect fill="#1a1a1a" height="200" width="200" x="0" y="0" /><rect fill="#1a1a1a" height="200" width="180" x="10" y="0" /><text alignment-baseline="middle" fill="#e1ed5e" style="dominant-baseline: central; font-size:9.0px; font-family:Arial;" text-anchor="middle" x="100.0" y="100.0">2022</text><line stroke="#e1ed5e" stroke-width="0.3" x1="100.0" x2="100.0" y1="15.0" y2="10.0" /><path d="M 100.0 14.0 a86.0,86.0 0 0,1 42.46469731375804,11.215312516191453" fill="none" id="id97" stroke="none" /><text fill="#e1ed5e" style="font-size:6.75px; font-family:Arial;" text-anchor="middle"><textPath startOffset="22.20632615414155" xlink:href="#id97">January</textPath></text><path d="M 100.36148047927253 79.00311137660856 l 0.9948728691014945 -57.788002464191436 a78.79656564906837,78.79656564906837 0 0,0 1.3559514316043968,0.03502022503195044 l -1.989450935900759 57.76231544701713" fill="red" stroke="none" /><path d="M 100.72285384407766 79.0124445844662 l 1.9936736985738162 -57.88492040559007 a78.91924330633026,78.91924330633026 0 0,0 1.3572575343322884,0.05844636449541237 l -2.989772065295436 57.84202631457046" fill="red" stroke="none" /><path d="M 101.08401301168833 79.027996857942 l 3.1660932455199835 -61.253247679820795 a82.33501852746764,82.33501852746764 0 0,0 1.4147428282954293,0.08534115089786003 l -4.219998122655025 61.18967325954263" fill="red" stroke="none" /><path d="M 102.52436894288641 79.15227682838746 l 6.911516834209172 -57.0793702963159 a78.49629186628914,78.49629186628914 0 0,0 1.3399887857530484,0.1739690023264016 l -7.893020348470066 56.951942970825364" fill="red" stroke="none" /><path d="M 105.36241919743992 79.69619591428918 l 12.428718391305395 -47.05903323895498 a69.6726375927527,69.6726375927527 0 0,0 1.156904561521157,0.3162257189867273 l -13.236920842050264 46.838120979141955" fill="red" stroke="none" /><path d="M 109.08828744355905 81.06846463323043 l 22.03936343943008 -45.9095281708282 a71.92561553563546,71.92561553563546 0 0,0 1.111520422822599,0.5454182441988529 l -22.82635512926311 45.52335476649452" fill="red" stroke="none" /><path d="M 109.73455568895987 81.39251694778311 l 22.118673745476105 -42.279571868209 a68.71580373018843,68.71580373018843 0 0,0 1.0433511619599491,0.5573220571800576 l -22.843169953964367 41.892571084527184" fill="red" stroke="none" /><line stroke="#e1ed5e" stroke-width="0.3" x1="143.23703022742887" x2="145.7803849466894" y1="26.81831364943548" y2="22.513508569990506" /><path d="M 143.74570117128098 25.957352633546492 a86.0,86.0 0 0,1 28.547481713284135,27.462654790039103" fill="none" id="id98" stroke="none" /><text fill="#e1ed5e" style="font-size:6.75px; font-family:Arial;" text-anchor="middle"><textPath startOffset="19.985693538727396" xlink:href="#id98">February</textPath></text><path d="M 112.19680574252982 82.90503203632743 l 16.943662164515043 -23.748132749189566 a50.172958311051495,50.172958311051495 0 0,0 0.698729364307291,0.507656598735395 l -17.34993684517612 23.452956915637493" fill="red" stroke="none" /><line stroke="#e1ed5e" stroke-width="0.3" x1="172.23445277983987" x2="176.4835382374775" y1="55.19839476539836" y2="52.563006222186495" /><path d="M 173.08426987136738 54.67131705675599 a86.0,86.0 0 0,1 12.851231095245387,41.99856678651699" fill="none" id="id99" stroke="none" /><text fill="#e1ed5e" style="font-size:6.75px; font-family:Arial;" text-anchor="middle"><textPath startOffset="22.20632615414155" xlink:href="#id99">March</textPath></text><path d="M 117.84615892207809 88.93136811851018 l 23.3941560917533 -14.509637793115514 a48.52846032986088,48.52846032986088 0 0,0 0.4341776680702172,0.7136739269763213 l -23.64044955810974 14.104796092932112" fill="red" stroke="none" /><path d="M 118.21658344932153 89.55222093294921 l 26.23625276271747 -15.047309676633258 a51.24504070973787,51.24504070973787 0 0,0 0.43226987539944095,0.7689598743667236 l -26.491380279409345 14.59346629233174" fill="red" stroke="none" /><path d="M 118.3937258080291 89.86733742301442 l 29.008748815781622 -15.980224267697771 a54.119104388600675,54.119104388600675 0 0,0 0.4424672333844368,0.8198245843347459 l -29.279524148384525 15.478518700030568" fill="red" stroke="none" /><path d="M 119.04729006885535 91.15688171328212 l 25.207819465702915 -11.703277919305428 a48.79210096901587,48.79210096901587 0 0,0 0.34711556358387635,0.7648231324455184 l -25.40553734625014 11.267632778017846" fill="red" stroke="none" /><path d="M 119.196687751892 91.48605970444005 l 26.49092896944057 -11.749015795576875 a49.97945289043015,49.97945289043015 0 0,0 0.34202436653975693,0.7894393941356795 l -26.689244045823006 11.291277256854594" fill="red" stroke="none" /><path d="M 119.34039704204932 91.81776055985345 l 27.164578927169924 -11.492374669952065 a50.495576343665505,50.495576343665505 0 0,0 0.3317759258861049,0.803421720763584 l -27.358376539942228 11.023078378735178" fill="red" stroke="none" /><path d="M 120.73433829027371 96.67025291283417 l 29.599630429108657 -4.753432775269364 a50.9788799772243,50.9788799772243 0 0,0 0.13168113322998554,0.8676141406246417 l -29.677067455777944 4.243219522252641" fill="red" stroke="none" /><path d="M 120.94382443527127 98.46500227214037 l 29.996078151681033 -2.198448136816327 a51.076533688110196,51.076533688110196 0 0,0 0.05671783710237101,0.8773998360647733 l -30.02947657978782 1.6817892364985183" fill="red" stroke="none" /><line stroke="#e1ed5e" stroke-width="0.3" x1="184.98032266829074" x2="189.97916517819016" y1="98.17113171792111" y2="98.06355123074" /><path d="M 185.9800911702706 98.14961562048488 a86.0,86.0 0 0,1 -9.607161424134198,41.387399972396054" fill="none" id="id100" stroke="none" /><text fill="#e1ed5e" style="font-size:6.75px; font-family:Arial;" text-anchor="middle"><textPath startOffset="21.466115282336823" xlink:href="#id100">April</textPath></text><path d="M 120.9764740272857 100.99374915477107 l 30.090886691852145 1.4255395438453136 a51.12463485078203,51.12463485078203 0 0,0 -0.04921025856556661,0.8786822242700457 l -30.06189008239905 -1.9432934844507825" fill="red" stroke="none" /><path d="M 120.8583938346157 102.4346265915055 l 28.767146783145826 3.35774945450297 a49.96244491479047,49.96244491479047 0 0,0 -0.10705879121443138,0.8533639020633034 l -28.705086482684546 -3.852431110853668" fill="red" stroke="none" /><path d="M 120.81339534386255 102.79330883721812 l 26.32964424028784 3.5336295074456707 a47.565705398427,47.565705398427 0 0,0 -0.11589259313215647,0.8105525264415709 l -26.264917596139085 -3.986327505867651" fill="red" stroke="none" /><path d="M 120.41448212921028 104.9243191809786 l 25.98523365801243 6.268078891958224 a47.73052901192407,47.73052901192407 0 0,0 -0.19953335285515625,0.7970365588246042 l -25.873488990862214 -6.714443290180224" fill="red" stroke="none" /><path d="M 120.32669344350535 105.2749913415812 l 29.626070017272674 7.688277646363808 a51.607411485388965,51.607411485388965 0 0,0 -0.23054240697456185,0.8579340602328398 l -29.489339533956336 -8.197102639772195" fill="red" stroke="none" /><path d="M 119.67450827220406 107.3425965602758 l 27.806073443378 10.377325643689446 a50.67939702645096,50.67939702645096 0 0,0 -0.3120540924891396,0.8146747658683947 l -27.62332507129535 -10.854423976390985" fill="red" stroke="none" /><line stroke="#e1ed5e" stroke-width="0.3" x1="174.80103733775053" x2="179.2010983576182" y1="140.37084112569926" y2="142.7455964860345" /><path d="M 175.68104954172406 140.8457921977663 a86.0,86.0 0 0,1 -30.038265399797805,32.042727171017184" fill="none" id="id101" stroke="none" /><text fill="#e1ed5e" style="font-size:6.75px; font-family:Arial;" text-anchor="middle"><textPath startOffset="22.206326154141568" xlink:href="#id101">May</textPath></text><path d="M 117.94076556474637 110.91462005526583 l 25.986379202899123 15.80932845859386 a51.41754050525081,51.41754050525081 0 0,0 -0.46651712416928937,0.7521741464470332 l -25.71039743906187 -16.25429893640617" fill="red" stroke="none" /><path d="M 117.14729908036423 112.12312394758627 l 37.38823629544285 26.433447079157695 a66.78872500704186,66.78872500704186 0 0,0 -0.6717680172836262,0.9330270215157973 l -36.92768848578362 -27.073107706124624" fill="red" stroke="none" /><path d="M 115.32070863581623 114.36230785411682 l 21.74644391172032 20.38607544968639 a50.807715361058854,50.807715361058854 0 0,0 -0.603628196285073,0.6329017505311729 l -21.392309164056282 -20.757384316800074" fill="red" stroke="none" /><path d="M 114.0293411484842 115.62618273729858 l 20.026429434315823 22.30586900725877 a50.9768188448444,50.9768188448444 0 0,0 -0.6579836463043164,0.5805940654168126 l -19.639503435104917 -22.647286214447874" fill="red" stroke="none" /><path d="M 112.04921762599082 117.19931262002967 l 17.20767866379928 24.562610950382027 a50.99043283609625,50.99043283609625 0 0,0 -0.7231975890633588,0.4974218962254696 l -16.782324190113037 -24.855173635972587" fill="red" stroke="none" /><path d="M 111.7513745106137 117.40417183066458 l 15.38928577594419 22.792037965756858 a48.50103836814494,48.50103836814494 0 0,0 -0.6959328570336111,0.4612263495830684 l -14.994678220170615 -23.053562336431245" fill="red" stroke="none" /><path d="M 111.45004920935366 117.60387380957326 l 16.209317809013452 24.921009511124065 a50.72875205734571,50.72875205734571 0 0,0 -0.7360939957772596,0.46981001518706006 l -15.777942011189264 -25.196333955134932" fill="red" stroke="none" /><line stroke="#e1ed5e" stroke-width="0.3" x1="143.8653032363475" x2="146.44561519142675" y1="172.8068346515853" y2="177.08958963109032" /><path d="M 144.38136562736335 173.6633856474863 a86.0,86.0 0 0,1 -40.68145358897372,12.25698825130547" fill="none" id="id102" stroke="none" /><text fill="#e1ed5e" style="font-size:6.75px; font-family:Arial;" text-anchor="middle"><textPath startOffset="21.466115282336833" xlink:href="#id102">June</textPath></text><path d="M 110.8373102113329 117.98757091392108 l 15.310081995519674 25.411396390994824 a50.667114407198426,50.667114407198426 0 0,0 -0.7509158993238524,0.4436543492834086 l -14.87039822516744 -25.67116931257198" fill="red" stroke="none" /><path d="M 109.89434966115114 118.52300852407294 l 14.087763806682634 26.37341290867105 a50.900200626820784,50.900200626820784 0 0,0 -0.776371301142727,0.4061607711841357 l -13.631701603013411 -26.612003098799903" fill="red" stroke="none" /><path d="M 109.57404056367764 118.69057910512821 l 26.721256894776612 52.16562040431013 a79.61124057894718,79.61124057894718 0 0,0 -1.2250505379816394,0.6142657713759901 l -25.819352449112213 -52.61785401659542" fill="red" stroke="none" /><path d="M 107.93186726928326 119.44442032107085 l 11.032565779039261 27.045566818579204 a50.20924840195414,50.20924840195414 0 0,0 -0.8030584917140478,0.31955354709146255 l -10.565386211283348 -27.231467210076733" fill="red" stroke="none" /><path d="M 107.59598834532513 119.57807347666477 l 10.868786243820564 28.013457368538706 a51.04803334916944,51.04803334916944 0 0,0 -0.8219457260465138,0.31078954249077984 l -10.384970297013774 -28.196395161136117" fill="red" stroke="none" /><path d="M 107.2578585660854 119.70592522655815 l 17.537057373460712 47.61513856306394 a71.74199248846887,71.74199248846887 0 0,0 -1.1624950821559263,0.4168293768671808 l -16.714842730675052 -47.90995548097107" fill="red" stroke="none" /><path d="M 105.53697534728816 120.25689768951611 l 7.899977910974381 28.901888532052546 a50.9621229507035,50.9621229507035 0 0,0 -0.8481785250422098,0.22401165743829982 l -7.401308943120673 -29.03359153879443" fill="red" stroke="none" /><path d="M 105.18746579009965 120.34920634021253 l 7.472362039371699 29.31231609818961 a51.24976147819399,51.24976147819399 0 0,0 -0.856717163076853,0.21056023485927036 l -6.966691591551635 -29.43659759136291" fill="red" stroke="none" /><path d="M 104.83641907484287 120.43548508189849 l 6.873761665250135 29.043937630923494 a50.84625458143176,50.84625458143176 0 0,0 -0.8534419151807414,0.19424060132681353 l -6.372799600676531 -29.157954965827994" fill="red" stroke="none" /><path d="M 102.70371172650421 120.8252237178851 l 3.7168407774412926 28.628806819598783 a49.869074894751236,49.869074894751236 0 0,0 -0.8522211151201472,0.10319210869082338 l -3.223492239269765 -28.688544457014956" fill="red" stroke="none" /><path d="M 102.34483914955558 120.86867818915974 l 3.377179961757578 30.056339609544256 a51.24547726881419,51.24547726881419 0 0,0 -0.877438247488292,0.09095006198070389 l -2.8593091176636833 -30.110019039980717" fill="red" stroke="none" /><line stroke="#e1ed5e" stroke-width="0.3" x1="102.19456741930631" x2="102.32365962044197" y1="184.97166512339345" y2="189.96999836594603" /><path d="M 102.22038585953345 185.97133177190398 a86.0,86.0 0 0,1 -42.740103519485714,-10.115201625700543" fill="none" id="id103" stroke="none" /><text fill="#e1ed5e" style="font-size:6.75px; font-family:Arial;" text-anchor="middle"><textPath startOffset="22.20632615414155" xlink:href="#id103">July</textPath></text><path d="M 99.81925306533755 120.99922214144158 l -0.2583135612572623 30.01093138933931 a51.012043061937,51.012043061937 0 0,0 -0.8779908887388136,-0.015115409380447087 l 0.7748641398887438 -30.002038502679703" fill="red" stroke="none" /><path d="M 99.45781275523022 120.99299961872073 l -0.7523544262659055 29.13048275499256 a50.14019668296082,50.14019668296082 0 0,0 -0.862601553551634,-0.029709741632446916 l 1.2536763314921826 -29.11321621493402" fill="red" stroke="none" /><path d="M 98.73552117531835 120.96189622390904 l -2.131019270169341 35.32696943634979 a56.391185522480384,56.391185522480384 0 0,0 -0.9684172125347854,-0.06678772088730381 l 2.7387992434830566 -35.2850533709462" fill="red" stroke="none" /><path d="M 98.37488393609728 120.93702456842531 l -2.7154856019397875 34.984694340220315 a56.08992305681199,56.08992305681199 0 0,0 -0.9619573574452644,-0.08300172850584142 l 3.3172872771265935 -34.93276835943581" fill="red" stroke="none" /><path d="M 97.65516085044442 120.86867818915974 l -3.8197831372779865 33.99543421105939 a55.20935969021198,55.20935969021198 0 0,0 -0.9434821516051963,-0.11424254927381972 l 4.404392711934572 -33.92464613306022" fill="red" stroke="none" /><path d="M 97.2962882734958 120.8252237178851 l -7.793506556208527 60.02915029321452 a81.53294664368325,81.53294664368325 0 0,0 -1.3902198604472664,-0.19267180494576389 l 8.825655007842625 -59.88610392277615" fill="red" stroke="none" /><path d="M 95.16358092515715 120.4354850818985 l -6.884978505861622 29.091332526906527 a50.89495872579901,50.89495872579901 0 0,0 -0.8507860992296008,-0.2091025236676819 l 7.384717889834433 -28.968508744924815" fill="red" stroke="none" /><path d="M 94.81253420990036 120.34920634021253 l -8.931557407212471 35.03639579960087 a57.15690457360283,57.15690457360283 0 0,0 -0.9512802098945662,-0.25124174948443906 l 9.533328059918528 -34.87746270081285" fill="red" stroke="none" /><path d="M 92.7421414339146 119.70592522655815 l -12.281634789542963 33.34605856795655 a56.53587166682844,56.53587166682844 0 0,0 -0.9103077050395083,-0.3442004821119444 l 12.853812715342755 -33.12970983573797" fill="red" stroke="none" /><line stroke="#e1ed5e" stroke-width="0.3" x1="58.666819895761336" x2="56.23545636021788" y1="174.27360380694188" y2="178.64263932499728" /><path d="M 58.180547188652646 175.14741091055294 a86.0,86.0 0 0,1 -31.652253787137756,-30.449443065178592" fill="none" id="id104" stroke="none" /><text fill="#e1ed5e" style="font-size:6.75px; font-family:Arial;" text-anchor="middle"><textPath startOffset="22.20632615414155" xlink:href="#id104">August</textPath></text><path d="M 89.7882731507175 118.34994917583269 l -26.226893764555133 47.12838237083917 a74.93453792728074,74.93453792728074 0 0,0 -1.1217030665538221,-0.636932275841029 l 27.03424559803016 -46.669946929203505" fill="red" stroke="none" /><path d="M 87.95078237400918 117.19931262002967 l -17.326452749346327 24.732151636913862 a51.197438458694336,51.197438458694336 0 0,0 -0.7174289058348641,-0.5118664753943012 l 17.74960898303008 -24.43024089967534" fill="red" stroke="none" /><path d="M 86.24171649860922 115.8653595955263 l -22.856549504580627 26.35702171469742 a55.88716739611252,55.88716739611252 0 0,0 -0.7213640046240917,-0.6365198625261127 l 23.306855862111306 -25.959678710399018" fill="red" stroke="none" /><path d="M 84.9287848128048 114.62390073753433 l -31.672839424957854 30.732787905515067 a65.13244848956987,65.13244848956987 0 0,0 -0.7738151995616761,-0.8113421430680174 l 32.197161175898486 -30.18303864586455" fill="red" stroke="none" /><path d="M 84.19399662182784 113.82643327865904 l -22.525638510713325 19.704490153258888 a50.927768418564185,50.927768418564185 0 0,0 -0.5715004808894946,-0.6647841720060295 l 22.861481501173596 -19.31382888209133" fill="red" stroke="none" /><path d="M 82.24976979558568 111.22182372390057 l -26.54846735724831 16.784132791059704 a52.40904698596894,52.40904698596894 0 0,0 -0.475513173910982,-0.7666786430352335 l 26.833445170827247 -16.324657816659208" fill="red" stroke="none" /><line stroke="#e1ed5e" stroke-width="0.3" x1="26.63291911575756" x2="22.317208475507996" y1="142.92168965132927" y2="145.44649492493687" /><path d="M 25.769776987707644 143.4266507060508 a86.0,86.0 0 0,1 -11.730757126820373,-40.83630448921669" fill="none" id="id105" stroke="none" /><text fill="#e1ed5e" style="font-size:6.75px; font-family:Arial;" text-anchor="middle"><textPath startOffset="21.46611528233685" xlink:href="#id105">September</textPath></text><path d="M 81.18737489456691 109.33194174019688 l -25.955350156200055 12.875067362827401 a49.97322145237387,49.97322145237387 0 0,0 -0.37562429822517523,-0.7738973105859303 l 26.17312771103995 -12.426381096276186" fill="red" stroke="none" /><path d="M 81.02952815118164 109.00673069616217 l -26.038109494921986 12.362277645326627 a49.823758510119546,49.823758510119546 0 0,0 -0.361163844270614,-0.7779147899149506 l 26.247047956032425 -11.91224278813285" fill="red" stroke="none" /><path d="M 80.87730276802145 108.67885076344099 l -27.203619728016402 12.346383618417295 a50.874238312627256,50.874238312627256 0 0,0 -0.3550511039152863,-0.8005465085749859 l 27.41211191666297 -11.876288773349614" fill="red" stroke="none" /><path d="M 80.73074385275274 108.34839909993369 l -27.32574116044658 11.838868670676865 a50.78010982802546,50.78010982802546 0 0,0 -0.340587078296395,-0.805047245296187 l 27.52547921993528 -11.366746899714519" fill="red" stroke="none" /><path d="M 80.32549172779594 107.34259656027581 l -46.01696567705641 17.173695485545807 a70.11717567973187,70.11717567973187 0 0,0 -0.41227476587054285,-1.1344030907094291 l 46.30576470393218 -16.379044597830262" fill="red" stroke="none" /><path d="M 80.20201598880116 107.00284435728193 l -28.131588420735852 9.950565427373462 a50.83957136753341,50.83957136753341 0 0,0 -0.284723797320859,-0.8275406312696535 l 28.29870304899994 -9.464852093014512" fill="red" stroke="none" /><path d="M 80.0844068197444 106.66101706037122 l -24.84719382340795 8.310452039367611 a47.20012698436081,47.20012698436081 0 0,0 -0.2510771398652445,-0.7727359799243148 l 24.986563214289443 -7.881517159465493" fill="red" stroke="none" /><path d="M 79.67330655649465 105.27499134158121 l -43.29860324510205 11.23644422814131 a65.73283717660766,65.73283717660766 0 0,0 -0.27479044682815723,-1.0976512397743072 l 43.48560500622527 -10.489465148969611" fill="red" stroke="none" /><path d="M 79.58551787078972 104.9243191809786 l -25.663990431423333 6.190589579594593 a47.40007204927997,47.40007204927997 0 0,0 -0.18449786019805026,-0.7948119529755845 l 25.766748857551935 -5.747908969270434" fill="red" stroke="none" /><path d="M 79.50377843672027 104.57218783832718 l -28.41548109605297 6.338774036300949 a50.11390771097942,50.11390771097942 0 0,0 -0.18056747620123423,-0.8435511348040463 l 28.520382610978647 -5.848709082080738" fill="red" stroke="none" /><path d="M 79.18660465613746 102.79330883721812 l -29.628606775917447 3.9763742423715502 a50.89424512506274,50.89424512506274 0 0,0 -0.10905543898327527,-0.8692791493002195 l 29.69266372414757 -3.4657773387839224" fill="red" stroke="none" /><line stroke="#e1ed5e" stroke-width="0.3" x1="15.007084014347285" x2="10.007500721073583" y1="101.09737516637583" y2="101.16192664675087" /><path d="M 14.007167355692545 101.11028546245083 a86.0,86.0 0 0,1 10.666146001902534,-42.60595125391555" fill="none" id="id106" stroke="none" /><text fill="#e1ed5e" style="font-size:6.75px; font-family:Arial;" text-anchor="middle"><textPath startOffset="22.20632615414155" xlink:href="#id106">October</textPath></text><path d="M 79.00175016825051 100.2711162175752 l -30.061735707622677 0.38813825647854355 a51.06424130193707,51.06424130193707 0 0,0 -0.003782894219185508,-0.8790113920652696 l 30.06396289913137 0.12938261379040136" fill="red" stroke="none" /><path d="M 79.16333360222342 97.38593545837743 l -50.58082541282183 -6.345618808379441 a71.97731630346601,71.97731630346601 0 0,0 0.1648074926166881,-1.2280072485210582 l 50.46410192114731 7.215344398965159" fill="red" stroke="none" /><path d="M 79.21141760316559 97.0276538004421 l -29.644643838083354 -4.238583601678981 a50.946126614893544,50.946126614893544 0 0,0 0.1315965295691946,-0.8670567082070388 l 29.56729141507486 4.748239422278112" fill="red" stroke="none" /><path d="M 79.3925641242962 95.95851677861259 l -35.733841883730285 -7.008039393153002 a57.414558515893354,57.414558515893354 0 0,0 0.19854693638828189,-0.9681853743385079 l 35.607915651427014 7.622100423654912" fill="red" stroke="none" /><path d="M 79.46518482838121 95.60439243477599 l -36.0154327835469 -7.709332053155055 a57.83130732531753,57.83130732531753 0 0,0 0.2167451663577462,-0.9716260813255897 l 35.87739323018712 8.328136304030604" fill="red" stroke="none" /><path d="M 79.54389044137918 95.25157060432595 l -35.68149775644965 -8.282663540829525 a57.63020335016048,57.63020335016048 0 0,0 0.23262623611394834,-0.9643859314151666 l 35.53363872007488 8.895634703904088" fill="red" stroke="none" /><path d="M 79.62865764111835 94.90015583598534 l -35.13684244558854 -8.796299121148069 a57.221161981289654,57.221161981289654 0 0,0 0.24742340012116248,-0.9534232910238433 l 34.98022271359707 9.399818837720774" fill="red" stroke="none" /><path d="M 79.71946130924805 94.55025226153421 l -31.689082824913136 -8.515429993872722 a53.81326741220313,53.81326741220313 0 0,0 0.24808743831197158,-0.8925025126554343 l 31.537808616034805 9.059643809947099" fill="red" stroke="none" /><path d="M 80.02781315780177 93.51064311812611 l -34.49350262270931 -11.207618394179656 a57.268614989442426,57.268614989442426 0 0,0 0.3126940179348528,-0.9349153131793684 l 34.29547131100268 11.799706810281348" fill="red" stroke="none" /><path d="M 80.14247586403 93.16781622104843 l -34.59743999351153 -11.903602216388457 a57.58795703275381,57.58795703275381 0 0,0 0.3305738477502635,-0.9345767831430875 l 34.38741306495145 12.497376625958156" fill="red" stroke="none" /><path d="M 80.2630227832202 92.82701384747504 l -28.237325411413348 -10.262257585635268 a51.04430856491756,51.04430856491756 0 0,0 0.3072269707482214,-0.8232155379653617 l 28.0564938521635 10.746796260629973" fill="red" stroke="none" /><path d="M 80.38941819471856 92.48833698450439 l -33.997686374439226 -13.022518448816077 a57.40643714461064,57.40643714461064 0 0,0 0.361404822325181,-0.9197358525091934 l 33.76848800223235 13.605803306221034" fill="red" stroke="none" /><path d="M 80.803312248108 91.48605970444005 l -29.89948860455043 -13.26074915303177 a53.70820824981512,53.70820824981512 0 0,0 0.38208961297962774,-0.841883814303136 l 29.666796674607454 13.773454976176975" fill="red" stroke="none" /><path d="M 80.95270993114464 91.15688171328213 l -27.15999525330703 -12.609617946881169 a50.94441194824116,50.94441194824116 0 0,0 0.3761196972440554,-0.7922040048776782 l 26.938917362221222 13.07526436739938" fill="red" stroke="none" /><line stroke="#e1ed5e" stroke-width="0.3" x1="26.266209847984243" x2="21.928928074336255" y1="57.711370442889674" y2="55.22380399835377" /><path d="M 25.398753493254645 57.213857153982495 a86.0,86.0 0 0,1 29.58750427330803,-30.492523968695096" fill="none" id="id107" stroke="none" /><text fill="#e1ed5e" style="font-size:6.75px; font-family:Arial;" text-anchor="middle"><textPath startOffset="21.46611528233685" xlink:href="#id107">November</textPath></text><path d="M 81.78341655067845 89.55222093294921 l -26.157039658323534 -15.001878489373265 a51.15372417956081,51.15372417956081 0 0,0 0.4446484506567733,-0.7600483370854046 l 25.894931533196434 15.449906238812561" fill="red" stroke="none" /><path d="M 82.54541684631803 88.32363383020206 l -52.36374946104589 -35.02909850939381 a84.0,84.0 0 0,0 0.8143021373250385,-1.194887906918337 l 51.75302285805211 35.92526443958256" fill="red" stroke="none" /><path d="M 85.05521093208273 85.24692304244772 l -20.871034932190444 -20.603300798629387 a50.327395092976055,50.327395092976055 0 0,0 0.6139084235074143,-0.611272105637419 l 20.513290708515715 20.959508754916914" fill="red" stroke="none" /><path d="M 85.83668400450813 84.49514656593479 l -20.762579766319426 -22.729193946695595 a51.7847523299974,51.7847523299974 0 0,0 0.6633109231825344,-0.5955270961110368 l 20.368257855540918 23.08322005157591" fill="red" stroke="none" /><path d="M 86.65592168130627 83.78471172551755 l -19.534399657811132 -23.737564645181614 a51.741905361822774,51.741905361822774 0 0,0 0.6925939880478873,-0.5600295049846911 l 19.122902271198743 24.07030024743044" fill="red" stroke="none" /><path d="M 87.80319425747018 82.90503203632743 l -21.220765353539033 -29.742894290625816 a57.537113227146236,57.537113227146236 0 0,0 0.8111879783241474,-0.5682890184246369 l 20.705646235631225 30.103768151814396" fill="red" stroke="none" /><line stroke="#e1ed5e" stroke-width="0.3" x1="56.762969772571076" x2="54.21961505331055" y1="26.818313649435495" y2="22.513508569990535" /><path d="M 56.25429882871897 25.957352633546506 a86.0,86.0 0 0,1 42.265352541879196,-11.944610805530505" fill="none" id="id108" stroke="none" /><text fill="#e1ed5e" style="font-size:6.75px; font-family:Arial;" text-anchor="middle"><textPath startOffset="22.20632615414155" xlink:href="#id108">December</textPath></text><path d="M 89.94658935756843 81.56283822128135 l -24.739511149396876 -45.37031119197601 a72.67696343215104,72.67696343215104 0 0,0 1.1034957044582179,-0.5894491888452262 l 23.95487039841035 45.789439107322984" fill="red" stroke="none" /><path d="M 92.23578459929587 80.48803036053334 l -21.292922796762625 -53.51047616585459 a78.5913154974375,78.5913154974375 0 0,0 1.261266495593251,-0.4893518053395013 l 20.368673136169697 53.86907067508464" fill="red" stroke="none" /><path d="M 94.63758080256005 79.69619591428918 l -7.440677825722385 -28.17274429244243 a50.13875782310468,50.13875782310468 0 0,0 0.8363410094194771,-0.2132019452103914 l 6.954627927617908 28.296649233821686" fill="red" stroke="none" /><path d="M 98.91598698831166 79.02799685794201 l -1.4867778809338217 -28.764147712510233 a49.80254679875274,49.80254679875274 0 0,0 0.8565069688918701,-0.03688299179075749 l 0.9914300796526274 28.785478430825183" fill="red" stroke="none" /></svg>